M48
METRIC,LZ,000.000
;FILE_FORMAT=3:3
;TYPE=PLATED
;Layer: PTH_Through
;EasyEDA v6.5.51, 2025-10-24 11:51:23
;97615f8f373a41e584ce2743ba089a90,41e67a4a1722464fbd0118792d3d5ae6,10
;Gerber Generator version 0.2
;Holesize 1 = 0.301 mm
T01C0.301
;Holesize 2 = 0.310 mm
T02C0.310
;Holesize 3 = 0.600 mm
T03C0.600
;Holesize 4 = 0.889 mm
T04C0.889
;Holesize 5 = 1.101 mm
T05C1.101
;Holesize 6 = 3.200 mm
T06C3.200
%
G05
G90
T01
X001300Y-064300
X003400Y-064300
X005500Y-064300
X007500Y-064300
X007500Y-066400
X005500Y-066400
X003400Y-066400
X001300Y-066400
X007500Y-068500
X005500Y-068500
X003400Y-068500
X001300Y-068500
X007500Y-070600
X005500Y-070600
X003400Y-070600
X001300Y-070600
X007500Y-072700
X005500Y-072700
X003400Y-072700
X001300Y-072700
X069600Y-082300
X071700Y-082300
X073800Y-082300
X075800Y-082300
X069600Y-080200
X071700Y-080200
X073800Y-080200
X075800Y-080200
X069600Y-078100
X071700Y-078100
X073800Y-078100
X075800Y-078100
X069600Y-076000
X071700Y-076000
X073800Y-076000
X075800Y-076000
X075800Y-073900
X073800Y-073900
X071700Y-073900
X069600Y-073900
X067400Y-073900
X067400Y-076000
X067400Y-078100
X067400Y-080200
X067400Y-082300
T02
X026300Y-052200
X023600Y-049700
X030200Y-051000
X038200Y-059400
X046200Y-054800
X042418Y-054564
X043600Y-055800
X043600Y-053400
X041200Y-055800
X041200Y-053300
X005594Y-081200
X006356Y-081200
X007118Y-081200
X007880Y-081200
X008642Y-081200
X009404Y-081200
X010166Y-081200
X010928Y-081200
X011690Y-081200
X012452Y-081200
X013214Y-081200
X013976Y-081200
X014738Y-081200
X015500Y-081200
X016300Y-081300
X016300Y-079900
X016300Y-079200
X016300Y-078400
X016294Y-076880
X017056Y-076880
X017818Y-076880
X018580Y-076880
X019342Y-076880
X020104Y-076880
X022900Y-076900
X023700Y-076900
X024600Y-076900
X025438Y-076880
X026200Y-076880
X026200Y-077700
X026200Y-078600
X026200Y-079400
X026200Y-080300
X026200Y-081200
X027052Y-081210
X027814Y-081210
X028576Y-081210
X029338Y-081210
X030100Y-081210
X030952Y-081210
X031714Y-081210
X032700Y-080500
X033700Y-080500
X034700Y-080500
X035500Y-081300
X036262Y-081300
X037024Y-081300
X037786Y-081300
X005594Y-083800
X006356Y-083800
X007118Y-083800
X007880Y-083800
X008642Y-083800
X009404Y-083800
X010166Y-083800
X010928Y-083800
X011690Y-083800
X012452Y-083800
X013214Y-083800
X013976Y-083800
X014738Y-083800
X015500Y-083800
X016300Y-083800
X016300Y-084600
X016300Y-085500
X016300Y-086400
X016300Y-087300
X016294Y-088100
X017056Y-088100
X017818Y-088100
X018580Y-088100
X019342Y-088100
X020104Y-088100
X022900Y-088100
X023700Y-088100
X024500Y-088100
X025400Y-088100
X026200Y-088100
X026200Y-087300
X026200Y-086500
X026200Y-085600
X026200Y-084700
X026200Y-083900
X027060Y-083900
X027822Y-083900
X028584Y-083900
X029346Y-083900
X030108Y-083900
X030870Y-083900
X031632Y-083900
X032394Y-083900
X033156Y-083900
X033918Y-083900
X034680Y-083900
X035442Y-083900
X036204Y-083900
X036966Y-083900
X037728Y-083900
X038490Y-083900
X039252Y-083900
X040014Y-083900
X040776Y-083900
X041538Y-083900
X042300Y-083900
X043100Y-083900
X043900Y-083900
X044600Y-083600
X045100Y-083100
X045600Y-082600
X046000Y-081900
X046000Y-081100
X046000Y-080300
X046800Y-080300
X047600Y-080300
X049100Y-080300
X049100Y-079500
X049900Y-079500
X050700Y-079500
X051500Y-079500
X049100Y-076200
X049900Y-076900
X050700Y-076900
X048300Y-076200
X047400Y-076200
X046600Y-076200
X045800Y-076200
X049100Y-076900
X043300Y-076200
X045000Y-076200
X044100Y-076200
X045900Y-066400
X040600Y-070500
X040700Y-067800
X005562Y-040100
X006362Y-040100
X007162Y-040100
X007962Y-040100
X008762Y-040100
X009602Y-040106
X010364Y-040106
X011126Y-040106
X011888Y-040106
X012650Y-040106
X013412Y-040106
X014174Y-040106
X014936Y-040106
X015698Y-040106
X016460Y-040106
X017222Y-040106
X017984Y-040106
X018746Y-040106
X019508Y-040106
X020270Y-040106
X021032Y-040106
X021794Y-040106
X022556Y-040106
X023318Y-040106
X024080Y-040106
X024842Y-040106
X025604Y-040106
X026366Y-040106
X027128Y-040106
X027890Y-040106
X028652Y-040106
X029414Y-040106
X030176Y-040106
X030938Y-040106
X005588Y-042282
X006350Y-042282
X007112Y-042282
X007874Y-042282
X008636Y-042282
X009398Y-042282
X010160Y-042282
X010922Y-042282
X011684Y-042282
X012446Y-042282
X013208Y-042282
X013970Y-042282
X014732Y-042282
X015494Y-042282
X016256Y-042282
X017018Y-042282
X017780Y-042282
X018542Y-042282
X019304Y-042282
X020066Y-042282
X020828Y-042282
X021590Y-042282
X022352Y-042282
X023114Y-042282
X023876Y-042282
X024638Y-042282
X026162Y-042282
X026924Y-042282
X027686Y-042282
X028448Y-042282
X029210Y-042282
X029972Y-042282
X030734Y-042282
X033986Y-040100
X033224Y-040100
X032462Y-040100
X031700Y-040100
X036986Y-040100
X036224Y-040100
X035462Y-040100
X034700Y-040100
X040024Y-039600
X039262Y-039600
X038500Y-039600
X037738Y-039600
X043124Y-039600
X042362Y-039600
X041600Y-039600
X040838Y-039600
X044600Y-039600
X043838Y-039600
X025400Y-042300
X035310Y-042300
X034548Y-042300
X033786Y-042300
X032262Y-042300
X031500Y-042300
X033024Y-042300
X040010Y-042700
X039248Y-042700
X038486Y-042700
X036962Y-042300
X036200Y-042300
X037724Y-042700
X044500Y-042700
X043700Y-042700
X040900Y-043400
X040800Y-042700
X040900Y-044200
X040900Y-045000
X046300Y-050700
X040900Y-045800
X040900Y-046600
X042500Y-045800
X042500Y-045000
X042500Y-044200
X042500Y-043400
X042500Y-046600
X047700Y-039600
X048600Y-039600
X049400Y-039600
X045438Y-039600
X046200Y-039600
X045400Y-042700
X005600Y-043100
X004800Y-044800
X004000Y-044800
X003200Y-044800
X002324Y-044800
X001562Y-044800
X000800Y-044800
X005600Y-044800
X005600Y-037400
X001562Y-037400
X002324Y-037400
X003200Y-037400
X004000Y-037400
X004800Y-037400
X000800Y-037400
X005600Y-044000
X005600Y-038300
X005600Y-039200
X016300Y-077600
X040910Y-081300
X040148Y-081300
X039386Y-081300
X038624Y-081300
X043300Y-079400
X043300Y-081100
X042486Y-081300
X041724Y-081300
X052300Y-076900
X051500Y-076900
X052300Y-079500
X053100Y-079500
X053100Y-076900
X048300Y-080300
X005600Y-078600
X000800Y-078600
X001562Y-078600
X002324Y-078600
X003200Y-078600
X004000Y-078600
X004800Y-078600
X005600Y-086300
X000800Y-086300
X001562Y-086300
X002324Y-086300
X003200Y-086300
X004000Y-086300
X004800Y-086300
X057400Y-074000
X053100Y-074000
X054000Y-074000
X054900Y-074000
X055700Y-074000
X056500Y-074000
X057300Y-081900
X053100Y-081100
X053100Y-081900
X054000Y-081900
X054800Y-081900
X055600Y-081900
X056500Y-081900
X053100Y-074700
X053100Y-075400
X053100Y-076100
X053100Y-080300
X005600Y-079500
X005600Y-080400
X005600Y-084600
X005600Y-085400
X046100Y-042700
X042900Y-042700
X020106Y-078420
X020100Y-077700
X020106Y-079220
X020106Y-080020
X020106Y-080820
X020106Y-081620
X022906Y-078420
X022900Y-077700
X022906Y-079220
X022906Y-080020
X022906Y-080820
X022906Y-081620
X020106Y-083120
X020100Y-082400
X020100Y-083900
X020106Y-084720
X020100Y-085600
X020100Y-086500
X022906Y-083120
X022900Y-082400
X022900Y-084000
X022900Y-084800
X022900Y-085600
X022900Y-086500
X020100Y-087300
X022900Y-087300
X004600Y-048900
X008600Y-048900
X022300Y-060800
X058300Y-074000
X058300Y-074700
X058300Y-075400
X058300Y-076100
X058300Y-076900
X058300Y-077700
X058300Y-078500
X058300Y-079400
X058300Y-080200
X058300Y-081900
X058300Y-081100
X083900Y-078100
X087500Y-074000
X087400Y-082000
X033700Y-046200
X054300Y-044900
X050900Y-049000
X054300Y-049700
X050200Y-059500
X050900Y-054200
X047100Y-057500
X042600Y-050100
X045400Y-049400
X039500Y-063500
X041900Y-062100
X045050Y-063550
X048100Y-063100
X048100Y-060600
X052300Y-061500
X054300Y-054200
X054300Y-059100
X050400Y-066300
X053700Y-067700
X052500Y-071100
X049100Y-071900
X049100Y-074800
X039900Y-071900
X039900Y-074800
X039900Y-078200
X039000Y-058000
X037700Y-045900
X021500Y-055800
X021500Y-048000
X029400Y-046400
X031200Y-049300
X031800Y-051600
X031800Y-052900
X023900Y-062900
X031400Y-061700
X027600Y-070500
X022300Y-071100
X018600Y-071100
X012900Y-059100
X009800Y-068600
X044800Y-074800
X064300Y-070500
X064300Y-086500
X063700Y-094300
X064300Y-079500
X056200Y-071200
X061300Y-068100
X035700Y-068700
X008300Y-090600
X013500Y-090500
X029000Y-090500
X054300Y-041100
X021500Y-045200
X025000Y-045200
X036800Y-050100
X043300Y-077800
X043300Y-078600
X043300Y-077000
X046100Y-046100
X026900Y-063500
X029500Y-063500
X019400Y-068500
X022300Y-057500
X022200Y-064000
X027700Y-054600
X040900Y-049100
X042600Y-049100
X041100Y-050100
X045000Y-051600
X045000Y-057600
X039900Y-057600
X047100Y-052500
X047100Y-055500
X094100Y-069500
X094000Y-063400
X094000Y-057400
X081000Y-094200
X075100Y-094100
X005600Y-030700
X018000Y-030700
X024900Y-030700
X034000Y-030700
X047100Y-030700
X070600Y-030700
X080200Y-030700
X094000Y-042000
X094000Y-049800
X094200Y-086600
X003300Y-089500
X006300Y-094200
X010900Y-094200
X016600Y-094200
X024700Y-094200
X033100Y-094200
X044000Y-094200
X000800Y-048900
X000800Y-061500
X000800Y-074800
X083900Y-075600
X083900Y-080600
X085300Y-074000
X085300Y-082000
X089300Y-082000
X089300Y-074000
X034900Y-059600
X038200Y-061700
X034900Y-057300
X033100Y-087600
X044000Y-087600
X050300Y-084800
X032300Y-071900
X007500Y-061500
X071700Y-060500
X057100Y-060500
X086200Y-060500
X057100Y-065200
X057100Y-086500
X086200Y-065200
X086200Y-087600
X065500Y-060500
X079300Y-060500
X086200Y-070200
X001000Y-091800
X005500Y-091800
X003300Y-094100
X000800Y-088400
X091700Y-035700
X093900Y-033300
X089400Y-033300
X091700Y-031100
X011900Y-030700
X057100Y-055700
X057100Y-049800
X057100Y-039700
X007500Y-074800
X000800Y-076800
X061100Y-081900
X058400Y-068000
X058400Y-071200
X003300Y-031000
X001000Y-033300
X005500Y-033300
X003300Y-035600
X053200Y-033300
X055500Y-031100
X057700Y-033300
X055500Y-035700
X053200Y-091800
X055496Y-089500
X057700Y-091800
X055496Y-094100
X089400Y-091800
X091700Y-089500
X093900Y-091800
X091700Y-094100
X092300Y-074000
X092300Y-082000
X043300Y-080200
X046900Y-039600
X046800Y-042700
X057100Y-045800
X057100Y-083700
X016300Y-080600
X062100Y-045800
X062100Y-055700
X062100Y-030700
X050300Y-039600
X051300Y-039600
X051300Y-040400
X051300Y-041300
X051300Y-042200
X051300Y-043100
X051300Y-044000
X051300Y-044900
X051300Y-045900
X048700Y-045400
X047600Y-046100
X046800Y-043900
X044000Y-044500
X044700Y-044000
X045700Y-043900
X043400Y-045300
X045100Y-046400
X052500Y-045900
X054300Y-047600
X053700Y-046500
X047100Y-049400
T03
X060000Y-092800
X062500Y-092800
X023900Y-064699
X052499Y-064698
X033700Y-062299
X033700Y-047798
X052500Y-047798
T04
X031496Y-056342
X031496Y-058882
X028956Y-056342
X028956Y-058882
X026416Y-056342
X026416Y-058882
T05
X039159Y-041199
X041699Y-041199
X044239Y-041199
X055500Y-066830
X055500Y-069370
T06
X091700Y-033400
X003300Y-091800
X003300Y-033300
X055500Y-033400
X055496Y-091800
X091700Y-091800
M30
