G04 Layer: BoardOutlineLayer*
G04 EasyEDA v6.5.51, 2025-10-24 11:51:23*
G04 97615f8f373a41e584ce2743ba089a90,41e67a4a1722464fbd0118792d3d5ae6,10*
G04 Gerber Generator version 0.2*
G04 Scale: 100 percent, Rotated: No, Reflected: No *
G04 Dimensions in millimeters *
G04 leading zeros omitted , absolute positions ,4 integer and 5 decimal *
%FSLAX45Y45*%
%MOMM*%

%ADD10C,0.2000*%
%ADD11C,0.2540*%
%ADD12C,0.0181*%
D10*
X6089987Y-5419989D02*
G01*
X6089987Y-4659988D01*
X5889988Y-4669990D02*
G01*
X5889988Y-5419986D01*
X6089987Y-4369991D02*
G01*
X6089987Y-3329985D01*
X5889988Y-3329985D02*
G01*
X5889988Y-4369991D01*
X6089987Y-6649986D02*
G01*
X6089987Y-5719986D01*
X5889988Y-5719986D02*
G01*
X5889988Y-6649986D01*
X6090051Y-7999938D02*
G01*
X6089987Y-7229985D01*
X5889988Y-7229985D02*
G01*
X5890039Y-7999938D01*
X5889988Y-8329983D02*
G01*
X5890039Y-9029936D01*
X6090051Y-9029936D02*
G01*
X6090038Y-8329929D01*
D11*
X0Y-2999994D02*
G01*
X9499981Y-2999994D01*
X9499981Y-9509980D02*
G01*
X2Y-9509980D01*
X9499981Y-2999994D02*
G01*
X9499981Y-9509983D01*
X0Y-2999994D02*
G01*
X0Y-9509983D01*
D10*
G75*
G01*
X6090036Y-8329935D02*
G03*
X5890057Y-8329879I-99989J740D01*
G75*
G01*
X6089983Y-5719983D02*
G03*
X5890003Y-5719928I-99990J740D01*
G75*
G01*
X5889983Y-5419984D02*
G03*
X6090003Y-5419984I100010J713D01*
G75*
G01*
X6089988Y-4659991D02*
G03*
X5890009Y-4659935I-99990J740D01*
G75*
G01*
X6089983Y-3329988D02*
G03*
X5890003Y-3329932I-99990J740D01*
G75*
G01*
X5890036Y-9029934D02*
G03*
X6090056Y-9029934I100010J713D01*
G75*
G01*
X5889988Y-6649987D02*
G03*
X6090008Y-6649987I100010J713D01*
G75*
G01*
X6089988Y-7229986D02*
G03*
X5890009Y-7229930I-99990J741D01*
G75*
G01*
X5890036Y-7999936D02*
G03*
X6090056Y-7999936I100010J713D01*
G75*
G01*
X5889988Y-4369991D02*
G03*
X6090008Y-4369991I100010J713D01*
D11*
X-9999Y-8579982D02*
G01*
X-9999Y-7919984D01*
X9499981Y-7469985D02*
G01*
X9499981Y-8129983D01*
X9390Y-4445805D02*
G01*
X9390Y-3785806D01*

%LPD*%
M02*
