G04 Layer: TopSolderMaskLayer*
G04 EasyEDA v6.5.51, 2025-10-24 11:51:23*
G04 97615f8f373a41e584ce2743ba089a90,41e67a4a1722464fbd0118792d3d5ae6,10*
G04 Gerber Generator version 0.2*
G04 Scale: 100 percent, Rotated: No, Reflected: No *
G04 Dimensions in millimeters *
G04 leading zeros omitted , absolute positions ,4 integer and 5 decimal *
%FSLAX45Y45*%
%MOMM*%

%AMMACRO1*4,1,8,-6.271,-6.3008,-6.3008,-6.271,-6.3008,6.2711,-6.271,6.3008,6.271,6.3008,6.3008,6.2711,6.3008,-6.271,6.271,-6.3008,-6.271,-6.3008,0*%
%AMMACRO2*4,1,8,-4.021,-5.5508,-4.0508,-5.521,-4.0508,5.521,-4.021,5.5508,4.021,5.5508,4.0508,5.521,4.0508,-5.521,4.021,-5.5508,-4.021,-5.5508,0*%
%AMMACRO3*4,1,8,-0.8707,-0.9,-0.9,-0.8707,-0.9,0.8707,-0.8707,0.9,0.8707,0.9,0.9,0.8707,0.9,-0.8707,0.8707,-0.9,-0.8707,-0.9,0*%
%AMMACRO4*4,1,8,-0.6211,-0.7508,-0.6508,-0.721,-0.6508,0.7211,-0.6211,0.7508,0.621,0.7508,0.6508,0.7211,0.6508,-0.721,0.621,-0.7508,-0.6211,-0.7508,0*%
%AMMACRO5*4,1,8,-0.9211,-0.9508,-0.9508,-0.921,-0.9508,0.9211,-0.9211,0.9508,0.921,0.9508,0.9508,0.9211,0.9508,-0.921,0.921,-0.9508,-0.9211,-0.9508,0*%
%AMMACRO6*4,1,8,-2.3211,-0.8508,-2.3508,-0.821,-2.3508,0.8211,-2.3211,0.8508,2.321,0.8508,2.3508,0.8211,2.3508,-0.821,2.321,-0.8508,-2.3211,-0.8508,0*%
%AMMACRO7*4,1,8,-0.7261,-0.7258,-0.7558,-0.696,-0.7558,0.6961,-0.7261,0.7258,0.726,0.7258,0.7558,0.6961,0.7558,-0.696,0.726,-0.7258,-0.7261,-0.7258,0*%
%AMMACRO8*4,1,8,-0.3711,-0.6758,-0.4008,-0.646,-0.4008,0.646,-0.3711,0.6758,0.371,0.6758,0.4008,0.646,0.4008,-0.646,0.371,-0.6758,-0.3711,-0.6758,0*%
%AMMACRO9*4,1,8,-1.0211,-1.5508,-1.0508,-1.521,-1.0508,1.5211,-1.0211,1.5508,1.021,1.5508,1.0508,1.5211,1.0508,-1.521,1.021,-1.5508,-1.0211,-1.5508,0*%
%AMMACRO10*4,1,8,-0.6623,-1.7788,-0.6921,-1.749,-0.6921,1.749,-0.6623,1.7788,0.6623,1.7788,0.6921,1.749,0.6921,-1.749,0.6623,-1.7788,-0.6623,-1.7788,0*%
%AMMACRO11*4,1,8,-1.749,-0.6921,-1.7788,-0.6623,-1.7788,0.6623,-1.749,0.6921,1.749,0.6921,1.7788,0.6623,1.7788,-0.6623,1.749,-0.6921,-1.749,-0.6921,0*%
%AMMACRO12*4,1,8,-0.1211,-0.1883,-0.1508,-0.1585,-0.1508,0.1586,-0.1211,0.1883,0.121,0.1883,0.1508,0.1586,0.1508,-0.1585,0.121,-0.1883,-0.1211,-0.1883,0*%
%AMMACRO13*4,1,8,-0.1211,-0.1883,-0.1508,-0.1585,-0.1508,0.1585,-0.1211,0.1883,0.121,0.1883,0.1508,0.1585,0.1508,-0.1585,0.121,-0.1883,-0.1211,-0.1883,0*%
%AMMACRO14*4,1,8,-2.4211,-0.6508,-2.4508,-0.621,-2.4508,0.6211,-2.4211,0.6508,2.421,0.6508,2.4508,0.6211,2.4508,-0.621,2.421,-0.6508,-2.4211,-0.6508,0*%
%AMMACRO15*4,1,8,-0.846,-1.3208,-0.8758,-1.291,-0.8758,1.2911,-0.846,1.3208,0.846,1.3208,0.8758,1.2911,0.8758,-1.291,0.846,-1.3208,-0.846,-1.3208,0*%
%AMMACRO16*4,1,8,-0.6961,-0.7558,-0.7258,-0.726,-0.7258,0.7261,-0.6961,0.7558,0.696,0.7558,0.7258,0.7261,0.7258,-0.726,0.696,-0.7558,-0.6961,-0.7558,0*%
%AMMACRO17*4,1,8,-1.1136,-1.3468,-1.1433,-1.317,-1.1433,1.3171,-1.1136,1.3468,1.1135,1.3468,1.1433,1.3171,1.1433,-1.317,1.1135,-1.3468,-1.1136,-1.3468,0*%
%AMMACRO18*4,1,8,-0.511,-1.2808,-0.5408,-1.251,-0.5408,1.2511,-0.511,1.2808,0.511,1.2808,0.5408,1.2511,0.5408,-1.251,0.511,-1.2808,-0.511,-1.2808,0*%
%AMMACRO19*4,1,8,-0.7095,-0.6171,-0.7393,-0.5873,-0.7393,0.5873,-0.7095,0.6171,0.7095,0.6171,0.7393,0.5873,0.7393,-0.5873,0.7095,-0.6171,-0.7095,-0.6171,0*%
%AMMACRO20*4,1,8,-0.5873,-0.7393,-0.6171,-0.7095,-0.6171,0.7095,-0.5873,0.7393,0.5873,0.7393,0.6171,0.7095,0.6171,-0.7095,0.5873,-0.7393,-0.5873,-0.7393,0*%
%AMMACRO21*4,1,8,-1.7711,-0.8008,-1.8008,-0.771,-1.8008,0.7711,-1.7711,0.8008,1.771,0.8008,1.8008,0.7711,1.8008,-0.771,1.771,-0.8008,-1.7711,-0.8008,0*%
%AMMACRO22*4,1,8,-0.357,-0.8383,-0.3868,-0.8085,-0.3868,0.8086,-0.357,0.8383,0.357,0.8383,0.3868,0.8086,0.3868,-0.8085,0.357,-0.8383,-0.357,-0.8383,0*%
%AMMACRO23*4,1,8,-0.5711,-1.1508,-0.6008,-1.121,-0.6008,1.1211,-0.5711,1.1508,0.571,1.1508,0.6008,1.1211,0.6008,-1.121,0.571,-1.1508,-0.5711,-1.1508,0*%
%AMMACRO24*4,1,8,-0.1706,-0.45,-0.1999,-0.4207,-0.1999,0.4207,-0.1706,0.45,0.1705,0.45,0.1999,0.4207,0.1999,-0.4207,0.1705,-0.45,-0.1706,-0.45,0*%
%AMMACRO25*4,1,8,-0.4207,-0.2,-0.45,-0.1707,-0.45,0.1708,-0.4207,0.2,0.4207,0.2,0.45,0.1708,0.45,-0.1707,0.4207,-0.2,-0.4207,-0.2,0*%
%AMMACRO26*4,1,8,-1.5707,-1.6,-1.6,-1.5707,-1.6,1.5707,-1.5707,1.6,1.5707,1.6,1.6,1.5707,1.6,-1.5707,1.5707,-1.6,-1.5707,-1.6,0*%
%AMMACRO27*4,1,8,-0.1961,-0.4408,-0.2258,-0.411,-0.2258,0.411,-0.1961,0.4408,0.196,0.4408,0.2258,0.411,0.2258,-0.411,0.196,-0.4408,-0.1961,-0.4408,0*%
%AMMACRO28*4,1,8,-0.3039,-0.3208,-0.3336,-0.291,-0.3336,0.2911,-0.3039,0.3208,0.3038,0.3208,0.3336,0.2911,0.3336,-0.291,0.3038,-0.3208,-0.3039,-0.3208,0*%
%AMMACRO29*4,1,8,-0.4161,-0.3208,-0.4458,-0.291,-0.4458,0.2911,-0.4161,0.3208,0.4161,0.3208,0.4458,0.2911,0.4458,-0.291,0.4161,-0.3208,-0.4161,-0.3208,0*%
%AMMACRO30*4,1,8,-0.2911,-0.4458,-0.3208,-0.4161,-0.3208,0.4161,-0.2911,0.4458,0.291,0.4458,0.3208,0.4161,0.3208,-0.4161,0.291,-0.4458,-0.2911,-0.4458,0*%
%AMMACRO31*4,1,8,-0.2911,-0.3336,-0.3208,-0.3038,-0.3208,0.3039,-0.2911,0.3336,0.291,0.3336,0.3208,0.3039,0.3208,-0.3038,0.291,-0.3336,-0.2911,-0.3336,0*%
%AMMACRO32*4,1,8,-0.4211,-0.4508,-0.4508,-0.421,-0.4508,0.4211,-0.4211,0.4508,0.421,0.4508,0.4508,0.4211,0.4508,-0.421,0.421,-0.4508,-0.4211,-0.4508,0*%
%AMMACRO33*4,1,8,-2.0211,-0.651,-2.051,-0.6211,-2.051,0.6211,-2.0211,0.651,2.0211,0.651,2.051,0.6211,2.051,-0.6211,2.0211,-0.651,-2.0211,-0.651,0*%
%AMMACRO34*4,1,8,-2.0211,-1.151,-2.051,-1.1211,-2.051,1.1211,-2.0211,1.151,2.0211,1.151,2.051,1.1211,2.051,-1.1211,2.0211,-1.151,-2.0211,-1.151,0*%
%AMMACRO35*4,1,8,-0.8085,-0.8382,-0.8382,-0.8084,-0.8382,0.8085,-0.8085,0.8382,0.8084,0.8382,0.8382,0.8085,0.8382,-0.8084,0.8084,-0.8382,-0.8085,-0.8382,0*%
%AMMACRO36*4,1,8,-0.8211,-0.8508,-0.8508,-0.821,-0.8508,0.8211,-0.8211,0.8508,0.821,0.8508,0.8508,0.8211,0.8508,-0.821,0.821,-0.8508,-0.8211,-0.8508,0*%
%ADD10C,0.3000*%
%ADD11C,0.2032*%
%ADD12MACRO1*%
%ADD13MACRO2*%
%ADD14MACRO3*%
%ADD15C,1.8000*%
%ADD16MACRO4*%
%ADD17C,1.9016*%
%ADD18MACRO5*%
%ADD19C,0.0104*%
%ADD20MACRO6*%
%ADD21MACRO7*%
%ADD22MACRO8*%
%ADD23MACRO9*%
%ADD24MACRO10*%
%ADD25MACRO11*%
%ADD26MACRO12*%
%ADD27MACRO13*%
%ADD28MACRO14*%
%ADD29MACRO15*%
%ADD30MACRO16*%
%ADD31MACRO17*%
%ADD32MACRO18*%
%ADD33MACRO19*%
%ADD34MACRO20*%
%ADD35MACRO21*%
%ADD36MACRO22*%
%ADD37MACRO23*%
%ADD38O,2.351608X0.731596*%
%ADD39MACRO24*%
%ADD40MACRO25*%
%ADD41MACRO26*%
%ADD42MACRO27*%
%ADD43MACRO28*%
%ADD44MACRO29*%
%ADD45MACRO30*%
%ADD46MACRO31*%
%ADD47MACRO32*%
%ADD48MACRO33*%
%ADD49MACRO34*%
%ADD50C,1.7016*%
%ADD51C,1.6764*%
%ADD52MACRO35*%
%ADD53C,6.1016*%
%ADD54MACRO36*%

%LPD*%
G36*
X6199581Y-5847842D02*
G01*
X6193129Y-5848197D01*
X6187033Y-5849162D01*
X6181293Y-5850737D01*
X6175959Y-5852922D01*
X6171082Y-5855614D01*
X6166713Y-5858814D01*
X6162903Y-5862472D01*
X6159652Y-5866587D01*
X6157112Y-5871108D01*
X6155182Y-5875985D01*
X6154013Y-5881217D01*
X6153607Y-5886704D01*
X6154369Y-5894273D01*
X6156401Y-5900877D01*
X6159550Y-5906566D01*
X6163614Y-5911443D01*
X6168237Y-5915609D01*
X6173317Y-5919114D01*
X6178600Y-5922060D01*
X6183833Y-5924550D01*
X6210604Y-5936284D01*
X6215430Y-5938672D01*
X6219748Y-5941212D01*
X6223457Y-5944057D01*
X6226556Y-5947359D01*
X6228892Y-5951220D01*
X6230315Y-5955893D01*
X6230823Y-5961380D01*
X6230264Y-5966866D01*
X6228588Y-5971844D01*
X6225844Y-5976213D01*
X6222085Y-5979922D01*
X6217361Y-5982919D01*
X6211773Y-5985154D01*
X6205321Y-5986576D01*
X6198057Y-5987034D01*
X6192215Y-5986678D01*
X6186474Y-5985713D01*
X6180836Y-5984087D01*
X6175451Y-5981903D01*
X6170218Y-5979210D01*
X6165342Y-5976010D01*
X6160719Y-5972352D01*
X6156401Y-5968238D01*
X6146241Y-5979668D01*
X6151321Y-5984544D01*
X6156807Y-5988913D01*
X6162700Y-5992672D01*
X6168999Y-5995873D01*
X6175705Y-5998413D01*
X6182817Y-6000242D01*
X6190234Y-6001359D01*
X6198057Y-6001766D01*
X6205474Y-6001410D01*
X6212332Y-6000292D01*
X6218732Y-5998565D01*
X6224524Y-5996178D01*
X6229756Y-5993180D01*
X6234379Y-5989726D01*
X6238392Y-5985713D01*
X6241745Y-5981293D01*
X6244386Y-5976467D01*
X6246266Y-5971336D01*
X6247434Y-5965850D01*
X6247841Y-5960110D01*
X6247231Y-5952388D01*
X6245453Y-5945632D01*
X6242608Y-5939790D01*
X6238849Y-5934760D01*
X6234328Y-5930442D01*
X6229096Y-5926683D01*
X6223304Y-5923381D01*
X6217107Y-5920486D01*
X6191199Y-5909411D01*
X6182614Y-5904941D01*
X6178804Y-5902198D01*
X6175502Y-5898997D01*
X6172911Y-5895187D01*
X6171234Y-5890717D01*
X6170625Y-5885434D01*
X6171184Y-5880455D01*
X6172758Y-5875985D01*
X6175248Y-5872073D01*
X6178651Y-5868771D01*
X6182868Y-5866130D01*
X6187795Y-5864199D01*
X6193383Y-5862980D01*
X6199581Y-5862574D01*
X6204762Y-5862828D01*
X6209690Y-5863590D01*
X6214262Y-5864809D01*
X6218631Y-5866434D01*
X6222746Y-5868517D01*
X6226657Y-5870956D01*
X6230366Y-5873699D01*
X6233871Y-5876798D01*
X6242761Y-5866130D01*
X6238748Y-5862269D01*
X6234226Y-5858764D01*
X6229350Y-5855665D01*
X6224066Y-5852972D01*
X6218377Y-5850839D01*
X6212433Y-5849213D01*
X6206134Y-5848197D01*
G37*
G36*
X6555689Y-5847842D02*
G01*
X6551472Y-5847994D01*
X6547256Y-5848502D01*
X6543141Y-5849366D01*
X6539077Y-5850585D01*
X6535166Y-5852160D01*
X6531356Y-5854141D01*
X6527698Y-5856528D01*
X6524193Y-5859322D01*
X6520840Y-5862523D01*
X6517741Y-5866130D01*
X6514795Y-5870194D01*
X6512102Y-5874715D01*
X6509664Y-5879744D01*
X6507530Y-5885180D01*
X6505651Y-5891123D01*
X6504025Y-5897575D01*
X6502755Y-5904534D01*
X6501841Y-5912053D01*
X6501282Y-5920079D01*
X6501079Y-5928614D01*
X6501491Y-5939282D01*
X6517081Y-5939282D01*
X6520992Y-5934354D01*
X6525006Y-5930188D01*
X6529070Y-5926785D01*
X6533134Y-5924042D01*
X6537198Y-5922010D01*
X6541160Y-5920587D01*
X6544970Y-5919724D01*
X6548577Y-5919470D01*
X6555282Y-5920079D01*
X6560972Y-5921959D01*
X6565798Y-5924905D01*
X6569709Y-5928918D01*
X6572707Y-5933897D01*
X6574840Y-5939739D01*
X6576110Y-5946394D01*
X6576517Y-5953760D01*
X6576009Y-5961176D01*
X6574536Y-5967882D01*
X6572148Y-5973826D01*
X6568998Y-5978855D01*
X6565138Y-5982970D01*
X6560667Y-5986018D01*
X6555740Y-5987897D01*
X6550355Y-5988558D01*
X6545580Y-5988202D01*
X6541160Y-5987084D01*
X6537096Y-5985306D01*
X6533388Y-5982766D01*
X6530035Y-5979617D01*
X6527088Y-5975756D01*
X6524447Y-5971235D01*
X6522212Y-5966053D01*
X6520383Y-5960262D01*
X6518909Y-5953861D01*
X6517792Y-5946851D01*
X6517081Y-5939282D01*
X6501491Y-5939282D01*
X6502044Y-5945682D01*
X6503162Y-5953404D01*
X6504736Y-5960516D01*
X6506718Y-5967069D01*
X6509105Y-5973064D01*
X6511848Y-5978499D01*
X6514947Y-5983376D01*
X6518402Y-5987694D01*
X6522161Y-5991402D01*
X6526225Y-5994552D01*
X6530543Y-5997143D01*
X6535166Y-5999175D01*
X6539992Y-6000597D01*
X6545072Y-6001461D01*
X6550355Y-6001766D01*
X6555943Y-6001359D01*
X6561328Y-6000191D01*
X6566458Y-5998311D01*
X6571284Y-5995720D01*
X6575755Y-5992418D01*
X6579819Y-5988507D01*
X6583375Y-5984036D01*
X6586423Y-5978956D01*
X6588912Y-5973368D01*
X6590741Y-5967272D01*
X6591909Y-5960719D01*
X6592265Y-5953760D01*
X6591960Y-5946343D01*
X6590995Y-5939586D01*
X6589369Y-5933440D01*
X6587185Y-5927953D01*
X6584442Y-5923076D01*
X6581140Y-5918911D01*
X6577330Y-5915355D01*
X6572961Y-5912459D01*
X6568186Y-5910173D01*
X6562902Y-5908598D01*
X6557213Y-5907582D01*
X6551117Y-5907278D01*
X6546596Y-5907582D01*
X6542074Y-5908548D01*
X6537502Y-5910021D01*
X6533032Y-5912104D01*
X6528663Y-5914694D01*
X6524498Y-5917793D01*
X6520535Y-5921349D01*
X6516827Y-5925312D01*
X6517182Y-5916777D01*
X6517894Y-5908954D01*
X6518960Y-5901791D01*
X6520383Y-5895340D01*
X6522110Y-5889498D01*
X6524142Y-5884265D01*
X6526428Y-5879642D01*
X6529019Y-5875629D01*
X6531813Y-5872175D01*
X6534810Y-5869228D01*
X6538010Y-5866790D01*
X6541363Y-5864860D01*
X6544919Y-5863386D01*
X6548577Y-5862370D01*
X6552336Y-5861761D01*
X6556197Y-5861558D01*
X6562852Y-5862370D01*
X6569202Y-5864606D01*
X6575044Y-5868212D01*
X6580073Y-5872988D01*
X6589471Y-5862574D01*
X6586321Y-5859526D01*
X6582867Y-5856732D01*
X6579158Y-5854242D01*
X6575145Y-5852058D01*
X6570827Y-5850280D01*
X6566153Y-5848959D01*
X6561124Y-5848146D01*
G37*
G36*
X6876745Y-5847842D02*
G01*
X6870547Y-5848197D01*
X6864705Y-5849213D01*
X6859219Y-5850788D01*
X6854037Y-5852871D01*
X6849109Y-5855462D01*
X6844487Y-5858459D01*
X6840067Y-5861761D01*
X6835851Y-5865368D01*
X6844995Y-5876036D01*
X6851700Y-5870244D01*
X6859219Y-5865622D01*
X6867398Y-5862523D01*
X6876237Y-5861304D01*
X6881977Y-5861812D01*
X6887057Y-5863183D01*
X6891477Y-5865317D01*
X6895185Y-5868212D01*
X6898182Y-5871768D01*
X6900367Y-5875934D01*
X6901688Y-5880658D01*
X6902145Y-5885942D01*
X6901942Y-5890006D01*
X6901230Y-5893866D01*
X6900011Y-5897524D01*
X6898233Y-5900928D01*
X6895896Y-5904077D01*
X6892950Y-5906871D01*
X6889343Y-5909360D01*
X6885076Y-5911443D01*
X6880098Y-5913120D01*
X6874357Y-5914390D01*
X6867855Y-5915152D01*
X6860489Y-5915406D01*
X6860489Y-5928360D01*
X6868668Y-5928614D01*
X6875983Y-5929376D01*
X6882434Y-5930595D01*
X6888022Y-5932271D01*
X6892848Y-5934354D01*
X6896963Y-5936894D01*
X6900316Y-5939739D01*
X6903008Y-5942990D01*
X6904990Y-5946597D01*
X6906412Y-5950458D01*
X6907225Y-5954674D01*
X6907479Y-5959094D01*
X6906920Y-5965444D01*
X6905193Y-5971133D01*
X6902450Y-5976061D01*
X6898741Y-5980226D01*
X6894220Y-5983579D01*
X6888937Y-5986018D01*
X6882993Y-5987542D01*
X6876491Y-5988050D01*
X6870141Y-5987694D01*
X6864350Y-5986627D01*
X6859066Y-5984951D01*
X6854291Y-5982766D01*
X6849922Y-5980176D01*
X6845909Y-5977229D01*
X6838899Y-5970778D01*
X6830263Y-5981446D01*
X6834124Y-5985306D01*
X6838492Y-5989015D01*
X6843369Y-5992469D01*
X6848856Y-5995517D01*
X6854952Y-5998108D01*
X6861759Y-6000038D01*
X6869226Y-6001308D01*
X6877507Y-6001766D01*
X6883908Y-6001461D01*
X6890003Y-6000496D01*
X6895744Y-5998921D01*
X6901129Y-5996686D01*
X6906107Y-5993942D01*
X6910628Y-5990590D01*
X6914540Y-5986678D01*
X6917893Y-5982258D01*
X6920585Y-5977331D01*
X6922617Y-5971895D01*
X6923836Y-5966002D01*
X6924243Y-5959602D01*
X6923633Y-5952236D01*
X6921753Y-5945530D01*
X6918858Y-5939586D01*
X6914946Y-5934354D01*
X6910273Y-5929934D01*
X6904888Y-5926277D01*
X6898894Y-5923483D01*
X6892493Y-5921502D01*
X6892493Y-5920740D01*
X6898182Y-5918352D01*
X6903313Y-5915355D01*
X6907885Y-5911748D01*
X6911746Y-5907582D01*
X6914896Y-5902756D01*
X6917232Y-5897372D01*
X6918655Y-5891326D01*
X6919163Y-5884672D01*
X6918807Y-5879033D01*
X6917740Y-5873851D01*
X6915962Y-5869076D01*
X6913575Y-5864758D01*
X6910628Y-5860897D01*
X6907123Y-5857494D01*
X6903110Y-5854598D01*
X6898589Y-5852210D01*
X6893661Y-5850331D01*
X6888378Y-5848959D01*
X6882739Y-5848146D01*
G37*
G36*
X6277559Y-5850382D02*
G01*
X6277559Y-5999226D01*
X6294577Y-5999226D01*
X6294577Y-5951220D01*
X6320993Y-5919724D01*
X6366713Y-5999226D01*
X6385509Y-5999226D01*
X6331915Y-5906770D01*
X6378651Y-5850382D01*
X6359347Y-5850382D01*
X6294831Y-5927090D01*
X6294577Y-5927090D01*
X6294577Y-5850382D01*
G37*
G36*
X6383223Y-5850382D02*
G01*
X6427927Y-5940806D01*
X6427927Y-5999226D01*
X6444691Y-5999226D01*
X6444691Y-5940806D01*
X6489395Y-5850382D01*
X6472123Y-5850382D01*
X6436817Y-5926074D01*
X6436055Y-5926074D01*
X6401257Y-5850382D01*
G37*
G36*
X6623507Y-5850382D02*
G01*
X6618681Y-5919470D01*
X6627825Y-5925312D01*
X6634022Y-5921451D01*
X6639966Y-5918657D01*
X6646214Y-5916980D01*
X6653225Y-5916422D01*
X6660134Y-5917031D01*
X6666331Y-5918809D01*
X6671767Y-5921756D01*
X6676339Y-5925769D01*
X6680047Y-5930798D01*
X6682740Y-5936792D01*
X6684416Y-5943701D01*
X6684975Y-5951474D01*
X6684314Y-5959449D01*
X6682384Y-5966612D01*
X6679387Y-5972860D01*
X6675374Y-5978144D01*
X6670497Y-5982360D01*
X6664959Y-5985459D01*
X6658813Y-5987389D01*
X6652209Y-5988050D01*
X6645960Y-5987694D01*
X6640271Y-5986627D01*
X6635089Y-5985052D01*
X6630365Y-5982919D01*
X6626047Y-5980379D01*
X6622135Y-5977534D01*
X6618478Y-5974486D01*
X6615125Y-5971286D01*
X6606743Y-5982208D01*
X6610654Y-5985916D01*
X6615023Y-5989472D01*
X6619900Y-5992774D01*
X6625285Y-5995720D01*
X6631330Y-5998210D01*
X6638036Y-6000089D01*
X6645503Y-6001359D01*
X6653733Y-6001766D01*
X6659880Y-6001410D01*
X6665874Y-6000242D01*
X6671665Y-5998413D01*
X6677152Y-5995822D01*
X6682282Y-5992520D01*
X6687007Y-5988558D01*
X6691172Y-5983884D01*
X6694779Y-5978601D01*
X6697725Y-5972606D01*
X6699910Y-5966002D01*
X6701281Y-5958789D01*
X6701739Y-5950966D01*
X6701332Y-5943142D01*
X6700164Y-5936081D01*
X6698234Y-5929731D01*
X6695643Y-5924092D01*
X6692442Y-5919165D01*
X6688683Y-5914948D01*
X6684416Y-5911392D01*
X6679641Y-5908497D01*
X6674561Y-5906262D01*
X6669074Y-5904738D01*
X6663283Y-5903772D01*
X6657289Y-5903468D01*
X6650685Y-5903925D01*
X6644741Y-5905195D01*
X6639255Y-5907227D01*
X6633921Y-5909818D01*
X6637985Y-5864606D01*
X6694627Y-5864606D01*
X6694627Y-5850382D01*
G37*
G36*
X6768033Y-5850382D02*
G01*
X6761835Y-5853734D01*
X6754825Y-5856528D01*
X6746900Y-5858764D01*
X6737807Y-5860542D01*
X6737807Y-5871464D01*
X6763969Y-5871464D01*
X6763969Y-5985510D01*
X6730695Y-5985510D01*
X6730695Y-5999226D01*
X6810705Y-5999226D01*
X6810705Y-5985510D01*
X6780479Y-5985510D01*
X6780479Y-5850382D01*
G37*
G36*
X6958025Y-5850382D02*
G01*
X6953453Y-5919470D01*
X6962597Y-5925312D01*
X6968744Y-5921451D01*
X6974636Y-5918657D01*
X6980732Y-5916980D01*
X6987743Y-5916422D01*
X6994652Y-5917031D01*
X7000900Y-5918809D01*
X7006386Y-5921756D01*
X7011009Y-5925769D01*
X7014718Y-5930798D01*
X7017461Y-5936792D01*
X7019188Y-5943701D01*
X7019747Y-5951474D01*
X7019086Y-5959449D01*
X7017156Y-5966612D01*
X7014108Y-5972860D01*
X7010044Y-5978144D01*
X7005167Y-5982360D01*
X6999630Y-5985459D01*
X6993534Y-5987389D01*
X6986981Y-5988050D01*
X6980631Y-5987694D01*
X6974890Y-5986627D01*
X6969658Y-5985052D01*
X6964934Y-5982919D01*
X6960666Y-5980379D01*
X6956755Y-5977534D01*
X6953199Y-5974486D01*
X6949897Y-5971286D01*
X6941515Y-5982208D01*
X6945426Y-5985916D01*
X6949744Y-5989472D01*
X6954570Y-5992774D01*
X6959955Y-5995720D01*
X6966000Y-5998210D01*
X6972706Y-6000089D01*
X6980174Y-6001359D01*
X6988505Y-6001766D01*
X6994601Y-6001410D01*
X7000544Y-6000242D01*
X7006285Y-5998413D01*
X7011720Y-5995822D01*
X7016851Y-5992520D01*
X7021525Y-5988558D01*
X7025741Y-5983884D01*
X7029297Y-5978601D01*
X7032244Y-5972606D01*
X7034428Y-5966002D01*
X7035800Y-5958789D01*
X7036257Y-5950966D01*
X7035850Y-5943142D01*
X7034682Y-5936081D01*
X7032802Y-5929731D01*
X7030212Y-5924092D01*
X7027062Y-5919165D01*
X7023303Y-5914948D01*
X7019036Y-5911392D01*
X7014311Y-5908497D01*
X7009180Y-5906262D01*
X7003694Y-5904738D01*
X6997852Y-5903772D01*
X6991807Y-5903468D01*
X6985203Y-5903925D01*
X6979310Y-5905195D01*
X6973874Y-5907227D01*
X6968693Y-5909818D01*
X6972757Y-5864606D01*
X7029145Y-5864606D01*
X7029145Y-5850382D01*
G37*
D10*
X6325664Y-5113273D02*
G01*
X6325664Y-5280405D01*
X6270038Y-5113273D02*
G01*
X6381290Y-5113273D01*
X6497368Y-5113273D02*
G01*
X6433868Y-5280405D01*
X6497368Y-5113273D02*
G01*
X6561122Y-5280405D01*
X6457744Y-5224779D02*
G01*
X6537246Y-5224779D01*
X6613700Y-5208778D02*
G01*
X6756702Y-5208778D01*
X6809280Y-5113273D02*
G01*
X6809280Y-5280405D01*
X6809280Y-5113273D02*
G01*
X6920786Y-5280405D01*
X6920786Y-5113273D02*
G01*
X6920786Y-5280405D01*
X6973110Y-5113273D02*
G01*
X6973110Y-5280405D01*
X6973110Y-5113273D02*
G01*
X7076488Y-5113273D01*
X6973110Y-5193029D02*
G01*
X7036864Y-5193029D01*
X6973110Y-5280405D02*
G01*
X7076488Y-5280405D01*
X7184692Y-5113273D02*
G01*
X7184692Y-5280405D01*
X7129066Y-5113273D02*
G01*
X7240318Y-5113273D01*
X7415324Y-5145278D02*
G01*
X7431326Y-5137150D01*
X7455202Y-5113273D01*
X7455202Y-5280405D01*
X7555532Y-5113273D02*
G01*
X7531656Y-5121402D01*
X7515654Y-5145278D01*
X7507780Y-5184902D01*
X7507780Y-5208778D01*
X7515654Y-5248655D01*
X7531656Y-5272531D01*
X7555532Y-5280405D01*
X7571280Y-5280405D01*
X7595156Y-5272531D01*
X7611158Y-5248655D01*
X7619032Y-5208778D01*
X7619032Y-5184902D01*
X7611158Y-5145278D01*
X7595156Y-5121402D01*
X7571280Y-5113273D01*
X7555532Y-5113273D01*
X7751112Y-5113273D02*
G01*
X7671610Y-5224779D01*
X7790990Y-5224779D01*
X7751112Y-5113273D02*
G01*
X7751112Y-5280405D01*
X7883192Y-5113273D02*
G01*
X7859316Y-5121402D01*
X7851442Y-5137150D01*
X7851442Y-5153152D01*
X7859316Y-5169154D01*
X7875318Y-5177028D01*
X7907068Y-5184902D01*
X7930944Y-5193029D01*
X7946692Y-5208778D01*
X7954820Y-5224779D01*
X7954820Y-5248655D01*
X7946692Y-5264404D01*
X7938818Y-5272531D01*
X7914942Y-5280405D01*
X7883192Y-5280405D01*
X7859316Y-5272531D01*
X7851442Y-5264404D01*
X7843314Y-5248655D01*
X7843314Y-5224779D01*
X7851442Y-5208778D01*
X7867190Y-5193029D01*
X7891066Y-5184902D01*
X7922816Y-5177028D01*
X7938818Y-5169154D01*
X7946692Y-5153152D01*
X7946692Y-5137150D01*
X7938818Y-5121402D01*
X7914942Y-5113273D01*
X7883192Y-5113273D01*
X8110776Y-5169154D02*
G01*
X8102648Y-5193029D01*
X8086900Y-5208778D01*
X8063024Y-5216905D01*
X8054896Y-5216905D01*
X8031020Y-5208778D01*
X8015272Y-5193029D01*
X8007144Y-5169154D01*
X8007144Y-5161026D01*
X8015272Y-5137150D01*
X8031020Y-5121402D01*
X8054896Y-5113273D01*
X8063024Y-5113273D01*
X8086900Y-5121402D01*
X8102648Y-5137150D01*
X8110776Y-5169154D01*
X8110776Y-5208778D01*
X8102648Y-5248655D01*
X8086900Y-5272531D01*
X8063024Y-5280405D01*
X8047022Y-5280405D01*
X8023146Y-5272531D01*
X8015272Y-5256529D01*
X8171228Y-5240781D02*
G01*
X8163100Y-5248655D01*
X8171228Y-5256529D01*
X8179102Y-5248655D01*
X8171228Y-5240781D01*
X8342932Y-5113273D02*
G01*
X8263430Y-5280405D01*
X8231680Y-5113273D02*
G01*
X8342932Y-5113273D01*
X8506762Y-5113273D02*
G01*
X8427260Y-5280405D01*
X8395510Y-5113273D02*
G01*
X8506762Y-5113273D01*
X8670592Y-5113273D02*
G01*
X8591090Y-5280405D01*
X8559340Y-5113273D02*
G01*
X8670592Y-5113273D01*
X8723170Y-5113273D02*
G01*
X8723170Y-5280405D01*
X8723170Y-5113273D02*
G01*
X8786924Y-5280405D01*
X8850424Y-5113273D02*
G01*
X8786924Y-5280405D01*
X8850424Y-5113273D02*
G01*
X8850424Y-5280405D01*
X8903002Y-5113273D02*
G01*
X8903002Y-5280405D01*
X9014254Y-5113273D02*
G01*
X9014254Y-5280405D01*
X8903002Y-5193029D02*
G01*
X9014254Y-5193029D01*
X9154208Y-5169154D02*
G01*
X9066832Y-5280405D01*
X9066832Y-5169154D02*
G01*
X9154208Y-5169154D01*
X9066832Y-5280405D02*
G01*
X9154208Y-5280405D01*
X6517688Y-4623307D02*
G01*
X6501686Y-4631436D01*
X6485938Y-4647184D01*
X6478064Y-4663186D01*
X6469936Y-4687062D01*
X6469936Y-4726686D01*
X6478064Y-4750562D01*
X6485938Y-4766563D01*
X6501686Y-4782565D01*
X6517688Y-4790439D01*
X6549438Y-4790439D01*
X6565440Y-4782565D01*
X6581442Y-4766563D01*
X6589316Y-4750562D01*
X6597190Y-4726686D01*
X6597190Y-4687062D01*
X6589316Y-4663186D01*
X6581442Y-4647184D01*
X6565440Y-4631436D01*
X6549438Y-4623307D01*
X6517688Y-4623307D01*
X6541564Y-4758689D02*
G01*
X6589316Y-4806442D01*
X6697520Y-4623307D02*
G01*
X6681518Y-4631436D01*
X6665770Y-4647184D01*
X6657642Y-4663186D01*
X6649768Y-4687062D01*
X6649768Y-4726686D01*
X6657642Y-4750562D01*
X6665770Y-4766563D01*
X6681518Y-4782565D01*
X6697520Y-4790439D01*
X6729270Y-4790439D01*
X6745272Y-4782565D01*
X6761020Y-4766563D01*
X6769148Y-4750562D01*
X6777022Y-4726686D01*
X6777022Y-4687062D01*
X6769148Y-4663186D01*
X6761020Y-4647184D01*
X6745272Y-4631436D01*
X6729270Y-4623307D01*
X6697520Y-4623307D01*
X6829600Y-4718812D02*
G01*
X6972602Y-4718812D01*
X7025180Y-4655312D02*
G01*
X7041182Y-4647184D01*
X7065058Y-4623307D01*
X7065058Y-4790439D01*
X7165134Y-4623307D02*
G01*
X7141258Y-4631436D01*
X7125510Y-4655312D01*
X7117382Y-4694936D01*
X7117382Y-4718812D01*
X7125510Y-4758689D01*
X7141258Y-4782565D01*
X7165134Y-4790439D01*
X7181136Y-4790439D01*
X7205012Y-4782565D01*
X7221014Y-4758689D01*
X7228888Y-4718812D01*
X7228888Y-4694936D01*
X7221014Y-4655312D01*
X7205012Y-4631436D01*
X7181136Y-4623307D01*
X7165134Y-4623307D01*
X7328964Y-4623307D02*
G01*
X7305088Y-4631436D01*
X7289340Y-4655312D01*
X7281466Y-4694936D01*
X7281466Y-4718812D01*
X7289340Y-4758689D01*
X7305088Y-4782565D01*
X7328964Y-4790439D01*
X7344966Y-4790439D01*
X7368842Y-4782565D01*
X7384844Y-4758689D01*
X7392718Y-4718812D01*
X7392718Y-4694936D01*
X7384844Y-4655312D01*
X7368842Y-4631436D01*
X7344966Y-4623307D01*
X7328964Y-4623307D01*
X7567724Y-4623307D02*
G01*
X7567724Y-4742687D01*
X7575598Y-4766563D01*
X7591600Y-4782565D01*
X7615476Y-4790439D01*
X7631224Y-4790439D01*
X7655100Y-4782565D01*
X7671102Y-4766563D01*
X7678976Y-4742687D01*
X7678976Y-4623307D01*
X7731554Y-4679187D02*
G01*
X7731554Y-4846065D01*
X7731554Y-4703063D02*
G01*
X7747556Y-4687062D01*
X7763304Y-4679187D01*
X7787180Y-4679187D01*
X7803182Y-4687062D01*
X7819184Y-4703063D01*
X7827058Y-4726686D01*
X7827058Y-4742687D01*
X7819184Y-4766563D01*
X7803182Y-4782565D01*
X7787180Y-4790439D01*
X7763304Y-4790439D01*
X7747556Y-4782565D01*
X7731554Y-4766563D01*
X7998762Y-4663186D02*
G01*
X7990888Y-4647184D01*
X7974886Y-4631436D01*
X7959138Y-4623307D01*
X7927134Y-4623307D01*
X7911386Y-4631436D01*
X7895384Y-4647184D01*
X7887510Y-4663186D01*
X7879636Y-4687062D01*
X7879636Y-4726686D01*
X7887510Y-4750562D01*
X7895384Y-4766563D01*
X7911386Y-4782565D01*
X7927134Y-4790439D01*
X7959138Y-4790439D01*
X7974886Y-4782565D01*
X7990888Y-4766563D01*
X7998762Y-4750562D01*
X8091218Y-4679187D02*
G01*
X8075216Y-4687062D01*
X8059214Y-4703063D01*
X8051340Y-4726686D01*
X8051340Y-4742687D01*
X8059214Y-4766563D01*
X8075216Y-4782565D01*
X8091218Y-4790439D01*
X8115094Y-4790439D01*
X8130842Y-4782565D01*
X8146844Y-4766563D01*
X8154718Y-4742687D01*
X8154718Y-4726686D01*
X8146844Y-4703063D01*
X8130842Y-4687062D01*
X8115094Y-4679187D01*
X8091218Y-4679187D01*
X8207296Y-4679187D02*
G01*
X8207296Y-4790439D01*
X8207296Y-4710937D02*
G01*
X8231172Y-4687062D01*
X8246920Y-4679187D01*
X8270796Y-4679187D01*
X8286798Y-4687062D01*
X8294672Y-4710937D01*
X8294672Y-4790439D01*
X8347250Y-4679187D02*
G01*
X8395002Y-4790439D01*
X8442754Y-4679187D02*
G01*
X8395002Y-4790439D01*
X8495332Y-4726686D02*
G01*
X8590582Y-4726686D01*
X8590582Y-4710937D01*
X8582708Y-4694936D01*
X8574834Y-4687062D01*
X8558832Y-4679187D01*
X8534956Y-4679187D01*
X8518954Y-4687062D01*
X8503206Y-4703063D01*
X8495332Y-4726686D01*
X8495332Y-4742687D01*
X8503206Y-4766563D01*
X8518954Y-4782565D01*
X8534956Y-4790439D01*
X8558832Y-4790439D01*
X8574834Y-4782565D01*
X8590582Y-4766563D01*
X8643160Y-4679187D02*
G01*
X8643160Y-4790439D01*
X8643160Y-4726686D02*
G01*
X8651034Y-4703063D01*
X8667036Y-4687062D01*
X8683038Y-4679187D01*
X8706914Y-4679187D01*
X8783114Y-4623307D02*
G01*
X8783114Y-4758689D01*
X8791242Y-4782565D01*
X8806990Y-4790439D01*
X8822992Y-4790439D01*
X8759238Y-4679187D02*
G01*
X8814864Y-4679187D01*
X8875316Y-4726686D02*
G01*
X8970820Y-4726686D01*
X8970820Y-4710937D01*
X8962946Y-4694936D01*
X8955072Y-4687062D01*
X8939070Y-4679187D01*
X8915194Y-4679187D01*
X8899192Y-4687062D01*
X8883444Y-4703063D01*
X8875316Y-4726686D01*
X8875316Y-4742687D01*
X8883444Y-4766563D01*
X8899192Y-4782565D01*
X8915194Y-4790439D01*
X8939070Y-4790439D01*
X8955072Y-4782565D01*
X8970820Y-4766563D01*
X9023398Y-4679187D02*
G01*
X9023398Y-4790439D01*
X9023398Y-4726686D02*
G01*
X9031272Y-4703063D01*
X9047274Y-4687062D01*
X9063276Y-4679187D01*
X9087152Y-4679187D01*
X130047Y-7648702D02*
G01*
X130047Y-7791704D01*
X175005Y-7648702D02*
G01*
X175005Y-7791704D01*
X175005Y-7648702D02*
G01*
X263652Y-7648702D01*
X175005Y-7716773D02*
G01*
X229615Y-7716773D01*
X413512Y-7648702D02*
G01*
X413512Y-7791704D01*
X458723Y-7648702D02*
G01*
X458723Y-7791704D01*
X458723Y-7648702D02*
G01*
X553973Y-7791704D01*
X553973Y-7648702D02*
G01*
X553973Y-7791704D01*
X1746757Y-9176258D02*
G01*
X1787652Y-9271762D01*
X1828545Y-9176258D02*
G01*
X1787652Y-9271762D01*
X1774189Y-9299194D01*
X1760473Y-9312655D01*
X1746757Y-9319513D01*
X1739900Y-9319513D01*
X1873757Y-9217152D02*
G01*
X1955545Y-9217152D01*
X1955545Y-9203689D01*
X1948688Y-9189974D01*
X1941829Y-9183115D01*
X1928113Y-9176258D01*
X1907794Y-9176258D01*
X1894078Y-9183115D01*
X1880362Y-9196831D01*
X1873757Y-9217152D01*
X1873757Y-9230868D01*
X1880362Y-9251442D01*
X1894078Y-9264904D01*
X1907794Y-9271762D01*
X1928113Y-9271762D01*
X1941829Y-9264904D01*
X1955545Y-9251442D01*
X2000504Y-9176258D02*
G01*
X2000504Y-9271762D01*
X2000504Y-9203689D02*
G01*
X2020824Y-9183115D01*
X2034540Y-9176258D01*
X2055113Y-9176258D01*
X2068575Y-9183115D01*
X2075434Y-9203689D01*
X2075434Y-9271762D01*
X2120391Y-9128505D02*
G01*
X2127250Y-9135363D01*
X2134108Y-9128505D01*
X2127250Y-9121902D01*
X2120391Y-9128505D01*
X2127250Y-9176258D02*
G01*
X2127250Y-9271762D01*
X2260854Y-9128505D02*
G01*
X2260854Y-9271762D01*
X2260854Y-9196831D02*
G01*
X2247391Y-9183115D01*
X2233675Y-9176258D01*
X2213102Y-9176258D01*
X2199640Y-9183115D01*
X2185924Y-9196831D01*
X2179065Y-9217152D01*
X2179065Y-9230868D01*
X2185924Y-9251442D01*
X2199640Y-9264904D01*
X2213102Y-9271762D01*
X2233675Y-9271762D01*
X2247391Y-9264904D01*
X2260854Y-9251442D01*
X2305811Y-9217152D02*
G01*
X2387854Y-9217152D01*
X2387854Y-9203689D01*
X2380995Y-9189974D01*
X2374138Y-9183115D01*
X2360422Y-9176258D01*
X2340102Y-9176258D01*
X2326386Y-9183115D01*
X2312670Y-9196831D01*
X2305811Y-9217152D01*
X2305811Y-9230868D01*
X2312670Y-9251442D01*
X2326386Y-9264904D01*
X2340102Y-9271762D01*
X2360422Y-9271762D01*
X2374138Y-9264904D01*
X2387854Y-9251442D01*
X2432811Y-9176258D02*
G01*
X2432811Y-9271762D01*
X2432811Y-9203689D02*
G01*
X2453131Y-9183115D01*
X2466847Y-9176258D01*
X2487168Y-9176258D01*
X2500884Y-9183115D01*
X2507741Y-9203689D01*
X2507741Y-9271762D01*
X2712211Y-9128505D02*
G01*
X2657602Y-9271762D01*
X2712211Y-9128505D02*
G01*
X2766822Y-9271762D01*
X2678175Y-9224010D02*
G01*
X2746247Y-9224010D01*
X2859531Y-9128505D02*
G01*
X2859531Y-9271762D01*
X2811779Y-9128505D02*
G01*
X2907284Y-9128505D01*
X2993136Y-9128505D02*
G01*
X2979420Y-9135363D01*
X2965958Y-9149079D01*
X2959100Y-9162795D01*
X2952241Y-9183115D01*
X2952241Y-9217152D01*
X2959100Y-9237726D01*
X2965958Y-9251442D01*
X2979420Y-9264904D01*
X2993136Y-9271762D01*
X3020568Y-9271762D01*
X3034029Y-9264904D01*
X3047745Y-9251442D01*
X3054604Y-9237726D01*
X3061461Y-9217152D01*
X3061461Y-9183115D01*
X3054604Y-9162795D01*
X3047745Y-9149079D01*
X3034029Y-9135363D01*
X3020568Y-9128505D01*
X2993136Y-9128505D01*
X3106420Y-9128505D02*
G01*
X3106420Y-9271762D01*
X3106420Y-9271762D02*
G01*
X3188208Y-9271762D01*
X3233165Y-9128505D02*
G01*
X3287775Y-9196831D01*
X3287775Y-9271762D01*
X3342386Y-9128505D02*
G01*
X3287775Y-9196831D01*
X3387343Y-9128505D02*
G01*
X3387343Y-9271762D01*
X3387343Y-9128505D02*
G01*
X3475990Y-9128505D01*
X3387343Y-9196831D02*
G01*
X3441700Y-9196831D01*
X3387343Y-9271762D02*
G01*
X3475990Y-9271762D01*
X3632708Y-9162795D02*
G01*
X3632708Y-9155937D01*
X3639565Y-9142221D01*
X3646424Y-9135363D01*
X3659886Y-9128505D01*
X3687318Y-9128505D01*
X3700779Y-9135363D01*
X3707638Y-9142221D01*
X3714495Y-9155937D01*
X3714495Y-9169654D01*
X3707638Y-9183115D01*
X3694175Y-9203689D01*
X3625850Y-9271762D01*
X3721354Y-9271762D01*
X3807206Y-9128505D02*
G01*
X3786886Y-9135363D01*
X3773170Y-9155937D01*
X3766311Y-9189974D01*
X3766311Y-9210547D01*
X3773170Y-9244584D01*
X3786886Y-9264904D01*
X3807206Y-9271762D01*
X3820922Y-9271762D01*
X3841241Y-9264904D01*
X3854958Y-9244584D01*
X3861815Y-9210547D01*
X3861815Y-9189974D01*
X3854958Y-9155937D01*
X3841241Y-9135363D01*
X3820922Y-9128505D01*
X3807206Y-9128505D01*
X3913631Y-9162795D02*
G01*
X3913631Y-9155937D01*
X3920490Y-9142221D01*
X3927347Y-9135363D01*
X3940809Y-9128505D01*
X3968241Y-9128505D01*
X3981704Y-9135363D01*
X3988561Y-9142221D01*
X3995420Y-9155937D01*
X3995420Y-9169654D01*
X3988561Y-9183115D01*
X3975100Y-9203689D01*
X3906774Y-9271762D01*
X4002277Y-9271762D01*
X4129024Y-9128505D02*
G01*
X4060952Y-9128505D01*
X4054093Y-9189974D01*
X4060952Y-9183115D01*
X4081272Y-9176258D01*
X4101845Y-9176258D01*
X4122165Y-9183115D01*
X4135881Y-9196831D01*
X4142740Y-9217152D01*
X4142740Y-9230868D01*
X4135881Y-9251442D01*
X4122165Y-9264904D01*
X4101845Y-9271762D01*
X4081272Y-9271762D01*
X4060952Y-9264904D01*
X4054093Y-9258300D01*
X4047236Y-9244584D01*
X8708522Y-9129930D02*
G01*
X8851778Y-9129930D01*
X8708522Y-9129930D02*
G01*
X8708522Y-9068716D01*
X8715380Y-9048142D01*
X8722238Y-9041284D01*
X8735954Y-9034426D01*
X8749416Y-9034426D01*
X8763132Y-9041284D01*
X8769990Y-9048142D01*
X8776848Y-9068716D01*
X8776848Y-9129930D01*
X8776848Y-9082178D02*
G01*
X8851778Y-9034426D01*
X8708522Y-8989468D02*
G01*
X8851778Y-8989468D01*
X8708522Y-8989468D02*
G01*
X8708522Y-8900822D01*
X8776848Y-8989468D02*
G01*
X8776848Y-8934858D01*
X8708522Y-8710068D02*
G01*
X8715380Y-8723530D01*
X8729096Y-8737246D01*
X8742812Y-8744104D01*
X8763132Y-8750962D01*
X8797168Y-8750962D01*
X8817742Y-8744104D01*
X8831458Y-8737246D01*
X8844920Y-8723530D01*
X8851778Y-8710068D01*
X8851778Y-8682636D01*
X8844920Y-8669174D01*
X8831458Y-8655458D01*
X8817742Y-8648600D01*
X8797168Y-8641742D01*
X8763132Y-8641742D01*
X8742812Y-8648600D01*
X8729096Y-8655458D01*
X8715380Y-8669174D01*
X8708522Y-8682636D01*
X8708522Y-8710068D01*
X8708522Y-8596784D02*
G01*
X8810884Y-8596784D01*
X8831458Y-8589926D01*
X8844920Y-8576464D01*
X8851778Y-8555890D01*
X8851778Y-8542174D01*
X8844920Y-8521854D01*
X8831458Y-8508138D01*
X8810884Y-8501280D01*
X8708522Y-8501280D01*
X8708522Y-8408570D02*
G01*
X8851778Y-8408570D01*
X8708522Y-8456322D02*
G01*
X8708522Y-8360818D01*
X8722613Y-7293152D02*
G01*
X8716009Y-7293152D01*
X8702293Y-7286294D01*
X8695436Y-7279436D01*
X8688577Y-7265974D01*
X8688577Y-7238542D01*
X8695436Y-7225080D01*
X8702293Y-7218222D01*
X8716009Y-7211364D01*
X8729472Y-7211364D01*
X8743188Y-7218222D01*
X8763508Y-7231684D01*
X8831834Y-7300010D01*
X8831834Y-7204506D01*
X8688577Y-7091222D02*
G01*
X8784081Y-7159548D01*
X8784081Y-7057186D01*
X8688577Y-7091222D02*
G01*
X8831834Y-7091222D01*
X8688577Y-6971334D02*
G01*
X8695436Y-6991908D01*
X8716009Y-7005370D01*
X8750045Y-7012228D01*
X8770365Y-7012228D01*
X8804656Y-7005370D01*
X8824975Y-6991908D01*
X8831834Y-6971334D01*
X8831834Y-6957618D01*
X8824975Y-6937298D01*
X8804656Y-6923582D01*
X8770365Y-6916724D01*
X8750045Y-6916724D01*
X8716009Y-6923582D01*
X8695436Y-6937298D01*
X8688577Y-6957618D01*
X8688577Y-6971334D01*
X8688577Y-6830872D02*
G01*
X8695436Y-6851446D01*
X8716009Y-6864908D01*
X8750045Y-6871766D01*
X8770365Y-6871766D01*
X8804656Y-6864908D01*
X8824975Y-6851446D01*
X8831834Y-6830872D01*
X8831834Y-6817156D01*
X8824975Y-6796836D01*
X8804656Y-6783120D01*
X8770365Y-6776262D01*
X8750045Y-6776262D01*
X8716009Y-6783120D01*
X8695436Y-6796836D01*
X8688577Y-6817156D01*
X8688577Y-6830872D01*
X8688577Y-6731304D02*
G01*
X8831834Y-6731304D01*
X8688577Y-6731304D02*
G01*
X8831834Y-6676694D01*
X8688577Y-6622338D02*
G01*
X8831834Y-6676694D01*
X8688577Y-6622338D02*
G01*
X8831834Y-6622338D01*
X8688577Y-6577380D02*
G01*
X8831834Y-6577380D01*
X8688577Y-6481876D02*
G01*
X8831834Y-6481876D01*
X8756904Y-6577380D02*
G01*
X8756904Y-6481876D01*
X8736329Y-6361734D02*
G01*
X8831834Y-6436918D01*
X8736329Y-6436918D02*
G01*
X8736329Y-6361734D01*
X8831834Y-6436918D02*
G01*
X8831834Y-6361734D01*
X690011Y-3688643D02*
G01*
X690011Y-3831899D01*
X690011Y-3688643D02*
G01*
X778657Y-3688643D01*
X690011Y-3756715D02*
G01*
X744621Y-3756715D01*
X690011Y-3831899D02*
G01*
X778657Y-3831899D01*
X823615Y-3688643D02*
G01*
X919119Y-3831899D01*
X919119Y-3688643D02*
G01*
X823615Y-3831899D01*
X1011829Y-3688643D02*
G01*
X1011829Y-3831899D01*
X964077Y-3688643D02*
G01*
X1059581Y-3688643D01*
X1250335Y-3688643D02*
G01*
X1236873Y-3695501D01*
X1223157Y-3709217D01*
X1216299Y-3722679D01*
X1209441Y-3743253D01*
X1209441Y-3777289D01*
X1216299Y-3797609D01*
X1223157Y-3811325D01*
X1236873Y-3825041D01*
X1250335Y-3831899D01*
X1277767Y-3831899D01*
X1291483Y-3825041D01*
X1304945Y-3811325D01*
X1311803Y-3797609D01*
X1318661Y-3777289D01*
X1318661Y-3743253D01*
X1311803Y-3722679D01*
X1304945Y-3709217D01*
X1291483Y-3695501D01*
X1277767Y-3688643D01*
X1250335Y-3688643D01*
X1459123Y-3709217D02*
G01*
X1445407Y-3695501D01*
X1425087Y-3688643D01*
X1397655Y-3688643D01*
X1377335Y-3695501D01*
X1363619Y-3709217D01*
X1363619Y-3722679D01*
X1370477Y-3736395D01*
X1377335Y-3743253D01*
X1390797Y-3750111D01*
X1431691Y-3763573D01*
X1445407Y-3770431D01*
X1452265Y-3777289D01*
X1459123Y-3791005D01*
X1459123Y-3811325D01*
X1445407Y-3825041D01*
X1425087Y-3831899D01*
X1397655Y-3831899D01*
X1377335Y-3825041D01*
X1363619Y-3811325D01*
X1606443Y-3722679D02*
G01*
X1599585Y-3709217D01*
X1585869Y-3695501D01*
X1572153Y-3688643D01*
X1544975Y-3688643D01*
X1531259Y-3695501D01*
X1517797Y-3709217D01*
X1510939Y-3722679D01*
X1504081Y-3743253D01*
X1504081Y-3777289D01*
X1510939Y-3797609D01*
X1517797Y-3811325D01*
X1531259Y-3825041D01*
X1544975Y-3831899D01*
X1572153Y-3831899D01*
X1585869Y-3825041D01*
X1599585Y-3811325D01*
X1606443Y-3797609D01*
X3671013Y-3698552D02*
G01*
X3657297Y-3705410D01*
X3643581Y-3719126D01*
X3636723Y-3732842D01*
X3630119Y-3753162D01*
X3630119Y-3787198D01*
X3636723Y-3807772D01*
X3643581Y-3821234D01*
X3657297Y-3834950D01*
X3671013Y-3841808D01*
X3698191Y-3841808D01*
X3711907Y-3834950D01*
X3725369Y-3821234D01*
X3732227Y-3807772D01*
X3739085Y-3787198D01*
X3739085Y-3753162D01*
X3732227Y-3732842D01*
X3725369Y-3719126D01*
X3711907Y-3705410D01*
X3698191Y-3698552D01*
X3671013Y-3698552D01*
X3879547Y-3719126D02*
G01*
X3865831Y-3705410D01*
X3845511Y-3698552D01*
X3818079Y-3698552D01*
X3797759Y-3705410D01*
X3784043Y-3719126D01*
X3784043Y-3732842D01*
X3790901Y-3746304D01*
X3797759Y-3753162D01*
X3811475Y-3760020D01*
X3852369Y-3773736D01*
X3865831Y-3780340D01*
X3872689Y-3787198D01*
X3879547Y-3800914D01*
X3879547Y-3821234D01*
X3865831Y-3834950D01*
X3845511Y-3841808D01*
X3818079Y-3841808D01*
X3797759Y-3834950D01*
X3784043Y-3821234D01*
X4026867Y-3732842D02*
G01*
X4020009Y-3719126D01*
X4006293Y-3705410D01*
X3992831Y-3698552D01*
X3965399Y-3698552D01*
X3951937Y-3705410D01*
X3938221Y-3719126D01*
X3931363Y-3732842D01*
X3924505Y-3753162D01*
X3924505Y-3787198D01*
X3931363Y-3807772D01*
X3938221Y-3821234D01*
X3951937Y-3834950D01*
X3965399Y-3841808D01*
X3992831Y-3841808D01*
X4006293Y-3834950D01*
X4020009Y-3821234D01*
X4026867Y-3807772D01*
X4071825Y-3889560D02*
G01*
X4194507Y-3889560D01*
X4334969Y-3719126D02*
G01*
X4321253Y-3705410D01*
X4300933Y-3698552D01*
X4273755Y-3698552D01*
X4253181Y-3705410D01*
X4239465Y-3719126D01*
X4239465Y-3732842D01*
X4246323Y-3746304D01*
X4253181Y-3753162D01*
X4266897Y-3760020D01*
X4307791Y-3773736D01*
X4321253Y-3780340D01*
X4328111Y-3787198D01*
X4334969Y-3800914D01*
X4334969Y-3821234D01*
X4321253Y-3834950D01*
X4300933Y-3841808D01*
X4273755Y-3841808D01*
X4253181Y-3834950D01*
X4239465Y-3821234D01*
X4379927Y-3698552D02*
G01*
X4379927Y-3841808D01*
X4379927Y-3698552D02*
G01*
X4468573Y-3698552D01*
X4379927Y-3766878D02*
G01*
X4434537Y-3766878D01*
X4379927Y-3841808D02*
G01*
X4468573Y-3841808D01*
X4513531Y-3698552D02*
G01*
X4513531Y-3841808D01*
X4513531Y-3841808D02*
G01*
X4595573Y-3841808D01*
X1487698Y-3163310D02*
G01*
X1471696Y-3171438D01*
X1455948Y-3187186D01*
X1448074Y-3203188D01*
X1439946Y-3227064D01*
X1439946Y-3266688D01*
X1448074Y-3290564D01*
X1455948Y-3306566D01*
X1471696Y-3322568D01*
X1487698Y-3330442D01*
X1519448Y-3330442D01*
X1535450Y-3322568D01*
X1551452Y-3306566D01*
X1559326Y-3290564D01*
X1567200Y-3266688D01*
X1567200Y-3227064D01*
X1559326Y-3203188D01*
X1551452Y-3187186D01*
X1535450Y-3171438D01*
X1519448Y-3163310D01*
X1487698Y-3163310D01*
X1511574Y-3298692D02*
G01*
X1559326Y-3346444D01*
X1667530Y-3163310D02*
G01*
X1651528Y-3171438D01*
X1635780Y-3187186D01*
X1627652Y-3203188D01*
X1619778Y-3227064D01*
X1619778Y-3266688D01*
X1627652Y-3290564D01*
X1635780Y-3306566D01*
X1651528Y-3322568D01*
X1667530Y-3330442D01*
X1699280Y-3330442D01*
X1715282Y-3322568D01*
X1731030Y-3306566D01*
X1739158Y-3290564D01*
X1747032Y-3266688D01*
X1747032Y-3227064D01*
X1739158Y-3203188D01*
X1731030Y-3187186D01*
X1715282Y-3171438D01*
X1699280Y-3163310D01*
X1667530Y-3163310D01*
X1799610Y-3258814D02*
G01*
X1942612Y-3258814D01*
X1995190Y-3195314D02*
G01*
X2011192Y-3187186D01*
X2035068Y-3163310D01*
X2035068Y-3330442D01*
X2135144Y-3163310D02*
G01*
X2111268Y-3171438D01*
X2095520Y-3195314D01*
X2087392Y-3234938D01*
X2087392Y-3258814D01*
X2095520Y-3298692D01*
X2111268Y-3322568D01*
X2135144Y-3330442D01*
X2151146Y-3330442D01*
X2175022Y-3322568D01*
X2191024Y-3298692D01*
X2198898Y-3258814D01*
X2198898Y-3234938D01*
X2191024Y-3195314D01*
X2175022Y-3171438D01*
X2151146Y-3163310D01*
X2135144Y-3163310D01*
X2298974Y-3163310D02*
G01*
X2275098Y-3171438D01*
X2259350Y-3195314D01*
X2251476Y-3234938D01*
X2251476Y-3258814D01*
X2259350Y-3298692D01*
X2275098Y-3322568D01*
X2298974Y-3330442D01*
X2314976Y-3330442D01*
X2338852Y-3322568D01*
X2354854Y-3298692D01*
X2362728Y-3258814D01*
X2362728Y-3234938D01*
X2354854Y-3195314D01*
X2338852Y-3171438D01*
X2314976Y-3163310D01*
X2298974Y-3163310D01*
X2537734Y-3163310D02*
G01*
X2537734Y-3282690D01*
X2545608Y-3306566D01*
X2561610Y-3322568D01*
X2585486Y-3330442D01*
X2601234Y-3330442D01*
X2625110Y-3322568D01*
X2641112Y-3306566D01*
X2648986Y-3282690D01*
X2648986Y-3163310D01*
X2701564Y-3219190D02*
G01*
X2701564Y-3386068D01*
X2701564Y-3243066D02*
G01*
X2717566Y-3227064D01*
X2733314Y-3219190D01*
X2757190Y-3219190D01*
X2773192Y-3227064D01*
X2789194Y-3243066D01*
X2797068Y-3266688D01*
X2797068Y-3282690D01*
X2789194Y-3306566D01*
X2773192Y-3322568D01*
X2757190Y-3330442D01*
X2733314Y-3330442D01*
X2717566Y-3322568D01*
X2701564Y-3306566D01*
X2968772Y-3203188D02*
G01*
X2960898Y-3187186D01*
X2944896Y-3171438D01*
X2929148Y-3163310D01*
X2897144Y-3163310D01*
X2881396Y-3171438D01*
X2865394Y-3187186D01*
X2857520Y-3203188D01*
X2849646Y-3227064D01*
X2849646Y-3266688D01*
X2857520Y-3290564D01*
X2865394Y-3306566D01*
X2881396Y-3322568D01*
X2897144Y-3330442D01*
X2929148Y-3330442D01*
X2944896Y-3322568D01*
X2960898Y-3306566D01*
X2968772Y-3290564D01*
X3061228Y-3219190D02*
G01*
X3045226Y-3227064D01*
X3029224Y-3243066D01*
X3021350Y-3266688D01*
X3021350Y-3282690D01*
X3029224Y-3306566D01*
X3045226Y-3322568D01*
X3061228Y-3330442D01*
X3085104Y-3330442D01*
X3100852Y-3322568D01*
X3116854Y-3306566D01*
X3124728Y-3282690D01*
X3124728Y-3266688D01*
X3116854Y-3243066D01*
X3100852Y-3227064D01*
X3085104Y-3219190D01*
X3061228Y-3219190D01*
X3177306Y-3219190D02*
G01*
X3177306Y-3330442D01*
X3177306Y-3250940D02*
G01*
X3201182Y-3227064D01*
X3216930Y-3219190D01*
X3240806Y-3219190D01*
X3256808Y-3227064D01*
X3264682Y-3250940D01*
X3264682Y-3330442D01*
X3317260Y-3219190D02*
G01*
X3365012Y-3330442D01*
X3412764Y-3219190D02*
G01*
X3365012Y-3330442D01*
X3465342Y-3266688D02*
G01*
X3560592Y-3266688D01*
X3560592Y-3250940D01*
X3552718Y-3234938D01*
X3544844Y-3227064D01*
X3528842Y-3219190D01*
X3504966Y-3219190D01*
X3488964Y-3227064D01*
X3473216Y-3243066D01*
X3465342Y-3266688D01*
X3465342Y-3282690D01*
X3473216Y-3306566D01*
X3488964Y-3322568D01*
X3504966Y-3330442D01*
X3528842Y-3330442D01*
X3544844Y-3322568D01*
X3560592Y-3306566D01*
X3613170Y-3219190D02*
G01*
X3613170Y-3330442D01*
X3613170Y-3266688D02*
G01*
X3621044Y-3243066D01*
X3637046Y-3227064D01*
X3653048Y-3219190D01*
X3676924Y-3219190D01*
X3753124Y-3163310D02*
G01*
X3753124Y-3298692D01*
X3761252Y-3322568D01*
X3777000Y-3330442D01*
X3793002Y-3330442D01*
X3729248Y-3219190D02*
G01*
X3784874Y-3219190D01*
X3845326Y-3266688D02*
G01*
X3940830Y-3266688D01*
X3940830Y-3250940D01*
X3932956Y-3234938D01*
X3925082Y-3227064D01*
X3909080Y-3219190D01*
X3885204Y-3219190D01*
X3869202Y-3227064D01*
X3853454Y-3243066D01*
X3845326Y-3266688D01*
X3845326Y-3282690D01*
X3853454Y-3306566D01*
X3869202Y-3322568D01*
X3885204Y-3330442D01*
X3909080Y-3330442D01*
X3925082Y-3322568D01*
X3940830Y-3306566D01*
X3993408Y-3219190D02*
G01*
X3993408Y-3330442D01*
X3993408Y-3266688D02*
G01*
X4001282Y-3243066D01*
X4017284Y-3227064D01*
X4033286Y-3219190D01*
X4057162Y-3219190D01*
X1355674Y-3433284D02*
G01*
X1355674Y-3600416D01*
X1300048Y-3433284D02*
G01*
X1411300Y-3433284D01*
X1527378Y-3433284D02*
G01*
X1463878Y-3600416D01*
X1527378Y-3433284D02*
G01*
X1591132Y-3600416D01*
X1487754Y-3544790D02*
G01*
X1567256Y-3544790D01*
X1643710Y-3528788D02*
G01*
X1786712Y-3528788D01*
X1839290Y-3433284D02*
G01*
X1839290Y-3600416D01*
X1839290Y-3433284D02*
G01*
X1950796Y-3600416D01*
X1950796Y-3433284D02*
G01*
X1950796Y-3600416D01*
X2003120Y-3433284D02*
G01*
X2003120Y-3600416D01*
X2003120Y-3433284D02*
G01*
X2106498Y-3433284D01*
X2003120Y-3513040D02*
G01*
X2066874Y-3513040D01*
X2003120Y-3600416D02*
G01*
X2106498Y-3600416D01*
X2214702Y-3433284D02*
G01*
X2214702Y-3600416D01*
X2159076Y-3433284D02*
G01*
X2270328Y-3433284D01*
X2445334Y-3465288D02*
G01*
X2461336Y-3457160D01*
X2485212Y-3433284D01*
X2485212Y-3600416D01*
X2585542Y-3433284D02*
G01*
X2561666Y-3441412D01*
X2545664Y-3465288D01*
X2537790Y-3504912D01*
X2537790Y-3528788D01*
X2545664Y-3568666D01*
X2561666Y-3592542D01*
X2585542Y-3600416D01*
X2601290Y-3600416D01*
X2625166Y-3592542D01*
X2641168Y-3568666D01*
X2649042Y-3528788D01*
X2649042Y-3504912D01*
X2641168Y-3465288D01*
X2625166Y-3441412D01*
X2601290Y-3433284D01*
X2585542Y-3433284D01*
X2781122Y-3433284D02*
G01*
X2701620Y-3544790D01*
X2821000Y-3544790D01*
X2781122Y-3433284D02*
G01*
X2781122Y-3600416D01*
X2913202Y-3433284D02*
G01*
X2889326Y-3441412D01*
X2881452Y-3457160D01*
X2881452Y-3473162D01*
X2889326Y-3489164D01*
X2905328Y-3497038D01*
X2937078Y-3504912D01*
X2960954Y-3513040D01*
X2976702Y-3528788D01*
X2984830Y-3544790D01*
X2984830Y-3568666D01*
X2976702Y-3584414D01*
X2968828Y-3592542D01*
X2944952Y-3600416D01*
X2913202Y-3600416D01*
X2889326Y-3592542D01*
X2881452Y-3584414D01*
X2873324Y-3568666D01*
X2873324Y-3544790D01*
X2881452Y-3528788D01*
X2897200Y-3513040D01*
X2921076Y-3504912D01*
X2952826Y-3497038D01*
X2968828Y-3489164D01*
X2976702Y-3473162D01*
X2976702Y-3457160D01*
X2968828Y-3441412D01*
X2944952Y-3433284D01*
X2913202Y-3433284D01*
X3140786Y-3489164D02*
G01*
X3132658Y-3513040D01*
X3116910Y-3528788D01*
X3093034Y-3536916D01*
X3084906Y-3536916D01*
X3061030Y-3528788D01*
X3045282Y-3513040D01*
X3037154Y-3489164D01*
X3037154Y-3481036D01*
X3045282Y-3457160D01*
X3061030Y-3441412D01*
X3084906Y-3433284D01*
X3093034Y-3433284D01*
X3116910Y-3441412D01*
X3132658Y-3457160D01*
X3140786Y-3489164D01*
X3140786Y-3528788D01*
X3132658Y-3568666D01*
X3116910Y-3592542D01*
X3093034Y-3600416D01*
X3077032Y-3600416D01*
X3053156Y-3592542D01*
X3045282Y-3576540D01*
X3201238Y-3560792D02*
G01*
X3193110Y-3568666D01*
X3201238Y-3576540D01*
X3209112Y-3568666D01*
X3201238Y-3560792D01*
X3372942Y-3433284D02*
G01*
X3293440Y-3600416D01*
X3261690Y-3433284D02*
G01*
X3372942Y-3433284D01*
X3536772Y-3433284D02*
G01*
X3457270Y-3600416D01*
X3425520Y-3433284D02*
G01*
X3536772Y-3433284D01*
X3700602Y-3433284D02*
G01*
X3621100Y-3600416D01*
X3589350Y-3433284D02*
G01*
X3700602Y-3433284D01*
X3753180Y-3433284D02*
G01*
X3753180Y-3600416D01*
X3753180Y-3433284D02*
G01*
X3816934Y-3600416D01*
X3880434Y-3433284D02*
G01*
X3816934Y-3600416D01*
X3880434Y-3433284D02*
G01*
X3880434Y-3600416D01*
X3933012Y-3433284D02*
G01*
X3933012Y-3600416D01*
X4044264Y-3433284D02*
G01*
X4044264Y-3600416D01*
X3933012Y-3513040D02*
G01*
X4044264Y-3513040D01*
X4184218Y-3489164D02*
G01*
X4096842Y-3600416D01*
X4096842Y-3489164D02*
G01*
X4184218Y-3489164D01*
X4096842Y-3600416D02*
G01*
X4184218Y-3600416D01*
D11*
X8314977Y-8714480D02*
G01*
X8324121Y-8733022D01*
X8342663Y-8751564D01*
X8361205Y-8760708D01*
X8388891Y-8770106D01*
X8435119Y-8770106D01*
X8462805Y-8760708D01*
X8481093Y-8751564D01*
X8499635Y-8733022D01*
X8508779Y-8714480D01*
X8508779Y-8677650D01*
X8499635Y-8659108D01*
X8481093Y-8640566D01*
X8462805Y-8631422D01*
X8435119Y-8622278D01*
X8388891Y-8622278D01*
X8361205Y-8631422D01*
X8342663Y-8640566D01*
X8324121Y-8659108D01*
X8314977Y-8677650D01*
X8314977Y-8714480D01*
X8314977Y-8561318D02*
G01*
X8453407Y-8561318D01*
X8481093Y-8551920D01*
X8499635Y-8533632D01*
X8508779Y-8505946D01*
X8508779Y-8487404D01*
X8499635Y-8459718D01*
X8481093Y-8441176D01*
X8453407Y-8432032D01*
X8314977Y-8432032D01*
X8314977Y-8306302D02*
G01*
X8508779Y-8306302D01*
X8314977Y-8371072D02*
G01*
X8314977Y-8241786D01*
X5474954Y-8450038D02*
G01*
X5668756Y-8450038D01*
X5474954Y-8389078D02*
G01*
X5668756Y-8389078D01*
X5474954Y-8389078D02*
G01*
X5668756Y-8259792D01*
X5474954Y-8259792D02*
G01*
X5668756Y-8259792D01*
D12*
G01*
X7179984Y-7809984D03*
D13*
G01*
X429988Y-6849988D03*
D14*
G01*
X3915917Y-4119879D03*
D15*
G01*
X4169918Y-4119879D03*
G01*
X4423918Y-4119879D03*
D16*
G01*
X4984978Y-4339991D03*
G01*
X4984978Y-4119991D03*
G01*
X4814976Y-4119991D03*
G01*
X4814976Y-4339991D03*
D17*
G01*
X5550001Y-6682994D03*
D18*
G01*
X5549988Y-6936986D03*
D20*
G01*
X1487545Y-6079985D03*
G01*
X2232426Y-6079985D03*
D21*
G01*
X1569984Y-6849983D03*
G01*
X1769988Y-6849983D03*
G01*
X4969992Y-4769990D03*
G01*
X4769987Y-4769990D03*
D22*
G01*
X3464989Y-8049983D03*
G01*
X3274998Y-8049983D03*
G01*
X3369994Y-8249983D03*
D23*
G01*
X1034981Y-6089985D03*
G01*
X684982Y-4889987D03*
G01*
X1034981Y-4889987D03*
D24*
G01*
X2444206Y-8506393D03*
G01*
X1830953Y-8506393D03*
D25*
G01*
X838189Y-8248578D03*
G01*
X838189Y-8861831D03*
G01*
X1359997Y-8253356D03*
G01*
X1359997Y-8866609D03*
G01*
X2899994Y-8253356D03*
G01*
X2899994Y-8866609D03*
D26*
G01*
X5099989Y-7804992D03*
G01*
X5139994Y-7804992D03*
D27*
G01*
X5139994Y-7854977D03*
G01*
X5099989Y-7854977D03*
D26*
G01*
X5059989Y-7829985D03*
D28*
G01*
X259994Y-7995005D03*
G01*
X259994Y-8504986D03*
G01*
X259999Y-8249996D03*
G01*
X9229986Y-8054962D03*
G01*
X9229986Y-7544981D03*
G01*
X9229981Y-7799971D03*
G01*
X279384Y-3860827D03*
G01*
X279384Y-4370809D03*
G01*
X279389Y-4115818D03*
D29*
G01*
X4215991Y-7823984D03*
G01*
X4469991Y-7823984D03*
G01*
X4723991Y-7823984D03*
G01*
X4723991Y-7195985D03*
G01*
X4469991Y-7195985D03*
G01*
X4215991Y-7195985D03*
D30*
G01*
X2939983Y-6869986D03*
G01*
X2939983Y-6669981D03*
D31*
G01*
X3903644Y-6879983D03*
G01*
X3216320Y-6879983D03*
D32*
G01*
X3369993Y-4841996D03*
G01*
X3369993Y-4437984D03*
D30*
G01*
X4209991Y-6749983D03*
G01*
X4209991Y-6949988D03*
D33*
G01*
X4439994Y-6753359D03*
G01*
X4439994Y-6946612D03*
D24*
G01*
X2444206Y-7996394D03*
G01*
X1830953Y-7996394D03*
D34*
G01*
X2399990Y-4759990D03*
G01*
X2599999Y-4759990D03*
G01*
X4909995Y-6939986D03*
G01*
X4709985Y-6939986D03*
D35*
G01*
X1565188Y-7103983D03*
G01*
X1565188Y-6595983D03*
G36*
X2537767Y-7058279D02*
G01*
X2537533Y-7058273D01*
X2533086Y-7058065D01*
X2532852Y-7058047D01*
X2528417Y-7057631D01*
X2528183Y-7057605D01*
X2523771Y-7056981D01*
X2523540Y-7056940D01*
X2519166Y-7056109D01*
X2518938Y-7056061D01*
X2514605Y-7055027D01*
X2514376Y-7054969D01*
X2510096Y-7053732D01*
X2509875Y-7053661D01*
X2505659Y-7052226D01*
X2505435Y-7052144D01*
X2501292Y-7050511D01*
X2501079Y-7050420D01*
X2497015Y-7048596D01*
X2496802Y-7048494D01*
X2492829Y-7046480D01*
X2492623Y-7046371D01*
X2488747Y-7044174D01*
X2488547Y-7044054D01*
X2484780Y-7041680D01*
X2484584Y-7041548D01*
X2480932Y-7038997D01*
X2480741Y-7038860D01*
X2477213Y-7036142D01*
X2477030Y-7035995D01*
X2473634Y-7033115D01*
X2473459Y-7032957D01*
X2470200Y-7029919D01*
X2470035Y-7029757D01*
X2466924Y-7026572D01*
X2466764Y-7026402D01*
X2463802Y-7023072D01*
X2463650Y-7022891D01*
X2460851Y-7019429D01*
X2460706Y-7019241D01*
X2458072Y-7015650D01*
X2457940Y-7015459D01*
X2455476Y-7011748D01*
X2455351Y-7011550D01*
X2453063Y-7007727D01*
X2452946Y-7007524D01*
X2450840Y-7003600D01*
X2450734Y-7003389D01*
X2448816Y-6999368D01*
X2448722Y-6999157D01*
X2446992Y-6995053D01*
X2446906Y-6994832D01*
X2445372Y-6990651D01*
X2445296Y-6990430D01*
X2443960Y-6986181D01*
X2443894Y-6985955D01*
X2442758Y-6981649D01*
X2442705Y-6981423D01*
X2441770Y-6977067D01*
X2441724Y-6976833D01*
X2440998Y-6972439D01*
X2440965Y-6972208D01*
X2440444Y-6967783D01*
X2440424Y-6967550D01*
X2440111Y-6963107D01*
X2440101Y-6962876D01*
X2439995Y-6958423D01*
X2439992Y-6958304D01*
X2439992Y-6772884D01*
X2439995Y-6772765D01*
X2440101Y-6768312D01*
X2440111Y-6768081D01*
X2440424Y-6763638D01*
X2440444Y-6763405D01*
X2440965Y-6758980D01*
X2440998Y-6758749D01*
X2441724Y-6754355D01*
X2441770Y-6754121D01*
X2442705Y-6749765D01*
X2442758Y-6749539D01*
X2443894Y-6745234D01*
X2443960Y-6745008D01*
X2445296Y-6740758D01*
X2445372Y-6740537D01*
X2446906Y-6736356D01*
X2446992Y-6736135D01*
X2448722Y-6732031D01*
X2448816Y-6731820D01*
X2450734Y-6727799D01*
X2450840Y-6727588D01*
X2452946Y-6723664D01*
X2453063Y-6723461D01*
X2455351Y-6719638D01*
X2455476Y-6719440D01*
X2457940Y-6715729D01*
X2458072Y-6715539D01*
X2460706Y-6711947D01*
X2460851Y-6711759D01*
X2463650Y-6708297D01*
X2463802Y-6708117D01*
X2466764Y-6704787D01*
X2466924Y-6704617D01*
X2470035Y-6701431D01*
X2470200Y-6701269D01*
X2473459Y-6698231D01*
X2473634Y-6698073D01*
X2477030Y-6695193D01*
X2477213Y-6695046D01*
X2480741Y-6692328D01*
X2480932Y-6692191D01*
X2484584Y-6689641D01*
X2484780Y-6689509D01*
X2488547Y-6687134D01*
X2488747Y-6687014D01*
X2492623Y-6684817D01*
X2492829Y-6684708D01*
X2496802Y-6682694D01*
X2497020Y-6682590D01*
X2497244Y-6682496D01*
X2497472Y-6682412D01*
X2497706Y-6682341D01*
X2497942Y-6682280D01*
X2501991Y-6681348D01*
X2501991Y-6515597D01*
X2502014Y-6515107D01*
X2502087Y-6514622D01*
X2502207Y-6514144D01*
X2502372Y-6513682D01*
X2502580Y-6513240D01*
X2502834Y-6512819D01*
X2503126Y-6512425D01*
X2503457Y-6512062D01*
X2503820Y-6511731D01*
X2504213Y-6511439D01*
X2504635Y-6511185D01*
X2505077Y-6510977D01*
X2505539Y-6510812D01*
X2506017Y-6510693D01*
X2506502Y-6510619D01*
X2506992Y-6510596D01*
X2572992Y-6510596D01*
X2573482Y-6510619D01*
X2573967Y-6510693D01*
X2574444Y-6510812D01*
X2574907Y-6510977D01*
X2575349Y-6511185D01*
X2575770Y-6511439D01*
X2576164Y-6511731D01*
X2576527Y-6512062D01*
X2576857Y-6512425D01*
X2577150Y-6512819D01*
X2577404Y-6513240D01*
X2577612Y-6513682D01*
X2577777Y-6514144D01*
X2577896Y-6514622D01*
X2577970Y-6515107D01*
X2577993Y-6515597D01*
X2577993Y-6681348D01*
X2582047Y-6682280D01*
X2582283Y-6682341D01*
X2582514Y-6682412D01*
X2582745Y-6682496D01*
X2582969Y-6682590D01*
X2583187Y-6682694D01*
X2587160Y-6684708D01*
X2587365Y-6684817D01*
X2591241Y-6687014D01*
X2591442Y-6687134D01*
X2595209Y-6689509D01*
X2595405Y-6689641D01*
X2599057Y-6692191D01*
X2599248Y-6692328D01*
X2602776Y-6695046D01*
X2602958Y-6695193D01*
X2606354Y-6698073D01*
X2606530Y-6698231D01*
X2609789Y-6701269D01*
X2609954Y-6701431D01*
X2613065Y-6704617D01*
X2613225Y-6704787D01*
X2616187Y-6708117D01*
X2616339Y-6708297D01*
X2619138Y-6711759D01*
X2619283Y-6711947D01*
X2621917Y-6715539D01*
X2622049Y-6715729D01*
X2624513Y-6719440D01*
X2624637Y-6719638D01*
X2626926Y-6723461D01*
X2627043Y-6723664D01*
X2629148Y-6727588D01*
X2629255Y-6727799D01*
X2631173Y-6731820D01*
X2631267Y-6732031D01*
X2632997Y-6736135D01*
X2633083Y-6736356D01*
X2634617Y-6740537D01*
X2634693Y-6740758D01*
X2636029Y-6745008D01*
X2636095Y-6745234D01*
X2637231Y-6749539D01*
X2637284Y-6749765D01*
X2638219Y-6754121D01*
X2638264Y-6754355D01*
X2638991Y-6758749D01*
X2639024Y-6758980D01*
X2639545Y-6763405D01*
X2639565Y-6763638D01*
X2639877Y-6768081D01*
X2639888Y-6768312D01*
X2639994Y-6772765D01*
X2639997Y-6772884D01*
X2639997Y-6958304D01*
X2639994Y-6958423D01*
X2639888Y-6962876D01*
X2639877Y-6963107D01*
X2639565Y-6967550D01*
X2639545Y-6967783D01*
X2639024Y-6972208D01*
X2638991Y-6972439D01*
X2638264Y-6976833D01*
X2638219Y-6977067D01*
X2637284Y-6981423D01*
X2637231Y-6981649D01*
X2636095Y-6985955D01*
X2636029Y-6986181D01*
X2634693Y-6990430D01*
X2634617Y-6990651D01*
X2633083Y-6994832D01*
X2632997Y-6995053D01*
X2631267Y-6999157D01*
X2631173Y-6999368D01*
X2629255Y-7003389D01*
X2629148Y-7003600D01*
X2627043Y-7007524D01*
X2626926Y-7007727D01*
X2624637Y-7011550D01*
X2624513Y-7011748D01*
X2622049Y-7015459D01*
X2621917Y-7015650D01*
X2619283Y-7019241D01*
X2619138Y-7019429D01*
X2616339Y-7022891D01*
X2616187Y-7023072D01*
X2613225Y-7026402D01*
X2613065Y-7026572D01*
X2609954Y-7029757D01*
X2609789Y-7029919D01*
X2606530Y-7032957D01*
X2606354Y-7033115D01*
X2602958Y-7035995D01*
X2602776Y-7036142D01*
X2599248Y-7038860D01*
X2599057Y-7038997D01*
X2595405Y-7041548D01*
X2595209Y-7041680D01*
X2591442Y-7044054D01*
X2591241Y-7044174D01*
X2587365Y-7046371D01*
X2587160Y-7046480D01*
X2583187Y-7048494D01*
X2582974Y-7048596D01*
X2578910Y-7050420D01*
X2578696Y-7050511D01*
X2574554Y-7052144D01*
X2574330Y-7052226D01*
X2570114Y-7053661D01*
X2569893Y-7053732D01*
X2565613Y-7054969D01*
X2565384Y-7055027D01*
X2561051Y-7056061D01*
X2560822Y-7056109D01*
X2556449Y-7056940D01*
X2556217Y-7056981D01*
X2551805Y-7057605D01*
X2551572Y-7057631D01*
X2547137Y-7058047D01*
X2546903Y-7058065D01*
X2542456Y-7058273D01*
X2542222Y-7058279D01*
G37*
D36*
G01*
X2389987Y-6594353D03*
G01*
X2689987Y-6594353D03*
D37*
G01*
X1572997Y-4549990D03*
G01*
X1826997Y-4549990D03*
G01*
X1826997Y-5429981D03*
G01*
X1572997Y-5429981D03*
D38*
G01*
X2147011Y-4969510D03*
G01*
X2147011Y-5096510D03*
G01*
X2147011Y-5223510D03*
G01*
X2147011Y-5350510D03*
G01*
X2853004Y-4969510D03*
G01*
X2853004Y-5096510D03*
G01*
X2853004Y-5223510D03*
G01*
X2853004Y-5350510D03*
D39*
G01*
X4066795Y-5206399D03*
G01*
X4116782Y-5206399D03*
G01*
X4166795Y-5206399D03*
G01*
X4216782Y-5206399D03*
G01*
X4266794Y-5206399D03*
G01*
X4316782Y-5206399D03*
G01*
X4366794Y-5206399D03*
G01*
X4416781Y-5206399D03*
D40*
G01*
X4491788Y-5281405D03*
G01*
X4491788Y-5331392D03*
G01*
X4491788Y-5381405D03*
G01*
X4491788Y-5431392D03*
G01*
X4491788Y-5481405D03*
G01*
X4491788Y-5531392D03*
G01*
X4491788Y-5581404D03*
G01*
X4491788Y-5631392D03*
D39*
G01*
X4416781Y-5706398D03*
G01*
X4366794Y-5706398D03*
G01*
X4316782Y-5706398D03*
G01*
X4266794Y-5706398D03*
G01*
X4216782Y-5706398D03*
G01*
X4166795Y-5706398D03*
G01*
X4116782Y-5706398D03*
G01*
X4066795Y-5706398D03*
D40*
G01*
X3991789Y-5631392D03*
G01*
X3991789Y-5581404D03*
G01*
X3991789Y-5531392D03*
G01*
X3991789Y-5481405D03*
G01*
X3991789Y-5431392D03*
G01*
X3991789Y-5381405D03*
G01*
X3991789Y-5331392D03*
G01*
X3991789Y-5281405D03*
D41*
G01*
X4241775Y-5456386D03*
D42*
G01*
X4204990Y-6370988D03*
G01*
X4139991Y-6370988D03*
G01*
X4074993Y-6370988D03*
G01*
X4074993Y-6568986D03*
G01*
X4139991Y-6568986D03*
G01*
X4204990Y-6568986D03*
D43*
G01*
X4920072Y-5494505D03*
G01*
X4833506Y-5494505D03*
D44*
G01*
X4953744Y-5113505D03*
G01*
X4844732Y-5113505D03*
G01*
X4844732Y-4986505D03*
G01*
X4953744Y-4986505D03*
G01*
X4953744Y-5367505D03*
G01*
X4844732Y-5367505D03*
D45*
G01*
X4571989Y-5884499D03*
G01*
X4571989Y-5993510D03*
G01*
X4444989Y-5884499D03*
G01*
X4444989Y-5993510D03*
D44*
G01*
X4844732Y-5240505D03*
G01*
X4953744Y-5240505D03*
G01*
X4953744Y-5621505D03*
G01*
X4844732Y-5621505D03*
G01*
X4844732Y-5748505D03*
G01*
X4953744Y-5748505D03*
D45*
G01*
X4698989Y-5993510D03*
G01*
X4698989Y-5884499D03*
D44*
G01*
X4194497Y-6039987D03*
G01*
X4085485Y-6039987D03*
D45*
G01*
X4439991Y-6185481D03*
G01*
X4439991Y-6294493D03*
G01*
X4319991Y-6294493D03*
G01*
X4319991Y-6185481D03*
G01*
X4569990Y-6294493D03*
G01*
X4569990Y-6185481D03*
G01*
X4699990Y-6185481D03*
G01*
X4699990Y-6294493D03*
D46*
G01*
X4317989Y-5883022D03*
G01*
X4317989Y-5969588D03*
D43*
G01*
X4193274Y-5889988D03*
G01*
X4106708Y-5889988D03*
G01*
X3726272Y-5100805D03*
G01*
X3639706Y-5100805D03*
G01*
X3726272Y-5227805D03*
G01*
X3639706Y-5227805D03*
G01*
X3726272Y-5354805D03*
G01*
X3639706Y-5354805D03*
D44*
G01*
X3718295Y-5670405D03*
G01*
X3609284Y-5670405D03*
G01*
X3718295Y-5797405D03*
G01*
X3609284Y-5797405D03*
G01*
X3704498Y-6139987D03*
G01*
X3595486Y-6139987D03*
D46*
G01*
X3579992Y-5916705D03*
G01*
X3579992Y-6003270D03*
G01*
X3709982Y-5916710D03*
G01*
X3709982Y-6003276D03*
D45*
G01*
X4179991Y-4815484D03*
G01*
X4179991Y-4924496D03*
G01*
X3879992Y-4924496D03*
G01*
X3879992Y-4815484D03*
G01*
X3749992Y-4815484D03*
G01*
X3749992Y-4924496D03*
D46*
G01*
X4009991Y-4846707D03*
G01*
X4009991Y-4933273D03*
D43*
G01*
X4346708Y-4939990D03*
G01*
X4433274Y-4939990D03*
G01*
X3636709Y-5489989D03*
G01*
X3723275Y-5489989D03*
D47*
G01*
X3910002Y-4579934D03*
G01*
X3909987Y-4420034D03*
D45*
G01*
X4829990Y-6645480D03*
G01*
X4829990Y-6754492D03*
G01*
X4699990Y-6645480D03*
G01*
X4699990Y-6754492D03*
D48*
G01*
X5564088Y-7801787D03*
G01*
X8777188Y-7801787D03*
D49*
G01*
X5564088Y-8030387D03*
G01*
X5564088Y-7560487D03*
G01*
X8789888Y-7573187D03*
G01*
X8789888Y-8030387D03*
D50*
G01*
X5999988Y-9279991D03*
G01*
X6250000Y-9279991D03*
D21*
G01*
X3929994Y-8259983D03*
G01*
X3729989Y-8259983D03*
D44*
G01*
X3325487Y-4119991D03*
G01*
X3434499Y-4119991D03*
D51*
G01*
X3149600Y-5634202D03*
G01*
X3149600Y-5888202D03*
G01*
X2895600Y-5634202D03*
G01*
X2895600Y-5888202D03*
G01*
X2641600Y-5634202D03*
D52*
G01*
X2641589Y-5888205D03*
D53*
G01*
X9169984Y-3339998D03*
G01*
X329996Y-9179991D03*
D50*
G01*
X2389987Y-6469989D03*
G01*
X5250002Y-6469989D03*
G01*
X3369995Y-6229985D03*
G01*
X3369995Y-4780000D03*
G01*
X5250002Y-4780000D03*
D54*
G01*
X129989Y-6429984D03*
G01*
X339989Y-6429984D03*
G01*
X549988Y-6429984D03*
G01*
X749988Y-6429984D03*
G01*
X749988Y-6639984D03*
G01*
X549988Y-6639984D03*
G01*
X339989Y-6639984D03*
G01*
X129989Y-6639984D03*
G01*
X749988Y-6849983D03*
G01*
X549988Y-6849983D03*
G01*
X339989Y-6849983D03*
G01*
X129989Y-6849983D03*
G01*
X749988Y-7059983D03*
G01*
X549988Y-7059983D03*
G01*
X339989Y-7059983D03*
G01*
X129989Y-7059983D03*
G01*
X749988Y-7269982D03*
G01*
X549988Y-7269982D03*
G01*
X339989Y-7269982D03*
G01*
X129989Y-7269982D03*
G01*
X6959988Y-8229973D03*
G01*
X7169988Y-8229973D03*
G01*
X7379987Y-8229973D03*
G01*
X7579987Y-8229973D03*
G01*
X6959988Y-8019973D03*
G01*
X7169988Y-8019973D03*
G01*
X7379987Y-8019973D03*
G01*
X7579987Y-8019973D03*
G01*
X6959988Y-7809974D03*
G01*
X7169988Y-7809974D03*
G01*
X7379987Y-7809974D03*
G01*
X7579987Y-7809974D03*
G01*
X6959988Y-7599974D03*
G01*
X7169988Y-7599974D03*
G01*
X7379987Y-7599974D03*
G01*
X7579987Y-7599974D03*
G01*
X7579987Y-7389975D03*
G01*
X7379987Y-7389975D03*
G01*
X7169988Y-7389975D03*
G01*
X6959988Y-7389975D03*
G01*
X6739989Y-7389975D03*
G01*
X6739989Y-7599974D03*
G01*
X6739989Y-7809974D03*
G01*
X6739989Y-8019973D03*
G01*
X6739989Y-8229973D03*
D53*
G01*
X329996Y-3329990D03*
G01*
X5550001Y-3339998D03*
G01*
X5549620Y-9179991D03*
G01*
X9169984Y-9179991D03*
M02*
