G04 Layer: BottomSolderMaskLayer*
G04 EasyEDA v6.5.51, 2025-10-24 11:51:23*
G04 97615f8f373a41e584ce2743ba089a90,41e67a4a1722464fbd0118792d3d5ae6,10*
G04 Gerber Generator version 0.2*
G04 Scale: 100 percent, Rotated: No, Reflected: No *
G04 Dimensions in millimeters *
G04 leading zeros omitted , absolute positions ,4 integer and 5 decimal *
%FSLAX45Y45*%
%MOMM*%

%AMMACRO1*4,1,8,-6.271,-6.3008,-6.3008,-6.271,-6.3008,6.2711,-6.271,6.3008,6.271,6.3008,6.3008,6.2711,6.3008,-6.271,6.271,-6.3008,-6.271,-6.3008,0*%
%AMMACRO2*4,1,8,-0.8707,-0.9,-0.9,-0.8707,-0.9,0.8707,-0.8707,0.9,0.8707,0.9,0.9,0.8707,0.9,-0.8707,0.8707,-0.9,-0.8707,-0.9,0*%
%AMMACRO3*4,1,8,-0.9211,-0.9508,-0.9508,-0.921,-0.9508,0.9211,-0.9211,0.9508,0.921,0.9508,0.9508,0.9211,0.9508,-0.921,0.921,-0.9508,-0.9211,-0.9508,0*%
%AMMACRO4*4,1,8,-2.4211,-0.6508,-2.4508,-0.621,-2.4508,0.6211,-2.4211,0.6508,2.421,0.6508,2.4508,0.6211,2.4508,-0.621,2.421,-0.6508,-2.4211,-0.6508,0*%
%AMMACRO5*4,1,8,-4.021,-5.5508,-4.0508,-5.521,-4.0508,5.521,-4.021,5.5508,4.021,5.5508,4.0508,5.521,4.0508,-5.521,4.021,-5.5508,-4.021,-5.5508,0*%
%AMMACRO6*4,1,8,-0.8085,-0.8382,-0.8382,-0.8084,-0.8382,0.8085,-0.8085,0.8382,0.8084,0.8382,0.8382,0.8085,0.8382,-0.8084,0.8084,-0.8382,-0.8085,-0.8382,0*%
%AMMACRO7*4,1,8,-0.8211,-0.8508,-0.8508,-0.821,-0.8508,0.8211,-0.8211,0.8508,0.821,0.8508,0.8508,0.8211,0.8508,-0.821,0.821,-0.8508,-0.8211,-0.8508,0*%
%ADD10MACRO1*%
%ADD11MACRO2*%
%ADD12C,1.8000*%
%ADD13C,1.9016*%
%ADD14MACRO3*%
%ADD15MACRO4*%
%ADD16MACRO5*%
%ADD17C,1.7016*%
%ADD18C,1.6764*%
%ADD19C,0.0113*%
%ADD20MACRO6*%
%ADD21C,6.1016*%
%ADD22MACRO7*%

%LPD*%
D10*
G01*
X7179984Y-7809984D03*
D11*
G01*
X3915917Y-4119879D03*
D12*
G01*
X4169918Y-4119879D03*
G01*
X4423918Y-4119879D03*
D13*
G01*
X5550001Y-6682994D03*
D14*
G01*
X5549988Y-6936986D03*
D15*
G01*
X259994Y-8504986D03*
G01*
X259994Y-7994980D03*
G01*
X9229986Y-7544981D03*
G01*
X9229986Y-8054987D03*
G01*
X279384Y-4370809D03*
G01*
X279384Y-3860802D03*
D16*
G01*
X434787Y-6849983D03*
D17*
G01*
X5999988Y-9279991D03*
G01*
X6250000Y-9279991D03*
D18*
G01*
X3149600Y-5634202D03*
G01*
X3149600Y-5888202D03*
G01*
X2895600Y-5634202D03*
G01*
X2895600Y-5888202D03*
G01*
X2641600Y-5634202D03*
D20*
G01*
X2641589Y-5888205D03*
D21*
G01*
X9169984Y-3339998D03*
G01*
X329996Y-9179991D03*
D17*
G01*
X2389987Y-6469989D03*
G01*
X5250002Y-6469989D03*
G01*
X3369995Y-6229985D03*
G01*
X3369995Y-4780000D03*
G01*
X5250002Y-4780000D03*
D22*
G01*
X129989Y-6429984D03*
G01*
X339989Y-6429984D03*
G01*
X549988Y-6429984D03*
G01*
X749988Y-6429984D03*
G01*
X749988Y-6639984D03*
G01*
X549988Y-6639984D03*
G01*
X339989Y-6639984D03*
G01*
X129989Y-6639984D03*
G01*
X749988Y-6849983D03*
G01*
X549988Y-6849983D03*
G01*
X339989Y-6849983D03*
G01*
X129989Y-6849983D03*
G01*
X749988Y-7059983D03*
G01*
X549988Y-7059983D03*
G01*
X339989Y-7059983D03*
G01*
X129989Y-7059983D03*
G01*
X749988Y-7269982D03*
G01*
X549988Y-7269982D03*
G01*
X339989Y-7269982D03*
G01*
X129989Y-7269982D03*
G01*
X6959988Y-8229973D03*
G01*
X7169988Y-8229973D03*
G01*
X7379987Y-8229973D03*
G01*
X7579987Y-8229973D03*
G01*
X6959988Y-8019973D03*
G01*
X7169988Y-8019973D03*
G01*
X7379987Y-8019973D03*
G01*
X7579987Y-8019973D03*
G01*
X6959988Y-7809974D03*
G01*
X7169988Y-7809974D03*
G01*
X7379987Y-7809974D03*
G01*
X7579987Y-7809974D03*
G01*
X6959988Y-7599974D03*
G01*
X7169988Y-7599974D03*
G01*
X7379987Y-7599974D03*
G01*
X7579987Y-7599974D03*
G01*
X7579987Y-7389975D03*
G01*
X7379987Y-7389975D03*
G01*
X7169988Y-7389975D03*
G01*
X6959988Y-7389975D03*
G01*
X6739989Y-7389975D03*
G01*
X6739989Y-7599974D03*
G01*
X6739989Y-7809974D03*
G01*
X6739989Y-8019973D03*
G01*
X6739989Y-8229973D03*
D21*
G01*
X329996Y-3329990D03*
G01*
X5550001Y-3339998D03*
G01*
X5549620Y-9179991D03*
G01*
X9169984Y-9179991D03*
M02*
