G04 Layer: BottomLayer*
G04 EasyEDA v6.5.51, 2025-10-24 11:51:23*
G04 97615f8f373a41e584ce2743ba089a90,41e67a4a1722464fbd0118792d3d5ae6,10*
G04 Gerber Generator version 0.2*
G04 Scale: 100 percent, Rotated: No, Reflected: No *
G04 Dimensions in millimeters *
G04 leading zeros omitted , absolute positions ,4 integer and 5 decimal *
%FSLAX45Y45*%
%MOMM*%

%ADD10C,1.0000*%
%ADD11C,0.2540*%
%ADD12R,12.5000X12.5000*%
%ADD13R,4.8000X1.2000*%
%ADD14R,8.0000X11.0000*%
%ADD15R,1.7000X1.7000*%
%ADD16C,1.7000*%
%ADD17C,1.8000*%
%ADD18R,1.8000X1.8000*%
%ADD19R,0.0139X1.8000*%
%ADD20C,1.6000*%
%ADD21C,1.5748*%
%ADD22R,1.5748X1.5748*%
%ADD23C,6.0000*%
%ADD24R,1.6000X1.6000*%
%ADD25C,0.6200*%

%LPD*%
G36*
X36068Y-9484055D02*
G01*
X32156Y-9483293D01*
X28905Y-9481108D01*
X26670Y-9477806D01*
X25908Y-9473895D01*
X25908Y-9342882D01*
X26822Y-9338614D01*
X29464Y-9335109D01*
X30632Y-9334500D01*
X28905Y-9333331D01*
X26670Y-9330080D01*
X25908Y-9326168D01*
X25908Y-9033814D01*
X26670Y-9029903D01*
X28905Y-9026601D01*
X30632Y-9025432D01*
X29464Y-9024823D01*
X26822Y-9021368D01*
X25908Y-9017101D01*
X25908Y-8601049D01*
X26670Y-8597188D01*
X28905Y-8593886D01*
X32156Y-8591702D01*
X36068Y-8590889D01*
X133654Y-8590889D01*
X133654Y-8541359D01*
X36068Y-8541359D01*
X32156Y-8540597D01*
X28905Y-8538362D01*
X26670Y-8535060D01*
X25908Y-8531199D01*
X25908Y-8478824D01*
X26670Y-8474913D01*
X28905Y-8471611D01*
X32156Y-8469426D01*
X36068Y-8468664D01*
X133654Y-8468664D01*
X133654Y-8419084D01*
X36068Y-8419084D01*
X32156Y-8418322D01*
X28905Y-8416137D01*
X26670Y-8412835D01*
X25908Y-8408924D01*
X25908Y-8091068D01*
X26670Y-8087156D01*
X28905Y-8083854D01*
X32156Y-8081670D01*
X36068Y-8080908D01*
X133654Y-8080908D01*
X133654Y-8031327D01*
X36068Y-8031327D01*
X32156Y-8030565D01*
X28905Y-8028381D01*
X26670Y-8025079D01*
X25908Y-8021167D01*
X25908Y-7968792D01*
X26670Y-7964931D01*
X28905Y-7961630D01*
X32156Y-7959394D01*
X36068Y-7958632D01*
X133654Y-7958632D01*
X133654Y-7909102D01*
X36068Y-7909102D01*
X32156Y-7908290D01*
X28905Y-7906105D01*
X26670Y-7902803D01*
X25908Y-7898942D01*
X25908Y-7436053D01*
X26670Y-7432141D01*
X28905Y-7428890D01*
X32156Y-7426655D01*
X36068Y-7425893D01*
X228447Y-7425893D01*
X228447Y-7316317D01*
X176326Y-7316317D01*
X176326Y-7386066D01*
X175564Y-7389926D01*
X173380Y-7393228D01*
X170078Y-7395413D01*
X166166Y-7396225D01*
X93776Y-7396225D01*
X89916Y-7395413D01*
X86614Y-7393228D01*
X84429Y-7389926D01*
X83616Y-7386066D01*
X83616Y-7316317D01*
X36068Y-7316317D01*
X32156Y-7315555D01*
X28905Y-7313371D01*
X26670Y-7310069D01*
X25908Y-7306157D01*
X25908Y-7233818D01*
X26670Y-7229906D01*
X28905Y-7226604D01*
X32156Y-7224420D01*
X36068Y-7223658D01*
X83616Y-7223658D01*
X83616Y-7131354D01*
X36068Y-7131354D01*
X32156Y-7130542D01*
X28905Y-7128357D01*
X26670Y-7125055D01*
X25908Y-7121194D01*
X25908Y-6578803D01*
X26670Y-6574891D01*
X28905Y-6571589D01*
X32156Y-6569405D01*
X36068Y-6568643D01*
X83616Y-6568643D01*
X83616Y-6476339D01*
X36068Y-6476339D01*
X32156Y-6475577D01*
X28905Y-6473342D01*
X26670Y-6470040D01*
X25908Y-6466179D01*
X25908Y-6393789D01*
X26670Y-6389928D01*
X28905Y-6386626D01*
X32156Y-6384391D01*
X36068Y-6383629D01*
X83616Y-6383629D01*
X83616Y-6313932D01*
X84429Y-6310020D01*
X86614Y-6306718D01*
X89916Y-6304534D01*
X93776Y-6303772D01*
X166166Y-6303772D01*
X170078Y-6304534D01*
X173380Y-6306718D01*
X175564Y-6310020D01*
X176326Y-6313932D01*
X176326Y-6383629D01*
X228447Y-6383629D01*
X228447Y-6274054D01*
X36068Y-6274054D01*
X32156Y-6273292D01*
X28905Y-6271107D01*
X26670Y-6267805D01*
X25908Y-6263894D01*
X25908Y-4469434D01*
X26466Y-4466132D01*
X28041Y-4463237D01*
X30124Y-4460544D01*
X32664Y-4458208D01*
X35864Y-4456836D01*
X153060Y-4456734D01*
X153060Y-4407154D01*
X45466Y-4407154D01*
X41554Y-4406392D01*
X38252Y-4404207D01*
X36068Y-4400905D01*
X35306Y-4396994D01*
X35306Y-4344619D01*
X36068Y-4340758D01*
X38252Y-4337456D01*
X41554Y-4335221D01*
X45466Y-4334459D01*
X153060Y-4334459D01*
X153060Y-4284929D01*
X45466Y-4284929D01*
X41554Y-4284116D01*
X38252Y-4281932D01*
X36068Y-4278630D01*
X35306Y-4274769D01*
X35306Y-3956862D01*
X36068Y-3953001D01*
X38252Y-3949700D01*
X41554Y-3947515D01*
X45466Y-3946702D01*
X153060Y-3946702D01*
X153060Y-3897172D01*
X45466Y-3897172D01*
X41554Y-3896410D01*
X38252Y-3894175D01*
X36068Y-3890873D01*
X35306Y-3887012D01*
X35306Y-3834637D01*
X36068Y-3830726D01*
X38252Y-3827424D01*
X41554Y-3825240D01*
X45466Y-3824478D01*
X153060Y-3824478D01*
X153060Y-3774897D01*
X39979Y-3774897D01*
X36423Y-3774744D01*
X33324Y-3773525D01*
X30835Y-3771392D01*
X28295Y-3768394D01*
X26517Y-3765346D01*
X25908Y-3761841D01*
X25908Y-3492855D01*
X26822Y-3488588D01*
X29464Y-3485134D01*
X30632Y-3484524D01*
X28905Y-3483356D01*
X26670Y-3480054D01*
X25908Y-3476193D01*
X25908Y-3183788D01*
X26670Y-3179927D01*
X28905Y-3176625D01*
X30632Y-3175457D01*
X29464Y-3174847D01*
X26822Y-3171393D01*
X25908Y-3167126D01*
X25908Y-3036062D01*
X26670Y-3032150D01*
X28905Y-3028899D01*
X32156Y-3026664D01*
X36068Y-3025902D01*
X167436Y-3025902D01*
X171805Y-3026867D01*
X175310Y-3029610D01*
X179933Y-3026664D01*
X183794Y-3025902D01*
X476199Y-3025902D01*
X480059Y-3026664D01*
X483362Y-3028899D01*
X484327Y-3030321D01*
X484784Y-3029508D01*
X488238Y-3026867D01*
X492556Y-3025902D01*
X9463938Y-3025902D01*
X9467799Y-3026664D01*
X9471101Y-3028899D01*
X9473285Y-3032150D01*
X9474098Y-3036062D01*
X9474098Y-3177590D01*
X9473082Y-3181908D01*
X9470390Y-3185414D01*
X9473285Y-3189935D01*
X9474098Y-3193796D01*
X9474098Y-3486200D01*
X9473285Y-3490061D01*
X9470390Y-3494582D01*
X9473082Y-3498087D01*
X9474098Y-3502406D01*
X9474098Y-7448905D01*
X9473285Y-7452766D01*
X9471101Y-7456068D01*
X9467799Y-7458303D01*
X9463938Y-7459065D01*
X9356344Y-7459065D01*
X9356344Y-7508595D01*
X9463938Y-7508595D01*
X9467799Y-7509408D01*
X9471101Y-7511592D01*
X9473285Y-7514894D01*
X9474098Y-7518755D01*
X9474098Y-7571181D01*
X9473285Y-7575042D01*
X9471101Y-7578344D01*
X9467799Y-7580528D01*
X9463938Y-7581341D01*
X9356344Y-7581341D01*
X9356344Y-7630871D01*
X9463938Y-7630871D01*
X9467799Y-7631633D01*
X9471101Y-7633868D01*
X9473285Y-7637170D01*
X9474098Y-7641031D01*
X9474098Y-7958886D01*
X9473285Y-7962798D01*
X9471101Y-7966100D01*
X9467799Y-7968284D01*
X9463938Y-7969046D01*
X9356344Y-7969046D01*
X9356344Y-8018627D01*
X9463938Y-8018627D01*
X9467799Y-8019389D01*
X9471101Y-8021624D01*
X9473285Y-8024875D01*
X9474098Y-8028787D01*
X9474098Y-8081162D01*
X9473285Y-8085074D01*
X9471101Y-8088325D01*
X9467799Y-8090560D01*
X9463938Y-8091322D01*
X9356344Y-8091322D01*
X9356344Y-8140903D01*
X9463938Y-8140903D01*
X9467799Y-8141665D01*
X9471101Y-8143849D01*
X9473285Y-8147151D01*
X9474098Y-8151063D01*
X9474098Y-9017558D01*
X9473082Y-9021927D01*
X9470390Y-9025382D01*
X9473285Y-9029903D01*
X9474098Y-9033814D01*
X9474098Y-9326168D01*
X9473285Y-9330080D01*
X9470390Y-9334550D01*
X9473082Y-9338056D01*
X9474098Y-9342374D01*
X9474098Y-9473895D01*
X9473285Y-9477806D01*
X9471101Y-9481108D01*
X9467799Y-9483293D01*
X9463938Y-9484055D01*
X9332518Y-9484055D01*
X9328200Y-9483140D01*
X9324746Y-9480448D01*
X9324289Y-9479635D01*
X9323374Y-9481108D01*
X9320072Y-9483293D01*
X9316161Y-9484055D01*
X9023807Y-9484055D01*
X9019895Y-9483293D01*
X9015272Y-9480346D01*
X9011767Y-9483090D01*
X9007449Y-9484055D01*
X5712155Y-9484055D01*
X5707837Y-9483140D01*
X5704332Y-9480448D01*
X5703925Y-9479635D01*
X5702960Y-9481108D01*
X5699658Y-9483293D01*
X5695797Y-9484055D01*
X5403392Y-9484055D01*
X5399532Y-9483293D01*
X5394909Y-9480346D01*
X5391404Y-9483090D01*
X5387035Y-9484055D01*
X492506Y-9484055D01*
X488238Y-9483140D01*
X484733Y-9480448D01*
X484327Y-9479635D01*
X483362Y-9481108D01*
X480059Y-9483293D01*
X476199Y-9484055D01*
X183794Y-9484055D01*
X179933Y-9483293D01*
X175310Y-9480346D01*
X171805Y-9483090D01*
X167436Y-9484055D01*
G37*

%LPC*%
G36*
X9013647Y-9466173D02*
G01*
X9013647Y-9336328D01*
X8884107Y-9336328D01*
X8884615Y-9337446D01*
X8897670Y-9359087D01*
X8912402Y-9379610D01*
X8928658Y-9398965D01*
X8946337Y-9417050D01*
X8965387Y-9433661D01*
X8985656Y-9448749D01*
X9007043Y-9462211D01*
X9012174Y-9464903D01*
G37*
G36*
X5393232Y-9466173D02*
G01*
X5393232Y-9336328D01*
X5263692Y-9336328D01*
X5277307Y-9359087D01*
X5291988Y-9379610D01*
X5308244Y-9399016D01*
X5325973Y-9417050D01*
X5344972Y-9433661D01*
X5365242Y-9448749D01*
X5386628Y-9462211D01*
X5391759Y-9464903D01*
G37*
G36*
X173634Y-9466173D02*
G01*
X173634Y-9336328D01*
X43535Y-9336328D01*
X44754Y-9337598D01*
X57708Y-9359087D01*
X72390Y-9379610D01*
X88646Y-9398965D01*
X106375Y-9417050D01*
X125374Y-9433661D01*
X145643Y-9448749D01*
X167030Y-9462211D01*
X172161Y-9464903D01*
G37*
G36*
X486359Y-9466122D02*
G01*
X487426Y-9465106D01*
X503783Y-9455708D01*
X524611Y-9441383D01*
X544271Y-9425533D01*
X562660Y-9408160D01*
X579628Y-9389465D01*
X595122Y-9369501D01*
X609041Y-9348368D01*
X615645Y-9336328D01*
X486359Y-9336328D01*
G37*
G36*
X5705957Y-9466122D02*
G01*
X5707075Y-9465106D01*
X5723382Y-9455708D01*
X5744210Y-9441383D01*
X5763869Y-9425533D01*
X5782259Y-9408210D01*
X5799226Y-9389465D01*
X5814720Y-9369501D01*
X5828639Y-9348368D01*
X5835243Y-9336328D01*
X5705957Y-9336328D01*
G37*
G36*
X9326321Y-9466122D02*
G01*
X9327438Y-9465106D01*
X9343745Y-9455708D01*
X9364573Y-9441383D01*
X9384284Y-9425533D01*
X9402673Y-9408160D01*
X9419640Y-9389465D01*
X9435134Y-9369501D01*
X9449003Y-9348368D01*
X9454997Y-9337497D01*
X9456013Y-9336328D01*
X9326321Y-9336328D01*
G37*
G36*
X6249974Y-9385858D02*
G01*
X6263792Y-9384944D01*
X6277406Y-9382252D01*
X6290513Y-9377832D01*
X6302908Y-9371685D01*
X6314440Y-9363964D01*
X6324854Y-9354870D01*
X6333998Y-9344456D01*
X6341668Y-9332925D01*
X6347815Y-9320479D01*
X6352286Y-9307372D01*
X6354978Y-9293809D01*
X6355892Y-9279991D01*
X6354978Y-9266174D01*
X6352286Y-9252559D01*
X6347815Y-9239453D01*
X6341668Y-9227058D01*
X6333998Y-9215526D01*
X6324854Y-9205112D01*
X6314440Y-9195968D01*
X6302908Y-9188297D01*
X6290513Y-9182150D01*
X6277406Y-9177680D01*
X6263792Y-9174988D01*
X6249974Y-9174073D01*
X6236157Y-9174988D01*
X6222593Y-9177680D01*
X6209487Y-9182150D01*
X6197041Y-9188297D01*
X6185509Y-9195968D01*
X6175095Y-9205112D01*
X6166002Y-9215526D01*
X6158280Y-9227058D01*
X6152184Y-9239453D01*
X6147714Y-9252559D01*
X6145022Y-9266174D01*
X6144107Y-9279991D01*
X6145022Y-9293809D01*
X6147714Y-9307372D01*
X6152184Y-9320479D01*
X6158280Y-9332925D01*
X6166002Y-9344456D01*
X6175095Y-9354870D01*
X6185509Y-9363964D01*
X6197041Y-9371685D01*
X6209487Y-9377832D01*
X6222593Y-9382252D01*
X6236157Y-9384944D01*
G37*
G36*
X5953658Y-9374936D02*
G01*
X5953658Y-9326321D01*
X5905042Y-9326321D01*
X5908294Y-9332925D01*
X5915964Y-9344456D01*
X5925108Y-9354870D01*
X5935522Y-9363964D01*
X5947054Y-9371685D01*
G37*
G36*
X6046317Y-9374936D02*
G01*
X6052921Y-9371685D01*
X6064453Y-9363964D01*
X6074867Y-9354870D01*
X6084011Y-9344456D01*
X6091682Y-9332925D01*
X6094933Y-9326321D01*
X6046317Y-9326321D01*
G37*
G36*
X7167575Y-9245650D02*
G01*
X7186422Y-9245650D01*
X7205167Y-9243720D01*
X7223607Y-9239961D01*
X7241540Y-9234322D01*
X7258862Y-9226854D01*
X7275322Y-9217710D01*
X7290765Y-9206992D01*
X7305090Y-9194698D01*
X7318044Y-9181084D01*
X7329576Y-9166148D01*
X7339533Y-9150197D01*
X7347813Y-9133281D01*
X7354366Y-9115602D01*
X7359091Y-9097416D01*
X7361936Y-9078772D01*
X7362901Y-9059976D01*
X7361936Y-9041180D01*
X7359091Y-9022537D01*
X7354366Y-9004350D01*
X7347813Y-8986672D01*
X7339533Y-8969756D01*
X7329576Y-8953804D01*
X7318044Y-8938869D01*
X7305090Y-8925255D01*
X7290765Y-8912961D01*
X7275322Y-8902242D01*
X7258862Y-8893098D01*
X7241540Y-8885631D01*
X7223607Y-8879992D01*
X7205167Y-8876233D01*
X7186422Y-8874302D01*
X7167575Y-8874302D01*
X7148830Y-8876233D01*
X7130389Y-8879992D01*
X7112457Y-8885631D01*
X7095134Y-8893098D01*
X7078675Y-8902242D01*
X7063231Y-8912961D01*
X7048906Y-8925255D01*
X7035952Y-8938869D01*
X7024420Y-8953804D01*
X7014464Y-8969756D01*
X7006183Y-8986672D01*
X6999630Y-9004350D01*
X6994906Y-9022537D01*
X6992061Y-9041180D01*
X6991096Y-9059976D01*
X6992061Y-9078772D01*
X6994906Y-9097416D01*
X6999630Y-9115602D01*
X7006183Y-9133281D01*
X7014464Y-9150197D01*
X7024420Y-9166148D01*
X7035952Y-9181084D01*
X7048906Y-9194698D01*
X7063231Y-9206992D01*
X7078675Y-9217710D01*
X7095134Y-9226854D01*
X7112457Y-9234322D01*
X7130389Y-9239961D01*
X7148830Y-9243720D01*
G37*
G36*
X6046317Y-9233611D02*
G01*
X6094933Y-9233611D01*
X6091682Y-9227058D01*
X6084011Y-9215526D01*
X6074867Y-9205112D01*
X6064453Y-9195968D01*
X6052921Y-9188297D01*
X6046317Y-9185046D01*
G37*
G36*
X5905042Y-9233611D02*
G01*
X5953658Y-9233611D01*
X5953658Y-9185046D01*
X5947054Y-9188297D01*
X5935522Y-9195968D01*
X5925108Y-9205112D01*
X5915964Y-9215526D01*
X5908294Y-9227058D01*
G37*
G36*
X5984341Y-9154922D02*
G01*
X5996432Y-9154922D01*
X6004052Y-9154160D01*
X6013551Y-9152839D01*
X6017514Y-9152026D01*
X6030112Y-9148521D01*
X6033922Y-9147200D01*
X6045911Y-9142018D01*
X6049518Y-9140139D01*
X6060694Y-9133382D01*
X6063996Y-9131046D01*
X6074156Y-9122867D01*
X6077102Y-9120124D01*
X6086043Y-9110573D01*
X6088634Y-9107474D01*
X6096203Y-9096806D01*
X6098336Y-9093403D01*
X6104382Y-9081820D01*
X6106007Y-9078112D01*
X6110478Y-9065818D01*
X6111595Y-9061958D01*
X6114288Y-9049156D01*
X6114897Y-9045143D01*
X6115964Y-9029750D01*
X6115964Y-8330234D01*
X6115050Y-8314893D01*
X6114542Y-8310880D01*
X6111951Y-8297976D01*
X6110884Y-8294014D01*
X6106515Y-8281568D01*
X6104940Y-8277859D01*
X6098895Y-8266074D01*
X6096812Y-8262620D01*
X6089243Y-8251799D01*
X6086703Y-8248650D01*
X6077762Y-8238947D01*
X6074765Y-8236153D01*
X6064554Y-8227822D01*
X6061252Y-8225434D01*
X6050026Y-8218576D01*
X6046419Y-8216696D01*
X6034328Y-8211413D01*
X6030468Y-8210042D01*
X6017768Y-8206435D01*
X6013805Y-8205622D01*
X6000750Y-8203793D01*
X5996686Y-8203539D01*
X5983478Y-8203539D01*
X5979414Y-8203793D01*
X5966358Y-8205622D01*
X5962396Y-8206435D01*
X5949696Y-8209991D01*
X5945835Y-8211362D01*
X5933744Y-8216646D01*
X5930138Y-8218525D01*
X5918911Y-8225383D01*
X5915558Y-8227771D01*
X5905347Y-8236102D01*
X5902401Y-8238896D01*
X5893409Y-8248599D01*
X5890869Y-8251748D01*
X5883300Y-8262569D01*
X5881217Y-8266023D01*
X5875223Y-8277758D01*
X5873597Y-8281517D01*
X5869228Y-8293963D01*
X5868162Y-8297875D01*
X5865571Y-8310829D01*
X5865063Y-8314690D01*
X5864098Y-8330285D01*
X5864148Y-9029598D01*
X5865215Y-9045194D01*
X5865774Y-9049156D01*
X5868517Y-9061958D01*
X5869635Y-9065818D01*
X5874054Y-9078112D01*
X5875680Y-9081820D01*
X5881725Y-9093250D01*
X5885434Y-9098991D01*
X5891479Y-9107474D01*
X5894019Y-9110573D01*
X5903010Y-9120124D01*
X5905957Y-9122867D01*
X5916117Y-9131046D01*
X5919419Y-9133382D01*
X5930595Y-9140139D01*
X5934202Y-9142018D01*
X5946190Y-9147200D01*
X5950000Y-9148521D01*
X5962599Y-9152026D01*
X5966510Y-9152839D01*
X5979414Y-9154617D01*
G37*
G36*
X486359Y-9023654D02*
G01*
X615645Y-9023654D01*
X609041Y-9011564D01*
X595122Y-8990482D01*
X579628Y-8970518D01*
X562660Y-8951772D01*
X544271Y-8934450D01*
X524611Y-8918549D01*
X503783Y-8904274D01*
X486359Y-8894216D01*
G37*
G36*
X5705957Y-9023654D02*
G01*
X5835243Y-9023654D01*
X5828639Y-9011615D01*
X5814720Y-8990482D01*
X5799226Y-8970518D01*
X5782259Y-8951772D01*
X5763869Y-8934450D01*
X5744210Y-8918600D01*
X5723382Y-8904274D01*
X5705957Y-8894216D01*
G37*
G36*
X8884107Y-9023654D02*
G01*
X9013647Y-9023654D01*
X9013647Y-8894267D01*
X9007043Y-8897721D01*
X8985656Y-8911234D01*
X8965387Y-8926322D01*
X8946337Y-8942933D01*
X8928658Y-8960967D01*
X8912402Y-8980322D01*
X8897670Y-9000896D01*
X8884615Y-9022537D01*
G37*
G36*
X5263692Y-9023654D02*
G01*
X5393232Y-9023654D01*
X5393232Y-8894267D01*
X5386628Y-8897772D01*
X5365242Y-8911234D01*
X5344972Y-8926322D01*
X5325973Y-8942933D01*
X5308244Y-8960967D01*
X5291988Y-8980322D01*
X5277307Y-9000896D01*
G37*
G36*
X9326321Y-9023654D02*
G01*
X9456013Y-9023654D01*
X9454997Y-9022486D01*
X9449003Y-9011564D01*
X9435134Y-8990482D01*
X9419640Y-8970518D01*
X9402673Y-8951772D01*
X9384284Y-8934450D01*
X9364573Y-8918549D01*
X9343745Y-8904274D01*
X9326321Y-8894216D01*
G37*
G36*
X43535Y-9023654D02*
G01*
X173634Y-9023654D01*
X173634Y-8894267D01*
X167030Y-8897721D01*
X145643Y-8911234D01*
X125374Y-8926322D01*
X106375Y-8942933D01*
X88646Y-8960967D01*
X72390Y-8980322D01*
X57708Y-9000896D01*
X44754Y-9022334D01*
G37*
G36*
X386334Y-8590889D02*
G01*
X499414Y-8590889D01*
X505764Y-8590178D01*
X511200Y-8588298D01*
X516128Y-8585200D01*
X520192Y-8581136D01*
X523290Y-8576208D01*
X525170Y-8570772D01*
X525881Y-8564422D01*
X525881Y-8541359D01*
X386334Y-8541359D01*
G37*
G36*
X386334Y-8468664D02*
G01*
X525881Y-8468664D01*
X525881Y-8445550D01*
X525170Y-8439251D01*
X523290Y-8433765D01*
X520192Y-8428888D01*
X516128Y-8424773D01*
X511200Y-8421725D01*
X505764Y-8419795D01*
X499414Y-8419084D01*
X386334Y-8419084D01*
G37*
G36*
X6555587Y-8460892D02*
G01*
X6861149Y-8460892D01*
X6861149Y-8276336D01*
X6786321Y-8276336D01*
X6786321Y-8346033D01*
X6785559Y-8349945D01*
X6783374Y-8353247D01*
X6780072Y-8355431D01*
X6776161Y-8356193D01*
X6703822Y-8356193D01*
X6699910Y-8355431D01*
X6696608Y-8353247D01*
X6694424Y-8349945D01*
X6693662Y-8346033D01*
X6693662Y-8276336D01*
X6623913Y-8276336D01*
X6620052Y-8275574D01*
X6616750Y-8273338D01*
X6614515Y-8270036D01*
X6613753Y-8266175D01*
X6613753Y-8193786D01*
X6614515Y-8189874D01*
X6616750Y-8186623D01*
X6620052Y-8184388D01*
X6623913Y-8183625D01*
X6693662Y-8183625D01*
X6693662Y-8128863D01*
X6529070Y-8128863D01*
X6529070Y-8434425D01*
X6529781Y-8440724D01*
X6531711Y-8446211D01*
X6534810Y-8451088D01*
X6538874Y-8455202D01*
X6543802Y-8458250D01*
X6549237Y-8460181D01*
G37*
G36*
X7498842Y-8460892D02*
G01*
X7804403Y-8460892D01*
X7810753Y-8460181D01*
X7816189Y-8458250D01*
X7821117Y-8455202D01*
X7825181Y-8451088D01*
X7828280Y-8446211D01*
X7830210Y-8440724D01*
X7830921Y-8434425D01*
X7830921Y-8128863D01*
X7626350Y-8128863D01*
X7626350Y-8183625D01*
X7696047Y-8183625D01*
X7699959Y-8184388D01*
X7703261Y-8186623D01*
X7705445Y-8189874D01*
X7706207Y-8193786D01*
X7706207Y-8266175D01*
X7705445Y-8270036D01*
X7703261Y-8273338D01*
X7699959Y-8275574D01*
X7696047Y-8276336D01*
X7626350Y-8276336D01*
X7626350Y-8346033D01*
X7625588Y-8349945D01*
X7623352Y-8353247D01*
X7620050Y-8355431D01*
X7616190Y-8356193D01*
X7543800Y-8356193D01*
X7539888Y-8355431D01*
X7536637Y-8353247D01*
X7534402Y-8349945D01*
X7533640Y-8346033D01*
X7533640Y-8276336D01*
X7498842Y-8276336D01*
G37*
G36*
X7498842Y-8183625D02*
G01*
X7533640Y-8183625D01*
X7533640Y-8128863D01*
X7498842Y-8128863D01*
G37*
G36*
X6786321Y-8183625D02*
G01*
X6861149Y-8183625D01*
X6861149Y-8128863D01*
X6786321Y-8128863D01*
G37*
G36*
X8990584Y-8140903D02*
G01*
X9103664Y-8140903D01*
X9103664Y-8091322D01*
X8964066Y-8091322D01*
X8964066Y-8114385D01*
X8964777Y-8120735D01*
X8966708Y-8126171D01*
X8969806Y-8131098D01*
X8973870Y-8135162D01*
X8978798Y-8138261D01*
X8984234Y-8140192D01*
G37*
G36*
X5983528Y-8124901D02*
G01*
X5996584Y-8124901D01*
X6000597Y-8124647D01*
X6013551Y-8122869D01*
X6017514Y-8122056D01*
X6030112Y-8118551D01*
X6033922Y-8117179D01*
X6045911Y-8111998D01*
X6049518Y-8110169D01*
X6060694Y-8103412D01*
X6063996Y-8101075D01*
X6074156Y-8092846D01*
X6077102Y-8090103D01*
X6086043Y-8080603D01*
X6088634Y-8077453D01*
X6096203Y-8066836D01*
X6098336Y-8063382D01*
X6104382Y-8051800D01*
X6106007Y-8048142D01*
X6110478Y-8035848D01*
X6111595Y-8031937D01*
X6114288Y-8019186D01*
X6114897Y-8015173D01*
X6115964Y-7999730D01*
X6115913Y-7230262D01*
X6114999Y-7214971D01*
X6114491Y-7210958D01*
X6111900Y-7198004D01*
X6110833Y-7194092D01*
X6106464Y-7181646D01*
X6104890Y-7177887D01*
X6098895Y-7166152D01*
X6096762Y-7162647D01*
X6089192Y-7151827D01*
X6086652Y-7148677D01*
X6077712Y-7139025D01*
X6074714Y-7136231D01*
X6064554Y-7127849D01*
X6061202Y-7125512D01*
X6049975Y-7118603D01*
X6046368Y-7116724D01*
X6034278Y-7111441D01*
X6030417Y-7110069D01*
X6017717Y-7106513D01*
X6013754Y-7105650D01*
X6000699Y-7103872D01*
X5996635Y-7103567D01*
X5983427Y-7103567D01*
X5979363Y-7103872D01*
X5966307Y-7105650D01*
X5962345Y-7106513D01*
X5949645Y-7110069D01*
X5945784Y-7111441D01*
X5933694Y-7116724D01*
X5930087Y-7118603D01*
X5918860Y-7125462D01*
X5915507Y-7127798D01*
X5905296Y-7136180D01*
X5902350Y-7138974D01*
X5893358Y-7148626D01*
X5890818Y-7151776D01*
X5883249Y-7162596D01*
X5881166Y-7166102D01*
X5875172Y-7177836D01*
X5873546Y-7181545D01*
X5869178Y-7193991D01*
X5868111Y-7197953D01*
X5865520Y-7210856D01*
X5865012Y-7214870D01*
X5864098Y-7230262D01*
X5864148Y-7999730D01*
X5865215Y-8015173D01*
X5865774Y-8019186D01*
X5868517Y-8031937D01*
X5869635Y-8035848D01*
X5874054Y-8048142D01*
X5875680Y-8051800D01*
X5881776Y-8063382D01*
X5883910Y-8066836D01*
X5891479Y-8077453D01*
X5894019Y-8080603D01*
X5903010Y-8090103D01*
X5905957Y-8092846D01*
X5916117Y-8101075D01*
X5919419Y-8103412D01*
X5930595Y-8110169D01*
X5934202Y-8111998D01*
X5946190Y-8117179D01*
X5950000Y-8118551D01*
X5962599Y-8122056D01*
X5966510Y-8122869D01*
X5979464Y-8124647D01*
G37*
G36*
X386334Y-8080908D02*
G01*
X499414Y-8080908D01*
X505764Y-8080197D01*
X511200Y-8078266D01*
X516128Y-8075218D01*
X520192Y-8071103D01*
X523290Y-8066227D01*
X525170Y-8060740D01*
X525881Y-8054441D01*
X525881Y-8031327D01*
X386334Y-8031327D01*
G37*
G36*
X8964066Y-8018627D02*
G01*
X9103664Y-8018627D01*
X9103664Y-7969046D01*
X8990584Y-7969046D01*
X8984234Y-7969758D01*
X8978798Y-7971688D01*
X8973870Y-7974787D01*
X8969806Y-7978851D01*
X8966708Y-7983778D01*
X8964777Y-7989214D01*
X8964066Y-7995564D01*
G37*
G36*
X386334Y-7958632D02*
G01*
X525881Y-7958632D01*
X525881Y-7935569D01*
X525170Y-7929219D01*
X523290Y-7923784D01*
X520192Y-7918856D01*
X516128Y-7914792D01*
X511200Y-7911693D01*
X505764Y-7909814D01*
X499414Y-7909102D01*
X386334Y-7909102D01*
G37*
G36*
X8990584Y-7630871D02*
G01*
X9103664Y-7630871D01*
X9103664Y-7581341D01*
X8964066Y-7581341D01*
X8964066Y-7604404D01*
X8964777Y-7610703D01*
X8966708Y-7616190D01*
X8969806Y-7621066D01*
X8973870Y-7625181D01*
X8978798Y-7628229D01*
X8984234Y-7630159D01*
G37*
G36*
X8964066Y-7508595D02*
G01*
X9103664Y-7508595D01*
X9103664Y-7459065D01*
X8990584Y-7459065D01*
X8984234Y-7459776D01*
X8978798Y-7461707D01*
X8973870Y-7464755D01*
X8969806Y-7468870D01*
X8966708Y-7473746D01*
X8964777Y-7479233D01*
X8964066Y-7485532D01*
G37*
G36*
X7498842Y-7491120D02*
G01*
X7533640Y-7491120D01*
X7533640Y-7436307D01*
X7498842Y-7436307D01*
G37*
G36*
X6786321Y-7491120D02*
G01*
X6861149Y-7491120D01*
X6861149Y-7436307D01*
X6786321Y-7436307D01*
G37*
G36*
X7626350Y-7491120D02*
G01*
X7830921Y-7491120D01*
X7830921Y-7185558D01*
X7830210Y-7179259D01*
X7828280Y-7173772D01*
X7825181Y-7168896D01*
X7821117Y-7164781D01*
X7816189Y-7161682D01*
X7810753Y-7159802D01*
X7804403Y-7159091D01*
X7498842Y-7159091D01*
X7498842Y-7343648D01*
X7533640Y-7343648D01*
X7533640Y-7273899D01*
X7534402Y-7270038D01*
X7536637Y-7266736D01*
X7539888Y-7264501D01*
X7543800Y-7263739D01*
X7616190Y-7263739D01*
X7620050Y-7264501D01*
X7623352Y-7266736D01*
X7625588Y-7270038D01*
X7626350Y-7273899D01*
X7626350Y-7343648D01*
X7696047Y-7343648D01*
X7699959Y-7344409D01*
X7703261Y-7346594D01*
X7705445Y-7349896D01*
X7706207Y-7353808D01*
X7706207Y-7426147D01*
X7705445Y-7430058D01*
X7703261Y-7433360D01*
X7699959Y-7435545D01*
X7696047Y-7436307D01*
X7626350Y-7436307D01*
G37*
G36*
X6529070Y-7491120D02*
G01*
X6693662Y-7491120D01*
X6693662Y-7436307D01*
X6623913Y-7436307D01*
X6620052Y-7435545D01*
X6616750Y-7433360D01*
X6614515Y-7430058D01*
X6613753Y-7426147D01*
X6613753Y-7353808D01*
X6614515Y-7349896D01*
X6616750Y-7346594D01*
X6620052Y-7344409D01*
X6623913Y-7343648D01*
X6693662Y-7343648D01*
X6693662Y-7273899D01*
X6694424Y-7270038D01*
X6696608Y-7266736D01*
X6699910Y-7264501D01*
X6703822Y-7263739D01*
X6776161Y-7263739D01*
X6780072Y-7264501D01*
X6783374Y-7266736D01*
X6785559Y-7270038D01*
X6786321Y-7273899D01*
X6786321Y-7343648D01*
X6861149Y-7343648D01*
X6861149Y-7159091D01*
X6555587Y-7159091D01*
X6549237Y-7159802D01*
X6543802Y-7161682D01*
X6538874Y-7164781D01*
X6534810Y-7168896D01*
X6531711Y-7173772D01*
X6529781Y-7179259D01*
X6529070Y-7185558D01*
G37*
G36*
X641146Y-7425893D02*
G01*
X834237Y-7425893D01*
X840536Y-7425181D01*
X846023Y-7423251D01*
X850900Y-7420203D01*
X855014Y-7416088D01*
X858062Y-7411212D01*
X859993Y-7405725D01*
X860704Y-7399426D01*
X860704Y-7316317D01*
X796340Y-7316317D01*
X796340Y-7386066D01*
X795578Y-7389926D01*
X793343Y-7393228D01*
X790041Y-7395413D01*
X786180Y-7396225D01*
X713790Y-7396225D01*
X709930Y-7395413D01*
X706628Y-7393228D01*
X704392Y-7389926D01*
X703630Y-7386066D01*
X703630Y-7316317D01*
X641146Y-7316317D01*
G37*
G36*
X176326Y-7223658D02*
G01*
X228447Y-7223658D01*
X228447Y-7131354D01*
X176326Y-7131354D01*
G37*
G36*
X641146Y-7223658D02*
G01*
X703630Y-7223658D01*
X703630Y-7131354D01*
X641146Y-7131354D01*
G37*
G36*
X796340Y-7223658D02*
G01*
X860704Y-7223658D01*
X860704Y-7131354D01*
X796340Y-7131354D01*
G37*
G36*
X5460542Y-7052919D02*
G01*
X5639409Y-7052919D01*
X5645759Y-7052157D01*
X5651195Y-7050278D01*
X5656122Y-7047179D01*
X5660186Y-7043115D01*
X5663285Y-7038187D01*
X5665165Y-7032752D01*
X5665876Y-7026402D01*
X5665876Y-6847535D01*
X5665165Y-6841236D01*
X5663285Y-6835749D01*
X5660186Y-6830872D01*
X5656122Y-6826758D01*
X5651195Y-6823709D01*
X5645759Y-6821779D01*
X5639409Y-6821068D01*
X5460542Y-6821068D01*
X5454243Y-6821779D01*
X5448757Y-6823709D01*
X5443880Y-6826758D01*
X5439765Y-6830872D01*
X5436717Y-6835749D01*
X5434787Y-6841236D01*
X5434076Y-6847535D01*
X5434076Y-7026402D01*
X5434787Y-7032752D01*
X5436717Y-7038187D01*
X5439765Y-7043115D01*
X5443880Y-7047179D01*
X5448757Y-7050278D01*
X5454243Y-7052157D01*
G37*
G36*
X5601360Y-6786625D02*
G01*
X5605830Y-6784543D01*
X5618124Y-6776720D01*
X5629300Y-6767474D01*
X5639257Y-6756857D01*
X5647842Y-6745071D01*
X5653735Y-6734352D01*
X5601360Y-6734352D01*
G37*
G36*
X5498642Y-6786625D02*
G01*
X5498642Y-6734352D01*
X5446217Y-6734352D01*
X5452160Y-6745071D01*
X5460695Y-6756857D01*
X5470652Y-6767474D01*
X5481878Y-6776720D01*
X5494172Y-6784543D01*
G37*
G36*
X5983478Y-6774942D02*
G01*
X5996533Y-6774942D01*
X6000546Y-6774688D01*
X6013500Y-6772909D01*
X6017463Y-6772097D01*
X6030061Y-6768592D01*
X6033871Y-6767220D01*
X6045860Y-6762038D01*
X6049467Y-6760209D01*
X6060643Y-6753453D01*
X6063945Y-6751116D01*
X6074105Y-6742887D01*
X6077051Y-6740144D01*
X6085992Y-6730644D01*
X6088583Y-6727545D01*
X6096152Y-6716877D01*
X6098286Y-6713423D01*
X6104331Y-6701840D01*
X6105956Y-6698183D01*
X6110427Y-6685889D01*
X6111544Y-6681978D01*
X6114288Y-6669227D01*
X6114846Y-6665163D01*
X6115913Y-6649770D01*
X6115913Y-5720283D01*
X6114999Y-5704941D01*
X6114491Y-5700928D01*
X6111900Y-5688025D01*
X6110833Y-5684062D01*
X6106464Y-5671616D01*
X6104890Y-5667908D01*
X6098844Y-5656122D01*
X6096762Y-5652668D01*
X6089192Y-5641848D01*
X6086652Y-5638698D01*
X6077712Y-5628995D01*
X6074714Y-5626201D01*
X6064504Y-5617870D01*
X6061202Y-5615482D01*
X6049975Y-5608624D01*
X6046368Y-5606745D01*
X6034278Y-5601462D01*
X6030417Y-5600090D01*
X6017717Y-5596483D01*
X6013754Y-5595670D01*
X6000699Y-5593842D01*
X5996635Y-5593588D01*
X5983427Y-5593588D01*
X5979363Y-5593842D01*
X5966307Y-5595670D01*
X5962345Y-5596483D01*
X5949645Y-5600039D01*
X5945784Y-5601411D01*
X5933694Y-5606694D01*
X5930087Y-5608574D01*
X5918860Y-5615432D01*
X5915507Y-5617819D01*
X5905296Y-5626150D01*
X5902350Y-5628944D01*
X5893358Y-5638647D01*
X5890818Y-5641797D01*
X5883249Y-5652617D01*
X5881166Y-5656072D01*
X5875121Y-5667806D01*
X5873546Y-5671566D01*
X5869178Y-5684012D01*
X5868111Y-5687923D01*
X5865520Y-5700877D01*
X5864961Y-5704840D01*
X5864098Y-5720283D01*
X5864098Y-6649821D01*
X5865164Y-6665214D01*
X5865723Y-6669227D01*
X5868466Y-6681978D01*
X5869584Y-6685889D01*
X5874004Y-6698183D01*
X5875680Y-6701840D01*
X5881725Y-6713423D01*
X5883859Y-6716877D01*
X5891428Y-6727545D01*
X5893968Y-6730644D01*
X5902960Y-6740144D01*
X5905906Y-6742887D01*
X5916066Y-6751116D01*
X5919368Y-6753453D01*
X5930544Y-6760209D01*
X5934151Y-6762038D01*
X5946140Y-6767220D01*
X5949950Y-6768592D01*
X5962548Y-6772097D01*
X5966510Y-6772909D01*
X5979414Y-6774688D01*
G37*
G36*
X7167575Y-6730136D02*
G01*
X7186422Y-6730136D01*
X7205167Y-6728256D01*
X7223607Y-6724446D01*
X7241540Y-6718808D01*
X7258862Y-6711391D01*
X7275322Y-6702247D01*
X7290765Y-6691477D01*
X7305090Y-6679234D01*
X7318044Y-6665569D01*
X7329576Y-6650685D01*
X7339533Y-6634683D01*
X7347813Y-6617817D01*
X7354366Y-6600139D01*
X7359091Y-6581902D01*
X7361936Y-6563309D01*
X7362901Y-6544513D01*
X7361936Y-6525666D01*
X7359091Y-6507073D01*
X7354366Y-6488836D01*
X7347813Y-6471158D01*
X7339533Y-6454292D01*
X7329576Y-6438290D01*
X7318044Y-6423406D01*
X7305090Y-6409740D01*
X7290765Y-6397498D01*
X7275322Y-6386728D01*
X7258862Y-6377584D01*
X7241540Y-6370167D01*
X7223607Y-6364528D01*
X7205167Y-6360718D01*
X7186422Y-6358839D01*
X7167575Y-6358839D01*
X7148830Y-6360718D01*
X7130389Y-6364528D01*
X7112457Y-6370167D01*
X7095134Y-6377584D01*
X7078675Y-6386728D01*
X7063231Y-6397498D01*
X7048906Y-6409740D01*
X7035952Y-6423406D01*
X7024420Y-6438290D01*
X7014464Y-6454292D01*
X7006183Y-6471158D01*
X6999630Y-6488836D01*
X6994906Y-6507073D01*
X6992061Y-6525666D01*
X6991096Y-6544513D01*
X6992061Y-6563309D01*
X6994906Y-6581902D01*
X6999630Y-6600139D01*
X7006183Y-6617817D01*
X7014464Y-6634683D01*
X7024420Y-6650685D01*
X7035952Y-6665569D01*
X7048906Y-6679234D01*
X7063231Y-6691477D01*
X7078675Y-6702247D01*
X7095134Y-6711391D01*
X7112457Y-6718808D01*
X7130389Y-6724446D01*
X7148830Y-6728256D01*
G37*
G36*
X5446217Y-6631635D02*
G01*
X5498642Y-6631635D01*
X5498642Y-6579311D01*
X5494172Y-6581444D01*
X5481878Y-6589217D01*
X5470652Y-6598513D01*
X5460695Y-6609130D01*
X5452160Y-6620865D01*
G37*
G36*
X5601360Y-6631635D02*
G01*
X5653735Y-6631635D01*
X5647842Y-6620865D01*
X5639257Y-6609130D01*
X5629300Y-6598513D01*
X5618124Y-6589217D01*
X5605830Y-6581444D01*
X5601360Y-6579311D01*
G37*
G36*
X2389936Y-6575755D02*
G01*
X2403754Y-6574840D01*
X2417368Y-6572148D01*
X2430475Y-6567678D01*
X2442870Y-6561581D01*
X2454402Y-6553860D01*
X2460752Y-6548323D01*
X2463850Y-6546443D01*
X2467457Y-6545783D01*
X5172557Y-6545783D01*
X5176113Y-6546443D01*
X5179263Y-6548323D01*
X5185460Y-6553758D01*
X5196992Y-6561480D01*
X5209438Y-6567576D01*
X5222544Y-6572046D01*
X5236108Y-6574739D01*
X5249926Y-6575653D01*
X5263743Y-6574739D01*
X5277358Y-6572046D01*
X5290464Y-6567576D01*
X5302859Y-6561480D01*
X5314391Y-6553758D01*
X5324805Y-6544665D01*
X5333949Y-6534251D01*
X5341620Y-6522720D01*
X5347766Y-6510274D01*
X5352237Y-6497167D01*
X5354929Y-6483604D01*
X5355844Y-6469786D01*
X5354929Y-6455968D01*
X5352237Y-6442354D01*
X5347766Y-6429248D01*
X5341620Y-6416852D01*
X5333949Y-6405321D01*
X5324805Y-6394907D01*
X5314391Y-6385763D01*
X5302859Y-6378092D01*
X5290464Y-6371945D01*
X5277358Y-6367475D01*
X5263743Y-6364782D01*
X5249926Y-6363868D01*
X5236108Y-6364782D01*
X5222544Y-6367475D01*
X5209438Y-6371945D01*
X5196992Y-6378092D01*
X5185460Y-6385763D01*
X5179009Y-6391452D01*
X5175859Y-6393332D01*
X5172303Y-6393992D01*
X2467508Y-6393992D01*
X2463901Y-6393332D01*
X2460802Y-6391452D01*
X2454402Y-6385864D01*
X2442870Y-6378143D01*
X2430475Y-6372047D01*
X2417368Y-6367576D01*
X2403754Y-6364884D01*
X2389936Y-6363970D01*
X2376119Y-6364884D01*
X2362555Y-6367576D01*
X2349449Y-6372047D01*
X2337003Y-6378143D01*
X2325471Y-6385864D01*
X2315057Y-6395008D01*
X2305964Y-6405422D01*
X2298242Y-6416903D01*
X2292146Y-6429349D01*
X2287676Y-6442456D01*
X2284984Y-6456019D01*
X2284069Y-6469888D01*
X2284984Y-6483705D01*
X2287676Y-6497269D01*
X2292146Y-6510375D01*
X2298242Y-6522821D01*
X2305964Y-6534302D01*
X2315057Y-6544716D01*
X2325471Y-6553860D01*
X2337003Y-6561581D01*
X2349449Y-6567678D01*
X2362555Y-6572148D01*
X2376119Y-6574840D01*
G37*
G36*
X176326Y-6568643D02*
G01*
X228447Y-6568643D01*
X228447Y-6476339D01*
X176326Y-6476339D01*
G37*
G36*
X641146Y-6568643D02*
G01*
X703630Y-6568643D01*
X703630Y-6476339D01*
X641146Y-6476339D01*
G37*
G36*
X796340Y-6568643D02*
G01*
X860704Y-6568643D01*
X860704Y-6476339D01*
X796340Y-6476339D01*
G37*
G36*
X641146Y-6383629D02*
G01*
X703630Y-6383629D01*
X703630Y-6313932D01*
X704392Y-6310020D01*
X706628Y-6306718D01*
X709930Y-6304534D01*
X713790Y-6303772D01*
X786180Y-6303772D01*
X790041Y-6304534D01*
X793343Y-6306718D01*
X795578Y-6310020D01*
X796340Y-6313932D01*
X796340Y-6383629D01*
X860704Y-6383629D01*
X860704Y-6300571D01*
X859993Y-6294221D01*
X858062Y-6288786D01*
X855014Y-6283858D01*
X850900Y-6279794D01*
X846023Y-6276695D01*
X840536Y-6274765D01*
X834237Y-6274054D01*
X641146Y-6274054D01*
G37*
G36*
X3369970Y-6335725D02*
G01*
X3383787Y-6334861D01*
X3397351Y-6332118D01*
X3410508Y-6327698D01*
X3422904Y-6321552D01*
X3434435Y-6313881D01*
X3444849Y-6304737D01*
X3453993Y-6294323D01*
X3461664Y-6282791D01*
X3467811Y-6270396D01*
X3472230Y-6257290D01*
X3474974Y-6243675D01*
X3475837Y-6229858D01*
X3474974Y-6216040D01*
X3472230Y-6202476D01*
X3467811Y-6189319D01*
X3461664Y-6176924D01*
X3453993Y-6165392D01*
X3448405Y-6159093D01*
X3446576Y-6155944D01*
X3445916Y-6152388D01*
X3445916Y-4866081D01*
X3446678Y-4862169D01*
X3448862Y-4858867D01*
X3452164Y-4856683D01*
X3456076Y-4855921D01*
X5172608Y-4855921D01*
X5176215Y-4856581D01*
X5179314Y-4858410D01*
X5185511Y-4863846D01*
X5196992Y-4871567D01*
X5209438Y-4877663D01*
X5222544Y-4882134D01*
X5236159Y-4884826D01*
X5249976Y-4885740D01*
X5263794Y-4884826D01*
X5277358Y-4882134D01*
X5290464Y-4877663D01*
X5302910Y-4871567D01*
X5314442Y-4863846D01*
X5324856Y-4854702D01*
X5333949Y-4844288D01*
X5341670Y-4832807D01*
X5347766Y-4820361D01*
X5352237Y-4807254D01*
X5354929Y-4793640D01*
X5355844Y-4779822D01*
X5354929Y-4766005D01*
X5352237Y-4752441D01*
X5347766Y-4739335D01*
X5341670Y-4726889D01*
X5333949Y-4715408D01*
X5324856Y-4704994D01*
X5314442Y-4695850D01*
X5302910Y-4688128D01*
X5290464Y-4682032D01*
X5277358Y-4677562D01*
X5263794Y-4674870D01*
X5249976Y-4673955D01*
X5236159Y-4674870D01*
X5222544Y-4677562D01*
X5209438Y-4682032D01*
X5196992Y-4688128D01*
X5185511Y-4695850D01*
X5178958Y-4701590D01*
X5175859Y-4703419D01*
X5172252Y-4704080D01*
X3447643Y-4704080D01*
X3444087Y-4703419D01*
X3440937Y-4701590D01*
X3434435Y-4695850D01*
X3422904Y-4688128D01*
X3410458Y-4682032D01*
X3397351Y-4677562D01*
X3383787Y-4674870D01*
X3369970Y-4673955D01*
X3356152Y-4674870D01*
X3342538Y-4677562D01*
X3329432Y-4682032D01*
X3317036Y-4688128D01*
X3305505Y-4695850D01*
X3295091Y-4704994D01*
X3285947Y-4715408D01*
X3278276Y-4726889D01*
X3272129Y-4739335D01*
X3267659Y-4752441D01*
X3264966Y-4766005D01*
X3264052Y-4779822D01*
X3264966Y-4793691D01*
X3267659Y-4807254D01*
X3272129Y-4820361D01*
X3278276Y-4832807D01*
X3285947Y-4844288D01*
X3291586Y-4850688D01*
X3293414Y-4853838D01*
X3294075Y-4857394D01*
X3294075Y-6152337D01*
X3293414Y-6155893D01*
X3291586Y-6158992D01*
X3285947Y-6165392D01*
X3278276Y-6176924D01*
X3272129Y-6189319D01*
X3267710Y-6202476D01*
X3264966Y-6216040D01*
X3264103Y-6229858D01*
X3264966Y-6243675D01*
X3267710Y-6257290D01*
X3272129Y-6270396D01*
X3278276Y-6282791D01*
X3285947Y-6294323D01*
X3295091Y-6304737D01*
X3305505Y-6313881D01*
X3317036Y-6321552D01*
X3329432Y-6327698D01*
X3342589Y-6332118D01*
X3356152Y-6334861D01*
G37*
G36*
X2468270Y-6108598D02*
G01*
X2967329Y-6108598D01*
X2975305Y-6107785D01*
X2982569Y-6105601D01*
X2989224Y-6102045D01*
X2995472Y-6096914D01*
X3103575Y-5988812D01*
X3106674Y-5986729D01*
X3110331Y-5985865D01*
X3114040Y-5986373D01*
X3122523Y-5989269D01*
X3135934Y-5991961D01*
X3149600Y-5992825D01*
X3163265Y-5991961D01*
X3176676Y-5989269D01*
X3189630Y-5984849D01*
X3201924Y-5978804D01*
X3213303Y-5971235D01*
X3223564Y-5962192D01*
X3232607Y-5951880D01*
X3240176Y-5940501D01*
X3246272Y-5928258D01*
X3250641Y-5915304D01*
X3253333Y-5901842D01*
X3254197Y-5888228D01*
X3253333Y-5874562D01*
X3250641Y-5861100D01*
X3246272Y-5848146D01*
X3240176Y-5835904D01*
X3232607Y-5824524D01*
X3223564Y-5814212D01*
X3213303Y-5805220D01*
X3201924Y-5797600D01*
X3189630Y-5791555D01*
X3176676Y-5787136D01*
X3163265Y-5784494D01*
X3149600Y-5783580D01*
X3135934Y-5784494D01*
X3122523Y-5787136D01*
X3109569Y-5791555D01*
X3097276Y-5797600D01*
X3085896Y-5805220D01*
X3075432Y-5814364D01*
X3072130Y-5816295D01*
X3068320Y-5816854D01*
X3064560Y-5815990D01*
X3061411Y-5813755D01*
X3059328Y-5810504D01*
X3058617Y-5806744D01*
X3058617Y-5715660D01*
X3059328Y-5711901D01*
X3061411Y-5708650D01*
X3064560Y-5706414D01*
X3068320Y-5705551D01*
X3072130Y-5706110D01*
X3075432Y-5708040D01*
X3085896Y-5717235D01*
X3097276Y-5724804D01*
X3103880Y-5728055D01*
X3103880Y-5679948D01*
X3068777Y-5679948D01*
X3064865Y-5679135D01*
X3061563Y-5676950D01*
X3059379Y-5673648D01*
X3058617Y-5669788D01*
X3058617Y-5598668D01*
X3059379Y-5594756D01*
X3061563Y-5591454D01*
X3064865Y-5589270D01*
X3068777Y-5588508D01*
X3103880Y-5588508D01*
X3103880Y-5540349D01*
X3097276Y-5543600D01*
X3085896Y-5551220D01*
X3075432Y-5560364D01*
X3072130Y-5562295D01*
X3068320Y-5562854D01*
X3064560Y-5561990D01*
X3061411Y-5559755D01*
X3059328Y-5556504D01*
X3058617Y-5552744D01*
X3058617Y-5145684D01*
X3059328Y-5141874D01*
X3061411Y-5138674D01*
X3064256Y-5135727D01*
X3069640Y-5127701D01*
X3073603Y-5118912D01*
X3076041Y-5109616D01*
X3076854Y-5100015D01*
X3076041Y-5090363D01*
X3073603Y-5081066D01*
X3069640Y-5072278D01*
X3064256Y-5064252D01*
X3057550Y-5057292D01*
X3049778Y-5051552D01*
X3041192Y-5047234D01*
X3031947Y-5044389D01*
X3022396Y-5043170D01*
X3012744Y-5043576D01*
X3003346Y-5045608D01*
X2994355Y-5049215D01*
X2986176Y-5054244D01*
X2978912Y-5060645D01*
X2972866Y-5068163D01*
X2968142Y-5076545D01*
X2964942Y-5085638D01*
X2963316Y-5095189D01*
X2963316Y-5104790D01*
X2964942Y-5114340D01*
X2968142Y-5123434D01*
X2972866Y-5131816D01*
X2979115Y-5139588D01*
X2980791Y-5142585D01*
X2981401Y-5145989D01*
X2981401Y-5548172D01*
X2980639Y-5551932D01*
X2978556Y-5555183D01*
X2975406Y-5557418D01*
X2971647Y-5558282D01*
X2967837Y-5557723D01*
X2964535Y-5555792D01*
X2959303Y-5551220D01*
X2947924Y-5543600D01*
X2935630Y-5537555D01*
X2922676Y-5533136D01*
X2909265Y-5530494D01*
X2895600Y-5529580D01*
X2881934Y-5530494D01*
X2868523Y-5533136D01*
X2855569Y-5537555D01*
X2843276Y-5543600D01*
X2831896Y-5551220D01*
X2821635Y-5560212D01*
X2812592Y-5570524D01*
X2804972Y-5581904D01*
X2798927Y-5594146D01*
X2794508Y-5607100D01*
X2791866Y-5620562D01*
X2790952Y-5634228D01*
X2791866Y-5647842D01*
X2794508Y-5661304D01*
X2798927Y-5674258D01*
X2804972Y-5686501D01*
X2812592Y-5697880D01*
X2821635Y-5708192D01*
X2831896Y-5717235D01*
X2843276Y-5724804D01*
X2855569Y-5730849D01*
X2868523Y-5735269D01*
X2881934Y-5737961D01*
X2895600Y-5738825D01*
X2909265Y-5737961D01*
X2922676Y-5735269D01*
X2935630Y-5730849D01*
X2947924Y-5724804D01*
X2959303Y-5717235D01*
X2964535Y-5712612D01*
X2967837Y-5710682D01*
X2971647Y-5710123D01*
X2975406Y-5710986D01*
X2978556Y-5713222D01*
X2980639Y-5716473D01*
X2981401Y-5720283D01*
X2981401Y-5794400D01*
X2980588Y-5798312D01*
X2978404Y-5801614D01*
X2974289Y-5805728D01*
X2971139Y-5807862D01*
X2967431Y-5808675D01*
X2963672Y-5808116D01*
X2947924Y-5797600D01*
X2935630Y-5791555D01*
X2922676Y-5787136D01*
X2909265Y-5784494D01*
X2895600Y-5783580D01*
X2881934Y-5784494D01*
X2868523Y-5787136D01*
X2855569Y-5791555D01*
X2843276Y-5797600D01*
X2831896Y-5805220D01*
X2821635Y-5814212D01*
X2812592Y-5824524D01*
X2804972Y-5835904D01*
X2798927Y-5848146D01*
X2794508Y-5861100D01*
X2791866Y-5874562D01*
X2790952Y-5888228D01*
X2791866Y-5901842D01*
X2794508Y-5915304D01*
X2798927Y-5928258D01*
X2804972Y-5940501D01*
X2812592Y-5951880D01*
X2821635Y-5962192D01*
X2831896Y-5971235D01*
X2843276Y-5978804D01*
X2855569Y-5984849D01*
X2868523Y-5989269D01*
X2881934Y-5991961D01*
X2895600Y-5992825D01*
X2909265Y-5991961D01*
X2922676Y-5989269D01*
X2935630Y-5984849D01*
X2947924Y-5978804D01*
X2959303Y-5971235D01*
X2969564Y-5962192D01*
X2978607Y-5951880D01*
X2986176Y-5940501D01*
X2992272Y-5928258D01*
X2996641Y-5915304D01*
X2999333Y-5901842D01*
X2999892Y-5892850D01*
X3000806Y-5889294D01*
X3002889Y-5886348D01*
X3029915Y-5859272D01*
X3033522Y-5856935D01*
X3037789Y-5856325D01*
X3041904Y-5857494D01*
X3045155Y-5860237D01*
X3046984Y-5864148D01*
X3047085Y-5868416D01*
X3045866Y-5874562D01*
X3044952Y-5888228D01*
X3045866Y-5901842D01*
X3048508Y-5915304D01*
X3051403Y-5923788D01*
X3051962Y-5927496D01*
X3051098Y-5931103D01*
X3048965Y-5934202D01*
X2954782Y-6028385D01*
X2951480Y-6030620D01*
X2947619Y-6031382D01*
X2487980Y-6031382D01*
X2484069Y-6030620D01*
X2480767Y-6028385D01*
X2401570Y-5949188D01*
X2399385Y-5945886D01*
X2398623Y-5942025D01*
X2398623Y-5015687D01*
X2399334Y-5011877D01*
X2401417Y-5008676D01*
X2404262Y-5005730D01*
X2409647Y-4997704D01*
X2413609Y-4988915D01*
X2416048Y-4979619D01*
X2416860Y-4970018D01*
X2416048Y-4960366D01*
X2413609Y-4951069D01*
X2409647Y-4942281D01*
X2404262Y-4934254D01*
X2397556Y-4927295D01*
X2389784Y-4921554D01*
X2381199Y-4917236D01*
X2371953Y-4914392D01*
X2362403Y-4913172D01*
X2352751Y-4913579D01*
X2343353Y-4915611D01*
X2334361Y-4919218D01*
X2326182Y-4924247D01*
X2318918Y-4930648D01*
X2312873Y-4938166D01*
X2308148Y-4946548D01*
X2304948Y-4955641D01*
X2303322Y-4965192D01*
X2303322Y-4974793D01*
X2304948Y-4984343D01*
X2308148Y-4993436D01*
X2312873Y-5001818D01*
X2319121Y-5009591D01*
X2320798Y-5012588D01*
X2321407Y-5015992D01*
X2321407Y-5961684D01*
X2322169Y-5969711D01*
X2324354Y-5976975D01*
X2327910Y-5983630D01*
X2333040Y-5989878D01*
X2440127Y-6096914D01*
X2446324Y-6102045D01*
X2453030Y-6105601D01*
X2460244Y-6107785D01*
G37*
G36*
X3822446Y-5996838D02*
G01*
X3831996Y-5995568D01*
X3841191Y-5992774D01*
X3849827Y-5988405D01*
X3861815Y-5979464D01*
X3865778Y-5978652D01*
X4419600Y-5978652D01*
X4427626Y-5977839D01*
X4434840Y-5975654D01*
X4441545Y-5972098D01*
X4447743Y-5966968D01*
X4646980Y-5767527D01*
X4652060Y-5761329D01*
X4655616Y-5754624D01*
X4657801Y-5747410D01*
X4658614Y-5739384D01*
X4658614Y-5525719D01*
X4659325Y-5521909D01*
X4661458Y-5518658D01*
X4664252Y-5515711D01*
X4669637Y-5507736D01*
X4673650Y-5498947D01*
X4676038Y-5489600D01*
X4676902Y-5479999D01*
X4676038Y-5470398D01*
X4673650Y-5461050D01*
X4669637Y-5452262D01*
X4664252Y-5444286D01*
X4657598Y-5437327D01*
X4649825Y-5431586D01*
X4641189Y-5427218D01*
X4631994Y-5424424D01*
X4622444Y-5423154D01*
X4612792Y-5423611D01*
X4603343Y-5425643D01*
X4594402Y-5429199D01*
X4586173Y-5434279D01*
X4578959Y-5440629D01*
X4572863Y-5448147D01*
X4568190Y-5456580D01*
X4564989Y-5465673D01*
X4563364Y-5475173D01*
X4563364Y-5484825D01*
X4564989Y-5494324D01*
X4568190Y-5503418D01*
X4572863Y-5511850D01*
X4579162Y-5519572D01*
X4580839Y-5522569D01*
X4581398Y-5525973D01*
X4581398Y-5719724D01*
X4580636Y-5723585D01*
X4578451Y-5726887D01*
X4407103Y-5898438D01*
X4403801Y-5900674D01*
X4399889Y-5901436D01*
X3865879Y-5901436D01*
X3861917Y-5900623D01*
X3849827Y-5891580D01*
X3841191Y-5887212D01*
X3831996Y-5884418D01*
X3822446Y-5883148D01*
X3812794Y-5883605D01*
X3803345Y-5885637D01*
X3794404Y-5889193D01*
X3786174Y-5894273D01*
X3778961Y-5900623D01*
X3772865Y-5908141D01*
X3768191Y-5916574D01*
X3764991Y-5925667D01*
X3763365Y-5935167D01*
X3763365Y-5944819D01*
X3764991Y-5954318D01*
X3768191Y-5963412D01*
X3772865Y-5971844D01*
X3778961Y-5979363D01*
X3786174Y-5985713D01*
X3794404Y-5990793D01*
X3803345Y-5994349D01*
X3812794Y-5996381D01*
G37*
G36*
X2563418Y-5992876D02*
G01*
X2719781Y-5992876D01*
X2726080Y-5992164D01*
X2731566Y-5990234D01*
X2736443Y-5987135D01*
X2740558Y-5983071D01*
X2743606Y-5978144D01*
X2745536Y-5972708D01*
X2746248Y-5966358D01*
X2746248Y-5810046D01*
X2745536Y-5803696D01*
X2743606Y-5798261D01*
X2740558Y-5793333D01*
X2736443Y-5789269D01*
X2731566Y-5786170D01*
X2726080Y-5784291D01*
X2719781Y-5783580D01*
X2563418Y-5783580D01*
X2557119Y-5784291D01*
X2551633Y-5786170D01*
X2546756Y-5789269D01*
X2542641Y-5793333D01*
X2539542Y-5798261D01*
X2537968Y-5802833D01*
X2535885Y-5806338D01*
X2532583Y-5808726D01*
X2528620Y-5809640D01*
X2524607Y-5808929D01*
X2521204Y-5806694D01*
X2501595Y-5787085D01*
X2499360Y-5783783D01*
X2498598Y-5779871D01*
X2498598Y-5286146D01*
X2499156Y-5282895D01*
X2500680Y-5279948D01*
X2503119Y-5277713D01*
X2529128Y-5260289D01*
X2531821Y-5259019D01*
X2534818Y-5258612D01*
X2584246Y-5258562D01*
X2587802Y-5259222D01*
X2590952Y-5261102D01*
X2596184Y-5265724D01*
X2604363Y-5270754D01*
X2613355Y-5274360D01*
X2622753Y-5276392D01*
X2632405Y-5276799D01*
X2641955Y-5275580D01*
X2651201Y-5272735D01*
X2659786Y-5268417D01*
X2667558Y-5262676D01*
X2674264Y-5255717D01*
X2679649Y-5247690D01*
X2683611Y-5238902D01*
X2686050Y-5229606D01*
X2686862Y-5220004D01*
X2686050Y-5210352D01*
X2683611Y-5201056D01*
X2679649Y-5192268D01*
X2674264Y-5184241D01*
X2667558Y-5177282D01*
X2659786Y-5171541D01*
X2651201Y-5167223D01*
X2641955Y-5164378D01*
X2632405Y-5163159D01*
X2622753Y-5163566D01*
X2613355Y-5165598D01*
X2604363Y-5169204D01*
X2596184Y-5174234D01*
X2591003Y-5178806D01*
X2587853Y-5180685D01*
X2584246Y-5181346D01*
X2520492Y-5181396D01*
X2512466Y-5182158D01*
X2505252Y-5184343D01*
X2498140Y-5188153D01*
X2438958Y-5227726D01*
X2432710Y-5232806D01*
X2427935Y-5238648D01*
X2424379Y-5245354D01*
X2422194Y-5252567D01*
X2421382Y-5260594D01*
X2421382Y-5799582D01*
X2422194Y-5807608D01*
X2424379Y-5814822D01*
X2427935Y-5821527D01*
X2433066Y-5827725D01*
X2520492Y-5915152D01*
X2526690Y-5920282D01*
X2531567Y-5922873D01*
X2534412Y-5925159D01*
X2536291Y-5928258D01*
X2536952Y-5931865D01*
X2536952Y-5966358D01*
X2537663Y-5972708D01*
X2539542Y-5978144D01*
X2542641Y-5983071D01*
X2546756Y-5987135D01*
X2551633Y-5990234D01*
X2557119Y-5992164D01*
G37*
G36*
X390956Y-5740806D02*
G01*
X407060Y-5740349D01*
X422960Y-5738063D01*
X438556Y-5733948D01*
X453542Y-5728106D01*
X467766Y-5720638D01*
X481025Y-5711545D01*
X493166Y-5700979D01*
X504088Y-5689142D01*
X513537Y-5676138D01*
X521411Y-5662117D01*
X527710Y-5647334D01*
X532231Y-5631891D01*
X534974Y-5616041D01*
X535889Y-5599988D01*
X534974Y-5583885D01*
X532231Y-5568035D01*
X527710Y-5552592D01*
X521411Y-5537809D01*
X513537Y-5523788D01*
X504088Y-5510784D01*
X493166Y-5498947D01*
X481025Y-5488381D01*
X467766Y-5479288D01*
X453542Y-5471820D01*
X438556Y-5465978D01*
X422960Y-5461863D01*
X407060Y-5459577D01*
X390956Y-5459120D01*
X374954Y-5460492D01*
X359156Y-5463692D01*
X343865Y-5468670D01*
X329234Y-5475376D01*
X315468Y-5483656D01*
X302717Y-5493461D01*
X291185Y-5504688D01*
X281025Y-5517134D01*
X272338Y-5530697D01*
X265226Y-5545124D01*
X259791Y-5560263D01*
X256184Y-5575960D01*
X254355Y-5591911D01*
X254355Y-5608015D01*
X256184Y-5623966D01*
X259791Y-5639663D01*
X265226Y-5654802D01*
X272338Y-5669229D01*
X281025Y-5682792D01*
X291185Y-5695238D01*
X302717Y-5706465D01*
X315468Y-5716270D01*
X329234Y-5724550D01*
X343865Y-5731256D01*
X359156Y-5736234D01*
X374954Y-5739434D01*
G37*
G36*
X2641600Y-5738825D02*
G01*
X2655265Y-5737961D01*
X2668676Y-5735269D01*
X2681630Y-5730849D01*
X2693924Y-5724804D01*
X2705303Y-5717235D01*
X2715564Y-5708192D01*
X2724607Y-5697880D01*
X2732176Y-5686501D01*
X2738272Y-5674258D01*
X2742641Y-5661304D01*
X2745333Y-5647842D01*
X2746197Y-5634228D01*
X2745333Y-5620562D01*
X2742641Y-5607100D01*
X2738272Y-5594146D01*
X2732176Y-5581904D01*
X2724607Y-5570524D01*
X2715564Y-5560212D01*
X2705303Y-5551220D01*
X2693924Y-5543600D01*
X2681630Y-5537555D01*
X2668676Y-5533136D01*
X2655265Y-5530494D01*
X2641600Y-5529580D01*
X2627934Y-5530494D01*
X2614523Y-5533136D01*
X2601569Y-5537555D01*
X2589276Y-5543600D01*
X2577896Y-5551220D01*
X2567635Y-5560212D01*
X2558592Y-5570524D01*
X2550972Y-5581904D01*
X2544927Y-5594146D01*
X2540508Y-5607100D01*
X2537866Y-5620562D01*
X2536952Y-5634228D01*
X2537866Y-5647842D01*
X2540508Y-5661304D01*
X2544927Y-5674258D01*
X2550972Y-5686501D01*
X2558592Y-5697880D01*
X2567635Y-5708192D01*
X2577896Y-5717235D01*
X2589276Y-5724804D01*
X2601569Y-5730849D01*
X2614523Y-5735269D01*
X2627934Y-5737961D01*
G37*
G36*
X3195320Y-5728055D02*
G01*
X3201924Y-5724804D01*
X3213303Y-5717235D01*
X3223564Y-5708192D01*
X3232607Y-5697880D01*
X3240176Y-5686501D01*
X3243427Y-5679948D01*
X3195320Y-5679948D01*
G37*
G36*
X916127Y-5705754D02*
G01*
X2036114Y-5705754D01*
X2042464Y-5705043D01*
X2047900Y-5703112D01*
X2052828Y-5700014D01*
X2056892Y-5695950D01*
X2059990Y-5691022D01*
X2061870Y-5685586D01*
X2062581Y-5679287D01*
X2062581Y-4548835D01*
X2061870Y-4542536D01*
X2059990Y-4537049D01*
X2056892Y-4532172D01*
X2052828Y-4528058D01*
X2047900Y-4524959D01*
X2042464Y-4523079D01*
X2036114Y-4522368D01*
X916127Y-4522368D01*
X909777Y-4523079D01*
X904341Y-4524959D01*
X899414Y-4528058D01*
X895350Y-4532172D01*
X892251Y-4537049D01*
X890320Y-4542536D01*
X889609Y-4548835D01*
X889609Y-5679287D01*
X890320Y-5685586D01*
X892251Y-5691022D01*
X895350Y-5695950D01*
X899414Y-5700014D01*
X904341Y-5703112D01*
X909777Y-5705043D01*
G37*
G36*
X3195320Y-5588508D02*
G01*
X3243427Y-5588508D01*
X3240176Y-5581904D01*
X3232607Y-5570524D01*
X3223564Y-5560212D01*
X3213303Y-5551220D01*
X3201924Y-5543600D01*
X3195320Y-5540349D01*
G37*
G36*
X5983732Y-5544972D02*
G01*
X5996533Y-5544972D01*
X6000546Y-5544667D01*
X6013500Y-5542889D01*
X6017463Y-5542076D01*
X6030061Y-5538571D01*
X6033871Y-5537250D01*
X6045860Y-5532069D01*
X6049416Y-5530189D01*
X6060643Y-5523433D01*
X6063945Y-5521096D01*
X6074105Y-5512917D01*
X6077051Y-5510174D01*
X6085992Y-5500624D01*
X6088583Y-5497525D01*
X6096152Y-5486857D01*
X6098286Y-5483453D01*
X6104331Y-5471871D01*
X6105956Y-5468162D01*
X6110427Y-5455869D01*
X6111544Y-5452008D01*
X6114237Y-5439206D01*
X6114846Y-5435193D01*
X6115913Y-5419801D01*
X6115913Y-4660290D01*
X6114999Y-4644948D01*
X6114491Y-4640935D01*
X6111900Y-4628032D01*
X6110833Y-4624070D01*
X6106464Y-4611624D01*
X6104890Y-4607915D01*
X6098895Y-4596130D01*
X6096762Y-4592675D01*
X6089192Y-4581855D01*
X6086652Y-4578705D01*
X6077712Y-4569002D01*
X6074714Y-4566208D01*
X6064554Y-4557877D01*
X6061202Y-4555490D01*
X6049975Y-4548632D01*
X6046368Y-4546752D01*
X6034278Y-4541469D01*
X6030417Y-4540097D01*
X6017717Y-4536490D01*
X6013754Y-4535678D01*
X6000699Y-4533849D01*
X5996635Y-4533595D01*
X5983427Y-4533595D01*
X5979363Y-4533849D01*
X5966307Y-4535678D01*
X5962345Y-4536490D01*
X5949645Y-4540046D01*
X5945784Y-4541418D01*
X5933694Y-4546701D01*
X5930087Y-4548581D01*
X5918860Y-4555439D01*
X5915507Y-4557826D01*
X5905296Y-4566158D01*
X5902350Y-4568952D01*
X5893358Y-4578654D01*
X5890818Y-4581804D01*
X5883249Y-4592624D01*
X5881166Y-4596079D01*
X5875172Y-4607814D01*
X5873546Y-4611573D01*
X5869178Y-4624019D01*
X5868111Y-4627930D01*
X5865520Y-4640884D01*
X5864961Y-4644898D01*
X5864148Y-4658156D01*
X5864098Y-5419801D01*
X5865164Y-5435193D01*
X5865723Y-5439206D01*
X5868466Y-5452008D01*
X5869584Y-5455869D01*
X5874004Y-5468162D01*
X5875629Y-5471871D01*
X5881725Y-5483453D01*
X5883859Y-5486857D01*
X5891428Y-5497525D01*
X5893968Y-5500624D01*
X5902960Y-5510174D01*
X5905906Y-5512917D01*
X5916066Y-5521096D01*
X5919368Y-5523433D01*
X5930544Y-5530189D01*
X5934151Y-5532069D01*
X5946140Y-5537250D01*
X5949950Y-5538571D01*
X5962548Y-5542076D01*
X5966460Y-5542889D01*
X5979160Y-5544667D01*
G37*
G36*
X280974Y-5270804D02*
G01*
X297027Y-5270347D01*
X312978Y-5268061D01*
X328523Y-5263946D01*
X343509Y-5258104D01*
X357733Y-5250637D01*
X371043Y-5241544D01*
X383184Y-5230977D01*
X394055Y-5219141D01*
X403504Y-5206136D01*
X411429Y-5192115D01*
X417677Y-5177332D01*
X422198Y-5161889D01*
X424942Y-5146040D01*
X425856Y-5129987D01*
X424942Y-5113883D01*
X422198Y-5098034D01*
X417677Y-5082590D01*
X411429Y-5067808D01*
X403504Y-5053787D01*
X394055Y-5040782D01*
X383184Y-5028946D01*
X371043Y-5018379D01*
X357733Y-5009286D01*
X343509Y-5001818D01*
X328523Y-4995976D01*
X312978Y-4991862D01*
X297027Y-4989576D01*
X280974Y-4989118D01*
X264922Y-4990490D01*
X249174Y-4993690D01*
X233883Y-4998669D01*
X219252Y-5005374D01*
X205486Y-5013655D01*
X192735Y-5023459D01*
X181203Y-5034686D01*
X170992Y-5047132D01*
X162306Y-5060696D01*
X155194Y-5075123D01*
X149809Y-5090261D01*
X146151Y-5105958D01*
X144322Y-5121910D01*
X144322Y-5138013D01*
X146151Y-5153964D01*
X149809Y-5169662D01*
X155194Y-5184800D01*
X162306Y-5199227D01*
X170992Y-5212791D01*
X181203Y-5225237D01*
X192735Y-5236464D01*
X205486Y-5246268D01*
X219252Y-5254548D01*
X233883Y-5261254D01*
X249174Y-5266232D01*
X264922Y-5269433D01*
G37*
G36*
X6461861Y-5097018D02*
G01*
X8975293Y-5097018D01*
X8981643Y-5096306D01*
X8987078Y-5094376D01*
X8991955Y-5091328D01*
X8996070Y-5087213D01*
X8999169Y-5082336D01*
X9001048Y-5076850D01*
X9001760Y-5070551D01*
X9001760Y-4608880D01*
X9001048Y-4602581D01*
X8999169Y-4597095D01*
X8996070Y-4592218D01*
X8991955Y-4588103D01*
X8987078Y-4585055D01*
X8981643Y-4583125D01*
X8975293Y-4582414D01*
X6461861Y-4582414D01*
X6455511Y-4583125D01*
X6450076Y-4585055D01*
X6445148Y-4588103D01*
X6441084Y-4592218D01*
X6437985Y-4597095D01*
X6436055Y-4602581D01*
X6435344Y-4608880D01*
X6435344Y-5070551D01*
X6436055Y-5076850D01*
X6437985Y-5082336D01*
X6441084Y-5087213D01*
X6445148Y-5091328D01*
X6450076Y-5094376D01*
X6455511Y-5096306D01*
G37*
G36*
X5983478Y-4494987D02*
G01*
X5996533Y-4494987D01*
X6000546Y-4494682D01*
X6013500Y-4492904D01*
X6017463Y-4492091D01*
X6030061Y-4488586D01*
X6033871Y-4487265D01*
X6045860Y-4482084D01*
X6049467Y-4480204D01*
X6060643Y-4473448D01*
X6063945Y-4471111D01*
X6074105Y-4462932D01*
X6077051Y-4460189D01*
X6085992Y-4450638D01*
X6088583Y-4447540D01*
X6096152Y-4436872D01*
X6098286Y-4433417D01*
X6104331Y-4421886D01*
X6105956Y-4418177D01*
X6110427Y-4405884D01*
X6111544Y-4402023D01*
X6114288Y-4389221D01*
X6114846Y-4385157D01*
X6115913Y-4369765D01*
X6115913Y-3330295D01*
X6114999Y-3314954D01*
X6114491Y-3310940D01*
X6111900Y-3298037D01*
X6110833Y-3294075D01*
X6106464Y-3281629D01*
X6104890Y-3277870D01*
X6098844Y-3266135D01*
X6096762Y-3262680D01*
X6089192Y-3251860D01*
X6086652Y-3248660D01*
X6077712Y-3239008D01*
X6074714Y-3236214D01*
X6064504Y-3227882D01*
X6061202Y-3225495D01*
X6049975Y-3218637D01*
X6046368Y-3216757D01*
X6034278Y-3211474D01*
X6030417Y-3210102D01*
X6017717Y-3206496D01*
X6013754Y-3205683D01*
X6000699Y-3203854D01*
X5996635Y-3203600D01*
X5983427Y-3203600D01*
X5979363Y-3203854D01*
X5966307Y-3205683D01*
X5962345Y-3206496D01*
X5949645Y-3210052D01*
X5945784Y-3211423D01*
X5933694Y-3216706D01*
X5930087Y-3218586D01*
X5918860Y-3225444D01*
X5915507Y-3227832D01*
X5905296Y-3236163D01*
X5902350Y-3238957D01*
X5893358Y-3248609D01*
X5890818Y-3251809D01*
X5883249Y-3262579D01*
X5881166Y-3266084D01*
X5875121Y-3277819D01*
X5873546Y-3281578D01*
X5869178Y-3294024D01*
X5868111Y-3297936D01*
X5865520Y-3310890D01*
X5864961Y-3314852D01*
X5864098Y-3330295D01*
X5864098Y-4369816D01*
X5865164Y-4385208D01*
X5865723Y-4389221D01*
X5868466Y-4402023D01*
X5869584Y-4405884D01*
X5874004Y-4418177D01*
X5875680Y-4421886D01*
X5881725Y-4433417D01*
X5883859Y-4436872D01*
X5891428Y-4447540D01*
X5893968Y-4450638D01*
X5902960Y-4460189D01*
X5905906Y-4462932D01*
X5916066Y-4471111D01*
X5919368Y-4473448D01*
X5930544Y-4480204D01*
X5934151Y-4482084D01*
X5946140Y-4487265D01*
X5949950Y-4488586D01*
X5962548Y-4492091D01*
X5966510Y-4492904D01*
X5979414Y-4494682D01*
G37*
G36*
X405739Y-4456734D02*
G01*
X518820Y-4456734D01*
X525119Y-4456023D01*
X530606Y-4454093D01*
X535482Y-4451045D01*
X539597Y-4446930D01*
X542696Y-4442053D01*
X544576Y-4436567D01*
X545287Y-4430268D01*
X545287Y-4407154D01*
X405739Y-4407154D01*
G37*
G36*
X405739Y-4334459D02*
G01*
X545287Y-4334459D01*
X545287Y-4311396D01*
X544576Y-4305046D01*
X542696Y-4299610D01*
X539597Y-4294733D01*
X535482Y-4290618D01*
X530606Y-4287520D01*
X525119Y-4285640D01*
X518820Y-4284929D01*
X405739Y-4284929D01*
G37*
G36*
X3831488Y-4230776D02*
G01*
X4000347Y-4230776D01*
X4006646Y-4230065D01*
X4012133Y-4228185D01*
X4017010Y-4225086D01*
X4021124Y-4220972D01*
X4024223Y-4216095D01*
X4026103Y-4210608D01*
X4026814Y-4204309D01*
X4026814Y-4035450D01*
X4026103Y-4029151D01*
X4024223Y-4023664D01*
X4021124Y-4018787D01*
X4017010Y-4014673D01*
X4012133Y-4011574D01*
X4006646Y-4009694D01*
X4000347Y-4008983D01*
X3831488Y-4008983D01*
X3825189Y-4009694D01*
X3819702Y-4011574D01*
X3814826Y-4014673D01*
X3810711Y-4018787D01*
X3807612Y-4023664D01*
X3805732Y-4029151D01*
X3805021Y-4035450D01*
X3805021Y-4204309D01*
X3805732Y-4210608D01*
X3807612Y-4216095D01*
X3810711Y-4220972D01*
X3814826Y-4225086D01*
X3819702Y-4228185D01*
X3825189Y-4230065D01*
G37*
G36*
X4173474Y-4230725D02*
G01*
X4187596Y-4229354D01*
X4201464Y-4226204D01*
X4214825Y-4221276D01*
X4227423Y-4214723D01*
X4239056Y-4206595D01*
X4249572Y-4197045D01*
X4258767Y-4186224D01*
X4266539Y-4174286D01*
X4272686Y-4161485D01*
X4277156Y-4148023D01*
X4279900Y-4134053D01*
X4280814Y-4119879D01*
X4279900Y-4105706D01*
X4277156Y-4091736D01*
X4272686Y-4078274D01*
X4266539Y-4065473D01*
X4258767Y-4053535D01*
X4249572Y-4042714D01*
X4239056Y-4033164D01*
X4227423Y-4025036D01*
X4214825Y-4018483D01*
X4201464Y-4013555D01*
X4187596Y-4010406D01*
X4173474Y-4009034D01*
X4159250Y-4009491D01*
X4145229Y-4011777D01*
X4131614Y-4015841D01*
X4118610Y-4021582D01*
X4106468Y-4028948D01*
X4095343Y-4037787D01*
X4085488Y-4047998D01*
X4077004Y-4059377D01*
X4069994Y-4071772D01*
X4064660Y-4084929D01*
X4061053Y-4098696D01*
X4059275Y-4112768D01*
X4059275Y-4126992D01*
X4061053Y-4141063D01*
X4064660Y-4154830D01*
X4069994Y-4167987D01*
X4077004Y-4180382D01*
X4085488Y-4191762D01*
X4095343Y-4201972D01*
X4106468Y-4210812D01*
X4118610Y-4218178D01*
X4131614Y-4223969D01*
X4145229Y-4227982D01*
X4159250Y-4230268D01*
G37*
G36*
X4427474Y-4230725D02*
G01*
X4441596Y-4229354D01*
X4455464Y-4226204D01*
X4468825Y-4221276D01*
X4481423Y-4214723D01*
X4493056Y-4206595D01*
X4503572Y-4197045D01*
X4512767Y-4186224D01*
X4520539Y-4174286D01*
X4526686Y-4161485D01*
X4531156Y-4148023D01*
X4533900Y-4134053D01*
X4534814Y-4119879D01*
X4533900Y-4105706D01*
X4531156Y-4091736D01*
X4526686Y-4078274D01*
X4520539Y-4065473D01*
X4512767Y-4053535D01*
X4503572Y-4042714D01*
X4493056Y-4033164D01*
X4481423Y-4025036D01*
X4468825Y-4018483D01*
X4455464Y-4013555D01*
X4441596Y-4010406D01*
X4427474Y-4009034D01*
X4413250Y-4009491D01*
X4399229Y-4011777D01*
X4385614Y-4015841D01*
X4372610Y-4021582D01*
X4360468Y-4028948D01*
X4349343Y-4037787D01*
X4339488Y-4047998D01*
X4331004Y-4059377D01*
X4323994Y-4071772D01*
X4318660Y-4084929D01*
X4315053Y-4098696D01*
X4313275Y-4112768D01*
X4313275Y-4126992D01*
X4315053Y-4141063D01*
X4318660Y-4154830D01*
X4323994Y-4167987D01*
X4331004Y-4180382D01*
X4339488Y-4191762D01*
X4349343Y-4201972D01*
X4360468Y-4210812D01*
X4372610Y-4218178D01*
X4385614Y-4223969D01*
X4399229Y-4227982D01*
X4413250Y-4230268D01*
G37*
G36*
X405739Y-3946702D02*
G01*
X518820Y-3946702D01*
X525119Y-3945991D01*
X530606Y-3944112D01*
X535482Y-3941013D01*
X539597Y-3936949D01*
X542696Y-3932021D01*
X544576Y-3926586D01*
X545287Y-3920236D01*
X545287Y-3897172D01*
X405739Y-3897172D01*
G37*
G36*
X405739Y-3824478D02*
G01*
X545287Y-3824478D01*
X545287Y-3801364D01*
X544576Y-3795064D01*
X542696Y-3789578D01*
X539597Y-3784701D01*
X535482Y-3780586D01*
X530606Y-3777538D01*
X525119Y-3775608D01*
X518820Y-3774897D01*
X405739Y-3774897D01*
G37*
G36*
X5706313Y-3625748D02*
G01*
X5723737Y-3615690D01*
X5744616Y-3601415D01*
X5764276Y-3585565D01*
X5782665Y-3568192D01*
X5799632Y-3549497D01*
X5815126Y-3529482D01*
X5828995Y-3508400D01*
X5835650Y-3496360D01*
X5706313Y-3496360D01*
G37*
G36*
X9326321Y-3625748D02*
G01*
X9343745Y-3615690D01*
X9364573Y-3601415D01*
X9384284Y-3585565D01*
X9402673Y-3568192D01*
X9419640Y-3549497D01*
X9435134Y-3529482D01*
X9449003Y-3508400D01*
X9454997Y-3497478D01*
X9456013Y-3496360D01*
X9326321Y-3496360D01*
G37*
G36*
X9013647Y-3625697D02*
G01*
X9013647Y-3496360D01*
X8884107Y-3496360D01*
X8897670Y-3519068D01*
X8912402Y-3539642D01*
X8928658Y-3558997D01*
X8946337Y-3577031D01*
X8965387Y-3593642D01*
X8985656Y-3608781D01*
X9007043Y-3622243D01*
G37*
G36*
X5393639Y-3625697D02*
G01*
X5393639Y-3496360D01*
X5264099Y-3496360D01*
X5277713Y-3519068D01*
X5292394Y-3539642D01*
X5308650Y-3558997D01*
X5326329Y-3577031D01*
X5345379Y-3593642D01*
X5365648Y-3608781D01*
X5387035Y-3622243D01*
G37*
G36*
X486359Y-3615740D02*
G01*
X503783Y-3605682D01*
X524611Y-3591407D01*
X544271Y-3575507D01*
X562660Y-3558184D01*
X579678Y-3539490D01*
X595122Y-3519474D01*
X609041Y-3498392D01*
X615696Y-3486353D01*
X486359Y-3486353D01*
G37*
G36*
X173634Y-3615690D02*
G01*
X173634Y-3486353D01*
X43535Y-3486353D01*
X44754Y-3487623D01*
X57708Y-3509060D01*
X72390Y-3529634D01*
X88646Y-3548989D01*
X106375Y-3567023D01*
X125374Y-3583635D01*
X145694Y-3598722D01*
X167030Y-3612235D01*
G37*
G36*
X5706313Y-3183636D02*
G01*
X5835650Y-3183636D01*
X5828995Y-3171596D01*
X5815126Y-3150514D01*
X5799632Y-3130499D01*
X5782665Y-3111804D01*
X5764276Y-3094431D01*
X5744616Y-3078581D01*
X5723737Y-3064306D01*
X5706313Y-3054248D01*
G37*
G36*
X8884107Y-3183636D02*
G01*
X9013647Y-3183636D01*
X9013647Y-3054299D01*
X9007043Y-3057753D01*
X8985656Y-3071215D01*
X8965387Y-3086303D01*
X8946337Y-3102965D01*
X8928658Y-3120999D01*
X8912402Y-3140354D01*
X8897670Y-3160928D01*
G37*
G36*
X5264099Y-3183636D02*
G01*
X5393639Y-3183636D01*
X5393639Y-3054299D01*
X5387035Y-3057753D01*
X5365648Y-3071215D01*
X5345379Y-3086354D01*
X5326329Y-3102965D01*
X5308650Y-3120999D01*
X5292394Y-3140354D01*
X5277713Y-3160928D01*
G37*
G36*
X9326321Y-3183636D02*
G01*
X9456013Y-3183636D01*
X9454997Y-3182518D01*
X9449003Y-3171596D01*
X9435134Y-3150463D01*
X9419640Y-3130499D01*
X9402673Y-3111804D01*
X9384284Y-3094431D01*
X9364573Y-3078581D01*
X9343745Y-3064306D01*
X9326321Y-3054248D01*
G37*
G36*
X486359Y-3173628D02*
G01*
X615696Y-3173628D01*
X609041Y-3161588D01*
X595122Y-3140456D01*
X579678Y-3120491D01*
X562660Y-3101797D01*
X544271Y-3084423D01*
X524611Y-3068574D01*
X503783Y-3054299D01*
X487476Y-3044850D01*
X486359Y-3043834D01*
G37*
G36*
X43535Y-3173628D02*
G01*
X173634Y-3173628D01*
X173634Y-3043783D01*
X172161Y-3045053D01*
X167030Y-3047746D01*
X145694Y-3061208D01*
X125374Y-3076295D01*
X106375Y-3092907D01*
X88646Y-3110992D01*
X72390Y-3130346D01*
X57708Y-3150920D01*
X44754Y-3172358D01*
G37*

%LPD*%
G36*
X1397609Y-4548276D02*
G01*
X1387957Y-4549241D01*
X1379169Y-4552086D01*
X1371498Y-4556404D01*
X1365097Y-4561992D01*
X1371701Y-4570120D01*
X1377188Y-4565650D01*
X1383233Y-4562297D01*
X1390040Y-4560163D01*
X1397609Y-4559452D01*
X1406448Y-4560620D01*
X1413306Y-4564024D01*
X1417675Y-4569409D01*
X1419199Y-4576470D01*
X1417523Y-4583785D01*
X1413103Y-4589068D01*
X1407109Y-4592828D01*
X1400657Y-4595774D01*
X1384401Y-4602632D01*
X1379778Y-4604816D01*
X1375460Y-4607306D01*
X1371549Y-4610150D01*
X1368094Y-4613402D01*
X1365250Y-4617212D01*
X1363116Y-4621631D01*
X1361795Y-4626711D01*
X1361287Y-4632604D01*
X1361998Y-4638954D01*
X1363929Y-4644847D01*
X1367129Y-4650181D01*
X1371447Y-4654804D01*
X1376832Y-4658563D01*
X1383284Y-4661408D01*
X1390650Y-4663186D01*
X1398879Y-4663846D01*
X1404670Y-4663541D01*
X1410208Y-4662678D01*
X1415491Y-4661255D01*
X1420469Y-4659376D01*
X1425194Y-4656937D01*
X1429613Y-4654092D01*
X1433728Y-4650790D01*
X1437487Y-4647082D01*
X1429867Y-4638446D01*
X1423263Y-4644288D01*
X1415694Y-4648809D01*
X1407414Y-4651654D01*
X1398625Y-4652670D01*
X1393190Y-4652314D01*
X1388364Y-4651248D01*
X1384147Y-4649571D01*
X1380591Y-4647285D01*
X1377797Y-4644491D01*
X1375714Y-4641189D01*
X1374444Y-4637481D01*
X1373987Y-4633366D01*
X1375460Y-4625797D01*
X1379524Y-4620412D01*
X1385570Y-4616348D01*
X1393037Y-4612792D01*
X1413256Y-4603902D01*
X1417218Y-4601718D01*
X1421028Y-4599127D01*
X1424533Y-4596028D01*
X1427530Y-4592421D01*
X1429867Y-4588154D01*
X1431391Y-4583176D01*
X1431899Y-4577486D01*
X1431239Y-4571339D01*
X1429359Y-4565751D01*
X1426311Y-4560773D01*
X1422196Y-4556506D01*
X1417167Y-4553000D01*
X1411325Y-4550410D01*
X1404772Y-4548835D01*
G37*
G36*
X1036929Y-4548276D02*
G01*
X1027430Y-4549394D01*
X1019149Y-4552442D01*
X1012240Y-4556709D01*
X1006703Y-4561738D01*
X1013561Y-4570120D01*
X1018286Y-4565751D01*
X1023721Y-4562398D01*
X1029919Y-4560214D01*
X1036929Y-4559452D01*
X1042212Y-4559808D01*
X1047140Y-4560874D01*
X1051712Y-4562602D01*
X1055878Y-4565040D01*
X1059688Y-4568088D01*
X1063091Y-4571796D01*
X1065987Y-4576064D01*
X1068476Y-4580940D01*
X1070406Y-4586325D01*
X1071829Y-4592269D01*
X1072743Y-4598720D01*
X1072997Y-4605680D01*
X1072743Y-4612690D01*
X1071880Y-4619193D01*
X1070508Y-4625238D01*
X1068628Y-4630724D01*
X1066241Y-4635652D01*
X1063396Y-4640021D01*
X1060094Y-4643780D01*
X1056335Y-4646930D01*
X1052118Y-4649368D01*
X1047546Y-4651197D01*
X1042568Y-4652264D01*
X1037183Y-4652670D01*
X1029614Y-4651806D01*
X1022807Y-4649368D01*
X1016609Y-4645355D01*
X1011021Y-4639970D01*
X1003909Y-4647844D01*
X1007262Y-4651451D01*
X1010869Y-4654600D01*
X1014679Y-4657344D01*
X1018743Y-4659630D01*
X1023112Y-4661458D01*
X1027734Y-4662779D01*
X1032713Y-4663541D01*
X1037945Y-4663846D01*
X1043025Y-4663592D01*
X1047902Y-4662830D01*
X1052576Y-4661611D01*
X1057046Y-4659884D01*
X1061262Y-4657699D01*
X1065225Y-4655108D01*
X1068882Y-4652010D01*
X1072235Y-4648504D01*
X1075283Y-4644542D01*
X1078026Y-4640224D01*
X1080363Y-4635449D01*
X1082344Y-4630318D01*
X1083868Y-4624730D01*
X1085037Y-4618837D01*
X1085748Y-4612538D01*
X1085951Y-4605934D01*
X1085748Y-4599381D01*
X1085037Y-4593183D01*
X1083868Y-4587290D01*
X1082294Y-4581804D01*
X1080262Y-4576673D01*
X1077874Y-4571949D01*
X1075131Y-4567580D01*
X1072032Y-4563668D01*
X1068578Y-4560163D01*
X1064869Y-4557064D01*
X1060805Y-4554423D01*
X1056487Y-4552238D01*
X1051966Y-4550511D01*
X1047140Y-4549292D01*
X1042162Y-4548530D01*
G37*
G36*
X2016099Y-4550308D02*
G01*
X2016099Y-4661814D01*
X2028545Y-4661814D01*
X2028545Y-4550308D01*
G37*
G36*
X1921611Y-4550308D02*
G01*
X1921611Y-4560976D01*
X1972157Y-4560976D01*
X1972157Y-4600346D01*
X1929231Y-4600346D01*
X1929231Y-4611014D01*
X1972157Y-4611014D01*
X1972157Y-4661814D01*
X1984857Y-4661814D01*
X1984857Y-4550308D01*
G37*
G36*
X1835505Y-4550308D02*
G01*
X1827326Y-4550664D01*
X1819910Y-4551832D01*
X1813407Y-4553813D01*
X1807921Y-4556658D01*
X1803450Y-4560366D01*
X1800148Y-4565091D01*
X1798116Y-4570780D01*
X1797405Y-4577486D01*
X1797617Y-4579010D01*
X1809851Y-4579010D01*
X1810308Y-4574235D01*
X1811578Y-4570272D01*
X1813712Y-4567021D01*
X1816709Y-4564430D01*
X1820570Y-4562551D01*
X1825294Y-4561230D01*
X1830882Y-4560468D01*
X1837283Y-4560214D01*
X1855063Y-4560214D01*
X1855063Y-4598060D01*
X1838045Y-4598060D01*
X1831086Y-4597704D01*
X1825193Y-4596688D01*
X1820316Y-4595114D01*
X1816455Y-4592878D01*
X1813509Y-4590135D01*
X1811477Y-4586884D01*
X1810257Y-4583176D01*
X1809851Y-4579010D01*
X1797617Y-4579010D01*
X1798523Y-4585512D01*
X1801672Y-4592523D01*
X1806854Y-4598111D01*
X1813915Y-4601870D01*
X1813915Y-4602378D01*
X1808988Y-4603648D01*
X1804517Y-4605477D01*
X1800606Y-4607966D01*
X1797253Y-4611065D01*
X1794510Y-4614722D01*
X1792528Y-4618990D01*
X1791258Y-4623866D01*
X1790844Y-4628794D01*
X1802993Y-4628794D01*
X1803552Y-4623714D01*
X1805178Y-4619396D01*
X1807768Y-4615840D01*
X1811375Y-4612944D01*
X1815947Y-4610709D01*
X1821434Y-4609185D01*
X1827784Y-4608271D01*
X1834997Y-4607966D01*
X1855063Y-4607966D01*
X1855063Y-4651654D01*
X1834997Y-4651654D01*
X1827936Y-4651298D01*
X1821637Y-4650282D01*
X1816201Y-4648555D01*
X1811578Y-4646117D01*
X1807921Y-4642916D01*
X1805228Y-4639005D01*
X1803552Y-4634280D01*
X1802993Y-4628794D01*
X1790844Y-4628794D01*
X1791157Y-4634484D01*
X1792224Y-4639208D01*
X1793900Y-4643475D01*
X1796237Y-4647336D01*
X1799132Y-4650689D01*
X1802587Y-4653635D01*
X1806549Y-4656124D01*
X1810969Y-4658156D01*
X1815896Y-4659782D01*
X1821230Y-4660900D01*
X1826920Y-4661560D01*
X1832965Y-4661814D01*
X1867763Y-4661814D01*
X1867763Y-4550308D01*
G37*
G36*
X1731111Y-4550308D02*
G01*
X1708459Y-4616602D01*
X1720697Y-4616602D01*
X1730959Y-4584496D01*
X1737969Y-4560722D01*
X1738731Y-4560722D01*
X1744167Y-4579823D01*
X1755749Y-4616602D01*
X1708459Y-4616602D01*
X1693011Y-4661814D01*
X1706219Y-4661814D01*
X1717395Y-4626508D01*
X1759051Y-4626508D01*
X1770481Y-4661814D01*
X1783181Y-4661814D01*
X1745081Y-4550308D01*
G37*
G36*
X1598523Y-4550308D02*
G01*
X1598523Y-4661814D01*
X1611477Y-4661814D01*
X1653387Y-4589678D01*
X1665579Y-4566818D01*
X1666341Y-4566818D01*
X1665427Y-4583480D01*
X1664817Y-4600600D01*
X1664817Y-4661814D01*
X1676755Y-4661814D01*
X1676755Y-4550308D01*
X1663801Y-4550308D01*
X1621637Y-4622444D01*
X1609445Y-4645304D01*
X1608683Y-4645304D01*
X1609902Y-4627981D01*
X1610461Y-4610506D01*
X1610461Y-4550308D01*
G37*
G36*
X1539849Y-4550308D02*
G01*
X1533652Y-4550511D01*
X1527810Y-4551222D01*
X1522323Y-4552391D01*
X1517243Y-4554016D01*
X1512620Y-4556099D01*
X1508302Y-4558588D01*
X1504442Y-4561484D01*
X1500987Y-4564837D01*
X1497888Y-4568596D01*
X1495247Y-4572762D01*
X1492961Y-4577283D01*
X1491132Y-4582210D01*
X1489659Y-4587544D01*
X1488643Y-4593234D01*
X1487982Y-4599279D01*
X1487779Y-4605680D01*
X1500733Y-4605680D01*
X1501038Y-4598771D01*
X1501851Y-4592370D01*
X1503222Y-4586528D01*
X1505153Y-4581245D01*
X1507693Y-4576572D01*
X1510741Y-4572406D01*
X1514348Y-4568901D01*
X1518513Y-4566005D01*
X1523238Y-4563719D01*
X1528572Y-4562043D01*
X1534464Y-4561027D01*
X1540865Y-4560722D01*
X1554581Y-4560722D01*
X1554581Y-4651400D01*
X1540865Y-4651400D01*
X1534464Y-4651044D01*
X1528572Y-4649978D01*
X1523238Y-4648250D01*
X1518513Y-4645863D01*
X1514348Y-4642815D01*
X1510741Y-4639208D01*
X1507693Y-4634941D01*
X1505153Y-4630166D01*
X1503222Y-4624832D01*
X1501851Y-4618939D01*
X1501038Y-4612538D01*
X1500733Y-4605680D01*
X1487779Y-4605680D01*
X1487982Y-4612081D01*
X1488643Y-4618126D01*
X1489659Y-4623866D01*
X1491081Y-4629251D01*
X1492961Y-4634230D01*
X1495196Y-4638852D01*
X1497838Y-4643069D01*
X1500936Y-4646879D01*
X1504340Y-4650282D01*
X1508201Y-4653280D01*
X1512417Y-4655820D01*
X1517040Y-4657953D01*
X1522069Y-4659630D01*
X1527454Y-4660849D01*
X1533194Y-4661560D01*
X1539341Y-4661814D01*
X1567281Y-4661814D01*
X1567281Y-4550308D01*
G37*
G36*
X1275435Y-4550308D02*
G01*
X1275435Y-4560976D01*
X1326489Y-4560976D01*
X1326489Y-4597552D01*
X1283563Y-4597552D01*
X1283563Y-4608220D01*
X1326489Y-4608220D01*
X1326489Y-4651146D01*
X1273911Y-4651146D01*
X1273911Y-4661814D01*
X1338935Y-4661814D01*
X1338935Y-4550308D01*
G37*
G36*
X1237335Y-4550308D02*
G01*
X1237335Y-4651146D01*
X1188059Y-4651146D01*
X1188059Y-4661814D01*
X1250035Y-4661814D01*
X1250035Y-4550308D01*
G37*
G36*
X1104747Y-4550308D02*
G01*
X1104747Y-4560976D01*
X1155801Y-4560976D01*
X1155801Y-4597552D01*
X1112875Y-4597552D01*
X1112875Y-4608220D01*
X1155801Y-4608220D01*
X1155801Y-4651146D01*
X1103223Y-4651146D01*
X1103223Y-4661814D01*
X1168247Y-4661814D01*
X1168247Y-4550308D01*
G37*
G36*
X915517Y-4550308D02*
G01*
X915517Y-4560976D01*
X949553Y-4560976D01*
X949553Y-4661814D01*
X962507Y-4661814D01*
X962507Y-4560976D01*
X996543Y-4560976D01*
X996543Y-4550308D01*
G37*
G36*
X2002383Y-4802276D02*
G01*
X1997303Y-4802632D01*
X1992579Y-4803851D01*
X1988210Y-4805781D01*
X1984197Y-4808575D01*
X1980641Y-4812131D01*
X1977491Y-4816500D01*
X1974748Y-4821631D01*
X1972513Y-4827625D01*
X1970735Y-4834432D01*
X1969414Y-4842002D01*
X1968652Y-4850434D01*
X1968347Y-4859680D01*
X1980285Y-4859680D01*
X1980692Y-4848250D01*
X1981911Y-4838446D01*
X1983790Y-4830318D01*
X1986381Y-4823764D01*
X1989632Y-4818735D01*
X1993392Y-4815179D01*
X1997659Y-4813096D01*
X2002383Y-4812436D01*
X2007158Y-4813096D01*
X2011425Y-4815179D01*
X2015185Y-4818735D01*
X2018385Y-4823764D01*
X2020976Y-4830318D01*
X2022906Y-4838446D01*
X2024075Y-4848250D01*
X2024481Y-4859680D01*
X2024329Y-4867554D01*
X2023770Y-4874666D01*
X2022906Y-4881118D01*
X2021687Y-4886807D01*
X2020214Y-4891786D01*
X2018385Y-4896053D01*
X2016353Y-4899660D01*
X2014016Y-4902555D01*
X2011425Y-4904841D01*
X2008632Y-4906416D01*
X2005634Y-4907381D01*
X2002383Y-4907686D01*
X1999183Y-4907381D01*
X1996186Y-4906416D01*
X1993392Y-4904841D01*
X1990801Y-4902555D01*
X1988464Y-4899660D01*
X1986381Y-4896053D01*
X1984603Y-4891786D01*
X1983079Y-4886807D01*
X1981911Y-4881118D01*
X1981047Y-4874666D01*
X1980488Y-4867554D01*
X1980285Y-4859680D01*
X1968347Y-4859680D01*
X1968652Y-4868976D01*
X1969414Y-4877460D01*
X1970735Y-4885131D01*
X1972513Y-4892040D01*
X1974748Y-4898085D01*
X1977491Y-4903317D01*
X1980641Y-4907737D01*
X1984197Y-4911394D01*
X1988210Y-4914188D01*
X1992579Y-4916220D01*
X1997303Y-4917440D01*
X2002383Y-4917846D01*
X2007463Y-4917440D01*
X2012188Y-4916220D01*
X2016556Y-4914188D01*
X2020570Y-4911394D01*
X2024176Y-4907737D01*
X2027377Y-4903317D01*
X2030120Y-4898085D01*
X2032457Y-4892040D01*
X2034286Y-4885131D01*
X2035606Y-4877460D01*
X2036419Y-4868976D01*
X2036673Y-4859680D01*
X2036419Y-4850384D01*
X2035606Y-4841900D01*
X2034286Y-4834280D01*
X2032457Y-4827524D01*
X2030120Y-4821529D01*
X2027377Y-4816398D01*
X2024176Y-4812030D01*
X2020570Y-4808524D01*
X2016556Y-4805781D01*
X2012188Y-4803800D01*
X2007463Y-4802632D01*
G37*
G36*
X1918563Y-4802276D02*
G01*
X1913534Y-4802632D01*
X1908810Y-4803851D01*
X1904492Y-4805781D01*
X1900478Y-4808575D01*
X1896922Y-4812131D01*
X1893773Y-4816500D01*
X1891030Y-4821631D01*
X1888743Y-4827625D01*
X1886915Y-4834432D01*
X1885645Y-4842002D01*
X1884832Y-4850434D01*
X1884527Y-4859680D01*
X1896719Y-4859680D01*
X1897125Y-4848250D01*
X1898345Y-4838446D01*
X1900224Y-4830318D01*
X1902815Y-4823764D01*
X1905965Y-4818735D01*
X1909724Y-4815179D01*
X1913940Y-4813096D01*
X1918563Y-4812436D01*
X1923338Y-4813096D01*
X1927656Y-4815179D01*
X1931466Y-4818735D01*
X1934718Y-4823764D01*
X1937359Y-4830318D01*
X1939289Y-4838446D01*
X1940509Y-4848250D01*
X1940915Y-4859680D01*
X1940763Y-4867554D01*
X1940204Y-4874666D01*
X1939289Y-4881118D01*
X1938070Y-4886807D01*
X1936546Y-4891786D01*
X1934718Y-4896053D01*
X1932584Y-4899660D01*
X1930247Y-4902555D01*
X1927656Y-4904841D01*
X1924812Y-4906416D01*
X1921814Y-4907381D01*
X1918563Y-4907686D01*
X1913940Y-4906975D01*
X1909724Y-4904841D01*
X1905965Y-4901184D01*
X1902815Y-4896053D01*
X1900224Y-4889347D01*
X1898345Y-4881118D01*
X1897125Y-4871212D01*
X1896719Y-4859680D01*
X1884527Y-4859680D01*
X1884832Y-4868976D01*
X1885645Y-4877460D01*
X1886915Y-4885131D01*
X1888743Y-4892040D01*
X1891030Y-4898085D01*
X1893773Y-4903317D01*
X1896922Y-4907737D01*
X1900478Y-4911394D01*
X1904492Y-4914188D01*
X1908810Y-4916220D01*
X1913534Y-4917440D01*
X1918563Y-4917846D01*
X1923694Y-4917440D01*
X1928418Y-4916220D01*
X1932838Y-4914188D01*
X1936851Y-4911394D01*
X1940458Y-4907737D01*
X1943658Y-4903317D01*
X1946402Y-4898085D01*
X1948688Y-4892040D01*
X1950466Y-4885131D01*
X1951786Y-4877460D01*
X1952599Y-4868976D01*
X1952853Y-4859680D01*
X1952599Y-4850384D01*
X1951786Y-4841900D01*
X1950466Y-4834280D01*
X1948688Y-4827524D01*
X1946402Y-4821529D01*
X1943658Y-4816398D01*
X1940458Y-4812030D01*
X1936851Y-4808524D01*
X1932838Y-4805781D01*
X1928418Y-4803800D01*
X1923694Y-4802632D01*
G37*
G36*
X1804263Y-4802276D02*
G01*
X1797202Y-4802835D01*
X1790903Y-4804562D01*
X1785467Y-4807305D01*
X1780844Y-4811064D01*
X1777187Y-4815789D01*
X1774494Y-4821326D01*
X1772818Y-4827676D01*
X1772259Y-4834788D01*
X1772462Y-4839004D01*
X1773072Y-4843272D01*
X1774088Y-4847539D01*
X1775460Y-4851857D01*
X1777238Y-4856175D01*
X1779320Y-4860544D01*
X1784553Y-4869332D01*
X1791055Y-4878273D01*
X1798726Y-4887366D01*
X1807514Y-4896662D01*
X1817217Y-4906162D01*
X1808022Y-4905349D01*
X1798929Y-4905146D01*
X1766925Y-4905146D01*
X1766925Y-4915814D01*
X1836013Y-4915814D01*
X1836013Y-4908448D01*
X1823618Y-4897120D01*
X1812950Y-4886553D01*
X1804111Y-4876647D01*
X1796897Y-4867402D01*
X1793951Y-4862982D01*
X1791411Y-4858664D01*
X1789277Y-4854498D01*
X1787550Y-4850485D01*
X1786178Y-4846523D01*
X1785213Y-4842713D01*
X1784654Y-4838954D01*
X1784451Y-4835296D01*
X1784807Y-4830572D01*
X1785772Y-4826254D01*
X1787398Y-4822342D01*
X1789734Y-4818989D01*
X1792681Y-4816246D01*
X1796389Y-4814163D01*
X1800758Y-4812893D01*
X1805787Y-4812436D01*
X1812442Y-4813401D01*
X1818690Y-4816144D01*
X1824329Y-4820361D01*
X1829409Y-4825644D01*
X1836775Y-4818532D01*
X1833422Y-4815027D01*
X1829917Y-4811928D01*
X1826310Y-4809134D01*
X1822450Y-4806746D01*
X1818386Y-4804867D01*
X1814017Y-4803444D01*
X1809343Y-4802581D01*
G37*
G36*
X1592427Y-4802276D02*
G01*
X1587398Y-4802632D01*
X1582674Y-4803851D01*
X1578356Y-4805781D01*
X1574342Y-4808575D01*
X1570786Y-4812131D01*
X1567637Y-4816500D01*
X1564894Y-4821631D01*
X1562608Y-4827625D01*
X1560779Y-4834432D01*
X1559509Y-4842002D01*
X1558696Y-4850434D01*
X1558391Y-4859680D01*
X1570583Y-4859680D01*
X1570990Y-4848250D01*
X1572209Y-4838446D01*
X1574088Y-4830318D01*
X1576679Y-4823764D01*
X1579829Y-4818735D01*
X1583588Y-4815179D01*
X1587804Y-4813096D01*
X1592427Y-4812436D01*
X1597202Y-4813096D01*
X1601520Y-4815179D01*
X1605330Y-4818735D01*
X1608582Y-4823764D01*
X1611223Y-4830318D01*
X1613154Y-4838446D01*
X1614373Y-4848250D01*
X1614779Y-4859680D01*
X1614627Y-4867554D01*
X1614068Y-4874666D01*
X1613154Y-4881118D01*
X1611934Y-4886807D01*
X1610410Y-4891786D01*
X1608582Y-4896053D01*
X1606448Y-4899660D01*
X1604111Y-4902555D01*
X1601520Y-4904841D01*
X1598676Y-4906416D01*
X1595678Y-4907381D01*
X1592427Y-4907686D01*
X1587804Y-4906975D01*
X1583588Y-4904841D01*
X1579829Y-4901184D01*
X1576679Y-4896053D01*
X1574088Y-4889347D01*
X1572209Y-4881118D01*
X1570990Y-4871212D01*
X1570583Y-4859680D01*
X1558391Y-4859680D01*
X1558696Y-4868976D01*
X1559509Y-4877460D01*
X1560779Y-4885131D01*
X1562608Y-4892040D01*
X1564894Y-4898085D01*
X1567637Y-4903317D01*
X1570786Y-4907737D01*
X1574342Y-4911394D01*
X1578356Y-4914188D01*
X1582674Y-4916220D01*
X1587398Y-4917440D01*
X1592427Y-4917846D01*
X1597558Y-4917440D01*
X1602282Y-4916220D01*
X1606702Y-4914188D01*
X1610715Y-4911394D01*
X1614322Y-4907737D01*
X1617522Y-4903317D01*
X1620266Y-4898085D01*
X1622552Y-4892040D01*
X1624330Y-4885131D01*
X1625650Y-4877460D01*
X1626463Y-4868976D01*
X1626717Y-4859680D01*
X1626463Y-4850384D01*
X1625650Y-4841900D01*
X1624330Y-4834280D01*
X1622552Y-4827524D01*
X1620266Y-4821529D01*
X1617522Y-4816398D01*
X1614322Y-4812030D01*
X1610715Y-4808524D01*
X1606702Y-4805781D01*
X1602282Y-4803800D01*
X1597558Y-4802632D01*
G37*
G36*
X1508861Y-4802276D02*
G01*
X1503832Y-4802632D01*
X1499108Y-4803851D01*
X1494790Y-4805781D01*
X1490776Y-4808575D01*
X1487220Y-4812131D01*
X1484071Y-4816500D01*
X1481328Y-4821631D01*
X1479042Y-4827625D01*
X1477213Y-4834432D01*
X1475943Y-4842002D01*
X1475130Y-4850434D01*
X1474825Y-4859680D01*
X1486763Y-4859680D01*
X1487170Y-4848250D01*
X1488389Y-4838446D01*
X1490268Y-4830318D01*
X1492859Y-4823764D01*
X1496110Y-4818735D01*
X1499870Y-4815179D01*
X1504137Y-4813096D01*
X1508861Y-4812436D01*
X1513636Y-4813096D01*
X1517904Y-4815179D01*
X1521663Y-4818735D01*
X1524863Y-4823764D01*
X1527454Y-4830318D01*
X1529384Y-4838446D01*
X1530553Y-4848250D01*
X1530959Y-4859680D01*
X1530807Y-4867554D01*
X1530248Y-4874666D01*
X1529384Y-4881118D01*
X1528165Y-4886807D01*
X1526692Y-4891786D01*
X1524863Y-4896053D01*
X1522831Y-4899660D01*
X1520494Y-4902555D01*
X1517904Y-4904841D01*
X1515110Y-4906416D01*
X1512112Y-4907381D01*
X1508861Y-4907686D01*
X1505661Y-4907381D01*
X1502664Y-4906416D01*
X1499870Y-4904841D01*
X1497279Y-4902555D01*
X1494942Y-4899660D01*
X1492859Y-4896053D01*
X1491081Y-4891786D01*
X1489557Y-4886807D01*
X1488389Y-4881118D01*
X1487525Y-4874666D01*
X1486966Y-4867554D01*
X1486763Y-4859680D01*
X1474825Y-4859680D01*
X1475130Y-4868976D01*
X1475943Y-4877460D01*
X1477213Y-4885131D01*
X1479042Y-4892040D01*
X1481328Y-4898085D01*
X1484071Y-4903317D01*
X1487220Y-4907737D01*
X1490776Y-4911394D01*
X1494790Y-4914188D01*
X1499108Y-4916220D01*
X1503832Y-4917440D01*
X1508861Y-4917846D01*
X1513992Y-4917440D01*
X1518716Y-4916220D01*
X1523136Y-4914188D01*
X1527149Y-4911394D01*
X1530756Y-4907737D01*
X1533956Y-4903317D01*
X1536700Y-4898085D01*
X1538986Y-4892040D01*
X1540764Y-4885131D01*
X1542084Y-4877460D01*
X1542897Y-4868976D01*
X1543151Y-4859680D01*
X1542897Y-4850384D01*
X1542084Y-4841900D01*
X1540764Y-4834280D01*
X1538986Y-4827524D01*
X1536700Y-4821529D01*
X1533956Y-4816398D01*
X1530756Y-4812030D01*
X1527149Y-4808524D01*
X1523136Y-4805781D01*
X1518716Y-4803800D01*
X1513992Y-4802632D01*
G37*
G36*
X1425041Y-4802276D02*
G01*
X1420012Y-4802632D01*
X1415338Y-4803851D01*
X1411020Y-4805781D01*
X1407058Y-4808575D01*
X1403502Y-4812131D01*
X1400352Y-4816500D01*
X1397660Y-4821631D01*
X1395425Y-4827625D01*
X1393647Y-4834432D01*
X1392326Y-4842002D01*
X1391564Y-4850434D01*
X1391259Y-4859680D01*
X1403197Y-4859680D01*
X1403604Y-4848250D01*
X1404823Y-4838446D01*
X1406702Y-4830318D01*
X1409293Y-4823764D01*
X1412443Y-4818735D01*
X1416202Y-4815179D01*
X1420418Y-4813096D01*
X1425041Y-4812436D01*
X1429867Y-4813096D01*
X1434236Y-4815179D01*
X1438046Y-4818735D01*
X1441297Y-4823764D01*
X1443888Y-4830318D01*
X1445818Y-4838446D01*
X1446987Y-4848250D01*
X1447393Y-4859680D01*
X1447241Y-4867554D01*
X1446682Y-4874666D01*
X1445818Y-4881118D01*
X1444599Y-4886807D01*
X1443075Y-4891786D01*
X1441297Y-4896053D01*
X1439214Y-4899660D01*
X1436827Y-4902555D01*
X1434236Y-4904841D01*
X1431391Y-4906416D01*
X1428343Y-4907381D01*
X1425041Y-4907686D01*
X1420418Y-4906975D01*
X1416202Y-4904841D01*
X1412443Y-4901184D01*
X1409293Y-4896053D01*
X1406702Y-4889347D01*
X1404823Y-4881118D01*
X1403604Y-4871212D01*
X1403197Y-4859680D01*
X1391259Y-4859680D01*
X1391564Y-4868976D01*
X1392326Y-4877460D01*
X1393647Y-4885131D01*
X1395425Y-4892040D01*
X1397660Y-4898085D01*
X1400352Y-4903317D01*
X1403502Y-4907737D01*
X1407058Y-4911394D01*
X1411020Y-4914188D01*
X1415338Y-4916220D01*
X1420012Y-4917440D01*
X1425041Y-4917846D01*
X1430172Y-4917440D01*
X1434896Y-4916220D01*
X1439316Y-4914188D01*
X1443329Y-4911394D01*
X1446936Y-4907737D01*
X1450136Y-4903317D01*
X1452880Y-4898085D01*
X1455166Y-4892040D01*
X1456944Y-4885131D01*
X1458264Y-4877460D01*
X1459077Y-4868976D01*
X1459331Y-4859680D01*
X1459077Y-4850384D01*
X1458264Y-4841900D01*
X1456944Y-4834280D01*
X1455166Y-4827524D01*
X1452880Y-4821529D01*
X1450136Y-4816398D01*
X1446936Y-4812030D01*
X1443329Y-4808524D01*
X1439316Y-4805781D01*
X1434896Y-4803800D01*
X1430172Y-4802632D01*
G37*
G36*
X1716633Y-4802530D02*
G01*
X1709978Y-4803089D01*
X1703984Y-4804714D01*
X1698853Y-4807356D01*
X1694484Y-4810861D01*
X1691030Y-4815179D01*
X1688490Y-4820208D01*
X1686966Y-4825847D01*
X1686493Y-4832502D01*
X1697075Y-4832502D01*
X1698447Y-4824577D01*
X1702358Y-4818024D01*
X1708556Y-4813554D01*
X1716887Y-4811928D01*
X1724253Y-4813300D01*
X1730044Y-4817110D01*
X1733854Y-4823053D01*
X1735175Y-4830724D01*
X1734616Y-4835601D01*
X1733042Y-4839766D01*
X1730552Y-4843424D01*
X1727301Y-4846523D01*
X1723389Y-4849215D01*
X1719021Y-4851654D01*
X1709267Y-4855870D01*
X1704086Y-4850536D01*
X1700225Y-4844846D01*
X1697888Y-4838801D01*
X1697075Y-4832502D01*
X1686493Y-4832502D01*
X1687830Y-4840427D01*
X1691436Y-4847945D01*
X1696262Y-4854295D01*
X1701393Y-4859172D01*
X1701393Y-4859934D01*
X1697837Y-4862169D01*
X1694383Y-4864709D01*
X1691233Y-4867605D01*
X1688388Y-4870907D01*
X1686001Y-4874666D01*
X1684172Y-4878933D01*
X1683054Y-4883708D01*
X1682618Y-4888890D01*
X1694535Y-4888890D01*
X1695196Y-4883505D01*
X1697024Y-4878882D01*
X1699920Y-4874971D01*
X1703679Y-4871567D01*
X1708251Y-4868570D01*
X1713433Y-4865928D01*
X1725015Y-4860950D01*
X1731518Y-4865928D01*
X1736547Y-4872024D01*
X1739849Y-4879136D01*
X1741017Y-4887112D01*
X1740560Y-4891532D01*
X1739188Y-4895596D01*
X1737004Y-4899202D01*
X1734108Y-4902352D01*
X1730552Y-4904892D01*
X1726488Y-4906822D01*
X1721866Y-4908042D01*
X1716887Y-4908448D01*
X1707743Y-4906975D01*
X1700682Y-4902860D01*
X1696161Y-4896662D01*
X1694535Y-4888890D01*
X1682618Y-4888890D01*
X1683257Y-4894935D01*
X1685086Y-4900371D01*
X1688033Y-4905248D01*
X1692046Y-4909464D01*
X1697024Y-4912969D01*
X1702866Y-4915611D01*
X1709521Y-4917236D01*
X1716887Y-4917846D01*
X1724355Y-4917287D01*
X1731162Y-4915611D01*
X1737207Y-4912969D01*
X1742389Y-4909464D01*
X1746656Y-4905095D01*
X1749806Y-4900066D01*
X1751787Y-4894376D01*
X1752447Y-4888128D01*
X1751990Y-4882642D01*
X1750618Y-4877612D01*
X1748536Y-4872990D01*
X1745843Y-4868875D01*
X1742693Y-4865217D01*
X1739188Y-4861966D01*
X1735429Y-4859172D01*
X1731619Y-4856886D01*
X1731619Y-4856378D01*
X1737410Y-4851654D01*
X1742186Y-4845812D01*
X1745437Y-4838852D01*
X1746605Y-4830724D01*
X1746046Y-4824679D01*
X1744319Y-4819243D01*
X1741627Y-4814417D01*
X1738020Y-4810302D01*
X1733600Y-4807000D01*
X1728520Y-4804562D01*
X1722831Y-4803038D01*
G37*
G36*
X1242415Y-4804308D02*
G01*
X1242415Y-4915814D01*
X1254099Y-4915814D01*
X1253998Y-4843627D01*
X1252575Y-4819040D01*
X1253337Y-4819040D01*
X1261973Y-4844440D01*
X1283817Y-4904384D01*
X1292453Y-4904384D01*
X1314551Y-4844440D01*
X1323441Y-4819040D01*
X1323949Y-4819040D01*
X1323035Y-4835245D01*
X1322425Y-4851298D01*
X1322425Y-4915814D01*
X1333855Y-4915814D01*
X1333855Y-4804308D01*
X1318361Y-4804308D01*
X1296263Y-4865268D01*
X1288389Y-4888890D01*
X1287627Y-4888890D01*
X1279753Y-4865268D01*
X1257909Y-4804308D01*
G37*
G36*
X1132179Y-4804308D02*
G01*
X1132179Y-4915814D01*
X1144879Y-4915814D01*
X1144879Y-4862474D01*
X1198727Y-4862474D01*
X1198727Y-4915814D01*
X1211427Y-4915814D01*
X1211427Y-4804308D01*
X1198727Y-4804308D01*
X1198727Y-4851552D01*
X1144879Y-4851552D01*
X1144879Y-4804308D01*
G37*
G36*
X1051407Y-4833518D02*
G01*
X1051407Y-4840122D01*
X1095857Y-4905654D01*
X1049883Y-4905654D01*
X1049883Y-4915814D01*
X1111605Y-4915814D01*
X1111605Y-4909210D01*
X1066901Y-4843678D01*
X1106779Y-4843678D01*
X1106779Y-4833518D01*
G37*
G36*
X1655165Y-4898034D02*
G01*
X1651457Y-4898694D01*
X1648510Y-4900676D01*
X1646529Y-4903825D01*
X1645767Y-4907940D01*
X1646529Y-4911953D01*
X1648510Y-4915052D01*
X1651457Y-4917084D01*
X1655165Y-4917846D01*
X1658772Y-4917084D01*
X1661668Y-4915052D01*
X1663598Y-4911953D01*
X1664309Y-4907940D01*
X1663598Y-4903825D01*
X1661668Y-4900676D01*
X1658772Y-4898694D01*
G37*
G36*
X2002383Y-5056276D02*
G01*
X1997303Y-5056632D01*
X1992579Y-5057851D01*
X1988210Y-5059781D01*
X1984197Y-5062575D01*
X1980641Y-5066131D01*
X1977491Y-5070500D01*
X1974748Y-5075631D01*
X1972513Y-5081625D01*
X1970735Y-5088432D01*
X1969414Y-5096002D01*
X1968652Y-5104434D01*
X1968347Y-5113680D01*
X1980285Y-5113680D01*
X1980692Y-5102250D01*
X1981911Y-5092446D01*
X1983790Y-5084318D01*
X1986381Y-5077764D01*
X1989632Y-5072735D01*
X1993392Y-5069179D01*
X1997659Y-5067096D01*
X2002383Y-5066436D01*
X2007158Y-5067096D01*
X2011425Y-5069179D01*
X2015185Y-5072735D01*
X2018385Y-5077764D01*
X2020976Y-5084318D01*
X2022906Y-5092446D01*
X2024075Y-5102250D01*
X2024481Y-5113680D01*
X2024329Y-5121554D01*
X2023770Y-5128666D01*
X2022906Y-5135118D01*
X2021687Y-5140807D01*
X2020214Y-5145786D01*
X2018385Y-5150053D01*
X2016353Y-5153660D01*
X2014016Y-5156555D01*
X2011425Y-5158841D01*
X2008632Y-5160416D01*
X2005634Y-5161381D01*
X2002383Y-5161686D01*
X1999183Y-5161381D01*
X1996186Y-5160416D01*
X1993392Y-5158841D01*
X1990801Y-5156555D01*
X1988464Y-5153660D01*
X1986381Y-5150053D01*
X1984603Y-5145786D01*
X1983079Y-5140807D01*
X1981911Y-5135118D01*
X1981047Y-5128666D01*
X1980488Y-5121554D01*
X1980285Y-5113680D01*
X1968347Y-5113680D01*
X1968652Y-5122976D01*
X1969414Y-5131460D01*
X1970735Y-5139131D01*
X1972513Y-5146040D01*
X1974748Y-5152085D01*
X1977491Y-5157317D01*
X1980641Y-5161737D01*
X1984197Y-5165394D01*
X1988210Y-5168188D01*
X1992579Y-5170220D01*
X1997303Y-5171440D01*
X2002383Y-5171846D01*
X2007463Y-5171440D01*
X2012188Y-5170220D01*
X2016556Y-5168188D01*
X2020570Y-5165394D01*
X2024176Y-5161737D01*
X2027377Y-5157317D01*
X2030120Y-5152085D01*
X2032457Y-5146040D01*
X2034286Y-5139131D01*
X2035606Y-5131460D01*
X2036419Y-5122976D01*
X2036673Y-5113680D01*
X2036419Y-5104384D01*
X2035606Y-5095900D01*
X2034286Y-5088280D01*
X2032457Y-5081524D01*
X2030120Y-5075529D01*
X2027377Y-5070398D01*
X2024176Y-5066030D01*
X2020570Y-5062524D01*
X2016556Y-5059781D01*
X2012188Y-5057800D01*
X2007463Y-5056632D01*
G37*
G36*
X1717395Y-5056276D02*
G01*
X1712315Y-5056632D01*
X1707591Y-5057851D01*
X1703222Y-5059781D01*
X1699209Y-5062575D01*
X1695653Y-5066131D01*
X1692503Y-5070500D01*
X1689760Y-5075631D01*
X1687525Y-5081625D01*
X1685747Y-5088432D01*
X1684426Y-5096002D01*
X1683664Y-5104434D01*
X1683359Y-5113680D01*
X1695297Y-5113680D01*
X1695704Y-5102250D01*
X1696923Y-5092446D01*
X1698802Y-5084318D01*
X1701393Y-5077764D01*
X1704644Y-5072735D01*
X1708404Y-5069179D01*
X1712671Y-5067096D01*
X1717395Y-5066436D01*
X1722170Y-5067096D01*
X1726438Y-5069179D01*
X1730197Y-5072735D01*
X1733397Y-5077764D01*
X1735988Y-5084318D01*
X1737918Y-5092446D01*
X1739087Y-5102250D01*
X1739493Y-5113680D01*
X1739341Y-5121554D01*
X1738782Y-5128666D01*
X1737918Y-5135118D01*
X1736699Y-5140807D01*
X1735226Y-5145786D01*
X1733397Y-5150053D01*
X1731365Y-5153660D01*
X1729028Y-5156555D01*
X1726438Y-5158841D01*
X1723643Y-5160416D01*
X1720646Y-5161381D01*
X1717395Y-5161686D01*
X1714195Y-5161381D01*
X1711198Y-5160416D01*
X1708404Y-5158841D01*
X1705813Y-5156555D01*
X1703476Y-5153660D01*
X1701393Y-5150053D01*
X1699615Y-5145786D01*
X1698091Y-5140807D01*
X1696923Y-5135118D01*
X1696059Y-5128666D01*
X1695500Y-5121554D01*
X1695297Y-5113680D01*
X1683359Y-5113680D01*
X1683664Y-5122976D01*
X1684426Y-5131460D01*
X1685747Y-5139131D01*
X1687525Y-5146040D01*
X1689760Y-5152085D01*
X1692503Y-5157317D01*
X1695653Y-5161737D01*
X1699209Y-5165394D01*
X1703222Y-5168188D01*
X1707591Y-5170220D01*
X1712315Y-5171440D01*
X1717395Y-5171846D01*
X1722475Y-5171440D01*
X1727200Y-5170220D01*
X1731568Y-5168188D01*
X1735582Y-5165394D01*
X1739188Y-5161737D01*
X1742389Y-5157317D01*
X1745132Y-5152085D01*
X1747469Y-5146040D01*
X1749298Y-5139131D01*
X1750618Y-5131460D01*
X1751431Y-5122976D01*
X1751685Y-5113680D01*
X1751431Y-5104384D01*
X1750618Y-5095900D01*
X1749298Y-5088280D01*
X1747469Y-5081524D01*
X1745132Y-5075529D01*
X1742389Y-5070398D01*
X1739188Y-5066030D01*
X1735582Y-5062524D01*
X1731568Y-5059781D01*
X1727200Y-5057800D01*
X1722475Y-5056632D01*
G37*
G36*
X1592427Y-5056276D02*
G01*
X1587398Y-5056632D01*
X1582674Y-5057851D01*
X1578356Y-5059781D01*
X1574342Y-5062575D01*
X1570786Y-5066131D01*
X1567637Y-5070500D01*
X1564894Y-5075631D01*
X1562608Y-5081625D01*
X1560779Y-5088432D01*
X1559509Y-5096002D01*
X1558696Y-5104434D01*
X1558391Y-5113680D01*
X1570583Y-5113680D01*
X1570990Y-5102250D01*
X1572209Y-5092446D01*
X1574088Y-5084318D01*
X1576679Y-5077764D01*
X1579829Y-5072735D01*
X1583588Y-5069179D01*
X1587804Y-5067096D01*
X1592427Y-5066436D01*
X1597202Y-5067096D01*
X1601520Y-5069179D01*
X1605330Y-5072735D01*
X1608582Y-5077764D01*
X1611223Y-5084318D01*
X1613154Y-5092446D01*
X1614373Y-5102250D01*
X1614779Y-5113680D01*
X1614627Y-5121554D01*
X1614068Y-5128666D01*
X1613154Y-5135118D01*
X1611934Y-5140807D01*
X1610410Y-5145786D01*
X1608582Y-5150053D01*
X1606448Y-5153660D01*
X1604111Y-5156555D01*
X1601520Y-5158841D01*
X1598676Y-5160416D01*
X1595678Y-5161381D01*
X1592427Y-5161686D01*
X1587804Y-5160975D01*
X1583588Y-5158841D01*
X1579829Y-5155184D01*
X1576679Y-5150053D01*
X1574088Y-5143347D01*
X1572209Y-5135118D01*
X1570990Y-5125212D01*
X1570583Y-5113680D01*
X1558391Y-5113680D01*
X1558696Y-5122976D01*
X1559509Y-5131460D01*
X1560779Y-5139131D01*
X1562608Y-5146040D01*
X1564894Y-5152085D01*
X1567637Y-5157317D01*
X1570786Y-5161737D01*
X1574342Y-5165394D01*
X1578356Y-5168188D01*
X1582674Y-5170220D01*
X1587398Y-5171440D01*
X1592427Y-5171846D01*
X1597558Y-5171440D01*
X1602282Y-5170220D01*
X1606702Y-5168188D01*
X1610715Y-5165394D01*
X1614322Y-5161737D01*
X1617522Y-5157317D01*
X1620266Y-5152085D01*
X1622552Y-5146040D01*
X1624330Y-5139131D01*
X1625650Y-5131460D01*
X1626463Y-5122976D01*
X1626717Y-5113680D01*
X1626463Y-5104384D01*
X1625650Y-5095900D01*
X1624330Y-5088280D01*
X1622552Y-5081524D01*
X1620266Y-5075529D01*
X1617522Y-5070398D01*
X1614322Y-5066030D01*
X1610715Y-5062524D01*
X1606702Y-5059781D01*
X1602282Y-5057800D01*
X1597558Y-5056632D01*
G37*
G36*
X1508861Y-5056276D02*
G01*
X1503832Y-5056632D01*
X1499108Y-5057851D01*
X1494790Y-5059781D01*
X1490776Y-5062575D01*
X1487220Y-5066131D01*
X1484071Y-5070500D01*
X1481328Y-5075631D01*
X1479042Y-5081625D01*
X1477213Y-5088432D01*
X1475943Y-5096002D01*
X1475130Y-5104434D01*
X1474825Y-5113680D01*
X1486763Y-5113680D01*
X1487170Y-5102250D01*
X1488389Y-5092446D01*
X1490268Y-5084318D01*
X1492859Y-5077764D01*
X1496110Y-5072735D01*
X1499870Y-5069179D01*
X1504137Y-5067096D01*
X1508861Y-5066436D01*
X1513636Y-5067096D01*
X1517904Y-5069179D01*
X1521663Y-5072735D01*
X1524863Y-5077764D01*
X1527454Y-5084318D01*
X1529384Y-5092446D01*
X1530553Y-5102250D01*
X1530959Y-5113680D01*
X1530807Y-5121554D01*
X1530248Y-5128666D01*
X1529384Y-5135118D01*
X1528165Y-5140807D01*
X1526692Y-5145786D01*
X1524863Y-5150053D01*
X1522831Y-5153660D01*
X1520494Y-5156555D01*
X1517904Y-5158841D01*
X1515110Y-5160416D01*
X1512112Y-5161381D01*
X1508861Y-5161686D01*
X1505661Y-5161381D01*
X1502664Y-5160416D01*
X1499870Y-5158841D01*
X1497279Y-5156555D01*
X1494942Y-5153660D01*
X1492859Y-5150053D01*
X1491081Y-5145786D01*
X1489557Y-5140807D01*
X1488389Y-5135118D01*
X1487525Y-5128666D01*
X1486966Y-5121554D01*
X1486763Y-5113680D01*
X1474825Y-5113680D01*
X1475130Y-5122976D01*
X1475943Y-5131460D01*
X1477213Y-5139131D01*
X1479042Y-5146040D01*
X1481328Y-5152085D01*
X1484071Y-5157317D01*
X1487220Y-5161737D01*
X1490776Y-5165394D01*
X1494790Y-5168188D01*
X1499108Y-5170220D01*
X1503832Y-5171440D01*
X1508861Y-5171846D01*
X1513992Y-5171440D01*
X1518716Y-5170220D01*
X1523136Y-5168188D01*
X1527149Y-5165394D01*
X1530756Y-5161737D01*
X1533956Y-5157317D01*
X1536700Y-5152085D01*
X1538986Y-5146040D01*
X1540764Y-5139131D01*
X1542084Y-5131460D01*
X1542897Y-5122976D01*
X1543151Y-5113680D01*
X1542897Y-5104384D01*
X1542084Y-5095900D01*
X1540764Y-5088280D01*
X1538986Y-5081524D01*
X1536700Y-5075529D01*
X1533956Y-5070398D01*
X1530756Y-5066030D01*
X1527149Y-5062524D01*
X1523136Y-5059781D01*
X1518716Y-5057800D01*
X1513992Y-5056632D01*
G37*
G36*
X1425041Y-5056276D02*
G01*
X1420012Y-5056632D01*
X1415338Y-5057851D01*
X1411020Y-5059781D01*
X1407058Y-5062575D01*
X1403502Y-5066131D01*
X1400352Y-5070500D01*
X1397660Y-5075631D01*
X1395425Y-5081625D01*
X1393647Y-5088432D01*
X1392326Y-5096002D01*
X1391564Y-5104434D01*
X1391259Y-5113680D01*
X1403197Y-5113680D01*
X1403604Y-5102250D01*
X1404823Y-5092446D01*
X1406702Y-5084318D01*
X1409293Y-5077764D01*
X1412443Y-5072735D01*
X1416202Y-5069179D01*
X1420418Y-5067096D01*
X1425041Y-5066436D01*
X1429867Y-5067096D01*
X1434236Y-5069179D01*
X1438046Y-5072735D01*
X1441297Y-5077764D01*
X1443888Y-5084318D01*
X1445818Y-5092446D01*
X1446987Y-5102250D01*
X1447393Y-5113680D01*
X1447241Y-5121554D01*
X1446682Y-5128666D01*
X1445818Y-5135118D01*
X1444599Y-5140807D01*
X1443075Y-5145786D01*
X1441297Y-5150053D01*
X1439214Y-5153660D01*
X1436827Y-5156555D01*
X1434236Y-5158841D01*
X1431391Y-5160416D01*
X1428343Y-5161381D01*
X1425041Y-5161686D01*
X1420418Y-5160975D01*
X1416202Y-5158841D01*
X1412443Y-5155184D01*
X1409293Y-5150053D01*
X1406702Y-5143347D01*
X1404823Y-5135118D01*
X1403604Y-5125212D01*
X1403197Y-5113680D01*
X1391259Y-5113680D01*
X1391564Y-5122976D01*
X1392326Y-5131460D01*
X1393647Y-5139131D01*
X1395425Y-5146040D01*
X1397660Y-5152085D01*
X1400352Y-5157317D01*
X1403502Y-5161737D01*
X1407058Y-5165394D01*
X1411020Y-5168188D01*
X1415338Y-5170220D01*
X1420012Y-5171440D01*
X1425041Y-5171846D01*
X1430172Y-5171440D01*
X1434896Y-5170220D01*
X1439316Y-5168188D01*
X1443329Y-5165394D01*
X1446936Y-5161737D01*
X1450136Y-5157317D01*
X1452880Y-5152085D01*
X1455166Y-5146040D01*
X1456944Y-5139131D01*
X1458264Y-5131460D01*
X1459077Y-5122976D01*
X1459331Y-5113680D01*
X1459077Y-5104384D01*
X1458264Y-5095900D01*
X1456944Y-5088280D01*
X1455166Y-5081524D01*
X1452880Y-5075529D01*
X1450136Y-5070398D01*
X1446936Y-5066030D01*
X1443329Y-5062524D01*
X1439316Y-5059781D01*
X1434896Y-5057800D01*
X1430172Y-5056632D01*
G37*
G36*
X1909673Y-5058308D02*
G01*
X1909673Y-5159400D01*
X1886813Y-5159400D01*
X1886813Y-5169814D01*
X1947011Y-5169814D01*
X1947011Y-5159400D01*
X1921865Y-5159400D01*
X1921865Y-5074056D01*
X1941677Y-5074056D01*
X1941677Y-5065928D01*
X1934921Y-5064455D01*
X1928977Y-5062778D01*
X1923745Y-5060746D01*
X1919071Y-5058308D01*
G37*
G36*
X1772767Y-5058308D02*
G01*
X1772767Y-5068976D01*
X1815185Y-5068976D01*
X1818233Y-5102758D01*
X1814271Y-5100828D01*
X1810156Y-5099304D01*
X1805736Y-5098288D01*
X1800707Y-5097932D01*
X1794052Y-5098440D01*
X1787804Y-5100066D01*
X1782165Y-5102758D01*
X1777238Y-5106568D01*
X1773174Y-5111597D01*
X1770075Y-5117744D01*
X1768144Y-5125110D01*
X1767433Y-5133746D01*
X1767789Y-5139537D01*
X1768856Y-5144922D01*
X1770481Y-5149850D01*
X1772666Y-5154320D01*
X1775409Y-5158333D01*
X1778558Y-5161838D01*
X1782064Y-5164836D01*
X1785924Y-5167325D01*
X1790039Y-5169255D01*
X1794408Y-5170678D01*
X1798929Y-5171541D01*
X1803501Y-5171846D01*
X1809699Y-5171490D01*
X1815236Y-5170576D01*
X1820265Y-5169103D01*
X1824786Y-5167223D01*
X1828800Y-5164988D01*
X1832406Y-5162499D01*
X1835657Y-5159857D01*
X1838553Y-5157114D01*
X1832457Y-5148732D01*
X1827174Y-5153507D01*
X1820976Y-5157520D01*
X1813560Y-5160365D01*
X1804517Y-5161432D01*
X1799589Y-5160924D01*
X1795018Y-5159502D01*
X1790801Y-5157165D01*
X1787194Y-5153964D01*
X1784146Y-5150053D01*
X1781860Y-5145328D01*
X1780387Y-5139994D01*
X1779879Y-5134000D01*
X1780336Y-5128107D01*
X1781606Y-5122875D01*
X1783638Y-5118354D01*
X1786432Y-5114594D01*
X1789836Y-5111597D01*
X1793951Y-5109362D01*
X1798574Y-5108041D01*
X1803755Y-5107584D01*
X1809089Y-5108041D01*
X1813763Y-5109362D01*
X1818233Y-5111546D01*
X1822805Y-5114442D01*
X1829663Y-5110124D01*
X1826107Y-5058308D01*
G37*
G36*
X1242415Y-5058308D02*
G01*
X1242415Y-5169814D01*
X1254099Y-5169814D01*
X1253998Y-5097627D01*
X1252575Y-5073040D01*
X1253337Y-5073040D01*
X1261973Y-5098440D01*
X1283817Y-5158384D01*
X1292453Y-5158384D01*
X1314551Y-5098440D01*
X1323441Y-5073040D01*
X1323949Y-5073040D01*
X1323035Y-5089245D01*
X1322425Y-5105298D01*
X1322425Y-5169814D01*
X1333855Y-5169814D01*
X1333855Y-5058308D01*
X1318361Y-5058308D01*
X1296263Y-5119268D01*
X1288389Y-5142890D01*
X1287627Y-5142890D01*
X1279753Y-5119268D01*
X1257909Y-5058308D01*
G37*
G36*
X1132179Y-5058308D02*
G01*
X1132179Y-5169814D01*
X1144879Y-5169814D01*
X1144879Y-5116474D01*
X1198727Y-5116474D01*
X1198727Y-5169814D01*
X1211427Y-5169814D01*
X1211427Y-5058308D01*
X1198727Y-5058308D01*
X1198727Y-5105552D01*
X1144879Y-5105552D01*
X1144879Y-5058308D01*
G37*
G36*
X1051407Y-5087518D02*
G01*
X1051407Y-5094122D01*
X1095857Y-5159654D01*
X1049883Y-5159654D01*
X1049883Y-5169814D01*
X1111605Y-5169814D01*
X1111605Y-5163210D01*
X1066901Y-5097678D01*
X1106779Y-5097678D01*
X1106779Y-5087518D01*
G37*
G36*
X1655165Y-5152034D02*
G01*
X1651457Y-5152694D01*
X1648510Y-5154676D01*
X1646529Y-5157825D01*
X1645767Y-5161940D01*
X1646529Y-5165953D01*
X1648510Y-5169052D01*
X1651457Y-5171084D01*
X1655165Y-5171846D01*
X1658772Y-5171084D01*
X1661668Y-5169052D01*
X1663598Y-5165953D01*
X1664309Y-5161940D01*
X1663598Y-5157825D01*
X1661668Y-5154676D01*
X1658772Y-5152694D01*
G37*
G36*
X1918563Y-5310276D02*
G01*
X1913534Y-5310632D01*
X1908810Y-5311851D01*
X1904492Y-5313781D01*
X1900478Y-5316575D01*
X1896922Y-5320131D01*
X1893773Y-5324500D01*
X1891030Y-5329631D01*
X1888743Y-5335625D01*
X1886915Y-5342432D01*
X1885645Y-5350002D01*
X1884832Y-5358434D01*
X1884527Y-5367680D01*
X1896719Y-5367680D01*
X1897125Y-5356250D01*
X1898345Y-5346446D01*
X1900224Y-5338318D01*
X1902815Y-5331764D01*
X1905965Y-5326735D01*
X1909724Y-5323179D01*
X1913940Y-5321096D01*
X1918563Y-5320436D01*
X1923338Y-5321096D01*
X1927656Y-5323179D01*
X1931466Y-5326735D01*
X1934718Y-5331764D01*
X1937359Y-5338318D01*
X1939289Y-5346446D01*
X1940509Y-5356250D01*
X1940915Y-5367680D01*
X1940763Y-5375554D01*
X1940204Y-5382666D01*
X1939289Y-5389118D01*
X1938070Y-5394807D01*
X1936546Y-5399786D01*
X1934718Y-5404053D01*
X1932584Y-5407660D01*
X1930247Y-5410555D01*
X1927656Y-5412841D01*
X1924812Y-5414416D01*
X1921814Y-5415381D01*
X1918563Y-5415686D01*
X1913940Y-5414975D01*
X1909724Y-5412841D01*
X1905965Y-5409184D01*
X1902815Y-5404053D01*
X1900224Y-5397347D01*
X1898345Y-5389118D01*
X1897125Y-5379212D01*
X1896719Y-5367680D01*
X1884527Y-5367680D01*
X1884832Y-5376976D01*
X1885645Y-5385460D01*
X1886915Y-5393131D01*
X1888743Y-5400040D01*
X1891030Y-5406085D01*
X1893773Y-5411317D01*
X1896922Y-5415737D01*
X1900478Y-5419394D01*
X1904492Y-5422188D01*
X1908810Y-5424220D01*
X1913534Y-5425440D01*
X1918563Y-5425846D01*
X1923694Y-5425440D01*
X1928418Y-5424220D01*
X1932838Y-5422188D01*
X1936851Y-5419394D01*
X1940458Y-5415737D01*
X1943658Y-5411317D01*
X1946402Y-5406085D01*
X1948688Y-5400040D01*
X1950466Y-5393131D01*
X1951786Y-5385460D01*
X1952599Y-5376976D01*
X1952853Y-5367680D01*
X1952599Y-5358384D01*
X1951786Y-5349900D01*
X1950466Y-5342280D01*
X1948688Y-5335524D01*
X1946402Y-5329529D01*
X1943658Y-5324398D01*
X1940458Y-5320030D01*
X1936851Y-5316524D01*
X1932838Y-5313781D01*
X1928418Y-5311800D01*
X1923694Y-5310632D01*
G37*
G36*
X1508861Y-5310276D02*
G01*
X1503832Y-5310632D01*
X1499108Y-5311851D01*
X1494790Y-5313781D01*
X1490776Y-5316575D01*
X1487220Y-5320131D01*
X1484071Y-5324500D01*
X1481328Y-5329631D01*
X1479042Y-5335625D01*
X1477213Y-5342432D01*
X1475943Y-5350002D01*
X1475130Y-5358434D01*
X1474825Y-5367680D01*
X1486763Y-5367680D01*
X1487170Y-5356250D01*
X1488389Y-5346446D01*
X1490268Y-5338318D01*
X1492859Y-5331764D01*
X1496110Y-5326735D01*
X1499870Y-5323179D01*
X1504137Y-5321096D01*
X1508861Y-5320436D01*
X1513636Y-5321096D01*
X1517904Y-5323179D01*
X1521663Y-5326735D01*
X1524863Y-5331764D01*
X1527454Y-5338318D01*
X1529384Y-5346446D01*
X1530553Y-5356250D01*
X1530959Y-5367680D01*
X1530807Y-5375554D01*
X1530248Y-5382666D01*
X1529384Y-5389118D01*
X1528165Y-5394807D01*
X1526692Y-5399786D01*
X1524863Y-5404053D01*
X1522831Y-5407660D01*
X1520494Y-5410555D01*
X1517904Y-5412841D01*
X1515110Y-5414416D01*
X1512112Y-5415381D01*
X1508861Y-5415686D01*
X1505661Y-5415381D01*
X1502664Y-5414416D01*
X1499870Y-5412841D01*
X1497279Y-5410555D01*
X1494942Y-5407660D01*
X1492859Y-5404053D01*
X1491081Y-5399786D01*
X1489557Y-5394807D01*
X1488389Y-5389118D01*
X1487525Y-5382666D01*
X1486966Y-5375554D01*
X1486763Y-5367680D01*
X1474825Y-5367680D01*
X1475130Y-5376976D01*
X1475943Y-5385460D01*
X1477213Y-5393131D01*
X1479042Y-5400040D01*
X1481328Y-5406085D01*
X1484071Y-5411317D01*
X1487220Y-5415737D01*
X1490776Y-5419394D01*
X1494790Y-5422188D01*
X1499108Y-5424220D01*
X1503832Y-5425440D01*
X1508861Y-5425846D01*
X1513992Y-5425440D01*
X1518716Y-5424220D01*
X1523136Y-5422188D01*
X1527149Y-5419394D01*
X1530756Y-5415737D01*
X1533956Y-5411317D01*
X1536700Y-5406085D01*
X1538986Y-5400040D01*
X1540764Y-5393131D01*
X1542084Y-5385460D01*
X1542897Y-5376976D01*
X1543151Y-5367680D01*
X1542897Y-5358384D01*
X1542084Y-5349900D01*
X1540764Y-5342280D01*
X1538986Y-5335524D01*
X1536700Y-5329529D01*
X1533956Y-5324398D01*
X1530756Y-5320030D01*
X1527149Y-5316524D01*
X1523136Y-5313781D01*
X1518716Y-5311800D01*
X1513992Y-5310632D01*
G37*
G36*
X1425041Y-5310276D02*
G01*
X1420012Y-5310632D01*
X1415338Y-5311851D01*
X1411020Y-5313781D01*
X1407058Y-5316575D01*
X1403502Y-5320131D01*
X1400352Y-5324500D01*
X1397660Y-5329631D01*
X1395425Y-5335625D01*
X1393647Y-5342432D01*
X1392326Y-5350002D01*
X1391564Y-5358434D01*
X1391259Y-5367680D01*
X1403197Y-5367680D01*
X1403604Y-5356250D01*
X1404823Y-5346446D01*
X1406702Y-5338318D01*
X1409293Y-5331764D01*
X1412443Y-5326735D01*
X1416202Y-5323179D01*
X1420418Y-5321096D01*
X1425041Y-5320436D01*
X1429867Y-5321096D01*
X1434236Y-5323179D01*
X1438046Y-5326735D01*
X1441297Y-5331764D01*
X1443888Y-5338318D01*
X1445818Y-5346446D01*
X1446987Y-5356250D01*
X1447393Y-5367680D01*
X1447241Y-5375554D01*
X1446682Y-5382666D01*
X1445818Y-5389118D01*
X1444599Y-5394807D01*
X1443075Y-5399786D01*
X1441297Y-5404053D01*
X1439214Y-5407660D01*
X1436827Y-5410555D01*
X1434236Y-5412841D01*
X1431391Y-5414416D01*
X1428343Y-5415381D01*
X1425041Y-5415686D01*
X1420418Y-5414975D01*
X1416202Y-5412841D01*
X1412443Y-5409184D01*
X1409293Y-5404053D01*
X1406702Y-5397347D01*
X1404823Y-5389118D01*
X1403604Y-5379212D01*
X1403197Y-5367680D01*
X1391259Y-5367680D01*
X1391564Y-5376976D01*
X1392326Y-5385460D01*
X1393647Y-5393131D01*
X1395425Y-5400040D01*
X1397660Y-5406085D01*
X1400352Y-5411317D01*
X1403502Y-5415737D01*
X1407058Y-5419394D01*
X1411020Y-5422188D01*
X1415338Y-5424220D01*
X1420012Y-5425440D01*
X1425041Y-5425846D01*
X1430172Y-5425440D01*
X1434896Y-5424220D01*
X1439316Y-5422188D01*
X1443329Y-5419394D01*
X1446936Y-5415737D01*
X1450136Y-5411317D01*
X1452880Y-5406085D01*
X1455166Y-5400040D01*
X1456944Y-5393131D01*
X1458264Y-5385460D01*
X1459077Y-5376976D01*
X1459331Y-5367680D01*
X1459077Y-5358384D01*
X1458264Y-5349900D01*
X1456944Y-5342280D01*
X1455166Y-5335524D01*
X1452880Y-5329529D01*
X1450136Y-5324398D01*
X1446936Y-5320030D01*
X1443329Y-5316524D01*
X1439316Y-5313781D01*
X1434896Y-5311800D01*
X1430172Y-5310632D01*
G37*
G36*
X1341475Y-5310276D02*
G01*
X1336446Y-5310632D01*
X1331722Y-5311851D01*
X1327404Y-5313781D01*
X1323390Y-5316575D01*
X1319834Y-5320131D01*
X1316685Y-5324500D01*
X1313942Y-5329631D01*
X1311656Y-5335625D01*
X1309827Y-5342432D01*
X1308557Y-5350002D01*
X1307744Y-5358434D01*
X1307439Y-5367680D01*
X1319631Y-5367680D01*
X1320038Y-5356250D01*
X1321206Y-5346446D01*
X1323086Y-5338318D01*
X1325626Y-5331764D01*
X1328775Y-5326735D01*
X1332534Y-5323179D01*
X1336751Y-5321096D01*
X1341475Y-5320436D01*
X1346250Y-5321096D01*
X1350568Y-5323179D01*
X1354378Y-5326735D01*
X1357630Y-5331764D01*
X1360271Y-5338318D01*
X1362202Y-5346446D01*
X1363421Y-5356250D01*
X1363827Y-5367680D01*
X1363675Y-5375554D01*
X1363116Y-5382666D01*
X1362202Y-5389118D01*
X1360982Y-5394807D01*
X1359458Y-5399786D01*
X1357630Y-5404053D01*
X1355496Y-5407660D01*
X1353159Y-5410555D01*
X1350568Y-5412841D01*
X1347724Y-5414416D01*
X1344726Y-5415381D01*
X1341475Y-5415686D01*
X1338275Y-5415381D01*
X1335278Y-5414416D01*
X1332534Y-5412841D01*
X1329944Y-5410555D01*
X1327658Y-5407660D01*
X1325626Y-5404053D01*
X1323848Y-5399786D01*
X1322374Y-5394807D01*
X1321206Y-5389118D01*
X1320342Y-5382666D01*
X1319834Y-5375554D01*
X1319631Y-5367680D01*
X1307439Y-5367680D01*
X1307744Y-5376976D01*
X1308557Y-5385460D01*
X1309827Y-5393131D01*
X1311656Y-5400040D01*
X1313942Y-5406085D01*
X1316685Y-5411317D01*
X1319834Y-5415737D01*
X1323390Y-5419394D01*
X1327404Y-5422188D01*
X1331722Y-5424220D01*
X1336446Y-5425440D01*
X1341475Y-5425846D01*
X1346606Y-5425440D01*
X1351330Y-5424220D01*
X1355750Y-5422188D01*
X1359763Y-5419394D01*
X1363370Y-5415737D01*
X1366570Y-5411317D01*
X1369314Y-5406085D01*
X1371600Y-5400040D01*
X1373378Y-5393131D01*
X1374698Y-5385460D01*
X1375511Y-5376976D01*
X1375765Y-5367680D01*
X1375511Y-5358384D01*
X1374698Y-5349900D01*
X1373378Y-5342280D01*
X1371600Y-5335524D01*
X1369314Y-5329529D01*
X1366570Y-5324398D01*
X1363370Y-5320030D01*
X1359763Y-5316524D01*
X1355750Y-5313781D01*
X1351330Y-5311800D01*
X1346606Y-5310632D01*
G37*
G36*
X1993239Y-5312308D02*
G01*
X1993239Y-5413400D01*
X1970633Y-5413400D01*
X1970633Y-5423814D01*
X2030577Y-5423814D01*
X2030577Y-5413400D01*
X2005685Y-5413400D01*
X2005685Y-5328056D01*
X2025243Y-5328056D01*
X2025243Y-5319928D01*
X2018487Y-5318455D01*
X2012543Y-5316778D01*
X2007311Y-5314746D01*
X2002637Y-5312308D01*
G37*
G36*
X1792071Y-5312308D02*
G01*
X1792071Y-5413400D01*
X1769211Y-5413400D01*
X1769211Y-5423814D01*
X1829409Y-5423814D01*
X1829409Y-5413400D01*
X1804263Y-5413400D01*
X1804263Y-5328056D01*
X1824075Y-5328056D01*
X1824075Y-5319928D01*
X1817319Y-5318455D01*
X1811375Y-5316778D01*
X1806143Y-5314746D01*
X1801469Y-5312308D01*
G37*
G36*
X1695551Y-5312308D02*
G01*
X1695551Y-5326786D01*
X1707235Y-5326786D01*
X1716125Y-5342788D01*
X1743049Y-5382920D01*
X1707489Y-5382920D01*
X1707438Y-5341874D01*
X1706473Y-5326786D01*
X1695551Y-5326786D01*
X1695551Y-5382920D01*
X1680311Y-5382920D01*
X1680311Y-5392826D01*
X1695551Y-5392826D01*
X1695551Y-5423814D01*
X1707489Y-5423814D01*
X1707489Y-5392826D01*
X1756257Y-5392826D01*
X1756257Y-5384698D01*
X1709013Y-5312308D01*
G37*
G36*
X1611985Y-5312308D02*
G01*
X1611985Y-5326786D01*
X1623669Y-5326786D01*
X1632305Y-5342788D01*
X1659483Y-5382920D01*
X1623669Y-5382920D01*
X1623618Y-5341874D01*
X1622907Y-5326786D01*
X1611985Y-5326786D01*
X1611985Y-5382920D01*
X1596745Y-5382920D01*
X1596745Y-5392826D01*
X1611985Y-5392826D01*
X1611985Y-5423814D01*
X1623669Y-5423814D01*
X1623669Y-5392826D01*
X1672691Y-5392826D01*
X1672691Y-5384698D01*
X1625193Y-5312308D01*
G37*
G36*
X1158849Y-5312308D02*
G01*
X1158849Y-5423814D01*
X1170533Y-5423814D01*
X1170533Y-5359298D01*
X1169974Y-5343245D01*
X1169009Y-5327040D01*
X1169517Y-5327040D01*
X1178407Y-5352440D01*
X1200251Y-5412384D01*
X1208887Y-5412384D01*
X1230731Y-5352440D01*
X1239621Y-5327040D01*
X1240383Y-5327040D01*
X1239367Y-5343245D01*
X1238859Y-5359298D01*
X1238859Y-5423814D01*
X1250289Y-5423814D01*
X1250289Y-5312308D01*
X1234541Y-5312308D01*
X1204569Y-5396890D01*
X1203807Y-5396890D01*
X1196187Y-5373268D01*
X1174343Y-5312308D01*
G37*
G36*
X1048613Y-5312308D02*
G01*
X1048613Y-5423814D01*
X1061313Y-5423814D01*
X1061313Y-5370474D01*
X1114907Y-5370474D01*
X1114907Y-5423814D01*
X1127607Y-5423814D01*
X1127607Y-5312308D01*
X1114907Y-5312308D01*
X1114907Y-5359552D01*
X1061313Y-5359552D01*
X1061313Y-5312308D01*
G37*
G36*
X967587Y-5341518D02*
G01*
X967587Y-5348122D01*
X1012291Y-5413654D01*
X966317Y-5413654D01*
X966317Y-5423814D01*
X1028039Y-5423814D01*
X1028039Y-5417210D01*
X983335Y-5351678D01*
X1023213Y-5351678D01*
X1023213Y-5341518D01*
G37*
G36*
X1571345Y-5406034D02*
G01*
X1567738Y-5406694D01*
X1564741Y-5408676D01*
X1562709Y-5411825D01*
X1561947Y-5415940D01*
X1562709Y-5419953D01*
X1564741Y-5423052D01*
X1567738Y-5425084D01*
X1571345Y-5425846D01*
X1574952Y-5425084D01*
X1577949Y-5423052D01*
X1580032Y-5419953D01*
X1580743Y-5415940D01*
X1580032Y-5411825D01*
X1577949Y-5408676D01*
X1574952Y-5406694D01*
G37*
G36*
X1719681Y-5564276D02*
G01*
X1713077Y-5564733D01*
X1707032Y-5566105D01*
X1701596Y-5568391D01*
X1696974Y-5571540D01*
X1693164Y-5575503D01*
X1690319Y-5580227D01*
X1688541Y-5585714D01*
X1687931Y-5591962D01*
X1688338Y-5596890D01*
X1689404Y-5601360D01*
X1691132Y-5605424D01*
X1693519Y-5609031D01*
X1696415Y-5612180D01*
X1699869Y-5614873D01*
X1703730Y-5617108D01*
X1707997Y-5618886D01*
X1707997Y-5619648D01*
X1703222Y-5621121D01*
X1698701Y-5623204D01*
X1694637Y-5625896D01*
X1691132Y-5629198D01*
X1688236Y-5633059D01*
X1686001Y-5637530D01*
X1684629Y-5642559D01*
X1684121Y-5648096D01*
X1684832Y-5655157D01*
X1686915Y-5661406D01*
X1690166Y-5666841D01*
X1694434Y-5671362D01*
X1699615Y-5675020D01*
X1705559Y-5677662D01*
X1712163Y-5679287D01*
X1719173Y-5679846D01*
X1725472Y-5679490D01*
X1731111Y-5678525D01*
X1736191Y-5677001D01*
X1740763Y-5675071D01*
X1744878Y-5672785D01*
X1748536Y-5670194D01*
X1751838Y-5667451D01*
X1754733Y-5664606D01*
X1748129Y-5656478D01*
X1742948Y-5661253D01*
X1736699Y-5665419D01*
X1729130Y-5668314D01*
X1719935Y-5669432D01*
X1715109Y-5669026D01*
X1710689Y-5667908D01*
X1706727Y-5666079D01*
X1703374Y-5663539D01*
X1700580Y-5660390D01*
X1698548Y-5656681D01*
X1697278Y-5652363D01*
X1696821Y-5647588D01*
X1697278Y-5642660D01*
X1698701Y-5638241D01*
X1701190Y-5634329D01*
X1704797Y-5630976D01*
X1709572Y-5628335D01*
X1715719Y-5626354D01*
X1723186Y-5625134D01*
X1732127Y-5624728D01*
X1732127Y-5614822D01*
X1724101Y-5614365D01*
X1717344Y-5613095D01*
X1711909Y-5611114D01*
X1707642Y-5608421D01*
X1704441Y-5605170D01*
X1702307Y-5601411D01*
X1701038Y-5597245D01*
X1700631Y-5592724D01*
X1702054Y-5585256D01*
X1705965Y-5579465D01*
X1712112Y-5575757D01*
X1720189Y-5574436D01*
X1726844Y-5575249D01*
X1733042Y-5577484D01*
X1738630Y-5580938D01*
X1743557Y-5585358D01*
X1750415Y-5577484D01*
X1744014Y-5572201D01*
X1736902Y-5568035D01*
X1728825Y-5565241D01*
G37*
G36*
X1636115Y-5564276D02*
G01*
X1629511Y-5564733D01*
X1623466Y-5566105D01*
X1618030Y-5568391D01*
X1613408Y-5571540D01*
X1609598Y-5575503D01*
X1606753Y-5580227D01*
X1604975Y-5585714D01*
X1604365Y-5591962D01*
X1604772Y-5596890D01*
X1605838Y-5601360D01*
X1607566Y-5605424D01*
X1609953Y-5609031D01*
X1612849Y-5612180D01*
X1616303Y-5614873D01*
X1620164Y-5617108D01*
X1624431Y-5618886D01*
X1624431Y-5619648D01*
X1619656Y-5621121D01*
X1615135Y-5623204D01*
X1611071Y-5625896D01*
X1607566Y-5629198D01*
X1604670Y-5633059D01*
X1602435Y-5637530D01*
X1601063Y-5642559D01*
X1600555Y-5648096D01*
X1601266Y-5655157D01*
X1603298Y-5661406D01*
X1606499Y-5666841D01*
X1610766Y-5671362D01*
X1615948Y-5675020D01*
X1621891Y-5677662D01*
X1628495Y-5679287D01*
X1635607Y-5679846D01*
X1641805Y-5679490D01*
X1647443Y-5678525D01*
X1652524Y-5677001D01*
X1657096Y-5675071D01*
X1661210Y-5672785D01*
X1664868Y-5670194D01*
X1668068Y-5667451D01*
X1670913Y-5664606D01*
X1664563Y-5656478D01*
X1659229Y-5661253D01*
X1652981Y-5665419D01*
X1645462Y-5668314D01*
X1636369Y-5669432D01*
X1631543Y-5669026D01*
X1627073Y-5667908D01*
X1623060Y-5666079D01*
X1619656Y-5663539D01*
X1616862Y-5660390D01*
X1614779Y-5656681D01*
X1613458Y-5652363D01*
X1613001Y-5647588D01*
X1613458Y-5642660D01*
X1614881Y-5638241D01*
X1617370Y-5634329D01*
X1620977Y-5630976D01*
X1625752Y-5628335D01*
X1631899Y-5626354D01*
X1639366Y-5625134D01*
X1648307Y-5624728D01*
X1648307Y-5614822D01*
X1640332Y-5614365D01*
X1633677Y-5613095D01*
X1628292Y-5611114D01*
X1624025Y-5608421D01*
X1620875Y-5605170D01*
X1618742Y-5601411D01*
X1617472Y-5597245D01*
X1617065Y-5592724D01*
X1618437Y-5585256D01*
X1622298Y-5579465D01*
X1628444Y-5575757D01*
X1636623Y-5574436D01*
X1643278Y-5575249D01*
X1649374Y-5577484D01*
X1654962Y-5580938D01*
X1659991Y-5585358D01*
X1666849Y-5577484D01*
X1660448Y-5572201D01*
X1653235Y-5568035D01*
X1645157Y-5565241D01*
G37*
G36*
X1508861Y-5564276D02*
G01*
X1503832Y-5564632D01*
X1499108Y-5565851D01*
X1494790Y-5567781D01*
X1490776Y-5570575D01*
X1487220Y-5574131D01*
X1484071Y-5578500D01*
X1481328Y-5583631D01*
X1479042Y-5589625D01*
X1477213Y-5596432D01*
X1475943Y-5604002D01*
X1475130Y-5612434D01*
X1474825Y-5621680D01*
X1486763Y-5621680D01*
X1487170Y-5610250D01*
X1488389Y-5600446D01*
X1490268Y-5592318D01*
X1492859Y-5585764D01*
X1496110Y-5580735D01*
X1499870Y-5577179D01*
X1504137Y-5575096D01*
X1508861Y-5574436D01*
X1513636Y-5575096D01*
X1517904Y-5577179D01*
X1521663Y-5580735D01*
X1524863Y-5585764D01*
X1527454Y-5592318D01*
X1529384Y-5600446D01*
X1530553Y-5610250D01*
X1530959Y-5621680D01*
X1530807Y-5629554D01*
X1530248Y-5636666D01*
X1529384Y-5643118D01*
X1528165Y-5648807D01*
X1526692Y-5653786D01*
X1524863Y-5658053D01*
X1522831Y-5661660D01*
X1520494Y-5664555D01*
X1517904Y-5666841D01*
X1515110Y-5668416D01*
X1512112Y-5669381D01*
X1508861Y-5669686D01*
X1505661Y-5669381D01*
X1502664Y-5668416D01*
X1499870Y-5666841D01*
X1497279Y-5664555D01*
X1494942Y-5661660D01*
X1492859Y-5658053D01*
X1491081Y-5653786D01*
X1489557Y-5648807D01*
X1488389Y-5643118D01*
X1487525Y-5636666D01*
X1486966Y-5629554D01*
X1486763Y-5621680D01*
X1474825Y-5621680D01*
X1475130Y-5630976D01*
X1475943Y-5639460D01*
X1477213Y-5647131D01*
X1479042Y-5654040D01*
X1481328Y-5660085D01*
X1484071Y-5665317D01*
X1487220Y-5669737D01*
X1490776Y-5673394D01*
X1494790Y-5676188D01*
X1499108Y-5678220D01*
X1503832Y-5679440D01*
X1508861Y-5679846D01*
X1513992Y-5679440D01*
X1518716Y-5678220D01*
X1523136Y-5676188D01*
X1527149Y-5673394D01*
X1530756Y-5669737D01*
X1533956Y-5665317D01*
X1536700Y-5660085D01*
X1538986Y-5654040D01*
X1540764Y-5647131D01*
X1542084Y-5639460D01*
X1542897Y-5630976D01*
X1543151Y-5621680D01*
X1542897Y-5612384D01*
X1542084Y-5603900D01*
X1540764Y-5596280D01*
X1538986Y-5589524D01*
X1536700Y-5583529D01*
X1533956Y-5578398D01*
X1530756Y-5574030D01*
X1527149Y-5570524D01*
X1523136Y-5567781D01*
X1518716Y-5565800D01*
X1513992Y-5564632D01*
G37*
G36*
X1425041Y-5564276D02*
G01*
X1420012Y-5564632D01*
X1415338Y-5565851D01*
X1411020Y-5567781D01*
X1407058Y-5570575D01*
X1403502Y-5574131D01*
X1400352Y-5578500D01*
X1397660Y-5583631D01*
X1395425Y-5589625D01*
X1393647Y-5596432D01*
X1392326Y-5604002D01*
X1391564Y-5612434D01*
X1391259Y-5621680D01*
X1403197Y-5621680D01*
X1403604Y-5610250D01*
X1404823Y-5600446D01*
X1406702Y-5592318D01*
X1409293Y-5585764D01*
X1412443Y-5580735D01*
X1416202Y-5577179D01*
X1420418Y-5575096D01*
X1425041Y-5574436D01*
X1429867Y-5575096D01*
X1434236Y-5577179D01*
X1438046Y-5580735D01*
X1441297Y-5585764D01*
X1443888Y-5592318D01*
X1445818Y-5600446D01*
X1446987Y-5610250D01*
X1447393Y-5621680D01*
X1447241Y-5629554D01*
X1446682Y-5636666D01*
X1445818Y-5643118D01*
X1444599Y-5648807D01*
X1443075Y-5653786D01*
X1441297Y-5658053D01*
X1439214Y-5661660D01*
X1436827Y-5664555D01*
X1434236Y-5666841D01*
X1431391Y-5668416D01*
X1428343Y-5669381D01*
X1425041Y-5669686D01*
X1420418Y-5668975D01*
X1416202Y-5666841D01*
X1412443Y-5663184D01*
X1409293Y-5658053D01*
X1406702Y-5651347D01*
X1404823Y-5643118D01*
X1403604Y-5633212D01*
X1403197Y-5621680D01*
X1391259Y-5621680D01*
X1391564Y-5630976D01*
X1392326Y-5639460D01*
X1393647Y-5647131D01*
X1395425Y-5654040D01*
X1397660Y-5660085D01*
X1400352Y-5665317D01*
X1403502Y-5669737D01*
X1407058Y-5673394D01*
X1411020Y-5676188D01*
X1415338Y-5678220D01*
X1420012Y-5679440D01*
X1425041Y-5679846D01*
X1430172Y-5679440D01*
X1434896Y-5678220D01*
X1439316Y-5676188D01*
X1443329Y-5673394D01*
X1446936Y-5669737D01*
X1450136Y-5665317D01*
X1452880Y-5660085D01*
X1455166Y-5654040D01*
X1456944Y-5647131D01*
X1458264Y-5639460D01*
X1459077Y-5630976D01*
X1459331Y-5621680D01*
X1459077Y-5612384D01*
X1458264Y-5603900D01*
X1456944Y-5596280D01*
X1455166Y-5589524D01*
X1452880Y-5583529D01*
X1450136Y-5578398D01*
X1446936Y-5574030D01*
X1443329Y-5570524D01*
X1439316Y-5567781D01*
X1434896Y-5565800D01*
X1430172Y-5564632D01*
G37*
G36*
X1341475Y-5564276D02*
G01*
X1336446Y-5564632D01*
X1331722Y-5565851D01*
X1327404Y-5567781D01*
X1323390Y-5570575D01*
X1319834Y-5574131D01*
X1316685Y-5578500D01*
X1313942Y-5583631D01*
X1311656Y-5589625D01*
X1309827Y-5596432D01*
X1308557Y-5604002D01*
X1307744Y-5612434D01*
X1307439Y-5621680D01*
X1319631Y-5621680D01*
X1320038Y-5610250D01*
X1321206Y-5600446D01*
X1323086Y-5592318D01*
X1325626Y-5585764D01*
X1328775Y-5580735D01*
X1332534Y-5577179D01*
X1336751Y-5575096D01*
X1341475Y-5574436D01*
X1346250Y-5575096D01*
X1350568Y-5577179D01*
X1354378Y-5580735D01*
X1357630Y-5585764D01*
X1360271Y-5592318D01*
X1362202Y-5600446D01*
X1363421Y-5610250D01*
X1363827Y-5621680D01*
X1363675Y-5629554D01*
X1363116Y-5636666D01*
X1362202Y-5643118D01*
X1360982Y-5648807D01*
X1359458Y-5653786D01*
X1357630Y-5658053D01*
X1355496Y-5661660D01*
X1353159Y-5664555D01*
X1350568Y-5666841D01*
X1347724Y-5668416D01*
X1344726Y-5669381D01*
X1341475Y-5669686D01*
X1338275Y-5669381D01*
X1335278Y-5668416D01*
X1332534Y-5666841D01*
X1329944Y-5664555D01*
X1327658Y-5661660D01*
X1325626Y-5658053D01*
X1323848Y-5653786D01*
X1322374Y-5648807D01*
X1321206Y-5643118D01*
X1320342Y-5636666D01*
X1319834Y-5629554D01*
X1319631Y-5621680D01*
X1307439Y-5621680D01*
X1307744Y-5630976D01*
X1308557Y-5639460D01*
X1309827Y-5647131D01*
X1311656Y-5654040D01*
X1313942Y-5660085D01*
X1316685Y-5665317D01*
X1319834Y-5669737D01*
X1323390Y-5673394D01*
X1327404Y-5676188D01*
X1331722Y-5678220D01*
X1336446Y-5679440D01*
X1341475Y-5679846D01*
X1346606Y-5679440D01*
X1351330Y-5678220D01*
X1355750Y-5676188D01*
X1359763Y-5673394D01*
X1363370Y-5669737D01*
X1366570Y-5665317D01*
X1369314Y-5660085D01*
X1371600Y-5654040D01*
X1373378Y-5647131D01*
X1374698Y-5639460D01*
X1375511Y-5630976D01*
X1375765Y-5621680D01*
X1375511Y-5612384D01*
X1374698Y-5603900D01*
X1373378Y-5596280D01*
X1371600Y-5589524D01*
X1369314Y-5583529D01*
X1366570Y-5578398D01*
X1363370Y-5574030D01*
X1359763Y-5570524D01*
X1355750Y-5567781D01*
X1351330Y-5565800D01*
X1346606Y-5564632D01*
G37*
G36*
X1993239Y-5566308D02*
G01*
X1993239Y-5667400D01*
X1970633Y-5667400D01*
X1970633Y-5677814D01*
X2030577Y-5677814D01*
X2030577Y-5667400D01*
X2005685Y-5667400D01*
X2005685Y-5582056D01*
X2025243Y-5582056D01*
X2025243Y-5573928D01*
X2018487Y-5572455D01*
X2012543Y-5570778D01*
X2007311Y-5568746D01*
X2002637Y-5566308D01*
G37*
G36*
X1909673Y-5566308D02*
G01*
X1909673Y-5667400D01*
X1886813Y-5667400D01*
X1886813Y-5677814D01*
X1947011Y-5677814D01*
X1947011Y-5667400D01*
X1921865Y-5667400D01*
X1921865Y-5582056D01*
X1941677Y-5582056D01*
X1941677Y-5573928D01*
X1934921Y-5572455D01*
X1928977Y-5570778D01*
X1923745Y-5568746D01*
X1919071Y-5566308D01*
G37*
G36*
X1779371Y-5566308D02*
G01*
X1779371Y-5580786D01*
X1790801Y-5580786D01*
X1799691Y-5596788D01*
X1826615Y-5636920D01*
X1791055Y-5636920D01*
X1791004Y-5595874D01*
X1790039Y-5580786D01*
X1779371Y-5580786D01*
X1779371Y-5636920D01*
X1764131Y-5636920D01*
X1764131Y-5646826D01*
X1779371Y-5646826D01*
X1779371Y-5677814D01*
X1791055Y-5677814D01*
X1791055Y-5646826D01*
X1840077Y-5646826D01*
X1840077Y-5638698D01*
X1792579Y-5566308D01*
G37*
G36*
X1158849Y-5566308D02*
G01*
X1158849Y-5677814D01*
X1170533Y-5677814D01*
X1170533Y-5613298D01*
X1169974Y-5597245D01*
X1169009Y-5581040D01*
X1169517Y-5581040D01*
X1178407Y-5606440D01*
X1200251Y-5666384D01*
X1208887Y-5666384D01*
X1230731Y-5606440D01*
X1239621Y-5581040D01*
X1240383Y-5581040D01*
X1239367Y-5597245D01*
X1238859Y-5613298D01*
X1238859Y-5677814D01*
X1250289Y-5677814D01*
X1250289Y-5566308D01*
X1234541Y-5566308D01*
X1204569Y-5650890D01*
X1203807Y-5650890D01*
X1196187Y-5627268D01*
X1174343Y-5566308D01*
G37*
G36*
X1048613Y-5566308D02*
G01*
X1048613Y-5677814D01*
X1061313Y-5677814D01*
X1061313Y-5624474D01*
X1114907Y-5624474D01*
X1114907Y-5677814D01*
X1127607Y-5677814D01*
X1127607Y-5566308D01*
X1114907Y-5566308D01*
X1114907Y-5613552D01*
X1061313Y-5613552D01*
X1061313Y-5566308D01*
G37*
G36*
X967587Y-5595518D02*
G01*
X967587Y-5602122D01*
X1012291Y-5667654D01*
X966317Y-5667654D01*
X966317Y-5677814D01*
X1028039Y-5677814D01*
X1028039Y-5671210D01*
X983335Y-5605678D01*
X1023213Y-5605678D01*
X1023213Y-5595518D01*
G37*
G36*
X1571345Y-5660034D02*
G01*
X1567738Y-5660694D01*
X1564741Y-5662676D01*
X1562709Y-5665825D01*
X1561947Y-5669940D01*
X1562709Y-5673953D01*
X1564741Y-5677052D01*
X1567738Y-5679084D01*
X1571345Y-5679846D01*
X1574952Y-5679084D01*
X1577949Y-5677052D01*
X1580032Y-5673953D01*
X1580743Y-5669940D01*
X1580032Y-5665825D01*
X1577949Y-5662676D01*
X1574952Y-5660694D01*
G37*
G36*
X8059928Y-4608322D02*
G01*
X8059928Y-4726178D01*
X8074152Y-4726178D01*
X8074152Y-4674362D01*
X8080603Y-4669383D01*
X8086699Y-4666081D01*
X8092694Y-4664252D01*
X8098790Y-4663694D01*
X8104733Y-4664405D01*
X8110169Y-4666488D01*
X8115096Y-4669840D01*
X8119364Y-4674362D01*
X8122869Y-4679899D01*
X8125510Y-4686401D01*
X8127187Y-4693767D01*
X8127746Y-4701794D01*
X8127288Y-4710226D01*
X8125917Y-4717694D01*
X8123681Y-4724247D01*
X8120634Y-4729683D01*
X8116722Y-4734052D01*
X8111998Y-4737252D01*
X8106562Y-4739233D01*
X8100314Y-4739894D01*
X8093506Y-4739030D01*
X8086953Y-4736490D01*
X8080552Y-4732172D01*
X8074152Y-4726178D01*
X8059928Y-4726178D01*
X8059928Y-4749800D01*
X8071866Y-4749800D01*
X8072881Y-4738370D01*
X8073644Y-4738370D01*
X8079841Y-4743754D01*
X8086852Y-4748072D01*
X8094675Y-4751019D01*
X8103108Y-4752086D01*
X8109051Y-4751730D01*
X8114538Y-4750612D01*
X8119618Y-4748784D01*
X8124291Y-4746244D01*
X8128508Y-4742992D01*
X8132216Y-4739030D01*
X8135416Y-4734458D01*
X8138058Y-4729175D01*
X8140192Y-4723282D01*
X8141716Y-4716729D01*
X8142681Y-4709566D01*
X8142986Y-4701794D01*
X8142579Y-4694275D01*
X8141411Y-4687316D01*
X8139582Y-4680813D01*
X8137042Y-4674920D01*
X8133943Y-4669586D01*
X8130336Y-4664913D01*
X8126272Y-4660849D01*
X8121802Y-4657496D01*
X8116976Y-4654804D01*
X8111845Y-4652822D01*
X8106562Y-4651654D01*
X8101075Y-4651248D01*
X8093202Y-4652060D01*
X8086344Y-4654296D01*
X8079994Y-4657902D01*
X8073644Y-4662678D01*
X8074152Y-4645914D01*
X8074152Y-4608322D01*
G37*
G36*
X6673342Y-4608322D02*
G01*
X6673342Y-4726178D01*
X6687820Y-4726178D01*
X6687820Y-4674362D01*
X6694119Y-4669383D01*
X6700113Y-4666081D01*
X6706108Y-4664252D01*
X6712203Y-4663694D01*
X6718198Y-4664405D01*
X6723684Y-4666488D01*
X6728612Y-4669840D01*
X6732879Y-4674362D01*
X6736384Y-4679899D01*
X6738975Y-4686401D01*
X6740601Y-4693767D01*
X6741159Y-4701794D01*
X6740702Y-4710226D01*
X6739331Y-4717694D01*
X6737096Y-4724247D01*
X6734048Y-4729683D01*
X6730136Y-4734052D01*
X6725412Y-4737252D01*
X6719976Y-4739233D01*
X6713728Y-4739894D01*
X6707022Y-4739030D01*
X6700520Y-4736490D01*
X6694119Y-4732172D01*
X6687820Y-4726178D01*
X6673342Y-4726178D01*
X6673342Y-4749800D01*
X6685280Y-4749800D01*
X6686550Y-4738370D01*
X6687058Y-4738370D01*
X6693306Y-4743754D01*
X6700418Y-4748072D01*
X6708292Y-4751019D01*
X6716775Y-4752086D01*
X6722618Y-4751730D01*
X6728104Y-4750612D01*
X6733184Y-4748784D01*
X6737807Y-4746244D01*
X6741972Y-4742992D01*
X6745630Y-4739030D01*
X6748830Y-4734458D01*
X6751523Y-4729175D01*
X6753606Y-4723282D01*
X6755180Y-4716729D01*
X6756095Y-4709566D01*
X6756400Y-4701794D01*
X6755993Y-4694275D01*
X6754825Y-4687316D01*
X6752996Y-4680813D01*
X6750456Y-4674920D01*
X6747357Y-4669586D01*
X6743750Y-4664913D01*
X6739686Y-4660849D01*
X6735216Y-4657496D01*
X6730390Y-4654804D01*
X6725259Y-4652822D01*
X6719976Y-4651654D01*
X6714490Y-4651248D01*
X6706717Y-4652060D01*
X6699859Y-4654296D01*
X6693408Y-4657902D01*
X6687058Y-4662678D01*
X6687820Y-4645914D01*
X6687820Y-4608322D01*
G37*
G36*
X7542022Y-4609084D02*
G01*
X7596886Y-4781550D01*
X7607553Y-4781550D01*
X7552690Y-4609084D01*
G37*
G36*
X8517890Y-4613148D02*
G01*
X8513876Y-4613859D01*
X8510778Y-4615891D01*
X8508746Y-4619040D01*
X8507984Y-4623054D01*
X8508746Y-4627219D01*
X8510778Y-4630420D01*
X8513876Y-4632502D01*
X8517890Y-4633214D01*
X8522055Y-4632502D01*
X8525256Y-4630420D01*
X8527338Y-4627219D01*
X8528050Y-4623054D01*
X8527338Y-4619040D01*
X8525256Y-4615891D01*
X8522055Y-4613859D01*
G37*
G36*
X8176006Y-4613148D02*
G01*
X8172094Y-4613859D01*
X8168995Y-4615891D01*
X8166862Y-4619040D01*
X8166100Y-4623054D01*
X8166862Y-4627219D01*
X8168995Y-4630420D01*
X8172094Y-4632502D01*
X8176006Y-4633214D01*
X8180171Y-4632502D01*
X8183372Y-4630420D01*
X8185454Y-4627219D01*
X8186166Y-4623054D01*
X8185454Y-4619040D01*
X8183372Y-4615891D01*
X8180171Y-4613859D01*
G37*
G36*
X7174484Y-4613148D02*
G01*
X7170572Y-4613859D01*
X7167473Y-4615891D01*
X7165340Y-4619040D01*
X7164578Y-4623054D01*
X7165340Y-4627219D01*
X7167473Y-4630420D01*
X7170572Y-4632502D01*
X7174484Y-4633214D01*
X7178649Y-4632502D01*
X7181850Y-4630420D01*
X7183932Y-4627219D01*
X7184644Y-4623054D01*
X7183932Y-4619040D01*
X7181850Y-4615891D01*
X7178649Y-4613859D01*
G37*
G36*
X6789674Y-4613148D02*
G01*
X6785660Y-4613859D01*
X6782562Y-4615891D01*
X6780530Y-4619040D01*
X6779768Y-4623054D01*
X6780530Y-4627219D01*
X6782562Y-4630420D01*
X6785660Y-4632502D01*
X6789674Y-4633214D01*
X6793839Y-4632502D01*
X6797040Y-4630420D01*
X6799122Y-4627219D01*
X6799834Y-4623054D01*
X6799122Y-4619040D01*
X6797040Y-4615891D01*
X6793839Y-4613859D01*
G37*
G36*
X8881364Y-4619752D02*
G01*
X8881364Y-4632198D01*
X8921242Y-4632198D01*
X8921242Y-4749800D01*
X8936228Y-4749800D01*
X8936228Y-4632198D01*
X8975852Y-4632198D01*
X8975852Y-4619752D01*
G37*
G36*
X7450074Y-4619752D02*
G01*
X7442809Y-4620056D01*
X7435951Y-4620869D01*
X7429550Y-4622190D01*
X7423658Y-4624070D01*
X7418171Y-4626508D01*
X7413142Y-4629404D01*
X7408621Y-4632807D01*
X7404557Y-4636668D01*
X7400950Y-4641037D01*
X7397851Y-4645914D01*
X7395209Y-4651197D01*
X7393025Y-4656937D01*
X7391298Y-4663135D01*
X7390079Y-4669739D01*
X7389368Y-4676800D01*
X7389114Y-4684268D01*
X7404353Y-4684268D01*
X7404557Y-4678222D01*
X7405065Y-4672482D01*
X7405979Y-4667046D01*
X7407249Y-4662017D01*
X7408875Y-4657344D01*
X7410856Y-4653026D01*
X7413244Y-4649063D01*
X7415936Y-4645507D01*
X7419086Y-4642358D01*
X7422540Y-4639564D01*
X7426401Y-4637176D01*
X7430617Y-4635246D01*
X7435240Y-4633671D01*
X7440218Y-4632604D01*
X7445603Y-4631944D01*
X7451344Y-4631690D01*
X7467346Y-4631690D01*
X7467346Y-4737608D01*
X7451344Y-4737608D01*
X7445603Y-4737404D01*
X7440218Y-4736693D01*
X7435240Y-4735525D01*
X7430617Y-4733950D01*
X7426401Y-4731918D01*
X7422540Y-4729530D01*
X7419086Y-4726686D01*
X7415936Y-4723434D01*
X7413244Y-4719777D01*
X7410856Y-4715764D01*
X7408875Y-4711395D01*
X7407249Y-4706620D01*
X7405979Y-4701540D01*
X7405065Y-4696104D01*
X7404557Y-4690364D01*
X7404353Y-4684268D01*
X7389114Y-4684268D01*
X7389368Y-4691735D01*
X7390079Y-4698847D01*
X7391298Y-4705502D01*
X7393025Y-4711750D01*
X7395159Y-4717592D01*
X7397800Y-4722977D01*
X7400899Y-4727905D01*
X7404506Y-4732375D01*
X7408519Y-4736338D01*
X7413040Y-4739843D01*
X7418019Y-4742840D01*
X7423403Y-4745329D01*
X7429296Y-4747260D01*
X7435596Y-4748682D01*
X7442352Y-4749495D01*
X7449566Y-4749800D01*
X7482078Y-4749800D01*
X7482078Y-4619752D01*
G37*
G36*
X8838438Y-4651248D02*
G01*
X8832900Y-4651552D01*
X8827922Y-4652518D01*
X8823502Y-4654092D01*
X8819642Y-4656226D01*
X8816289Y-4658868D01*
X8813444Y-4662068D01*
X8811056Y-4665726D01*
X8809177Y-4669840D01*
X8807754Y-4674412D01*
X8806738Y-4679340D01*
X8806129Y-4684674D01*
X8805926Y-4699000D01*
X8820150Y-4699000D01*
X8831884Y-4700625D01*
X8841689Y-4702708D01*
X8849563Y-4705146D01*
X8855811Y-4708042D01*
X8860383Y-4711395D01*
X8863533Y-4715205D01*
X8865311Y-4719421D01*
X8865870Y-4724146D01*
X8864447Y-4731613D01*
X8860637Y-4736642D01*
X8854948Y-4739487D01*
X8848090Y-4740402D01*
X8840978Y-4739538D01*
X8834120Y-4736998D01*
X8827312Y-4732782D01*
X8820150Y-4726940D01*
X8820150Y-4699000D01*
X8805926Y-4699000D01*
X8805926Y-4749800D01*
X8817864Y-4749800D01*
X8819134Y-4738116D01*
X8819642Y-4738116D01*
X8826855Y-4743602D01*
X8834628Y-4748072D01*
X8843010Y-4751019D01*
X8851900Y-4752086D01*
X8857640Y-4751628D01*
X8862923Y-4750308D01*
X8867698Y-4748123D01*
X8871813Y-4745126D01*
X8875166Y-4741265D01*
X8877706Y-4736642D01*
X8879281Y-4731258D01*
X8879840Y-4725162D01*
X8879484Y-4720132D01*
X8878316Y-4715510D01*
X8876334Y-4711293D01*
X8873591Y-4707534D01*
X8869984Y-4704080D01*
X8865514Y-4701032D01*
X8860231Y-4698288D01*
X8854033Y-4695901D01*
X8846972Y-4693818D01*
X8838946Y-4691989D01*
X8830056Y-4690414D01*
X8820150Y-4689094D01*
X8820353Y-4684268D01*
X8821064Y-4679645D01*
X8822334Y-4675276D01*
X8824264Y-4671415D01*
X8826957Y-4668164D01*
X8830564Y-4665624D01*
X8835136Y-4663998D01*
X8840724Y-4663440D01*
X8849106Y-4664405D01*
X8856878Y-4666894D01*
X8863888Y-4670298D01*
X8869934Y-4674108D01*
X8875776Y-4663948D01*
X8868613Y-4659630D01*
X8864396Y-4657496D01*
X8859774Y-4655515D01*
X8854846Y-4653788D01*
X8849664Y-4652467D01*
X8844178Y-4651552D01*
G37*
G36*
X8747252Y-4651248D02*
G01*
X8738920Y-4652111D01*
X8731148Y-4654397D01*
X8724239Y-4657801D01*
X8718296Y-4661916D01*
X8725408Y-4671314D01*
X8730386Y-4667961D01*
X8735568Y-4665319D01*
X8741156Y-4663592D01*
X8747252Y-4662932D01*
X8755684Y-4664100D01*
X8761526Y-4667199D01*
X8764930Y-4671822D01*
X8766048Y-4677410D01*
X8764320Y-4683658D01*
X8759698Y-4688230D01*
X8752992Y-4691735D01*
X8739682Y-4696815D01*
X8734450Y-4699050D01*
X8729421Y-4701590D01*
X8724900Y-4704537D01*
X8720988Y-4708144D01*
X8717940Y-4712512D01*
X8715959Y-4717796D01*
X8715248Y-4724146D01*
X8715806Y-4729734D01*
X8717534Y-4734966D01*
X8720277Y-4739690D01*
X8724138Y-4743856D01*
X8729065Y-4747260D01*
X8734958Y-4749850D01*
X8741918Y-4751527D01*
X8749792Y-4752086D01*
X8754821Y-4751832D01*
X8759799Y-4751120D01*
X8764625Y-4749901D01*
X8769299Y-4748326D01*
X8773769Y-4746396D01*
X8777935Y-4744161D01*
X8781846Y-4741621D01*
X8785352Y-4738878D01*
X8778240Y-4729226D01*
X8771890Y-4733798D01*
X8765082Y-4737404D01*
X8757564Y-4739792D01*
X8749030Y-4740656D01*
X8740394Y-4739386D01*
X8734196Y-4735982D01*
X8730488Y-4730902D01*
X8729218Y-4724654D01*
X8731250Y-4717999D01*
X8736431Y-4712970D01*
X8743594Y-4709109D01*
X8761831Y-4701692D01*
X8766606Y-4699152D01*
X8770975Y-4696206D01*
X8774633Y-4692751D01*
X8777528Y-4688636D01*
X8779357Y-4683810D01*
X8780018Y-4678172D01*
X8779459Y-4672736D01*
X8777833Y-4667656D01*
X8775141Y-4663084D01*
X8771483Y-4659071D01*
X8766810Y-4655820D01*
X8761171Y-4653330D01*
X8754668Y-4651806D01*
G37*
G36*
X8656574Y-4651248D02*
G01*
X8651087Y-4651552D01*
X8646160Y-4652518D01*
X8641740Y-4654092D01*
X8637879Y-4656226D01*
X8634526Y-4658868D01*
X8631682Y-4662068D01*
X8629294Y-4665726D01*
X8627364Y-4669840D01*
X8625890Y-4674412D01*
X8624874Y-4679340D01*
X8624265Y-4684674D01*
X8624062Y-4699000D01*
X8638540Y-4699000D01*
X8650274Y-4700625D01*
X8660028Y-4702708D01*
X8667902Y-4705146D01*
X8674049Y-4708042D01*
X8678621Y-4711395D01*
X8681720Y-4715205D01*
X8683447Y-4719421D01*
X8684006Y-4724146D01*
X8682634Y-4731613D01*
X8678824Y-4736642D01*
X8673185Y-4739487D01*
X8666226Y-4740402D01*
X8659215Y-4739538D01*
X8652510Y-4736998D01*
X8645702Y-4732782D01*
X8638540Y-4726940D01*
X8638540Y-4699000D01*
X8624062Y-4699000D01*
X8624062Y-4749800D01*
X8636000Y-4749800D01*
X8637270Y-4738116D01*
X8637778Y-4738116D01*
X8645144Y-4743602D01*
X8653018Y-4748072D01*
X8661400Y-4751019D01*
X8670290Y-4752086D01*
X8676030Y-4751628D01*
X8681313Y-4750308D01*
X8686088Y-4748123D01*
X8690203Y-4745126D01*
X8693556Y-4741265D01*
X8696096Y-4736642D01*
X8697671Y-4731258D01*
X8698230Y-4725162D01*
X8697874Y-4720132D01*
X8696706Y-4715510D01*
X8694724Y-4711293D01*
X8691930Y-4707534D01*
X8688273Y-4704080D01*
X8683853Y-4701032D01*
X8678519Y-4698288D01*
X8672322Y-4695901D01*
X8665260Y-4693818D01*
X8657285Y-4691989D01*
X8648395Y-4690414D01*
X8638540Y-4689094D01*
X8638692Y-4684268D01*
X8639302Y-4679645D01*
X8640521Y-4675276D01*
X8642451Y-4671415D01*
X8645194Y-4668164D01*
X8648801Y-4665624D01*
X8653424Y-4663998D01*
X8659114Y-4663440D01*
X8667496Y-4664405D01*
X8675217Y-4666894D01*
X8682177Y-4670298D01*
X8688070Y-4674108D01*
X8693912Y-4663948D01*
X8686850Y-4659630D01*
X8682634Y-4657496D01*
X8678011Y-4655515D01*
X8673084Y-4653788D01*
X8667800Y-4652467D01*
X8662314Y-4651552D01*
G37*
G36*
X8551672Y-4651248D02*
G01*
X8548827Y-4651349D01*
X8546338Y-4651705D01*
X8543950Y-4652416D01*
X8541512Y-4653534D01*
X8544306Y-4665980D01*
X8548725Y-4664862D01*
X8553450Y-4664456D01*
X8559800Y-4665675D01*
X8566353Y-4669586D01*
X8572601Y-4676698D01*
X8578088Y-4687316D01*
X8578088Y-4749800D01*
X8592566Y-4749800D01*
X8592566Y-4653788D01*
X8580882Y-4653788D01*
X8579358Y-4671314D01*
X8578850Y-4671314D01*
X8573363Y-4663135D01*
X8566912Y-4656785D01*
X8559596Y-4652721D01*
G37*
G36*
X8375142Y-4651248D02*
G01*
X8368284Y-4651857D01*
X8362391Y-4653686D01*
X8357412Y-4656632D01*
X8353348Y-4660798D01*
X8350199Y-4666132D01*
X8347964Y-4672584D01*
X8346643Y-4680153D01*
X8346186Y-4688840D01*
X8346186Y-4749800D01*
X8360664Y-4749800D01*
X8360664Y-4690618D01*
X8360968Y-4684166D01*
X8361781Y-4678629D01*
X8363203Y-4674057D01*
X8365185Y-4670348D01*
X8367775Y-4667504D01*
X8370976Y-4665522D01*
X8374786Y-4664354D01*
X8379206Y-4663948D01*
X8385251Y-4664913D01*
X8391448Y-4667808D01*
X8397900Y-4672736D01*
X8404606Y-4679696D01*
X8404606Y-4749800D01*
X8419084Y-4749800D01*
X8419084Y-4690618D01*
X8419388Y-4684166D01*
X8420201Y-4678629D01*
X8421624Y-4674057D01*
X8423656Y-4670348D01*
X8426246Y-4667504D01*
X8429498Y-4665522D01*
X8433358Y-4664354D01*
X8437880Y-4663948D01*
X8443620Y-4664913D01*
X8449767Y-4667808D01*
X8456168Y-4672736D01*
X8462772Y-4679696D01*
X8462772Y-4749800D01*
X8477250Y-4749800D01*
X8477250Y-4653788D01*
X8465566Y-4653788D01*
X8464042Y-4668012D01*
X8463534Y-4668012D01*
X8456930Y-4661560D01*
X8449716Y-4656226D01*
X8441994Y-4652568D01*
X8433816Y-4651248D01*
X8423859Y-4652568D01*
X8416290Y-4656378D01*
X8410803Y-4662271D01*
X8407146Y-4670044D01*
X8399526Y-4662373D01*
X8395665Y-4659172D01*
X8391753Y-4656480D01*
X8387740Y-4654245D01*
X8383676Y-4652619D01*
X8379459Y-4651603D01*
G37*
G36*
X7990840Y-4651248D02*
G01*
X7985099Y-4651603D01*
X7979765Y-4652670D01*
X7974888Y-4654397D01*
X7970418Y-4656734D01*
X7966456Y-4659731D01*
X7963001Y-4663338D01*
X7960004Y-4667504D01*
X7957515Y-4672228D01*
X7955584Y-4677511D01*
X7954162Y-4683252D01*
X7953298Y-4689500D01*
X7953074Y-4694428D01*
X7965694Y-4694428D01*
X7966151Y-4687163D01*
X7967421Y-4680813D01*
X7969503Y-4675428D01*
X7972348Y-4670958D01*
X7975904Y-4667453D01*
X7980172Y-4664964D01*
X7985099Y-4663440D01*
X7990586Y-4662932D01*
X7995869Y-4663490D01*
X8000847Y-4665065D01*
X8005470Y-4667656D01*
X8009636Y-4671263D01*
X8013242Y-4675784D01*
X8016189Y-4681169D01*
X8018322Y-4687366D01*
X8019542Y-4694428D01*
X7953074Y-4694428D01*
X7953044Y-4698644D01*
X7953756Y-4705096D01*
X8019288Y-4705096D01*
X8018373Y-4712766D01*
X8016443Y-4719675D01*
X8013496Y-4725720D01*
X8009636Y-4730902D01*
X8004962Y-4735017D01*
X7999425Y-4738116D01*
X7993227Y-4739995D01*
X7986268Y-4740656D01*
X7979562Y-4740097D01*
X7973364Y-4738522D01*
X7967624Y-4736033D01*
X7962138Y-4732782D01*
X7956803Y-4742434D01*
X7963255Y-4746193D01*
X7970570Y-4749241D01*
X7978851Y-4751324D01*
X7988300Y-4752086D01*
X7994497Y-4751730D01*
X8000390Y-4750562D01*
X8006029Y-4748682D01*
X8011261Y-4746091D01*
X8016138Y-4742840D01*
X8020456Y-4738827D01*
X8024317Y-4734204D01*
X8027568Y-4728972D01*
X8030209Y-4723028D01*
X8032140Y-4716526D01*
X8033359Y-4709464D01*
X8033766Y-4701794D01*
X8033359Y-4694275D01*
X8032140Y-4687316D01*
X8030159Y-4680813D01*
X8027568Y-4674920D01*
X8024368Y-4669586D01*
X8020608Y-4664913D01*
X8016392Y-4660849D01*
X8011820Y-4657496D01*
X8006892Y-4654804D01*
X8001711Y-4652822D01*
X7996326Y-4651654D01*
G37*
G36*
X7892034Y-4651248D02*
G01*
X7886192Y-4651654D01*
X7880553Y-4652772D01*
X7875117Y-4654651D01*
X7870037Y-4657242D01*
X7865262Y-4660544D01*
X7860944Y-4664506D01*
X7857134Y-4669180D01*
X7853883Y-4674463D01*
X7851241Y-4680407D01*
X7849260Y-4686960D01*
X7848041Y-4694072D01*
X7847584Y-4701794D01*
X7862570Y-4701794D01*
X7863128Y-4693615D01*
X7864754Y-4686198D01*
X7867345Y-4679696D01*
X7870850Y-4674158D01*
X7875117Y-4669739D01*
X7880146Y-4666437D01*
X7885836Y-4664405D01*
X7892034Y-4663694D01*
X7898282Y-4664405D01*
X7903921Y-4666437D01*
X7908899Y-4669739D01*
X7913116Y-4674158D01*
X7916570Y-4679696D01*
X7919110Y-4686198D01*
X7920736Y-4693615D01*
X7921244Y-4701794D01*
X7920736Y-4710023D01*
X7919110Y-4717389D01*
X7916570Y-4723892D01*
X7913116Y-4729429D01*
X7908899Y-4733848D01*
X7903921Y-4737150D01*
X7898282Y-4739182D01*
X7892034Y-4739894D01*
X7885836Y-4739182D01*
X7880146Y-4737150D01*
X7875117Y-4733848D01*
X7870850Y-4729429D01*
X7867345Y-4723892D01*
X7864754Y-4717389D01*
X7863128Y-4710023D01*
X7862570Y-4701794D01*
X7847584Y-4701794D01*
X7848041Y-4709464D01*
X7849260Y-4716526D01*
X7851241Y-4723028D01*
X7853883Y-4728972D01*
X7857134Y-4734204D01*
X7860944Y-4738827D01*
X7865262Y-4742840D01*
X7870037Y-4746091D01*
X7875117Y-4748682D01*
X7880553Y-4750562D01*
X7886192Y-4751730D01*
X7892034Y-4752086D01*
X7897825Y-4751730D01*
X7903413Y-4750562D01*
X7908798Y-4748682D01*
X7913827Y-4746091D01*
X7918500Y-4742840D01*
X7922768Y-4738827D01*
X7926578Y-4734204D01*
X7929778Y-4728972D01*
X7932420Y-4723028D01*
X7934350Y-4716526D01*
X7935569Y-4709464D01*
X7935975Y-4701794D01*
X7935569Y-4694072D01*
X7934350Y-4686960D01*
X7932420Y-4680407D01*
X7929778Y-4674463D01*
X7926578Y-4669180D01*
X7922768Y-4664506D01*
X7918500Y-4660544D01*
X7913827Y-4657242D01*
X7908798Y-4654651D01*
X7903413Y-4652772D01*
X7897825Y-4651654D01*
G37*
G36*
X7794752Y-4651248D02*
G01*
X7786319Y-4652111D01*
X7778546Y-4654397D01*
X7771587Y-4657801D01*
X7765542Y-4661916D01*
X7772653Y-4671314D01*
X7777683Y-4667961D01*
X7782966Y-4665319D01*
X7788605Y-4663592D01*
X7794752Y-4662932D01*
X7803032Y-4664100D01*
X7808823Y-4667199D01*
X7812176Y-4671822D01*
X7813294Y-4677410D01*
X7811566Y-4683658D01*
X7806994Y-4688230D01*
X7800340Y-4691735D01*
X7787182Y-4696815D01*
X7781950Y-4699050D01*
X7776921Y-4701590D01*
X7772400Y-4704537D01*
X7768488Y-4708144D01*
X7765440Y-4712512D01*
X7763459Y-4717796D01*
X7762748Y-4724146D01*
X7763306Y-4729734D01*
X7764983Y-4734966D01*
X7767726Y-4739690D01*
X7771536Y-4743856D01*
X7776362Y-4747260D01*
X7782255Y-4749850D01*
X7789164Y-4751527D01*
X7797038Y-4752086D01*
X7802168Y-4751832D01*
X7807147Y-4751120D01*
X7812024Y-4749901D01*
X7816697Y-4748326D01*
X7821117Y-4746396D01*
X7825333Y-4744161D01*
X7829245Y-4741621D01*
X7832852Y-4738878D01*
X7825486Y-4729226D01*
X7819136Y-4733798D01*
X7812379Y-4737404D01*
X7804912Y-4739792D01*
X7796530Y-4740656D01*
X7787792Y-4739386D01*
X7781594Y-4735982D01*
X7777937Y-4730902D01*
X7776718Y-4724654D01*
X7778699Y-4717999D01*
X7783830Y-4712970D01*
X7790992Y-4709109D01*
X7809331Y-4701692D01*
X7814106Y-4699152D01*
X7818475Y-4696206D01*
X7822133Y-4692751D01*
X7825028Y-4688636D01*
X7826857Y-4683810D01*
X7827518Y-4678172D01*
X7826959Y-4672736D01*
X7825333Y-4667656D01*
X7822641Y-4663084D01*
X7818983Y-4659071D01*
X7814309Y-4655820D01*
X7808671Y-4653330D01*
X7802168Y-4651806D01*
G37*
G36*
X7326375Y-4651248D02*
G01*
X7320635Y-4651603D01*
X7315301Y-4652670D01*
X7310424Y-4654397D01*
X7305954Y-4656734D01*
X7301992Y-4659731D01*
X7298537Y-4663338D01*
X7295540Y-4667504D01*
X7293051Y-4672228D01*
X7291120Y-4677511D01*
X7289698Y-4683252D01*
X7288834Y-4689500D01*
X7288610Y-4694428D01*
X7301230Y-4694428D01*
X7301687Y-4687163D01*
X7302957Y-4680813D01*
X7305040Y-4675428D01*
X7307884Y-4670958D01*
X7311440Y-4667453D01*
X7315708Y-4664964D01*
X7320635Y-4663440D01*
X7326122Y-4662932D01*
X7331405Y-4663490D01*
X7336383Y-4665065D01*
X7341006Y-4667656D01*
X7345172Y-4671263D01*
X7348778Y-4675784D01*
X7351725Y-4681169D01*
X7353858Y-4687366D01*
X7355078Y-4694428D01*
X7288610Y-4694428D01*
X7288580Y-4698644D01*
X7289292Y-4705096D01*
X7354824Y-4705096D01*
X7354011Y-4712766D01*
X7352080Y-4719675D01*
X7349185Y-4725720D01*
X7345324Y-4730902D01*
X7340600Y-4735017D01*
X7335113Y-4738116D01*
X7328916Y-4739995D01*
X7322058Y-4740656D01*
X7315301Y-4740097D01*
X7309002Y-4738522D01*
X7303160Y-4736033D01*
X7297674Y-4732782D01*
X7292340Y-4742434D01*
X7298944Y-4746193D01*
X7306208Y-4749241D01*
X7314438Y-4751324D01*
X7323836Y-4752086D01*
X7330033Y-4751730D01*
X7335926Y-4750562D01*
X7341565Y-4748682D01*
X7346797Y-4746091D01*
X7351674Y-4742840D01*
X7355992Y-4738827D01*
X7359853Y-4734204D01*
X7363104Y-4728972D01*
X7365746Y-4723028D01*
X7367676Y-4716526D01*
X7368895Y-4709464D01*
X7369302Y-4701794D01*
X7368895Y-4694275D01*
X7367676Y-4687316D01*
X7365695Y-4680813D01*
X7363104Y-4674920D01*
X7359903Y-4669586D01*
X7356144Y-4664913D01*
X7351928Y-4660849D01*
X7347356Y-4657496D01*
X7342428Y-4654804D01*
X7337247Y-4652822D01*
X7331862Y-4651654D01*
G37*
G36*
X7237222Y-4651248D02*
G01*
X7228890Y-4652111D01*
X7221118Y-4654397D01*
X7214209Y-4657801D01*
X7208266Y-4661916D01*
X7215378Y-4671314D01*
X7220356Y-4667961D01*
X7225538Y-4665319D01*
X7231125Y-4663592D01*
X7237222Y-4662932D01*
X7245654Y-4664100D01*
X7251496Y-4667199D01*
X7254900Y-4671822D01*
X7256018Y-4677410D01*
X7254290Y-4683658D01*
X7249668Y-4688230D01*
X7242962Y-4691735D01*
X7229652Y-4696815D01*
X7224420Y-4699050D01*
X7219391Y-4701590D01*
X7214870Y-4704537D01*
X7210958Y-4708144D01*
X7207910Y-4712512D01*
X7205929Y-4717796D01*
X7205218Y-4724146D01*
X7205776Y-4729734D01*
X7207503Y-4734966D01*
X7210247Y-4739690D01*
X7214108Y-4743856D01*
X7219035Y-4747260D01*
X7224928Y-4749850D01*
X7231888Y-4751527D01*
X7239762Y-4752086D01*
X7244791Y-4751832D01*
X7249769Y-4751120D01*
X7254595Y-4749901D01*
X7259269Y-4748326D01*
X7263739Y-4746396D01*
X7267905Y-4744161D01*
X7271816Y-4741621D01*
X7275322Y-4738878D01*
X7268209Y-4729226D01*
X7261859Y-4733798D01*
X7255052Y-4737404D01*
X7247534Y-4739792D01*
X7239000Y-4740656D01*
X7230364Y-4739386D01*
X7224166Y-4735982D01*
X7220458Y-4730902D01*
X7219188Y-4724654D01*
X7221220Y-4717999D01*
X7226401Y-4712970D01*
X7233564Y-4709109D01*
X7251801Y-4701692D01*
X7256576Y-4699152D01*
X7260945Y-4696206D01*
X7264603Y-4692751D01*
X7267498Y-4688636D01*
X7269327Y-4683810D01*
X7269988Y-4678172D01*
X7269429Y-4672736D01*
X7267803Y-4667656D01*
X7265111Y-4663084D01*
X7261453Y-4659071D01*
X7256780Y-4655820D01*
X7251141Y-4653330D01*
X7244638Y-4651806D01*
G37*
G36*
X7102348Y-4651248D02*
G01*
X7098538Y-4651451D01*
X7094981Y-4652060D01*
X7089140Y-4653788D01*
X7055866Y-4653788D01*
X7055866Y-4664964D01*
X7076186Y-4664964D01*
X7072833Y-4668926D01*
X7070191Y-4673854D01*
X7068464Y-4679543D01*
X7067830Y-4685538D01*
X7080758Y-4685538D01*
X7081215Y-4680407D01*
X7082485Y-4675784D01*
X7084517Y-4671771D01*
X7087209Y-4668418D01*
X7090409Y-4665776D01*
X7094067Y-4663795D01*
X7098080Y-4662576D01*
X7102348Y-4662170D01*
X7106716Y-4662576D01*
X7110780Y-4663744D01*
X7114438Y-4665675D01*
X7117638Y-4668316D01*
X7120280Y-4671669D01*
X7122261Y-4675682D01*
X7123531Y-4680305D01*
X7123938Y-4685538D01*
X7123480Y-4690719D01*
X7122210Y-4695393D01*
X7120178Y-4699457D01*
X7117537Y-4702911D01*
X7114336Y-4705705D01*
X7110679Y-4707737D01*
X7106666Y-4709007D01*
X7102348Y-4709414D01*
X7098131Y-4709007D01*
X7094169Y-4707737D01*
X7090511Y-4705705D01*
X7087260Y-4702911D01*
X7084568Y-4699457D01*
X7082536Y-4695393D01*
X7081215Y-4690719D01*
X7080758Y-4685538D01*
X7067830Y-4685538D01*
X7068515Y-4693056D01*
X7070496Y-4699609D01*
X7073646Y-4705350D01*
X7077862Y-4710176D01*
X7082942Y-4714087D01*
X7088835Y-4716932D01*
X7095337Y-4718710D01*
X7102348Y-4719320D01*
X7106107Y-4719066D01*
X7109917Y-4718405D01*
X7113625Y-4717288D01*
X7117080Y-4715764D01*
X7119569Y-4718151D01*
X7121601Y-4720793D01*
X7122972Y-4724044D01*
X7123430Y-4727956D01*
X7122668Y-4732223D01*
X7119874Y-4735728D01*
X7114641Y-4738014D01*
X7106412Y-4738878D01*
X7087362Y-4738878D01*
X7079589Y-4739233D01*
X7072833Y-4740198D01*
X7067143Y-4741875D01*
X7062470Y-4744262D01*
X7058812Y-4747412D01*
X7056170Y-4751324D01*
X7054646Y-4755997D01*
X7054088Y-4761484D01*
X7054303Y-4763770D01*
X7068312Y-4763770D01*
X7069632Y-4757826D01*
X7073544Y-4753914D01*
X7079894Y-4751730D01*
X7088631Y-4751070D01*
X7108748Y-4750968D01*
X7115048Y-4750206D01*
X7118350Y-4749546D01*
X7123125Y-4753508D01*
X7126325Y-4757775D01*
X7128205Y-4762144D01*
X7128764Y-4766564D01*
X7128306Y-4770475D01*
X7126833Y-4773930D01*
X7124446Y-4776978D01*
X7121194Y-4779568D01*
X7117080Y-4781600D01*
X7112152Y-4783124D01*
X7106513Y-4784039D01*
X7100062Y-4784344D01*
X7093153Y-4783886D01*
X7086955Y-4782566D01*
X7081570Y-4780534D01*
X7076948Y-4777892D01*
X7073290Y-4774742D01*
X7070598Y-4771288D01*
X7068921Y-4767580D01*
X7068312Y-4763770D01*
X7054303Y-4763770D01*
X7054494Y-4765802D01*
X7055612Y-4770018D01*
X7057491Y-4774031D01*
X7060082Y-4777841D01*
X7063282Y-4781346D01*
X7067143Y-4784547D01*
X7071614Y-4787392D01*
X7076694Y-4789830D01*
X7082281Y-4791811D01*
X7088428Y-4793284D01*
X7095032Y-4794199D01*
X7102094Y-4794504D01*
X7110577Y-4794097D01*
X7118248Y-4792776D01*
X7125004Y-4790643D01*
X7130796Y-4787747D01*
X7135418Y-4784039D01*
X7138873Y-4779619D01*
X7141006Y-4774438D01*
X7141718Y-4768596D01*
X7140752Y-4762449D01*
X7137958Y-4756607D01*
X7133488Y-4751222D01*
X7127494Y-4746498D01*
X7127494Y-4745736D01*
X7130897Y-4743043D01*
X7133640Y-4739589D01*
X7135469Y-4735220D01*
X7136130Y-4729988D01*
X7135164Y-4724298D01*
X7132624Y-4719370D01*
X7129170Y-4715357D01*
X7125462Y-4712208D01*
X7125462Y-4711446D01*
X7130084Y-4706874D01*
X7134098Y-4700879D01*
X7136892Y-4693716D01*
X7137908Y-4685538D01*
X7137196Y-4678070D01*
X7135063Y-4671415D01*
X7131761Y-4665522D01*
X7127392Y-4660595D01*
X7122109Y-4656632D01*
X7116064Y-4653686D01*
X7109409Y-4651857D01*
G37*
G36*
X6989064Y-4651248D02*
G01*
X6982002Y-4651857D01*
X6975906Y-4653686D01*
X6970826Y-4656632D01*
X6966712Y-4660798D01*
X6963562Y-4666132D01*
X6961378Y-4672584D01*
X6960057Y-4680153D01*
X6959600Y-4688840D01*
X6959600Y-4749800D01*
X6974078Y-4749800D01*
X6974078Y-4690618D01*
X6974382Y-4684166D01*
X6975195Y-4678629D01*
X6976618Y-4674057D01*
X6978650Y-4670348D01*
X6981291Y-4667504D01*
X6984593Y-4665522D01*
X6988556Y-4664354D01*
X6993128Y-4663948D01*
X7000341Y-4664964D01*
X7006945Y-4667910D01*
X7013549Y-4672838D01*
X7020559Y-4679696D01*
X7020559Y-4749800D01*
X7035038Y-4749800D01*
X7035038Y-4653788D01*
X7023353Y-4653788D01*
X7021830Y-4667758D01*
X7021322Y-4667758D01*
X7014260Y-4661408D01*
X7010552Y-4658614D01*
X7006640Y-4656175D01*
X7002576Y-4654143D01*
X6998309Y-4652568D01*
X6993788Y-4651603D01*
G37*
G36*
X6604253Y-4651248D02*
G01*
X6598513Y-4651603D01*
X6593179Y-4652670D01*
X6588302Y-4654397D01*
X6583832Y-4656734D01*
X6579870Y-4659731D01*
X6576415Y-4663338D01*
X6573418Y-4667504D01*
X6570929Y-4672228D01*
X6568998Y-4677511D01*
X6567576Y-4683252D01*
X6566712Y-4689500D01*
X6566488Y-4694428D01*
X6579362Y-4694428D01*
X6579819Y-4687163D01*
X6581038Y-4680813D01*
X6583121Y-4675428D01*
X6585915Y-4670958D01*
X6589471Y-4667453D01*
X6593738Y-4664964D01*
X6598666Y-4663440D01*
X6604253Y-4662932D01*
X6609486Y-4663490D01*
X6614464Y-4665065D01*
X6619087Y-4667656D01*
X6623202Y-4671263D01*
X6626758Y-4675784D01*
X6629653Y-4681169D01*
X6631736Y-4687366D01*
X6632956Y-4694428D01*
X6566488Y-4694428D01*
X6566458Y-4698644D01*
X6567170Y-4705096D01*
X6632702Y-4705096D01*
X6631889Y-4712766D01*
X6630009Y-4719675D01*
X6627114Y-4725720D01*
X6623303Y-4730902D01*
X6618579Y-4735017D01*
X6613093Y-4738116D01*
X6606895Y-4739995D01*
X6599936Y-4740656D01*
X6593179Y-4740097D01*
X6586880Y-4738522D01*
X6581038Y-4736033D01*
X6575552Y-4732782D01*
X6570218Y-4742434D01*
X6576822Y-4746193D01*
X6584086Y-4749241D01*
X6592316Y-4751324D01*
X6601714Y-4752086D01*
X6607911Y-4751730D01*
X6613804Y-4750562D01*
X6619443Y-4748682D01*
X6624675Y-4746091D01*
X6629552Y-4742840D01*
X6633870Y-4738827D01*
X6637731Y-4734204D01*
X6640982Y-4728972D01*
X6643624Y-4723028D01*
X6645554Y-4716526D01*
X6646773Y-4709464D01*
X6647180Y-4701794D01*
X6646773Y-4694275D01*
X6645554Y-4687316D01*
X6643573Y-4680813D01*
X6640982Y-4674920D01*
X6637781Y-4669586D01*
X6634022Y-4664913D01*
X6629806Y-4660849D01*
X6625234Y-4657496D01*
X6620306Y-4654804D01*
X6615125Y-4652822D01*
X6609740Y-4651654D01*
G37*
G36*
X6505448Y-4651248D02*
G01*
X6499707Y-4651654D01*
X6494068Y-4652772D01*
X6488684Y-4654651D01*
X6483604Y-4657242D01*
X6478879Y-4660544D01*
X6474612Y-4664506D01*
X6470802Y-4669180D01*
X6467551Y-4674463D01*
X6464909Y-4680407D01*
X6462928Y-4686960D01*
X6461709Y-4694072D01*
X6461252Y-4701794D01*
X6476238Y-4701794D01*
X6476796Y-4693615D01*
X6478371Y-4686198D01*
X6480962Y-4679696D01*
X6484366Y-4674158D01*
X6488633Y-4669739D01*
X6493611Y-4666437D01*
X6499250Y-4664405D01*
X6505448Y-4663694D01*
X6511696Y-4664405D01*
X6517335Y-4666437D01*
X6522313Y-4669739D01*
X6526530Y-4674158D01*
X6529984Y-4679696D01*
X6532524Y-4686198D01*
X6534150Y-4693615D01*
X6534657Y-4701794D01*
X6534150Y-4710023D01*
X6532524Y-4717389D01*
X6529984Y-4723892D01*
X6526530Y-4729429D01*
X6522313Y-4733848D01*
X6517335Y-4737150D01*
X6511696Y-4739182D01*
X6505448Y-4739894D01*
X6499250Y-4739182D01*
X6493611Y-4737150D01*
X6488633Y-4733848D01*
X6484366Y-4729429D01*
X6480962Y-4723892D01*
X6478371Y-4717389D01*
X6476796Y-4710023D01*
X6476238Y-4701794D01*
X6461252Y-4701794D01*
X6461709Y-4709464D01*
X6462928Y-4716526D01*
X6464909Y-4723028D01*
X6467551Y-4728972D01*
X6470802Y-4734204D01*
X6474612Y-4738827D01*
X6478879Y-4742840D01*
X6483604Y-4746091D01*
X6488684Y-4748682D01*
X6494068Y-4750562D01*
X6499707Y-4751730D01*
X6505448Y-4752086D01*
X6511290Y-4751730D01*
X6516928Y-4750562D01*
X6522313Y-4748682D01*
X6527444Y-4746091D01*
X6532118Y-4742840D01*
X6536435Y-4738827D01*
X6540195Y-4734204D01*
X6543446Y-4728972D01*
X6546088Y-4723028D01*
X6548018Y-4716526D01*
X6549237Y-4709464D01*
X6549644Y-4701794D01*
X6549237Y-4694072D01*
X6548018Y-4686960D01*
X6546088Y-4680407D01*
X6543446Y-4674463D01*
X6540195Y-4669180D01*
X6536435Y-4664506D01*
X6532118Y-4660544D01*
X6527444Y-4657242D01*
X6522313Y-4654651D01*
X6516928Y-4652772D01*
X6511290Y-4651654D01*
G37*
G36*
X8510778Y-4653788D02*
G01*
X8510778Y-4749800D01*
X8525002Y-4749800D01*
X8525002Y-4653788D01*
G37*
G36*
X8202675Y-4653788D02*
G01*
X8236966Y-4749800D01*
X8253730Y-4749800D01*
X8288781Y-4653788D01*
X8273796Y-4653788D01*
X8254746Y-4709668D01*
X8245602Y-4737862D01*
X8244840Y-4737862D01*
X8235950Y-4709668D01*
X8216900Y-4653788D01*
G37*
G36*
X8168894Y-4653788D02*
G01*
X8168894Y-4749800D01*
X8183372Y-4749800D01*
X8183372Y-4653788D01*
G37*
G36*
X7665720Y-4653788D02*
G01*
X7665720Y-4749800D01*
X7677658Y-4749800D01*
X7678928Y-4734560D01*
X7679436Y-4734560D01*
X7682890Y-4738319D01*
X7686446Y-4741672D01*
X7690103Y-4744669D01*
X7693914Y-4747209D01*
X7697927Y-4749292D01*
X7702143Y-4750816D01*
X7706664Y-4751781D01*
X7711440Y-4752086D01*
X7718450Y-4751476D01*
X7724495Y-4749698D01*
X7729524Y-4746752D01*
X7733588Y-4742637D01*
X7736738Y-4737404D01*
X7738922Y-4731004D01*
X7740243Y-4723434D01*
X7740650Y-4714748D01*
X7740650Y-4653788D01*
X7726172Y-4653788D01*
X7726172Y-4712970D01*
X7725918Y-4719370D01*
X7725156Y-4724806D01*
X7723784Y-4729378D01*
X7721803Y-4733036D01*
X7719212Y-4735830D01*
X7715910Y-4737811D01*
X7711897Y-4739030D01*
X7707122Y-4739386D01*
X7700111Y-4738420D01*
X7693558Y-4735372D01*
X7687106Y-4730191D01*
X7680198Y-4722622D01*
X7680198Y-4653788D01*
G37*
G36*
X7167372Y-4653788D02*
G01*
X7167372Y-4749800D01*
X7181850Y-4749800D01*
X7181850Y-4653788D01*
G37*
G36*
X6816090Y-4653788D02*
G01*
X6850380Y-4749800D01*
X6867398Y-4749800D01*
X6902450Y-4653788D01*
X6887209Y-4653788D01*
X6868159Y-4709668D01*
X6859270Y-4737862D01*
X6858508Y-4737862D01*
X6849364Y-4709668D01*
X6830314Y-4653788D01*
G37*
G36*
X6782562Y-4653788D02*
G01*
X6782562Y-4749800D01*
X6797040Y-4749800D01*
X6797040Y-4653788D01*
G37*
G36*
X8950198Y-4887722D02*
G01*
X8950198Y-4926838D01*
X8950706Y-4947158D01*
X8943695Y-4940808D01*
X8939987Y-4938014D01*
X8936126Y-4935575D01*
X8932113Y-4933543D01*
X8927896Y-4931968D01*
X8923426Y-4931003D01*
X8918702Y-4930648D01*
X8911640Y-4931257D01*
X8905544Y-4933086D01*
X8900464Y-4936032D01*
X8896350Y-4940198D01*
X8893200Y-4945532D01*
X8891016Y-4951984D01*
X8889695Y-4959553D01*
X8889238Y-4968240D01*
X8889238Y-5029200D01*
X8903716Y-5029200D01*
X8903716Y-4970018D01*
X8904020Y-4963566D01*
X8904833Y-4958029D01*
X8906256Y-4953457D01*
X8908288Y-4949748D01*
X8910929Y-4946904D01*
X8914231Y-4944922D01*
X8918194Y-4943754D01*
X8922766Y-4943348D01*
X8929979Y-4944364D01*
X8936583Y-4947310D01*
X8943187Y-4952238D01*
X8950198Y-4959096D01*
X8950198Y-5029200D01*
X8964676Y-5029200D01*
X8964676Y-4887722D01*
G37*
G36*
X7811770Y-4887722D02*
G01*
X7811770Y-4926838D01*
X7812531Y-4944618D01*
X7805420Y-4939233D01*
X7797800Y-4934762D01*
X7789824Y-4931765D01*
X7781544Y-4930648D01*
X7775498Y-4931054D01*
X7769961Y-4932222D01*
X7764983Y-4934153D01*
X7760462Y-4936794D01*
X7756448Y-4940147D01*
X7752943Y-4944110D01*
X7749997Y-4948682D01*
X7747558Y-4953863D01*
X7745679Y-4959604D01*
X7744307Y-4965801D01*
X7743494Y-4972507D01*
X7743190Y-4979670D01*
X7758175Y-4979670D01*
X7758531Y-4971897D01*
X7759700Y-4964836D01*
X7761630Y-4958638D01*
X7764373Y-4953304D01*
X7768031Y-4948986D01*
X7772653Y-4945786D01*
X7778242Y-4943805D01*
X7784846Y-4943094D01*
X7791246Y-4943957D01*
X7797850Y-4946548D01*
X7804708Y-4950815D01*
X7811770Y-4956810D01*
X7811770Y-5008880D01*
X7805115Y-5013706D01*
X7798663Y-5016957D01*
X7792618Y-5018735D01*
X7787386Y-5019294D01*
X7781340Y-5018582D01*
X7775752Y-5016550D01*
X7770774Y-5013198D01*
X7766507Y-5008626D01*
X7763002Y-5002936D01*
X7760411Y-4996129D01*
X7758734Y-4988356D01*
X7758175Y-4979670D01*
X7743190Y-4979670D01*
X7743596Y-4987594D01*
X7744764Y-4994910D01*
X7746644Y-5001615D01*
X7749184Y-5007660D01*
X7752232Y-5013096D01*
X7755890Y-5017871D01*
X7759953Y-5021935D01*
X7764424Y-5025339D01*
X7769250Y-5027980D01*
X7774330Y-5029911D01*
X7779664Y-5031079D01*
X7785100Y-5031486D01*
X7792008Y-5030673D01*
X7799171Y-5028234D01*
X7806181Y-5024424D01*
X7812786Y-5019294D01*
X7813294Y-5019294D01*
X7814818Y-5029200D01*
X7826248Y-5029200D01*
X7826248Y-4887722D01*
G37*
G36*
X7208520Y-4887722D02*
G01*
X7208520Y-4985512D01*
X7208012Y-4985512D01*
X7165594Y-4933188D01*
X7149592Y-4933188D01*
X7181342Y-4971796D01*
X7145020Y-5029200D01*
X7160768Y-5029200D01*
X7189978Y-4981702D01*
X7208520Y-5003546D01*
X7208520Y-5029200D01*
X7222744Y-5029200D01*
X7222744Y-4887722D01*
G37*
G36*
X6617208Y-4887722D02*
G01*
X6617208Y-4926838D01*
X6617716Y-4947158D01*
X6610705Y-4940808D01*
X6606997Y-4938014D01*
X6603136Y-4935575D01*
X6599072Y-4933543D01*
X6594805Y-4931968D01*
X6590284Y-4931003D01*
X6585458Y-4930648D01*
X6578447Y-4931257D01*
X6572453Y-4933086D01*
X6567424Y-4936032D01*
X6563359Y-4940198D01*
X6560210Y-4945532D01*
X6558025Y-4951984D01*
X6556705Y-4959553D01*
X6556248Y-4968240D01*
X6556248Y-5029200D01*
X6570725Y-5029200D01*
X6570725Y-4970018D01*
X6571030Y-4963566D01*
X6571843Y-4958029D01*
X6573266Y-4953457D01*
X6575298Y-4949748D01*
X6577939Y-4946904D01*
X6581241Y-4944922D01*
X6585203Y-4943754D01*
X6589775Y-4943348D01*
X6596989Y-4944364D01*
X6603593Y-4947310D01*
X6610197Y-4952238D01*
X6617208Y-4959096D01*
X6617208Y-5029200D01*
X6631686Y-5029200D01*
X6631686Y-4887722D01*
G37*
G36*
X8439912Y-4888484D02*
G01*
X8495030Y-5060950D01*
X8505698Y-5060950D01*
X8450580Y-4888484D01*
G37*
G36*
X8370316Y-4888484D02*
G01*
X8425180Y-5060950D01*
X8435848Y-5060950D01*
X8380984Y-4888484D01*
G37*
G36*
X7568692Y-4888484D02*
G01*
X7623809Y-5060950D01*
X7634478Y-5060950D01*
X7579359Y-4888484D01*
G37*
G36*
X7305294Y-4896612D02*
G01*
X7299350Y-4896916D01*
X7293609Y-4897780D01*
X7288174Y-4899253D01*
X7282992Y-4901285D01*
X7278116Y-4903825D01*
X7273594Y-4906924D01*
X7269378Y-4910531D01*
X7265568Y-4914595D01*
X7262114Y-4919218D01*
X7259066Y-4924247D01*
X7256424Y-4929784D01*
X7254240Y-4935728D01*
X7252512Y-4942128D01*
X7251242Y-4948885D01*
X7250430Y-4956098D01*
X7250175Y-4963668D01*
X7265162Y-4963668D01*
X7265517Y-4955641D01*
X7266482Y-4948123D01*
X7268057Y-4941214D01*
X7270242Y-4934915D01*
X7272934Y-4929276D01*
X7276185Y-4924247D01*
X7279944Y-4919980D01*
X7284161Y-4916373D01*
X7288834Y-4913579D01*
X7293965Y-4911496D01*
X7299452Y-4910226D01*
X7305294Y-4909820D01*
X7311085Y-4910226D01*
X7316571Y-4911496D01*
X7321600Y-4913579D01*
X7326274Y-4916373D01*
X7330440Y-4919980D01*
X7334199Y-4924247D01*
X7337450Y-4929276D01*
X7340142Y-4934915D01*
X7342327Y-4941214D01*
X7343902Y-4948123D01*
X7344867Y-4955641D01*
X7345172Y-4963668D01*
X7344867Y-4971846D01*
X7343902Y-4979517D01*
X7342327Y-4986629D01*
X7340142Y-4993132D01*
X7337450Y-4998974D01*
X7334199Y-5004155D01*
X7330440Y-5008626D01*
X7326274Y-5012385D01*
X7321600Y-5015382D01*
X7316571Y-5017516D01*
X7311085Y-5018836D01*
X7305294Y-5019294D01*
X7299452Y-5018836D01*
X7293965Y-5017516D01*
X7288834Y-5015382D01*
X7284161Y-5012385D01*
X7279944Y-5008626D01*
X7276185Y-5004155D01*
X7272934Y-4998974D01*
X7270242Y-4993132D01*
X7268057Y-4986629D01*
X7266482Y-4979517D01*
X7265517Y-4971846D01*
X7265162Y-4963668D01*
X7250175Y-4963668D01*
X7250430Y-4970627D01*
X7251039Y-4977231D01*
X7252106Y-4983530D01*
X7253579Y-4989525D01*
X7255408Y-4995113D01*
X7257592Y-5000396D01*
X7260132Y-5005273D01*
X7263028Y-5009794D01*
X7266279Y-5013909D01*
X7269784Y-5017617D01*
X7273645Y-5020868D01*
X7277709Y-5023764D01*
X7282078Y-5026202D01*
X7286752Y-5028184D01*
X7291578Y-5029657D01*
X7296658Y-5030724D01*
X7294219Y-5034991D01*
X7291222Y-5038750D01*
X7287717Y-5041849D01*
X7283754Y-5044440D01*
X7279386Y-5046421D01*
X7274610Y-5047894D01*
X7269530Y-5048707D01*
X7264146Y-5049012D01*
X7260081Y-5048859D01*
X7253376Y-5047843D01*
X7250684Y-5047234D01*
X7247890Y-5058664D01*
X7251141Y-5059730D01*
X7255357Y-5060645D01*
X7260285Y-5061254D01*
X7265670Y-5061458D01*
X7274204Y-5060848D01*
X7281976Y-5059172D01*
X7289038Y-5056428D01*
X7295388Y-5052771D01*
X7300925Y-5048351D01*
X7305649Y-5043119D01*
X7309561Y-5037328D01*
X7312659Y-5030978D01*
X7317841Y-5030012D01*
X7322820Y-5028590D01*
X7327544Y-5026660D01*
X7332014Y-5024272D01*
X7336180Y-5021427D01*
X7340092Y-5018125D01*
X7343698Y-5014417D01*
X7347000Y-5010302D01*
X7349947Y-5005730D01*
X7352588Y-5000802D01*
X7354824Y-4995519D01*
X7356703Y-4989830D01*
X7358227Y-4983784D01*
X7359294Y-4977434D01*
X7359954Y-4970729D01*
X7360158Y-4963668D01*
X7359903Y-4956098D01*
X7359142Y-4948885D01*
X7357872Y-4942128D01*
X7356144Y-4935728D01*
X7353960Y-4929784D01*
X7351318Y-4924247D01*
X7348270Y-4919218D01*
X7344816Y-4914595D01*
X7341006Y-4910531D01*
X7336840Y-4906924D01*
X7332319Y-4903825D01*
X7327493Y-4901285D01*
X7322362Y-4899253D01*
X7316927Y-4897780D01*
X7311237Y-4896916D01*
G37*
G36*
X7466584Y-4899152D02*
G01*
X7466584Y-4911598D01*
X7506462Y-4911598D01*
X7506462Y-5029200D01*
X7521194Y-5029200D01*
X7521194Y-4911598D01*
X7560818Y-4911598D01*
X7560818Y-4899152D01*
G37*
G36*
X7428230Y-4899152D02*
G01*
X7428230Y-5016754D01*
X7370572Y-5016754D01*
X7370572Y-5029200D01*
X7442962Y-5029200D01*
X7442962Y-4899152D01*
G37*
G36*
X6912102Y-4899152D02*
G01*
X6912102Y-5016754D01*
X6854444Y-5016754D01*
X6854444Y-5029200D01*
X6926834Y-5029200D01*
X6926834Y-4899152D01*
G37*
G36*
X6655562Y-4899152D02*
G01*
X6696456Y-4948428D01*
X6649466Y-5029200D01*
X6665975Y-5029200D01*
X6705853Y-4959604D01*
X6729222Y-4987290D01*
X6729222Y-5029200D01*
X6743953Y-5029200D01*
X6743953Y-4899152D01*
X6729222Y-4899152D01*
X6729222Y-4965954D01*
X6728714Y-4965954D01*
X6672580Y-4899152D01*
G37*
G36*
X6508496Y-4899152D02*
G01*
X6508496Y-5029200D01*
X6523228Y-5029200D01*
X6523228Y-4899152D01*
G37*
G36*
X8840470Y-4906010D02*
G01*
X8840470Y-4933188D01*
X8814054Y-4933188D01*
X8814054Y-4945126D01*
X8840470Y-4945126D01*
X8840470Y-5000752D01*
X8839758Y-5008626D01*
X8837269Y-5014518D01*
X8832646Y-5018278D01*
X8825484Y-5019548D01*
X8822690Y-5019344D01*
X8816848Y-5017922D01*
X8814308Y-5017008D01*
X8811514Y-5027930D01*
X8820048Y-5030368D01*
X8824366Y-5031181D01*
X8828532Y-5031486D01*
X8835440Y-5030927D01*
X8841130Y-5029200D01*
X8845702Y-5026507D01*
X8849258Y-5022799D01*
X8851900Y-5018278D01*
X8853678Y-5012944D01*
X8854643Y-5006898D01*
X8854948Y-5000244D01*
X8854948Y-4945126D01*
X8869426Y-4945126D01*
X8869426Y-4934204D01*
X8854440Y-4933188D01*
X8852662Y-4906010D01*
G37*
G36*
X8778748Y-4906010D02*
G01*
X8778748Y-4933188D01*
X8752332Y-4933188D01*
X8752332Y-4945126D01*
X8778748Y-4945126D01*
X8778748Y-5000752D01*
X8778036Y-5008626D01*
X8775547Y-5014518D01*
X8770924Y-5018278D01*
X8763762Y-5019548D01*
X8760968Y-5019344D01*
X8755126Y-5017922D01*
X8752586Y-5017008D01*
X8749792Y-5027930D01*
X8758326Y-5030368D01*
X8762644Y-5031181D01*
X8766810Y-5031486D01*
X8773718Y-5030927D01*
X8779408Y-5029200D01*
X8783980Y-5026507D01*
X8787536Y-5022799D01*
X8790178Y-5018278D01*
X8791956Y-5012944D01*
X8792921Y-5006898D01*
X8793226Y-5000244D01*
X8793226Y-4945126D01*
X8807958Y-4945126D01*
X8807958Y-4934204D01*
X8792718Y-4933188D01*
X8790940Y-4906010D01*
G37*
G36*
X8029702Y-4906010D02*
G01*
X8029702Y-4933188D01*
X8003286Y-4933188D01*
X8003286Y-4945126D01*
X8029702Y-4945126D01*
X8029702Y-5000752D01*
X8028990Y-5008626D01*
X8026501Y-5014518D01*
X8021878Y-5018278D01*
X8014716Y-5019548D01*
X8011922Y-5019344D01*
X8006080Y-5017922D01*
X8003540Y-5017008D01*
X8000746Y-5027930D01*
X8009280Y-5030368D01*
X8013598Y-5031181D01*
X8017764Y-5031486D01*
X8024672Y-5030927D01*
X8030362Y-5029200D01*
X8034934Y-5026507D01*
X8038490Y-5022799D01*
X8041131Y-5018278D01*
X8042909Y-5012944D01*
X8043875Y-5006898D01*
X8044180Y-5000244D01*
X8044180Y-4945126D01*
X8058658Y-4945126D01*
X8058658Y-4934204D01*
X8043672Y-4933188D01*
X8041894Y-4906010D01*
G37*
G36*
X8685784Y-4930648D02*
G01*
X8679738Y-4931054D01*
X8674201Y-4932222D01*
X8669172Y-4934153D01*
X8664600Y-4936794D01*
X8660587Y-4940147D01*
X8657082Y-4944110D01*
X8654084Y-4948682D01*
X8651595Y-4953863D01*
X8649665Y-4959604D01*
X8648293Y-4965801D01*
X8647480Y-4972507D01*
X8647176Y-4979670D01*
X8662416Y-4979670D01*
X8662771Y-4971897D01*
X8663889Y-4964836D01*
X8665768Y-4958638D01*
X8668512Y-4953304D01*
X8672169Y-4948986D01*
X8676792Y-4945786D01*
X8682431Y-4943805D01*
X8689086Y-4943094D01*
X8695436Y-4943957D01*
X8701989Y-4946548D01*
X8708796Y-4950815D01*
X8716010Y-4956810D01*
X8716010Y-5008880D01*
X8709253Y-5013706D01*
X8702751Y-5016957D01*
X8696756Y-5018735D01*
X8691372Y-5019294D01*
X8685326Y-5018582D01*
X8679789Y-5016550D01*
X8674862Y-5013198D01*
X8670645Y-5008626D01*
X8667191Y-5002936D01*
X8664600Y-4996129D01*
X8662974Y-4988356D01*
X8662416Y-4979670D01*
X8647176Y-4979670D01*
X8647582Y-4987594D01*
X8648750Y-4994910D01*
X8650630Y-5001615D01*
X8653170Y-5007660D01*
X8656269Y-5013096D01*
X8659876Y-5017871D01*
X8663990Y-5021935D01*
X8668512Y-5025339D01*
X8673338Y-5027980D01*
X8678468Y-5029911D01*
X8683853Y-5031079D01*
X8689340Y-5031486D01*
X8696045Y-5030724D01*
X8702700Y-5028590D01*
X8709456Y-5025085D01*
X8716264Y-5020310D01*
X8716010Y-5037328D01*
X8716010Y-5070348D01*
X8730234Y-5070348D01*
X8730234Y-4933188D01*
X8718550Y-4933188D01*
X8717280Y-4944364D01*
X8716518Y-4944364D01*
X8709558Y-4939233D01*
X8702040Y-4934864D01*
X8694064Y-4931816D01*
G37*
G36*
X8594090Y-4930648D02*
G01*
X8585758Y-4931511D01*
X8577986Y-4933797D01*
X8570976Y-4937201D01*
X8564880Y-4941316D01*
X8571992Y-4950714D01*
X8577021Y-4947361D01*
X8582304Y-4944719D01*
X8587943Y-4942992D01*
X8594090Y-4942332D01*
X8602522Y-4943500D01*
X8608364Y-4946599D01*
X8611768Y-4951222D01*
X8612886Y-4956810D01*
X8611158Y-4963058D01*
X8606434Y-4967630D01*
X8599728Y-4971135D01*
X8586520Y-4976215D01*
X8581288Y-4978450D01*
X8576259Y-4980990D01*
X8571738Y-4983937D01*
X8567826Y-4987544D01*
X8564778Y-4991912D01*
X8562797Y-4997196D01*
X8562086Y-5003546D01*
X8562644Y-5009134D01*
X8564372Y-5014366D01*
X8567115Y-5019090D01*
X8570976Y-5023256D01*
X8575852Y-5026660D01*
X8581694Y-5029250D01*
X8588552Y-5030927D01*
X8596376Y-5031486D01*
X8601506Y-5031232D01*
X8606485Y-5030520D01*
X8611362Y-5029301D01*
X8616035Y-5027726D01*
X8620455Y-5025796D01*
X8624671Y-5023561D01*
X8628583Y-5021021D01*
X8632190Y-5018278D01*
X8624824Y-5008626D01*
X8618474Y-5013198D01*
X8611768Y-5016804D01*
X8604351Y-5019192D01*
X8595868Y-5020056D01*
X8587232Y-5018786D01*
X8581034Y-5015382D01*
X8577326Y-5010302D01*
X8576056Y-5004054D01*
X8578037Y-4997399D01*
X8583168Y-4992370D01*
X8590330Y-4988509D01*
X8608669Y-4981092D01*
X8613444Y-4978552D01*
X8617813Y-4975606D01*
X8621471Y-4972151D01*
X8624366Y-4968036D01*
X8626195Y-4963210D01*
X8626856Y-4957572D01*
X8626297Y-4952136D01*
X8624671Y-4947056D01*
X8621979Y-4942484D01*
X8618321Y-4938471D01*
X8613648Y-4935220D01*
X8608009Y-4932730D01*
X8601506Y-4931206D01*
G37*
G36*
X8224266Y-4930648D02*
G01*
X8218525Y-4931054D01*
X8212886Y-4932172D01*
X8207502Y-4934051D01*
X8202422Y-4936642D01*
X8197697Y-4939944D01*
X8193430Y-4943906D01*
X8189620Y-4948580D01*
X8186369Y-4953863D01*
X8183727Y-4959807D01*
X8181746Y-4966360D01*
X8180527Y-4973472D01*
X8180070Y-4981194D01*
X8195056Y-4981194D01*
X8195614Y-4973015D01*
X8197189Y-4965598D01*
X8199780Y-4959096D01*
X8203184Y-4953558D01*
X8207451Y-4949139D01*
X8212429Y-4945837D01*
X8218068Y-4943805D01*
X8224266Y-4943094D01*
X8230514Y-4943805D01*
X8236153Y-4945837D01*
X8241131Y-4949139D01*
X8245348Y-4953558D01*
X8248802Y-4959096D01*
X8251342Y-4965598D01*
X8252968Y-4973015D01*
X8253475Y-4981194D01*
X8252968Y-4989423D01*
X8251342Y-4996789D01*
X8248802Y-5003292D01*
X8245348Y-5008829D01*
X8241131Y-5013248D01*
X8236153Y-5016550D01*
X8230514Y-5018582D01*
X8224266Y-5019294D01*
X8218068Y-5018582D01*
X8212429Y-5016550D01*
X8207451Y-5013248D01*
X8203184Y-5008829D01*
X8199780Y-5003292D01*
X8197189Y-4996789D01*
X8195614Y-4989423D01*
X8195056Y-4981194D01*
X8180070Y-4981194D01*
X8180527Y-4988864D01*
X8181746Y-4995926D01*
X8183727Y-5002428D01*
X8186369Y-5008372D01*
X8189620Y-5013604D01*
X8193430Y-5018227D01*
X8197697Y-5022240D01*
X8202422Y-5025491D01*
X8207502Y-5028082D01*
X8212886Y-5029962D01*
X8218525Y-5031130D01*
X8224266Y-5031486D01*
X8230108Y-5031130D01*
X8235746Y-5029962D01*
X8241131Y-5028082D01*
X8246262Y-5025491D01*
X8250936Y-5022240D01*
X8255253Y-5018227D01*
X8259013Y-5013604D01*
X8262264Y-5008372D01*
X8264906Y-5002428D01*
X8266836Y-4995926D01*
X8268055Y-4988864D01*
X8268462Y-4981194D01*
X8268055Y-4973472D01*
X8266836Y-4966360D01*
X8264906Y-4959807D01*
X8262264Y-4953863D01*
X8259013Y-4948580D01*
X8255253Y-4943906D01*
X8250936Y-4939944D01*
X8246262Y-4936642D01*
X8241131Y-4934051D01*
X8235746Y-4932172D01*
X8230108Y-4931054D01*
G37*
G36*
X7681722Y-4930648D02*
G01*
X7675930Y-4931003D01*
X7670546Y-4932070D01*
X7665669Y-4933797D01*
X7661198Y-4936134D01*
X7657236Y-4939131D01*
X7653781Y-4942738D01*
X7650784Y-4946904D01*
X7648346Y-4951628D01*
X7646416Y-4956911D01*
X7644993Y-4962652D01*
X7644180Y-4968900D01*
X7643956Y-4973828D01*
X7656575Y-4973828D01*
X7657033Y-4966563D01*
X7658252Y-4960213D01*
X7660335Y-4954828D01*
X7663129Y-4950358D01*
X7666685Y-4946853D01*
X7670952Y-4944364D01*
X7675880Y-4942840D01*
X7681468Y-4942332D01*
X7686751Y-4942890D01*
X7691729Y-4944465D01*
X7696352Y-4947056D01*
X7700518Y-4950663D01*
X7704074Y-4955184D01*
X7706969Y-4960569D01*
X7709001Y-4966766D01*
X7710170Y-4973828D01*
X7643956Y-4973828D01*
X7643875Y-4978044D01*
X7644384Y-4984496D01*
X7710170Y-4984496D01*
X7709255Y-4992166D01*
X7707325Y-4999075D01*
X7704378Y-5005120D01*
X7700518Y-5010302D01*
X7695844Y-5014417D01*
X7690307Y-5017516D01*
X7684109Y-5019395D01*
X7677150Y-5020056D01*
X7670393Y-5019497D01*
X7664094Y-5017922D01*
X7658252Y-5015433D01*
X7652766Y-5012182D01*
X7647431Y-5021834D01*
X7654036Y-5025593D01*
X7661402Y-5028641D01*
X7669631Y-5030724D01*
X7678928Y-5031486D01*
X7685176Y-5031130D01*
X7691120Y-5029962D01*
X7696758Y-5028082D01*
X7702042Y-5025491D01*
X7706868Y-5022240D01*
X7711186Y-5018227D01*
X7715046Y-5013604D01*
X7718247Y-5008372D01*
X7720888Y-5002428D01*
X7722819Y-4995926D01*
X7723987Y-4988864D01*
X7724394Y-4981194D01*
X7723987Y-4973675D01*
X7722768Y-4966716D01*
X7720838Y-4960213D01*
X7718247Y-4954320D01*
X7715046Y-4948986D01*
X7711338Y-4944313D01*
X7707172Y-4940249D01*
X7702600Y-4936896D01*
X7697724Y-4934204D01*
X7692593Y-4932222D01*
X7687208Y-4931054D01*
G37*
G36*
X6797040Y-4930648D02*
G01*
X6788251Y-4931562D01*
X6780784Y-4934102D01*
X6774383Y-4937810D01*
X6768846Y-4942332D01*
X6776466Y-4951730D01*
X6780834Y-4948123D01*
X6785508Y-4945430D01*
X6790639Y-4943703D01*
X6796278Y-4943094D01*
X6802831Y-4943805D01*
X6808825Y-4945837D01*
X6814159Y-4949139D01*
X6818782Y-4953558D01*
X6822592Y-4959096D01*
X6825386Y-4965598D01*
X6827164Y-4973015D01*
X6827774Y-4981194D01*
X6827215Y-4989423D01*
X6825538Y-4996789D01*
X6822897Y-5003292D01*
X6819239Y-5008829D01*
X6814769Y-5013248D01*
X6809486Y-5016550D01*
X6803440Y-5018582D01*
X6796786Y-5019294D01*
X6790131Y-5018532D01*
X6783984Y-5016449D01*
X6778345Y-5013401D01*
X6773418Y-5009642D01*
X6767068Y-5019294D01*
X6773925Y-5024424D01*
X6781444Y-5028234D01*
X6789521Y-5030673D01*
X6798056Y-5031486D01*
X6804253Y-5031130D01*
X6810095Y-5029962D01*
X6815632Y-5028082D01*
X6820763Y-5025491D01*
X6825488Y-5022240D01*
X6829704Y-5018227D01*
X6833463Y-5013604D01*
X6836562Y-5008372D01*
X6839102Y-5002428D01*
X6840981Y-4995926D01*
X6842150Y-4988864D01*
X6842506Y-4981194D01*
X6842099Y-4973472D01*
X6840829Y-4966360D01*
X6838797Y-4959807D01*
X6836105Y-4953863D01*
X6832752Y-4948580D01*
X6828840Y-4943906D01*
X6824421Y-4939944D01*
X6819544Y-4936642D01*
X6814362Y-4934051D01*
X6808825Y-4932172D01*
X6803034Y-4931054D01*
G37*
G36*
X8279384Y-4933188D02*
G01*
X8315959Y-5038090D01*
X8318601Y-5044744D01*
X8321649Y-5050993D01*
X8325103Y-5056581D01*
X8329015Y-5061458D01*
X8333536Y-5065471D01*
X8338667Y-5068519D01*
X8344458Y-5070449D01*
X8351012Y-5071110D01*
X8354161Y-5070957D01*
X8359800Y-5069941D01*
X8362188Y-5069078D01*
X8359140Y-5057394D01*
X8355634Y-5058460D01*
X8353602Y-5058816D01*
X8351520Y-5058918D01*
X8344052Y-5057241D01*
X8337905Y-5052720D01*
X8332978Y-5045862D01*
X8329168Y-5037328D01*
X8327136Y-5029708D01*
X8365744Y-4933188D01*
X8350758Y-4933188D01*
X8330184Y-4988052D01*
X8320786Y-5015230D01*
X8319770Y-5015230D01*
X8311642Y-4988052D01*
X8293608Y-4933188D01*
G37*
G36*
X8080502Y-4933188D02*
G01*
X8080502Y-5029200D01*
X8092440Y-5029200D01*
X8093709Y-5013960D01*
X8094218Y-5013960D01*
X8097621Y-5017719D01*
X8101075Y-5021072D01*
X8104733Y-5024069D01*
X8108543Y-5026609D01*
X8112556Y-5028692D01*
X8116824Y-5030216D01*
X8121345Y-5031181D01*
X8126222Y-5031486D01*
X8133232Y-5030876D01*
X8139277Y-5029098D01*
X8144306Y-5026152D01*
X8148370Y-5022037D01*
X8151520Y-5016804D01*
X8153704Y-5010404D01*
X8155025Y-5002834D01*
X8155431Y-4994148D01*
X8155431Y-4933188D01*
X8140953Y-4933188D01*
X8140953Y-4992370D01*
X8140700Y-4998770D01*
X8139887Y-5004206D01*
X8138515Y-5008778D01*
X8136483Y-5012436D01*
X8133842Y-5015230D01*
X8130590Y-5017211D01*
X8126577Y-5018430D01*
X8121903Y-5018786D01*
X8114741Y-5017820D01*
X8108188Y-5014772D01*
X8101736Y-5009591D01*
X8094980Y-5002022D01*
X8094980Y-4933188D01*
G37*
G36*
X7907781Y-4933188D02*
G01*
X7907781Y-5029200D01*
X7919720Y-5029200D01*
X7920990Y-5013960D01*
X7921498Y-5013960D01*
X7924952Y-5017719D01*
X7928508Y-5021072D01*
X7932166Y-5024069D01*
X7935975Y-5026609D01*
X7939989Y-5028692D01*
X7944205Y-5030216D01*
X7948726Y-5031181D01*
X7953502Y-5031486D01*
X7960512Y-5030876D01*
X7966557Y-5029098D01*
X7971586Y-5026152D01*
X7975650Y-5022037D01*
X7978800Y-5016804D01*
X7980984Y-5010404D01*
X7982305Y-5002834D01*
X7982712Y-4994148D01*
X7982712Y-4933188D01*
X7968234Y-4933188D01*
X7968234Y-4992370D01*
X7967980Y-4998770D01*
X7967167Y-5004206D01*
X7965795Y-5008778D01*
X7963763Y-5012436D01*
X7961122Y-5015230D01*
X7957870Y-5017211D01*
X7953857Y-5018430D01*
X7949184Y-5018786D01*
X7942072Y-5017820D01*
X7935569Y-5014772D01*
X7929118Y-5009591D01*
X7922259Y-5002022D01*
X7922259Y-4933188D01*
G37*
G36*
X7054342Y-4933188D02*
G01*
X7090918Y-5038090D01*
X7093559Y-5044744D01*
X7096607Y-5050993D01*
X7100062Y-5056581D01*
X7103973Y-5061458D01*
X7108494Y-5065471D01*
X7113625Y-5068519D01*
X7119416Y-5070449D01*
X7125970Y-5071110D01*
X7129119Y-5070957D01*
X7134758Y-5069941D01*
X7137146Y-5069078D01*
X7134098Y-5057394D01*
X7130592Y-5058460D01*
X7128560Y-5058816D01*
X7126478Y-5058918D01*
X7119010Y-5057241D01*
X7112863Y-5052720D01*
X7107936Y-5045862D01*
X7104125Y-5037328D01*
X7102094Y-5029708D01*
X7140702Y-4933188D01*
X7125716Y-4933188D01*
X7105142Y-4988052D01*
X7095744Y-5015230D01*
X7094728Y-5015230D01*
X7086600Y-4988052D01*
X7068566Y-4933188D01*
G37*
G36*
X6961631Y-4933188D02*
G01*
X6961631Y-5029200D01*
X6973570Y-5029200D01*
X6974840Y-5013960D01*
X6975348Y-5013960D01*
X6978802Y-5017719D01*
X6982358Y-5021072D01*
X6986016Y-5024069D01*
X6989825Y-5026609D01*
X6993839Y-5028692D01*
X6998055Y-5030216D01*
X7002576Y-5031181D01*
X7007352Y-5031486D01*
X7014362Y-5030876D01*
X7020407Y-5029098D01*
X7025436Y-5026152D01*
X7029500Y-5022037D01*
X7032650Y-5016804D01*
X7034834Y-5010404D01*
X7036155Y-5002834D01*
X7036562Y-4994148D01*
X7036562Y-4933188D01*
X7022084Y-4933188D01*
X7022084Y-4992370D01*
X7021830Y-4998770D01*
X7021068Y-5004206D01*
X7019696Y-5008778D01*
X7017766Y-5012436D01*
X7015175Y-5015230D01*
X7011924Y-5017211D01*
X7007961Y-5018430D01*
X7003288Y-5018786D01*
X6996125Y-5017820D01*
X6989521Y-5014772D01*
X6983018Y-5009591D01*
X6976109Y-5002022D01*
X6976109Y-4933188D01*
G37*
G36*
X8531606Y-4935728D02*
G01*
X8527440Y-4936591D01*
X8523986Y-4939030D01*
X8521598Y-4942789D01*
X8520684Y-4947666D01*
X8521598Y-4952238D01*
X8523986Y-4955844D01*
X8527440Y-4958232D01*
X8531606Y-4959096D01*
X8535924Y-4958232D01*
X8539378Y-4955844D01*
X8541715Y-4952238D01*
X8542528Y-4947666D01*
X8541715Y-4942789D01*
X8539378Y-4939030D01*
X8535924Y-4936591D01*
G37*
G36*
X8531606Y-5008372D02*
G01*
X8527440Y-5009184D01*
X8523986Y-5011572D01*
X8521598Y-5015230D01*
X8520684Y-5020056D01*
X8521598Y-5024729D01*
X8523986Y-5028336D01*
X8527440Y-5030673D01*
X8531606Y-5031486D01*
X8535924Y-5030673D01*
X8539378Y-5028336D01*
X8541715Y-5024729D01*
X8542528Y-5020056D01*
X8541715Y-5015230D01*
X8539378Y-5011572D01*
X8535924Y-5009184D01*
G37*
G36*
X7867396Y-5008372D02*
G01*
X7863078Y-5009184D01*
X7859522Y-5011572D01*
X7857134Y-5015230D01*
X7856220Y-5020056D01*
X7857134Y-5024729D01*
X7859522Y-5028336D01*
X7863078Y-5030673D01*
X7867396Y-5031486D01*
X7871561Y-5030673D01*
X7874914Y-5028336D01*
X7877251Y-5024729D01*
X7878064Y-5020056D01*
X7877251Y-5015230D01*
X7874914Y-5011572D01*
X7871561Y-5009184D01*
G37*
D10*
X3369995Y-4780000D02*
G01*
X5249997Y-4780000D01*
X5249999Y-4780000D01*
D11*
X3019983Y-5099989D02*
G01*
X3019983Y-5814608D01*
X2946387Y-5888205D01*
X2895587Y-5888205D01*
X4620006Y-5480050D02*
G01*
X4620006Y-5739892D01*
X4420108Y-5940044D01*
X3819906Y-5940044D01*
X2629915Y-5219954D02*
G01*
X2519994Y-5219989D01*
X2459990Y-5260086D01*
X2459990Y-5800089D01*
X2548127Y-5888228D01*
X2641600Y-5888228D01*
X3149587Y-5888205D02*
G01*
X2967807Y-6069985D01*
X2467770Y-6069985D01*
X2359990Y-5962208D01*
X2359990Y-4969992D01*
D10*
X3369995Y-6229985D02*
G01*
X3369995Y-4780005D01*
X3369990Y-4780000D01*
X2389886Y-6469887D02*
G01*
X5249925Y-6469887D01*
D12*
G01*
X7179995Y-7809992D03*
D13*
G01*
X259994Y-8504986D03*
G01*
X259994Y-7994980D03*
G01*
X9229979Y-7544993D03*
G01*
X9229979Y-8055000D03*
G01*
X279374Y-4370806D03*
G01*
X279374Y-3860800D03*
D14*
G01*
X434797Y-6849973D03*
D15*
G01*
X3915918Y-4119879D03*
D16*
G01*
X4169918Y-4119879D03*
G01*
X4423918Y-4119879D03*
D17*
G01*
X5550001Y-6682994D03*
D18*
G01*
X5550001Y-6936994D03*
D20*
G01*
X5999988Y-9279991D03*
G01*
X6250000Y-9279991D03*
D21*
G01*
X3149600Y-5634202D03*
G01*
X3149600Y-5888202D03*
G01*
X2895600Y-5634202D03*
G01*
X2895600Y-5888202D03*
G01*
X2641600Y-5634202D03*
D22*
G01*
X2641600Y-5888202D03*
D23*
G01*
X9169984Y-3339998D03*
G01*
X329996Y-9179991D03*
D20*
G01*
X2389987Y-6469989D03*
G01*
X5250002Y-6469989D03*
G01*
X3369995Y-6229985D03*
G01*
X3369995Y-4780000D03*
G01*
X5250002Y-4780000D03*
D24*
G01*
X129997Y-6429984D03*
G01*
X339979Y-6429984D03*
G01*
X549986Y-6429984D03*
G01*
X749985Y-6429984D03*
G01*
X749985Y-6639991D03*
G01*
X549986Y-6639991D03*
G01*
X339979Y-6639991D03*
G01*
X129997Y-6639991D03*
G01*
X749985Y-6849973D03*
G01*
X549986Y-6849973D03*
G01*
X339979Y-6849973D03*
G01*
X129997Y-6849973D03*
G01*
X749985Y-7059980D03*
G01*
X549986Y-7059980D03*
G01*
X339979Y-7059980D03*
G01*
X129997Y-7059980D03*
G01*
X749985Y-7269987D03*
G01*
X549986Y-7269987D03*
G01*
X339979Y-7269987D03*
G01*
X129997Y-7269987D03*
G01*
X6959981Y-8229980D03*
G01*
X7169988Y-8229980D03*
G01*
X7379995Y-8229980D03*
G01*
X7579995Y-8229980D03*
G01*
X6959981Y-8019973D03*
G01*
X7169988Y-8019973D03*
G01*
X7379995Y-8019973D03*
G01*
X7579995Y-8019973D03*
G01*
X6959981Y-7809966D03*
G01*
X7169988Y-7809966D03*
G01*
X7379995Y-7809966D03*
G01*
X7579995Y-7809966D03*
G01*
X6959981Y-7599984D03*
G01*
X7169988Y-7599984D03*
G01*
X7379995Y-7599984D03*
G01*
X7579995Y-7599984D03*
G01*
X7579995Y-7389977D03*
G01*
X7379995Y-7389977D03*
G01*
X7169988Y-7389977D03*
G01*
X6959981Y-7389977D03*
G01*
X6739991Y-7389977D03*
G01*
X6739991Y-7599984D03*
G01*
X6739991Y-7809966D03*
G01*
X6739991Y-8019973D03*
G01*
X6739991Y-8229980D03*
D23*
G01*
X329996Y-3329990D03*
G01*
X5550001Y-3339998D03*
G01*
X5549620Y-9179991D03*
G01*
X9169984Y-9179991D03*
D25*
G01*
X2629992Y-5219979D03*
G01*
X2359990Y-4969992D03*
G01*
X3019983Y-5099989D03*
G01*
X3820007Y-5939993D03*
G01*
X4620006Y-5479999D03*
G01*
X4241800Y-5456402D03*
G01*
X4359986Y-5579998D03*
G01*
X4359986Y-5339994D03*
G01*
X4119981Y-5579998D03*
G01*
X4119981Y-5329986D03*
G01*
X559409Y-8119973D03*
G01*
X635609Y-8119973D03*
G01*
X711809Y-8119973D03*
G01*
X788009Y-8119973D03*
G01*
X864209Y-8119973D03*
G01*
X940409Y-8119973D03*
G01*
X1016609Y-8119973D03*
G01*
X1092809Y-8119973D03*
G01*
X1169009Y-8119973D03*
G01*
X1245209Y-8119973D03*
G01*
X1321409Y-8119973D03*
G01*
X1397609Y-8119973D03*
G01*
X1473809Y-8119973D03*
G01*
X1550009Y-8119973D03*
G01*
X1629994Y-8129981D03*
G01*
X1629994Y-7989976D03*
G01*
X1629994Y-7919973D03*
G01*
X1629994Y-7839989D03*
G01*
X1629384Y-7687995D03*
G01*
X1705584Y-7687995D03*
G01*
X1781784Y-7687995D03*
G01*
X1857984Y-7687995D03*
G01*
X1934184Y-7687995D03*
G01*
X2010384Y-7687995D03*
G01*
X2289987Y-7689977D03*
G01*
X2369997Y-7689977D03*
G01*
X2459990Y-7689977D03*
G01*
X2543784Y-7687995D03*
G01*
X2619984Y-7687995D03*
G01*
X2619984Y-7769987D03*
G01*
X2619984Y-7859979D03*
G01*
X2619984Y-7939989D03*
G01*
X2619984Y-8029981D03*
G01*
X2619984Y-8119973D03*
G01*
X2705201Y-8120964D03*
G01*
X2781401Y-8120964D03*
G01*
X2857601Y-8120964D03*
G01*
X2933801Y-8120964D03*
G01*
X3010001Y-8120964D03*
G01*
X3095193Y-8120964D03*
G01*
X3171393Y-8120964D03*
G01*
X3269995Y-8049996D03*
G01*
X3369995Y-8049996D03*
G01*
X3469995Y-8049996D03*
G01*
X3550005Y-8129981D03*
G01*
X3626205Y-8129981D03*
G01*
X3702405Y-8129981D03*
G01*
X3778605Y-8129981D03*
G01*
X559409Y-8379993D03*
G01*
X635609Y-8379993D03*
G01*
X711809Y-8379993D03*
G01*
X788009Y-8379993D03*
G01*
X864209Y-8379993D03*
G01*
X940409Y-8379993D03*
G01*
X1016609Y-8379993D03*
G01*
X1092809Y-8379993D03*
G01*
X1169009Y-8379993D03*
G01*
X1245209Y-8379993D03*
G01*
X1321409Y-8379993D03*
G01*
X1397609Y-8379993D03*
G01*
X1473809Y-8379993D03*
G01*
X1550009Y-8379993D03*
G01*
X1629994Y-8379993D03*
G01*
X1629994Y-8459978D03*
G01*
X1629994Y-8549995D03*
G01*
X1629994Y-8639987D03*
G01*
X1629994Y-8729979D03*
G01*
X1629384Y-8809989D03*
G01*
X1705584Y-8809989D03*
G01*
X1781784Y-8809989D03*
G01*
X1857984Y-8809989D03*
G01*
X1934184Y-8809989D03*
G01*
X2010384Y-8809989D03*
G01*
X2289987Y-8809989D03*
G01*
X2369997Y-8809989D03*
G01*
X2450007Y-8809989D03*
G01*
X2540000Y-8809989D03*
G01*
X2619984Y-8809989D03*
G01*
X2619984Y-8729979D03*
G01*
X2619984Y-8649995D03*
G01*
X2619984Y-8559977D03*
G01*
X2619984Y-8469985D03*
G01*
X2619984Y-8389975D03*
G01*
X2705988Y-8389975D03*
G01*
X2782188Y-8389975D03*
G01*
X2858388Y-8389975D03*
G01*
X2934588Y-8389975D03*
G01*
X3010788Y-8389975D03*
G01*
X3086988Y-8389975D03*
G01*
X3163188Y-8389975D03*
G01*
X3239388Y-8389975D03*
G01*
X3315588Y-8389975D03*
G01*
X3391788Y-8389975D03*
G01*
X3467988Y-8389975D03*
G01*
X3544188Y-8389975D03*
G01*
X3620388Y-8389975D03*
G01*
X3696588Y-8389975D03*
G01*
X3772788Y-8389975D03*
G01*
X3848988Y-8389975D03*
G01*
X3925188Y-8389975D03*
G01*
X4001388Y-8389975D03*
G01*
X4077588Y-8389975D03*
G01*
X4153788Y-8389975D03*
G01*
X4229988Y-8389975D03*
G01*
X4309999Y-8389975D03*
G01*
X4389983Y-8389975D03*
G01*
X4459986Y-8359978D03*
G01*
X4509998Y-8309990D03*
G01*
X4559985Y-8259978D03*
G01*
X4599990Y-8189976D03*
G01*
X4599990Y-8109991D03*
G01*
X4599990Y-8029981D03*
G01*
X4680000Y-8029981D03*
G01*
X4759985Y-8029981D03*
G01*
X4909997Y-8029981D03*
G01*
X4909997Y-7949996D03*
G01*
X4989982Y-7949996D03*
G01*
X5069992Y-7949996D03*
G01*
X5150002Y-7949996D03*
G01*
X4909997Y-7619974D03*
G01*
X4989982Y-7689977D03*
G01*
X5069992Y-7689977D03*
G01*
X4829987Y-7619974D03*
G01*
X4739995Y-7619974D03*
G01*
X4659985Y-7619974D03*
G01*
X4580000Y-7619974D03*
G01*
X4909997Y-7689977D03*
G01*
X4329988Y-7619974D03*
G01*
X4499990Y-7619974D03*
G01*
X4409998Y-7619974D03*
G01*
X4589983Y-6639991D03*
G01*
X4059986Y-7049998D03*
G01*
X4069994Y-6779996D03*
G01*
X556183Y-4009974D03*
G01*
X636193Y-4009974D03*
G01*
X716178Y-4009974D03*
G01*
X796188Y-4009974D03*
G01*
X876198Y-4009974D03*
G01*
X960196Y-4010583D03*
G01*
X1036396Y-4010583D03*
G01*
X1112596Y-4010583D03*
G01*
X1188796Y-4010583D03*
G01*
X1264996Y-4010583D03*
G01*
X1341196Y-4010583D03*
G01*
X1417396Y-4010583D03*
G01*
X1493596Y-4010583D03*
G01*
X1569796Y-4010583D03*
G01*
X1645996Y-4010583D03*
G01*
X1722196Y-4010583D03*
G01*
X1798396Y-4010583D03*
G01*
X1874596Y-4010583D03*
G01*
X1950796Y-4010583D03*
G01*
X2026996Y-4010583D03*
G01*
X2103196Y-4010583D03*
G01*
X2179396Y-4010583D03*
G01*
X2255596Y-4010583D03*
G01*
X2331796Y-4010583D03*
G01*
X2407996Y-4010583D03*
G01*
X2484196Y-4010583D03*
G01*
X2560396Y-4010583D03*
G01*
X2636596Y-4010583D03*
G01*
X2712796Y-4010583D03*
G01*
X2788996Y-4010583D03*
G01*
X2865196Y-4010583D03*
G01*
X2941396Y-4010583D03*
G01*
X3017596Y-4010583D03*
G01*
X3093796Y-4010583D03*
G01*
X558774Y-4228211D03*
G01*
X634974Y-4228211D03*
G01*
X711174Y-4228211D03*
G01*
X787374Y-4228211D03*
G01*
X863574Y-4228211D03*
G01*
X939774Y-4228211D03*
G01*
X1015974Y-4228211D03*
G01*
X1092174Y-4228211D03*
G01*
X1168374Y-4228211D03*
G01*
X1244574Y-4228211D03*
G01*
X1320774Y-4228211D03*
G01*
X1396974Y-4228211D03*
G01*
X1473174Y-4228211D03*
G01*
X1549374Y-4228211D03*
G01*
X1625574Y-4228211D03*
G01*
X1701774Y-4228211D03*
G01*
X1777974Y-4228211D03*
G01*
X1854174Y-4228211D03*
G01*
X1930374Y-4228211D03*
G01*
X2006574Y-4228211D03*
G01*
X2082774Y-4228211D03*
G01*
X2158974Y-4228211D03*
G01*
X2235174Y-4228211D03*
G01*
X2311374Y-4228211D03*
G01*
X2387574Y-4228211D03*
G01*
X2463774Y-4228211D03*
G01*
X2616174Y-4228211D03*
G01*
X2692374Y-4228211D03*
G01*
X2768574Y-4228211D03*
G01*
X2844774Y-4228211D03*
G01*
X2920974Y-4228211D03*
G01*
X2997174Y-4228211D03*
G01*
X3073374Y-4228211D03*
G01*
X3398596Y-4009999D03*
G01*
X3322396Y-4009999D03*
G01*
X3246196Y-4009999D03*
G01*
X3169996Y-4009999D03*
G01*
X3698595Y-4009999D03*
G01*
X3622395Y-4009999D03*
G01*
X3546195Y-4009999D03*
G01*
X3469995Y-4009999D03*
G01*
X4002404Y-3960012D03*
G01*
X3926204Y-3960012D03*
G01*
X3850004Y-3960012D03*
G01*
X3773804Y-3960012D03*
G01*
X4312411Y-3960012D03*
G01*
X4236211Y-3960012D03*
G01*
X4160011Y-3960012D03*
G01*
X4083811Y-3960012D03*
G01*
X4460011Y-3960012D03*
G01*
X4383811Y-3960012D03*
G01*
X2539974Y-4229988D03*
G01*
X3530981Y-4229988D03*
G01*
X3454781Y-4229988D03*
G01*
X3378581Y-4229988D03*
G01*
X3226181Y-4229988D03*
G01*
X3149981Y-4229988D03*
G01*
X3302381Y-4229988D03*
G01*
X4001008Y-4269994D03*
G01*
X3924808Y-4269994D03*
G01*
X3848608Y-4269994D03*
G01*
X3696182Y-4229988D03*
G01*
X3619982Y-4229988D03*
G01*
X3772408Y-4269994D03*
G01*
X4450003Y-4269994D03*
G01*
X4369993Y-4269994D03*
G01*
X4089984Y-4339996D03*
G01*
X4080002Y-4269994D03*
G01*
X4089984Y-4419980D03*
G01*
X4089984Y-4499990D03*
G01*
X4629988Y-5069992D03*
G01*
X4089984Y-4580001D03*
G01*
X4089984Y-4659985D03*
G01*
X4250004Y-4580001D03*
G01*
X4250004Y-4499990D03*
G01*
X4250004Y-4419980D03*
G01*
X4250004Y-4339996D03*
G01*
X4250004Y-4659985D03*
G01*
X4769993Y-3959987D03*
G01*
X4859985Y-3959987D03*
G01*
X4939995Y-3959987D03*
G01*
X4543780Y-3959987D03*
G01*
X4619980Y-3959987D03*
G01*
X4539995Y-4269994D03*
G01*
X559993Y-4309998D03*
G01*
X480009Y-4480001D03*
G01*
X399999Y-4480001D03*
G01*
X319989Y-4480001D03*
G01*
X232410Y-4480001D03*
G01*
X156210Y-4480001D03*
G01*
X80010Y-4480001D03*
G01*
X559993Y-4480001D03*
G01*
X559993Y-3739997D03*
G01*
X156210Y-3739997D03*
G01*
X232410Y-3739997D03*
G01*
X319989Y-3739997D03*
G01*
X399999Y-3739997D03*
G01*
X480009Y-3739997D03*
G01*
X80010Y-3739997D03*
G01*
X559993Y-4399991D03*
G01*
X559993Y-3829989D03*
G01*
X559993Y-3919981D03*
G01*
X1629994Y-7759979D03*
G01*
X4091000Y-8129981D03*
G01*
X4014800Y-8129981D03*
G01*
X3938600Y-8129981D03*
G01*
X3862400Y-8129981D03*
G01*
X4329988Y-7939989D03*
G01*
X4329988Y-8109991D03*
G01*
X4248607Y-8129981D03*
G01*
X4172407Y-8129981D03*
G01*
X5229986Y-7689977D03*
G01*
X5150002Y-7689977D03*
G01*
X5229986Y-7949996D03*
G01*
X5309997Y-7949996D03*
G01*
X5309997Y-7689977D03*
G01*
X4829987Y-8029981D03*
G01*
X559993Y-7859979D03*
G01*
X80010Y-7859979D03*
G01*
X156210Y-7859979D03*
G01*
X232410Y-7859979D03*
G01*
X319989Y-7859979D03*
G01*
X399999Y-7859979D03*
G01*
X480009Y-7859979D03*
G01*
X559993Y-8629980D03*
G01*
X80010Y-8629980D03*
G01*
X156210Y-8629980D03*
G01*
X232410Y-8629980D03*
G01*
X319989Y-8629980D03*
G01*
X399999Y-8629980D03*
G01*
X480009Y-8629980D03*
G01*
X5739993Y-7399985D03*
G01*
X5309997Y-7399985D03*
G01*
X5399989Y-7399985D03*
G01*
X5489981Y-7399985D03*
G01*
X5569991Y-7399985D03*
G01*
X5650001Y-7399985D03*
G01*
X5729986Y-8189976D03*
G01*
X5309997Y-8109991D03*
G01*
X5309997Y-8189976D03*
G01*
X5399989Y-8189976D03*
G01*
X5479999Y-8189976D03*
G01*
X5559983Y-8189976D03*
G01*
X5650001Y-8189976D03*
G01*
X5309997Y-7469987D03*
G01*
X5309997Y-7539989D03*
G01*
X5309997Y-7609992D03*
G01*
X5309997Y-8029981D03*
G01*
X559993Y-7949996D03*
G01*
X559993Y-8039988D03*
G01*
X559993Y-8459978D03*
G01*
X559993Y-8539987D03*
G01*
X4609998Y-4269994D03*
G01*
X4289983Y-4269994D03*
G01*
X2010587Y-7841995D03*
G01*
X2010003Y-7769987D03*
G01*
X2010587Y-7921980D03*
G01*
X2010587Y-8001990D03*
G01*
X2010587Y-8081975D03*
G01*
X2010587Y-8161985D03*
G01*
X2290597Y-7841995D03*
G01*
X2289987Y-7769987D03*
G01*
X2290597Y-7921980D03*
G01*
X2290597Y-8001990D03*
G01*
X2290597Y-8081975D03*
G01*
X2290597Y-8161985D03*
G01*
X2010587Y-8311997D03*
G01*
X2010003Y-8239988D03*
G01*
X2010003Y-8389975D03*
G01*
X2010587Y-8471992D03*
G01*
X2010003Y-8559977D03*
G01*
X2010003Y-8649995D03*
G01*
X2290597Y-8311997D03*
G01*
X2289987Y-8239988D03*
G01*
X2289987Y-8399983D03*
G01*
X2289987Y-8479993D03*
G01*
X2289987Y-8559977D03*
G01*
X2289987Y-8649995D03*
G01*
X2010003Y-8729979D03*
G01*
X2289987Y-8729979D03*
G01*
X459994Y-4889982D03*
G01*
X859993Y-4889982D03*
G01*
X2229993Y-6079997D03*
G01*
X5829985Y-7399985D03*
G01*
X5829985Y-7469987D03*
G01*
X5829985Y-7539989D03*
G01*
X5829985Y-7609992D03*
G01*
X5829985Y-7689977D03*
G01*
X5829985Y-7769987D03*
G01*
X5829985Y-7849996D03*
G01*
X5829985Y-7939989D03*
G01*
X5829985Y-8019973D03*
G01*
X5829985Y-8189976D03*
G01*
X5829985Y-8109991D03*
G01*
X8389975Y-7809992D03*
G01*
X8749995Y-7399985D03*
G01*
X8739987Y-8199983D03*
G01*
X3369995Y-4619980D03*
G01*
X5429986Y-4489983D03*
G01*
X5089982Y-4899990D03*
G01*
X5429986Y-4969992D03*
G01*
X5019979Y-5950000D03*
G01*
X5089982Y-5419979D03*
G01*
X4709998Y-5750001D03*
G01*
X4259986Y-5009997D03*
G01*
X4539995Y-4939995D03*
G01*
X3949979Y-6350000D03*
G01*
X4189984Y-6209995D03*
G01*
X4504994Y-6354978D03*
G01*
X4809997Y-6309995D03*
G01*
X4809997Y-6059982D03*
G01*
X5229986Y-6150000D03*
G01*
X5429986Y-5419979D03*
G01*
X5429986Y-5909995D03*
G01*
X5039995Y-6629984D03*
G01*
X5369991Y-6769988D03*
G01*
X5250002Y-7109993D03*
G01*
X4909997Y-7189978D03*
G01*
X4909997Y-7479995D03*
G01*
X3989984Y-7189978D03*
G01*
X3989984Y-7479995D03*
G01*
X3989984Y-7819974D03*
G01*
X3899992Y-5799988D03*
G01*
X3769995Y-4589983D03*
G01*
X2149983Y-5579973D03*
G01*
X2149983Y-4799990D03*
G01*
X2939999Y-4639995D03*
G01*
X3119983Y-4929987D03*
G01*
X3180003Y-5159984D03*
G01*
X3180003Y-5289981D03*
G01*
X2389987Y-6289979D03*
G01*
X3139998Y-6169990D03*
G01*
X2759989Y-7049973D03*
G01*
X2229993Y-7109993D03*
G01*
X1859991Y-7109993D03*
G01*
X1289989Y-5909970D03*
G01*
X980008Y-6859981D03*
G01*
X4480001Y-7479995D03*
G01*
X6429984Y-7049998D03*
G01*
X6429984Y-8649995D03*
G01*
X6369989Y-9429978D03*
G01*
X6429984Y-7949996D03*
G01*
X5619978Y-7119975D03*
G01*
X6129985Y-6809994D03*
G01*
X3569995Y-6869988D03*
G01*
X830021Y-9059976D03*
G01*
X1350010Y-9049994D03*
G01*
X2899994Y-9049994D03*
G01*
X5429986Y-4109999D03*
G01*
X2149983Y-4519980D03*
G01*
X2499995Y-4519980D03*
G01*
X3680002Y-5009997D03*
G01*
X4329988Y-7779994D03*
G01*
X4329988Y-7859979D03*
G01*
X4329988Y-7699984D03*
G01*
X4609998Y-4609998D03*
G01*
X2689986Y-6350000D03*
G01*
X2949981Y-6350000D03*
G01*
X1940001Y-6849973D03*
G01*
X2229993Y-5749975D03*
G01*
X2219985Y-6399987D03*
G01*
X2769997Y-5459984D03*
G01*
X4089984Y-4909997D03*
G01*
X4259986Y-4909997D03*
G01*
X4109999Y-5009997D03*
G01*
X4499990Y-5159984D03*
G01*
X4499990Y-5759983D03*
G01*
X3989984Y-5759983D03*
G01*
X4709998Y-5250002D03*
G01*
X4709998Y-5550001D03*
G01*
X9409963Y-6949998D03*
G01*
X9399981Y-6339992D03*
G01*
X9399981Y-5739993D03*
G01*
X8099983Y-9419970D03*
G01*
X7509992Y-9409963D03*
G01*
X559993Y-3069996D03*
G01*
X1799996Y-3069996D03*
G01*
X2489987Y-3069996D03*
G01*
X3399993Y-3069996D03*
G01*
X4709998Y-3069996D03*
G01*
X7059980Y-3069996D03*
G01*
X8019973Y-3069996D03*
G01*
X9399981Y-4199991D03*
G01*
X9399981Y-4980000D03*
G01*
X9419970Y-8659977D03*
G01*
X329996Y-8949994D03*
G01*
X629996Y-9419970D03*
G01*
X1089990Y-9419970D03*
G01*
X1659991Y-9419970D03*
G01*
X2469997Y-9419970D03*
G01*
X3310000Y-9419970D03*
G01*
X4399991Y-9419970D03*
G01*
X80010Y-4889982D03*
G01*
X80010Y-6150000D03*
G01*
X80010Y-7479995D03*
G01*
X8389975Y-7559979D03*
G01*
X8389975Y-8059978D03*
G01*
X8529980Y-7399985D03*
G01*
X8529980Y-8199983D03*
G01*
X8929979Y-8199983D03*
G01*
X8929979Y-7399985D03*
G01*
X3489985Y-5959982D03*
G01*
X3819982Y-6169990D03*
G01*
X3489985Y-5729986D03*
G01*
X3310000Y-8759977D03*
G01*
X4399991Y-8759977D03*
G01*
X5029987Y-8479993D03*
G01*
X3229990Y-7189978D03*
G01*
X750011Y-6150000D03*
G01*
X7169988Y-6050000D03*
G01*
X5709970Y-6050000D03*
G01*
X8619972Y-6050000D03*
G01*
X5709970Y-6519976D03*
G01*
X5709996Y-8649995D03*
G01*
X8619972Y-6519976D03*
G01*
X8619972Y-8759977D03*
G01*
X6549999Y-6050000D03*
G01*
X7929981Y-6050000D03*
G01*
X8619972Y-7019975D03*
G01*
X99999Y-9179991D03*
G01*
X550011Y-9179991D03*
G01*
X329996Y-9409988D03*
G01*
X80010Y-8839987D03*
G01*
X9169984Y-3569995D03*
G01*
X9389973Y-3329990D03*
G01*
X8939987Y-3329990D03*
G01*
X9169984Y-3110001D03*
G01*
X1189989Y-3069996D03*
G01*
X5709996Y-5569991D03*
G01*
X5709996Y-4980000D03*
G01*
X5709996Y-3969994D03*
G01*
X749985Y-7479969D03*
G01*
X80010Y-7679994D03*
G01*
X6109995Y-8189976D03*
G01*
X5839993Y-6799986D03*
G01*
X5839993Y-7119975D03*
G01*
X329996Y-3099993D03*
G01*
X99999Y-3329990D03*
G01*
X550011Y-3329990D03*
G01*
X329996Y-3559987D03*
G01*
X5320004Y-3329990D03*
G01*
X5550001Y-3110001D03*
G01*
X5769990Y-3329990D03*
G01*
X5550001Y-3569995D03*
G01*
X5320004Y-9179991D03*
G01*
X5549620Y-8949994D03*
G01*
X5769990Y-9179991D03*
G01*
X5549620Y-9409988D03*
G01*
X8939987Y-9179991D03*
G01*
X9169984Y-8949994D03*
G01*
X9389973Y-9179991D03*
G01*
X9169984Y-9409988D03*
G01*
X9229979Y-7399985D03*
G01*
X9229979Y-8199983D03*
G01*
X4329988Y-8019973D03*
G01*
X4689983Y-3959987D03*
G01*
X4680000Y-4269994D03*
G01*
X5709996Y-4580001D03*
G01*
X5709996Y-8369985D03*
G01*
X1629994Y-8059978D03*
G01*
X6209995Y-4580001D03*
G01*
X6209995Y-5569991D03*
G01*
X6209995Y-3069996D03*
G01*
X5029987Y-3959987D03*
G01*
X5129987Y-3959987D03*
G01*
X5129987Y-4039996D03*
G01*
X5129987Y-4129989D03*
G01*
X5129987Y-4219981D03*
G01*
X5129987Y-4309998D03*
G01*
X5129987Y-4399991D03*
G01*
X5129987Y-4489983D03*
G01*
X5129987Y-4589983D03*
G01*
X4869992Y-4539995D03*
G01*
X4759985Y-4609998D03*
G01*
X4680000Y-4389983D03*
G01*
X4399991Y-4450003D03*
G01*
X4469993Y-4399991D03*
G01*
X4569993Y-4389983D03*
G01*
X4339996Y-4529988D03*
G01*
X4509998Y-4639995D03*
G01*
X5250002Y-4589983D03*
G01*
X5429986Y-4759985D03*
G01*
X5369991Y-4650003D03*
G01*
X4709998Y-4939995D03*
M02*
