G04 Layer: TopPasteMaskLayer*
G04 EasyEDA v6.5.51, 2025-10-24 11:51:23*
G04 97615f8f373a41e584ce2743ba089a90,41e67a4a1722464fbd0118792d3d5ae6,10*
G04 Gerber Generator version 0.2*
G04 Scale: 100 percent, Rotated: No, Reflected: No *
G04 Dimensions in millimeters *
G04 leading zeros omitted , absolute positions ,4 integer and 5 decimal *
%FSLAX45Y45*%
%MOMM*%

%AMMACRO1*21,1,$1,$2,0,0,$3*%
%ADD10R,12.5000X12.5000*%
%ADD11R,8.0000X11.0000*%
%ADD12R,1.2000X1.4000*%
%ADD13MACRO1,1.2X1.4X0.0000*%
%ADD14R,4.6000X1.6000*%
%ADD15R,0.7000X1.2500*%
%ADD16R,2.0000X3.0000*%
%ADD17R,0.0121X3.0000*%
%ADD18R,0.2000X0.2750*%
%ADD19R,4.8000X1.2000*%
%ADD20R,1.6500X2.5400*%
%ADD21MACRO1,2.592X2.185X90.0000*%
%ADD22R,2.1850X2.5920*%
%ADD23R,0.9800X2.4600*%
%ADD24R,3.5000X1.5000*%
%ADD25R,0.6720X1.5750*%
%ADD26R,1.1000X2.2000*%
%ADD27O,2.250008X0.629996*%
%ADD28R,0.3500X0.7800*%
%ADD29R,0.8000X0.8000*%
%ADD30R,4.0000X1.2000*%
%ADD31R,4.0000X2.2000*%

%LPD*%
G36*
X1720494Y-6780987D02*
G01*
X1715465Y-6785965D01*
X1715973Y-6827977D01*
X1759966Y-6827977D01*
X1759966Y-6872986D01*
X1714957Y-6872986D01*
X1715465Y-6913981D01*
X1720494Y-6918959D01*
X1835505Y-6918959D01*
X1840484Y-6913981D01*
X1840484Y-6785965D01*
X1835505Y-6780987D01*
G37*
G36*
X1504492Y-6780987D02*
G01*
X1499463Y-6785965D01*
X1499463Y-6913981D01*
X1504492Y-6918959D01*
X1619504Y-6918959D01*
X1624482Y-6913981D01*
X1623974Y-6871970D01*
X1579981Y-6871970D01*
X1579981Y-6827012D01*
X1624990Y-6827012D01*
X1624482Y-6785965D01*
X1619504Y-6780987D01*
G37*
G36*
X4704486Y-4700981D02*
G01*
X4699508Y-4706010D01*
X4699508Y-4833975D01*
X4704486Y-4839004D01*
X4819497Y-4839004D01*
X4824476Y-4833975D01*
X4824018Y-4792014D01*
X4779975Y-4792014D01*
X4779975Y-4747006D01*
X4824984Y-4747006D01*
X4824476Y-4706010D01*
X4819497Y-4700981D01*
G37*
G36*
X4920488Y-4700981D02*
G01*
X4915509Y-4706010D01*
X4915966Y-4747971D01*
X4959959Y-4747971D01*
X4959959Y-4792980D01*
X4915001Y-4792980D01*
X4915509Y-4833975D01*
X4920488Y-4839004D01*
X5035499Y-4839004D01*
X5040477Y-4833975D01*
X5040477Y-4706010D01*
X5035499Y-4700981D01*
G37*
G36*
X2390089Y-8333587D02*
G01*
X2380081Y-8343595D01*
X2380081Y-8437626D01*
X2390089Y-8447633D01*
X2413711Y-8447633D01*
X2423668Y-8457641D01*
X2423668Y-8555126D01*
X2413711Y-8565134D01*
X2390089Y-8565134D01*
X2380081Y-8575141D01*
X2380081Y-8669172D01*
X2390089Y-8679180D01*
X2498344Y-8679180D01*
X2508351Y-8669172D01*
X2508351Y-8343595D01*
X2498344Y-8333587D01*
G37*
G36*
X1776831Y-8333587D02*
G01*
X1766824Y-8343595D01*
X1766824Y-8669172D01*
X1776831Y-8679180D01*
X1885086Y-8679180D01*
X1895093Y-8669172D01*
X1895093Y-8575141D01*
X1885086Y-8565134D01*
X1861464Y-8565134D01*
X1851456Y-8555126D01*
X1851456Y-8457641D01*
X1861464Y-8447633D01*
X1885086Y-8447633D01*
X1895093Y-8437626D01*
X1895093Y-8343595D01*
X1885086Y-8333587D01*
G37*
G36*
X675386Y-8184438D02*
G01*
X665378Y-8194446D01*
X665378Y-8302701D01*
X675386Y-8312708D01*
X769416Y-8312708D01*
X779424Y-8302701D01*
X779424Y-8279079D01*
X789432Y-8269122D01*
X886917Y-8269122D01*
X896924Y-8279079D01*
X896924Y-8302701D01*
X906932Y-8312708D01*
X1001014Y-8312708D01*
X1010970Y-8302701D01*
X1010970Y-8194446D01*
X1001014Y-8184438D01*
G37*
G36*
X675386Y-8797696D02*
G01*
X665378Y-8807704D01*
X665378Y-8915958D01*
X675386Y-8925966D01*
X1001014Y-8925966D01*
X1010970Y-8915958D01*
X1010970Y-8807704D01*
X1001014Y-8797696D01*
X906932Y-8797696D01*
X896924Y-8807704D01*
X896924Y-8831326D01*
X886917Y-8841333D01*
X789432Y-8841333D01*
X779424Y-8831326D01*
X779424Y-8807704D01*
X769416Y-8797696D01*
G37*
G36*
X1197203Y-8189214D02*
G01*
X1187196Y-8199221D01*
X1187196Y-8307476D01*
X1197203Y-8317484D01*
X1291234Y-8317484D01*
X1301242Y-8307476D01*
X1301242Y-8283854D01*
X1311249Y-8273897D01*
X1408734Y-8273897D01*
X1418742Y-8283854D01*
X1418742Y-8307476D01*
X1428750Y-8317484D01*
X1522780Y-8317484D01*
X1532788Y-8307476D01*
X1532788Y-8199221D01*
X1522780Y-8189214D01*
G37*
G36*
X1197203Y-8802471D02*
G01*
X1187196Y-8812479D01*
X1187196Y-8920734D01*
X1197203Y-8930741D01*
X1522780Y-8930741D01*
X1532788Y-8920734D01*
X1532788Y-8812479D01*
X1522780Y-8802471D01*
X1428750Y-8802471D01*
X1418742Y-8812479D01*
X1418742Y-8836101D01*
X1408734Y-8846108D01*
X1311249Y-8846108D01*
X1301242Y-8836101D01*
X1301242Y-8812479D01*
X1291234Y-8802471D01*
G37*
G36*
X2737205Y-8189214D02*
G01*
X2727198Y-8199221D01*
X2727198Y-8307476D01*
X2737205Y-8317484D01*
X2831236Y-8317484D01*
X2841244Y-8307476D01*
X2841244Y-8283854D01*
X2851251Y-8273897D01*
X2948736Y-8273897D01*
X2958744Y-8283854D01*
X2958744Y-8307476D01*
X2968752Y-8317484D01*
X3062782Y-8317484D01*
X3072790Y-8307476D01*
X3072790Y-8199221D01*
X3062782Y-8189214D01*
G37*
G36*
X2737205Y-8802471D02*
G01*
X2727198Y-8812479D01*
X2727198Y-8920734D01*
X2737205Y-8930741D01*
X3062782Y-8930741D01*
X3072790Y-8920734D01*
X3072790Y-8812479D01*
X3062782Y-8802471D01*
X2968752Y-8802471D01*
X2958744Y-8812479D01*
X2958744Y-8836101D01*
X2948736Y-8846108D01*
X2851251Y-8846108D01*
X2841244Y-8836101D01*
X2841244Y-8812479D01*
X2831236Y-8802471D01*
G37*
G36*
X2875991Y-6599478D02*
G01*
X2870962Y-6604508D01*
X2870962Y-6719468D01*
X2875991Y-6724497D01*
X2918002Y-6723989D01*
X2918002Y-6679996D01*
X2962960Y-6679996D01*
X2962960Y-6725005D01*
X3003956Y-6724497D01*
X3008985Y-6719468D01*
X3008985Y-6604508D01*
X3003956Y-6599478D01*
G37*
G36*
X2916986Y-6814972D02*
G01*
X2875991Y-6815480D01*
X2870962Y-6820458D01*
X2870962Y-6935470D01*
X2875991Y-6940499D01*
X3004007Y-6940499D01*
X3008985Y-6935470D01*
X3008985Y-6820458D01*
X3004007Y-6815480D01*
X2961995Y-6815988D01*
X2961995Y-6859981D01*
X2916986Y-6859981D01*
G37*
G36*
X4186986Y-6894982D02*
G01*
X4145991Y-6895490D01*
X4141012Y-6900468D01*
X4141012Y-7015480D01*
X4145991Y-7020458D01*
X4274007Y-7020458D01*
X4278985Y-7015480D01*
X4278985Y-6900468D01*
X4274007Y-6895490D01*
X4231995Y-6895998D01*
X4231995Y-6939991D01*
X4186986Y-6939991D01*
G37*
G36*
X4145991Y-6679488D02*
G01*
X4141012Y-6684467D01*
X4141012Y-6799478D01*
X4145991Y-6804507D01*
X4188002Y-6803999D01*
X4188002Y-6760006D01*
X4233011Y-6760006D01*
X4233011Y-6805015D01*
X4274007Y-6804507D01*
X4278985Y-6799478D01*
X4278985Y-6684467D01*
X4274007Y-6679488D01*
G37*
G36*
X4381144Y-6696709D02*
G01*
X4371136Y-6706717D01*
X4371136Y-6775500D01*
X4417974Y-6814007D01*
X4462018Y-6814007D01*
X4508855Y-6775500D01*
X4508855Y-6706717D01*
X4498848Y-6696709D01*
G37*
G36*
X4417974Y-6885990D02*
G01*
X4371136Y-6924497D01*
X4371136Y-6993229D01*
X4381144Y-7003237D01*
X4498848Y-7003237D01*
X4508855Y-6993229D01*
X4508855Y-6924497D01*
X4462018Y-6885990D01*
G37*
G36*
X2390089Y-7823606D02*
G01*
X2380081Y-7833614D01*
X2380081Y-7927644D01*
X2390089Y-7937652D01*
X2413711Y-7937652D01*
X2423668Y-7947659D01*
X2423668Y-8045145D01*
X2413711Y-8055152D01*
X2390089Y-8055152D01*
X2380081Y-8065160D01*
X2380081Y-8159191D01*
X2390089Y-8169198D01*
X2498344Y-8169198D01*
X2508351Y-8159191D01*
X2508351Y-7833614D01*
X2498344Y-7823606D01*
G37*
G36*
X1776831Y-7823606D02*
G01*
X1766824Y-7833614D01*
X1766824Y-8159191D01*
X1776831Y-8169198D01*
X1885086Y-8169198D01*
X1895093Y-8159191D01*
X1895093Y-8065160D01*
X1885086Y-8055152D01*
X1861464Y-8055152D01*
X1851456Y-8045145D01*
X1851456Y-7947659D01*
X1861464Y-7937652D01*
X1885086Y-7937652D01*
X1895093Y-7927644D01*
X1895093Y-7833614D01*
X1885086Y-7823606D01*
G37*
G36*
X2550007Y-4690973D02*
G01*
X2544978Y-4696002D01*
X2545486Y-4737963D01*
X2589479Y-4737963D01*
X2589479Y-4782972D01*
X2544470Y-4782972D01*
X2544978Y-4823968D01*
X2550007Y-4828997D01*
X2665018Y-4828997D01*
X2669997Y-4823968D01*
X2669997Y-4696002D01*
X2665018Y-4690973D01*
G37*
G36*
X2335022Y-4690973D02*
G01*
X2329992Y-4696002D01*
X2329992Y-4823968D01*
X2335022Y-4828997D01*
X2449982Y-4828997D01*
X2455011Y-4823968D01*
X2454503Y-4782972D01*
X2410510Y-4782972D01*
X2410510Y-4737963D01*
X2455011Y-4737963D01*
X2455011Y-4696002D01*
X2449982Y-4690973D01*
G37*
G36*
X4644999Y-6871004D02*
G01*
X4639970Y-6875983D01*
X4639970Y-7003999D01*
X4644999Y-7008977D01*
X4760010Y-7008977D01*
X4764989Y-7003999D01*
X4764481Y-6961987D01*
X4720488Y-6961987D01*
X4720488Y-6916978D01*
X4765497Y-6916978D01*
X4764989Y-6875983D01*
X4760010Y-6871004D01*
G37*
G36*
X4859985Y-6871004D02*
G01*
X4855006Y-6875983D01*
X4855514Y-6916978D01*
X4899507Y-6916978D01*
X4899507Y-6961987D01*
X4855006Y-6961987D01*
X4855006Y-7003999D01*
X4859985Y-7008977D01*
X4974996Y-7008977D01*
X4979974Y-7003999D01*
X4979974Y-6875983D01*
X4974996Y-6871004D01*
G37*
G36*
X4401769Y-5166410D02*
G01*
X4401769Y-5246420D01*
X4431792Y-5246420D01*
X4431792Y-5166410D01*
G37*
G36*
X4051808Y-5166410D02*
G01*
X4051808Y-5246420D01*
X4081779Y-5246420D01*
X4081779Y-5166410D01*
G37*
G36*
X4351832Y-5166410D02*
G01*
X4351832Y-5246420D01*
X4381804Y-5246420D01*
X4381804Y-5166410D01*
G37*
G36*
X4301794Y-5166410D02*
G01*
X4301794Y-5246420D01*
X4331766Y-5246420D01*
X4331766Y-5166410D01*
G37*
G36*
X4251807Y-5166410D02*
G01*
X4251807Y-5246420D01*
X4281779Y-5246420D01*
X4281779Y-5166410D01*
G37*
G36*
X4101795Y-5166410D02*
G01*
X4101795Y-5246420D01*
X4131767Y-5246420D01*
X4131767Y-5166410D01*
G37*
G36*
X4201820Y-5166410D02*
G01*
X4201820Y-5246420D01*
X4231741Y-5246420D01*
X4231741Y-5166410D01*
G37*
G36*
X4151833Y-5166410D02*
G01*
X4151833Y-5246420D01*
X4181754Y-5246420D01*
X4181754Y-5166410D01*
G37*
G36*
X4451807Y-5266385D02*
G01*
X4451807Y-5296408D01*
X4531766Y-5296408D01*
X4531766Y-5266385D01*
G37*
G36*
X3951782Y-5266385D02*
G01*
X3951782Y-5296408D01*
X4031792Y-5296408D01*
X4031792Y-5266385D01*
G37*
G36*
X3951782Y-5316372D02*
G01*
X3951782Y-5346395D01*
X4031792Y-5346395D01*
X4031792Y-5316372D01*
G37*
G36*
X4451807Y-5316372D02*
G01*
X4451807Y-5346395D01*
X4531766Y-5346395D01*
X4531766Y-5316372D01*
G37*
G36*
X3951782Y-5366410D02*
G01*
X3951782Y-5396382D01*
X4031792Y-5396382D01*
X4031792Y-5366410D01*
G37*
G36*
X4451807Y-5366410D02*
G01*
X4451807Y-5396382D01*
X4531766Y-5396382D01*
X4531766Y-5366410D01*
G37*
G36*
X3951782Y-5416397D02*
G01*
X3951782Y-5446369D01*
X4031792Y-5446369D01*
X4031792Y-5416397D01*
G37*
G36*
X4451807Y-5416397D02*
G01*
X4451807Y-5446369D01*
X4531766Y-5446369D01*
X4531766Y-5416397D01*
G37*
G36*
X4451807Y-5466384D02*
G01*
X4451807Y-5496407D01*
X4531766Y-5496407D01*
X4531766Y-5466384D01*
G37*
G36*
X3951782Y-5466384D02*
G01*
X3951782Y-5496407D01*
X4031792Y-5496407D01*
X4031792Y-5466384D01*
G37*
G36*
X3951782Y-5516372D02*
G01*
X3951782Y-5546394D01*
X4031792Y-5546394D01*
X4031792Y-5516372D01*
G37*
G36*
X4451807Y-5516372D02*
G01*
X4451807Y-5546394D01*
X4531766Y-5546394D01*
X4531766Y-5516372D01*
G37*
G36*
X3951782Y-5566410D02*
G01*
X3951782Y-5596382D01*
X4031792Y-5596382D01*
X4031792Y-5566410D01*
G37*
G36*
X4451807Y-5566410D02*
G01*
X4451807Y-5596382D01*
X4531766Y-5596382D01*
X4531766Y-5566410D01*
G37*
G36*
X3951782Y-5616397D02*
G01*
X3951782Y-5646369D01*
X4031792Y-5646369D01*
X4031792Y-5616397D01*
G37*
G36*
X4451807Y-5616397D02*
G01*
X4451807Y-5646369D01*
X4531766Y-5646369D01*
X4531766Y-5616397D01*
G37*
G36*
X4051808Y-5666384D02*
G01*
X4051808Y-5746394D01*
X4081779Y-5746394D01*
X4081779Y-5666384D01*
G37*
G36*
X4401769Y-5666384D02*
G01*
X4401769Y-5746394D01*
X4431792Y-5746394D01*
X4431792Y-5666384D01*
G37*
G36*
X4101795Y-5666384D02*
G01*
X4101795Y-5746394D01*
X4131767Y-5746394D01*
X4131767Y-5666384D01*
G37*
G36*
X4151833Y-5666384D02*
G01*
X4151833Y-5746394D01*
X4181754Y-5746394D01*
X4181754Y-5666384D01*
G37*
G36*
X4351832Y-5666384D02*
G01*
X4351832Y-5746394D01*
X4381804Y-5746394D01*
X4381804Y-5666384D01*
G37*
G36*
X4201820Y-5666384D02*
G01*
X4201820Y-5746394D01*
X4231741Y-5746394D01*
X4231741Y-5666384D01*
G37*
G36*
X4251807Y-5666384D02*
G01*
X4251807Y-5746394D01*
X4281779Y-5746394D01*
X4281779Y-5666384D01*
G37*
G36*
X4301794Y-5666384D02*
G01*
X4301794Y-5746394D01*
X4331766Y-5746394D01*
X4331766Y-5666384D01*
G37*
G36*
X4117797Y-5332374D02*
G01*
X4117797Y-5580380D01*
X4365802Y-5580380D01*
X4365802Y-5332374D01*
G37*
G36*
X4894275Y-5467502D02*
G01*
X4890312Y-5471515D01*
X4890312Y-5517489D01*
X4894275Y-5521502D01*
X4944364Y-5521502D01*
X4948377Y-5517489D01*
X4948377Y-5471515D01*
X4944364Y-5467502D01*
G37*
G36*
X4809236Y-5467502D02*
G01*
X4805222Y-5471515D01*
X4805222Y-5517489D01*
X4809236Y-5521502D01*
X4859274Y-5521502D01*
X4863287Y-5517489D01*
X4863287Y-5471515D01*
X4859274Y-5467502D01*
G37*
G36*
X4826254Y-5085994D02*
G01*
X4821224Y-5091023D01*
X4821224Y-5135981D01*
X4826254Y-5141010D01*
X4874260Y-5141010D01*
X4881219Y-5135981D01*
X4881219Y-5091023D01*
X4874260Y-5085994D01*
G37*
G36*
X4924247Y-5085994D02*
G01*
X4917236Y-5091023D01*
X4917236Y-5135981D01*
X4924247Y-5141010D01*
X4972253Y-5141010D01*
X4977231Y-5135981D01*
X4977231Y-5091023D01*
X4972253Y-5085994D01*
G37*
G36*
X4924247Y-4958994D02*
G01*
X4917236Y-4964023D01*
X4917236Y-5008981D01*
X4924247Y-5014010D01*
X4972253Y-5014010D01*
X4977231Y-5008981D01*
X4977231Y-4964023D01*
X4972253Y-4958994D01*
G37*
G36*
X4826254Y-4958994D02*
G01*
X4821224Y-4964023D01*
X4821224Y-5008981D01*
X4826254Y-5014010D01*
X4874260Y-5014010D01*
X4881219Y-5008981D01*
X4881219Y-4964023D01*
X4874260Y-4958994D01*
G37*
G36*
X4826254Y-5339994D02*
G01*
X4821224Y-5345023D01*
X4821224Y-5389981D01*
X4826254Y-5395010D01*
X4874260Y-5395010D01*
X4881219Y-5389981D01*
X4881219Y-5345023D01*
X4874260Y-5339994D01*
G37*
G36*
X4924247Y-5339994D02*
G01*
X4917236Y-5345023D01*
X4917236Y-5389981D01*
X4924247Y-5395010D01*
X4972253Y-5395010D01*
X4977231Y-5389981D01*
X4977231Y-5345023D01*
X4972253Y-5339994D01*
G37*
G36*
X4549495Y-5957011D02*
G01*
X4544466Y-5964021D01*
X4544466Y-6012027D01*
X4549495Y-6017006D01*
X4594504Y-6017006D01*
X4599482Y-6012027D01*
X4599482Y-5964021D01*
X4594504Y-5957011D01*
G37*
G36*
X4549495Y-5860999D02*
G01*
X4544466Y-5866028D01*
X4544466Y-5913983D01*
X4549495Y-5920994D01*
X4594504Y-5920994D01*
X4599482Y-5913983D01*
X4599482Y-5866028D01*
X4594504Y-5860999D01*
G37*
G36*
X4421987Y-5844997D02*
G01*
X4417974Y-5849010D01*
X4417974Y-5898642D01*
X4436364Y-5925515D01*
X4453636Y-5925515D01*
X4471974Y-5898642D01*
X4471974Y-5849010D01*
X4468012Y-5844997D01*
G37*
G36*
X4436364Y-5952490D02*
G01*
X4417974Y-5979363D01*
X4417974Y-6028994D01*
X4421987Y-6033008D01*
X4468012Y-6033008D01*
X4471974Y-6028994D01*
X4471974Y-5979363D01*
X4453636Y-5952490D01*
G37*
G36*
X4924247Y-5212994D02*
G01*
X4917236Y-5218023D01*
X4917236Y-5262981D01*
X4924247Y-5268010D01*
X4972253Y-5268010D01*
X4977231Y-5262981D01*
X4977231Y-5218023D01*
X4972253Y-5212994D01*
G37*
G36*
X4826254Y-5212994D02*
G01*
X4821224Y-5218023D01*
X4821224Y-5262981D01*
X4826254Y-5268010D01*
X4874260Y-5268010D01*
X4881219Y-5262981D01*
X4881219Y-5218023D01*
X4874260Y-5212994D01*
G37*
G36*
X4826254Y-5593994D02*
G01*
X4821224Y-5599023D01*
X4821224Y-5643981D01*
X4826254Y-5649010D01*
X4874260Y-5649010D01*
X4881219Y-5643981D01*
X4881219Y-5599023D01*
X4874260Y-5593994D01*
G37*
G36*
X4924247Y-5593994D02*
G01*
X4917236Y-5599023D01*
X4917236Y-5643981D01*
X4924247Y-5649010D01*
X4972253Y-5649010D01*
X4977231Y-5643981D01*
X4977231Y-5599023D01*
X4972253Y-5593994D01*
G37*
G36*
X4924247Y-5720994D02*
G01*
X4917236Y-5726023D01*
X4917236Y-5770981D01*
X4924247Y-5776010D01*
X4972253Y-5776010D01*
X4977231Y-5770981D01*
X4977231Y-5726023D01*
X4972253Y-5720994D01*
G37*
G36*
X4826254Y-5720994D02*
G01*
X4821224Y-5726023D01*
X4821224Y-5770981D01*
X4826254Y-5776010D01*
X4874260Y-5776010D01*
X4881219Y-5770981D01*
X4881219Y-5726023D01*
X4874260Y-5720994D01*
G37*
G36*
X4676495Y-5860999D02*
G01*
X4671517Y-5866028D01*
X4671517Y-5913983D01*
X4676495Y-5920994D01*
X4721504Y-5920994D01*
X4726482Y-5913983D01*
X4726482Y-5866028D01*
X4721504Y-5860999D01*
G37*
G36*
X4676495Y-5957011D02*
G01*
X4671517Y-5964021D01*
X4671517Y-6012027D01*
X4676495Y-6017006D01*
X4721504Y-6017006D01*
X4726482Y-6012027D01*
X4726482Y-5964021D01*
X4721504Y-5957011D01*
G37*
G36*
X4066997Y-6012484D02*
G01*
X4061968Y-6017463D01*
X4061968Y-6062472D01*
X4066997Y-6067501D01*
X4115003Y-6067501D01*
X4122013Y-6062472D01*
X4122013Y-6017463D01*
X4115003Y-6012484D01*
G37*
G36*
X4164990Y-6012484D02*
G01*
X4157979Y-6017463D01*
X4157979Y-6062472D01*
X4164990Y-6067501D01*
X4212996Y-6067501D01*
X4217974Y-6062472D01*
X4217974Y-6017463D01*
X4212996Y-6012484D01*
G37*
G36*
X4417466Y-6258001D02*
G01*
X4412488Y-6265011D01*
X4412488Y-6312966D01*
X4417466Y-6317996D01*
X4462475Y-6317996D01*
X4467504Y-6312966D01*
X4467504Y-6265011D01*
X4462475Y-6258001D01*
G37*
G36*
X4417466Y-6161989D02*
G01*
X4412488Y-6166967D01*
X4412488Y-6214973D01*
X4417466Y-6221984D01*
X4462475Y-6221984D01*
X4467504Y-6214973D01*
X4467504Y-6166967D01*
X4462475Y-6161989D01*
G37*
G36*
X4297476Y-6161989D02*
G01*
X4292498Y-6166967D01*
X4292498Y-6214973D01*
X4297476Y-6221984D01*
X4342485Y-6221984D01*
X4347514Y-6214973D01*
X4347514Y-6166967D01*
X4342485Y-6161989D01*
G37*
G36*
X4297476Y-6258001D02*
G01*
X4292498Y-6264960D01*
X4292498Y-6312966D01*
X4297476Y-6317996D01*
X4342485Y-6317996D01*
X4347514Y-6312966D01*
X4347514Y-6264960D01*
X4342485Y-6258001D01*
G37*
G36*
X4547514Y-6161989D02*
G01*
X4542485Y-6166967D01*
X4542485Y-6214973D01*
X4547514Y-6221984D01*
X4592472Y-6221984D01*
X4597501Y-6214973D01*
X4597501Y-6166967D01*
X4592472Y-6161989D01*
G37*
G36*
X4547514Y-6258001D02*
G01*
X4542485Y-6264960D01*
X4542485Y-6312966D01*
X4547514Y-6317996D01*
X4592472Y-6317996D01*
X4597501Y-6312966D01*
X4597501Y-6264960D01*
X4592472Y-6258001D01*
G37*
G36*
X4677511Y-6258001D02*
G01*
X4672482Y-6265011D01*
X4672482Y-6312966D01*
X4677511Y-6317996D01*
X4722469Y-6317996D01*
X4727498Y-6312966D01*
X4727498Y-6265011D01*
X4722469Y-6258001D01*
G37*
G36*
X4677511Y-6161989D02*
G01*
X4672482Y-6166967D01*
X4672482Y-6214973D01*
X4677511Y-6221984D01*
X4722469Y-6221984D01*
X4727498Y-6214973D01*
X4727498Y-6166967D01*
X4722469Y-6161989D01*
G37*
G36*
X4294987Y-5854750D02*
G01*
X4290974Y-5858764D01*
X4290974Y-5908802D01*
X4294987Y-5912815D01*
X4341012Y-5912815D01*
X4344974Y-5908802D01*
X4344974Y-5858764D01*
X4341012Y-5854750D01*
G37*
G36*
X4294987Y-5939790D02*
G01*
X4290974Y-5943803D01*
X4290974Y-5993892D01*
X4294987Y-5997854D01*
X4341012Y-5997854D01*
X4344974Y-5993892D01*
X4344974Y-5943803D01*
X4341012Y-5939790D01*
G37*
G36*
X4167479Y-5862980D02*
G01*
X4163517Y-5866993D01*
X4163517Y-5912967D01*
X4167479Y-5916980D01*
X4217568Y-5916980D01*
X4221581Y-5912967D01*
X4221581Y-5866993D01*
X4217568Y-5862980D01*
G37*
G36*
X4082440Y-5862980D02*
G01*
X4078427Y-5866993D01*
X4078427Y-5912967D01*
X4082440Y-5916980D01*
X4132478Y-5916980D01*
X4136491Y-5912967D01*
X4136491Y-5866993D01*
X4132478Y-5862980D01*
G37*
G36*
X3700475Y-5073802D02*
G01*
X3696512Y-5077815D01*
X3696512Y-5123789D01*
X3700475Y-5127802D01*
X3750564Y-5127802D01*
X3754577Y-5123789D01*
X3754577Y-5077815D01*
X3750564Y-5073802D01*
G37*
G36*
X3615436Y-5073802D02*
G01*
X3611422Y-5077815D01*
X3611422Y-5123789D01*
X3615436Y-5127802D01*
X3665474Y-5127802D01*
X3669487Y-5123789D01*
X3669487Y-5077815D01*
X3665474Y-5073802D01*
G37*
G36*
X3700475Y-5200802D02*
G01*
X3696512Y-5204815D01*
X3696512Y-5250789D01*
X3700475Y-5254802D01*
X3750564Y-5254802D01*
X3754577Y-5250789D01*
X3754577Y-5204815D01*
X3750564Y-5200802D01*
G37*
G36*
X3615436Y-5200802D02*
G01*
X3611422Y-5204815D01*
X3611422Y-5250789D01*
X3615436Y-5254802D01*
X3665474Y-5254802D01*
X3669487Y-5250789D01*
X3669487Y-5204815D01*
X3665474Y-5200802D01*
G37*
G36*
X3700475Y-5327802D02*
G01*
X3696512Y-5331815D01*
X3696512Y-5377789D01*
X3700475Y-5381802D01*
X3750564Y-5381802D01*
X3754577Y-5377789D01*
X3754577Y-5331815D01*
X3750564Y-5327802D01*
G37*
G36*
X3615436Y-5327802D02*
G01*
X3611422Y-5331815D01*
X3611422Y-5377789D01*
X3615436Y-5381802D01*
X3665474Y-5381802D01*
X3669487Y-5377789D01*
X3669487Y-5331815D01*
X3665474Y-5327802D01*
G37*
G36*
X3590798Y-5642914D02*
G01*
X3585768Y-5647893D01*
X3585768Y-5692902D01*
X3590798Y-5697880D01*
X3638804Y-5697880D01*
X3645763Y-5692902D01*
X3645763Y-5647893D01*
X3638804Y-5642914D01*
G37*
G36*
X3688791Y-5642914D02*
G01*
X3681780Y-5647893D01*
X3681780Y-5692902D01*
X3688791Y-5697880D01*
X3736797Y-5697880D01*
X3741775Y-5692902D01*
X3741775Y-5647893D01*
X3736797Y-5642914D01*
G37*
G36*
X3590798Y-5769914D02*
G01*
X3585768Y-5774893D01*
X3585768Y-5819902D01*
X3590798Y-5824880D01*
X3638804Y-5824880D01*
X3645763Y-5819902D01*
X3645763Y-5774893D01*
X3638804Y-5769914D01*
G37*
G36*
X3688791Y-5769914D02*
G01*
X3681780Y-5774893D01*
X3681780Y-5819902D01*
X3688791Y-5824880D01*
X3736797Y-5824880D01*
X3741775Y-5819902D01*
X3741775Y-5774893D01*
X3736797Y-5769914D01*
G37*
G36*
X3576980Y-6112510D02*
G01*
X3572001Y-6117488D01*
X3572001Y-6162497D01*
X3576980Y-6167475D01*
X3624986Y-6167475D01*
X3631996Y-6162497D01*
X3631996Y-6117488D01*
X3624986Y-6112510D01*
G37*
G36*
X3674973Y-6112510D02*
G01*
X3668014Y-6117488D01*
X3668014Y-6162497D01*
X3674973Y-6167475D01*
X3722979Y-6167475D01*
X3728008Y-6162497D01*
X3728008Y-6117488D01*
X3722979Y-6112510D01*
G37*
G36*
X3557015Y-5888431D02*
G01*
X3553002Y-5892444D01*
X3553002Y-5942482D01*
X3557015Y-5946495D01*
X3602990Y-5946495D01*
X3607003Y-5942482D01*
X3607003Y-5892444D01*
X3602990Y-5888431D01*
G37*
G36*
X3557015Y-5973470D02*
G01*
X3553002Y-5977483D01*
X3553002Y-6027572D01*
X3557015Y-6031534D01*
X3602990Y-6031534D01*
X3607003Y-6027572D01*
X3607003Y-5977483D01*
X3602990Y-5973470D01*
G37*
G36*
X3686962Y-5888431D02*
G01*
X3683000Y-5892444D01*
X3683000Y-5942482D01*
X3686962Y-5946495D01*
X3732987Y-5946495D01*
X3737000Y-5942482D01*
X3737000Y-5892444D01*
X3732987Y-5888431D01*
G37*
G36*
X3686962Y-5973470D02*
G01*
X3683000Y-5977483D01*
X3683000Y-6027572D01*
X3686962Y-6031534D01*
X3732987Y-6031534D01*
X3737000Y-6027572D01*
X3737000Y-5977483D01*
X3732987Y-5973470D01*
G37*
G36*
X4157472Y-4887976D02*
G01*
X4152493Y-4894986D01*
X4152493Y-4942992D01*
X4157472Y-4947970D01*
X4202480Y-4947970D01*
X4207510Y-4942992D01*
X4207510Y-4894986D01*
X4202480Y-4887976D01*
G37*
G36*
X4157472Y-4792014D02*
G01*
X4152493Y-4796993D01*
X4152493Y-4844999D01*
X4157472Y-4852009D01*
X4202480Y-4852009D01*
X4207510Y-4844999D01*
X4207510Y-4796993D01*
X4202480Y-4792014D01*
G37*
G36*
X3857498Y-4791964D02*
G01*
X3852468Y-4796993D01*
X3852468Y-4844999D01*
X3857498Y-4852009D01*
X3902506Y-4852009D01*
X3907485Y-4844999D01*
X3907485Y-4796993D01*
X3902506Y-4791964D01*
G37*
G36*
X3857498Y-4887976D02*
G01*
X3852468Y-4894986D01*
X3852468Y-4942992D01*
X3857498Y-4947970D01*
X3902506Y-4947970D01*
X3907485Y-4942992D01*
X3907485Y-4894986D01*
X3902506Y-4887976D01*
G37*
G36*
X3727500Y-4887976D02*
G01*
X3722471Y-4894986D01*
X3722471Y-4942992D01*
X3727500Y-4947970D01*
X3772509Y-4947970D01*
X3777487Y-4942992D01*
X3777487Y-4894986D01*
X3772509Y-4887976D01*
G37*
G36*
X3727500Y-4792014D02*
G01*
X3722471Y-4796993D01*
X3722471Y-4844999D01*
X3727500Y-4852009D01*
X3772509Y-4852009D01*
X3777487Y-4844999D01*
X3777487Y-4796993D01*
X3772509Y-4792014D01*
G37*
G36*
X3986987Y-4818430D02*
G01*
X3982974Y-4822444D01*
X3982974Y-4872482D01*
X3986987Y-4876495D01*
X4033012Y-4876495D01*
X4036974Y-4872482D01*
X4036974Y-4822444D01*
X4033012Y-4818430D01*
G37*
G36*
X3986987Y-4903470D02*
G01*
X3982974Y-4907483D01*
X3982974Y-4957572D01*
X3986987Y-4961534D01*
X4033012Y-4961534D01*
X4036974Y-4957572D01*
X4036974Y-4907483D01*
X4033012Y-4903470D01*
G37*
G36*
X4322419Y-4912969D02*
G01*
X4318406Y-4916982D01*
X4318406Y-4963007D01*
X4322419Y-4966970D01*
X4372508Y-4966970D01*
X4376470Y-4963007D01*
X4376470Y-4916982D01*
X4372508Y-4912969D01*
G37*
G36*
X4407509Y-4912969D02*
G01*
X4403496Y-4916982D01*
X4403496Y-4963007D01*
X4407509Y-4966970D01*
X4457547Y-4966970D01*
X4461560Y-4963007D01*
X4461560Y-4916982D01*
X4457547Y-4912969D01*
G37*
G36*
X3612438Y-5462981D02*
G01*
X3608425Y-5466994D01*
X3608425Y-5512968D01*
X3612438Y-5516981D01*
X3662476Y-5516981D01*
X3666490Y-5512968D01*
X3666490Y-5466994D01*
X3662476Y-5462981D01*
G37*
G36*
X3697478Y-5462981D02*
G01*
X3693515Y-5466994D01*
X3693515Y-5512968D01*
X3697478Y-5516981D01*
X3747566Y-5516981D01*
X3751579Y-5512968D01*
X3751579Y-5466994D01*
X3747566Y-5462981D01*
G37*
G36*
X4807508Y-6717995D02*
G01*
X4802479Y-6725005D01*
X4802479Y-6773011D01*
X4807508Y-6777990D01*
X4852466Y-6777990D01*
X4857496Y-6773011D01*
X4857496Y-6725005D01*
X4852466Y-6717995D01*
G37*
G36*
X4807508Y-6621983D02*
G01*
X4802479Y-6627012D01*
X4802479Y-6674967D01*
X4807508Y-6681978D01*
X4852466Y-6681978D01*
X4857496Y-6674967D01*
X4857496Y-6627012D01*
X4852466Y-6621983D01*
G37*
G36*
X4677511Y-6717995D02*
G01*
X4672482Y-6725005D01*
X4672482Y-6773011D01*
X4677511Y-6777990D01*
X4722469Y-6777990D01*
X4727498Y-6773011D01*
X4727498Y-6725005D01*
X4722469Y-6717995D01*
G37*
G36*
X4677511Y-6621983D02*
G01*
X4672482Y-6627012D01*
X4672482Y-6674967D01*
X4677511Y-6681978D01*
X4722469Y-6681978D01*
X4727498Y-6674967D01*
X4727498Y-6627012D01*
X4722469Y-6621983D01*
G37*
G36*
X3664508Y-8190992D02*
G01*
X3659479Y-8195970D01*
X3659479Y-8323986D01*
X3664508Y-8328964D01*
X3779520Y-8328964D01*
X3784498Y-8323986D01*
X3783990Y-8281974D01*
X3739997Y-8281974D01*
X3739997Y-8236966D01*
X3785006Y-8236966D01*
X3784498Y-8195970D01*
X3779520Y-8190992D01*
G37*
G36*
X3880510Y-8190992D02*
G01*
X3875481Y-8195970D01*
X3875989Y-8237981D01*
X3919982Y-8237981D01*
X3919982Y-8282990D01*
X3874973Y-8282990D01*
X3875481Y-8323986D01*
X3880510Y-8328964D01*
X3995470Y-8328964D01*
X4000500Y-8323986D01*
X4000500Y-8195970D01*
X3995470Y-8190992D01*
G37*
G36*
X3404971Y-4092498D02*
G01*
X3398012Y-4097477D01*
X3398012Y-4142486D01*
X3404971Y-4147515D01*
X3452977Y-4147515D01*
X3458006Y-4142486D01*
X3458006Y-4097477D01*
X3452977Y-4092498D01*
G37*
G36*
X3306978Y-4092498D02*
G01*
X3302000Y-4097477D01*
X3302000Y-4142486D01*
X3306978Y-4147515D01*
X3354984Y-4147515D01*
X3361994Y-4142486D01*
X3361994Y-4097477D01*
X3354984Y-4092498D01*
G37*
D10*
G01*
X7179995Y-7809992D03*
D11*
G01*
X429996Y-6849998D03*
D12*
G01*
X4984978Y-4339996D03*
D13*
G01*
X4984978Y-4119991D03*
G01*
X4814976Y-4119991D03*
G01*
X4814976Y-4339991D03*
D14*
G01*
X1487551Y-6079997D03*
G01*
X2232431Y-6079997D03*
D15*
G01*
X3464991Y-8049996D03*
G01*
X3274999Y-8049996D03*
G01*
X3369995Y-8249996D03*
D16*
G01*
X1034973Y-6089980D03*
G01*
X684987Y-4889982D03*
G01*
X1034973Y-4889982D03*
D18*
G01*
X5099989Y-7804988D03*
G01*
X5139994Y-7804988D03*
G01*
X5139994Y-7854975D03*
G01*
X5099989Y-7854975D03*
G01*
X5059984Y-7829981D03*
D19*
G01*
X259994Y-7995005D03*
G01*
X259994Y-8504986D03*
G01*
X259994Y-8249996D03*
G01*
X9229979Y-8054975D03*
G01*
X9229979Y-7544993D03*
G01*
X9229979Y-7799984D03*
G01*
X279374Y-3860825D03*
G01*
X279374Y-4370806D03*
G01*
X279400Y-4115815D03*
D20*
G01*
X4215993Y-7823987D03*
G01*
X4469993Y-7823987D03*
G01*
X4723993Y-7823987D03*
G01*
X4723993Y-7195997D03*
G01*
X4469993Y-7195997D03*
G01*
X4215993Y-7195997D03*
D21*
G01*
X3903644Y-6879983D03*
D22*
G01*
X3216325Y-6879996D03*
D23*
G01*
X3369995Y-4842002D03*
G01*
X3369995Y-4437989D03*
D24*
G01*
X1565198Y-7103973D03*
G01*
X1565198Y-6595973D03*
G36*
X2444993Y-6772884D02*
G01*
X2445100Y-6768431D01*
X2445412Y-6763989D01*
X2445933Y-6759564D01*
X2446660Y-6755170D01*
X2447594Y-6750814D01*
X2448730Y-6746509D01*
X2450066Y-6742259D01*
X2451600Y-6738078D01*
X2453330Y-6733974D01*
X2455247Y-6729953D01*
X2457353Y-6726029D01*
X2459642Y-6722206D01*
X2462105Y-6718495D01*
X2464739Y-6714904D01*
X2467538Y-6711442D01*
X2470500Y-6708112D01*
X2473612Y-6704926D01*
X2476870Y-6701889D01*
X2480266Y-6699008D01*
X2483794Y-6696290D01*
X2487447Y-6693740D01*
X2491214Y-6691365D01*
X2495090Y-6689168D01*
X2499062Y-6687154D01*
X2506992Y-6685330D01*
X2506992Y-6515597D01*
X2572992Y-6515597D01*
X2572992Y-6685330D01*
X2580927Y-6687154D01*
X2584899Y-6689168D01*
X2588775Y-6691365D01*
X2592542Y-6693740D01*
X2596194Y-6696290D01*
X2599723Y-6699008D01*
X2603118Y-6701889D01*
X2606377Y-6704926D01*
X2609489Y-6708112D01*
X2612450Y-6711442D01*
X2615250Y-6714904D01*
X2617884Y-6718495D01*
X2620347Y-6722206D01*
X2622636Y-6726029D01*
X2624742Y-6729953D01*
X2626659Y-6733974D01*
X2628389Y-6738078D01*
X2629923Y-6742259D01*
X2631259Y-6746509D01*
X2632395Y-6750814D01*
X2633329Y-6755170D01*
X2634056Y-6759564D01*
X2634576Y-6763989D01*
X2634889Y-6768431D01*
X2634995Y-6772884D01*
X2634995Y-6958304D01*
X2634889Y-6962757D01*
X2634576Y-6967199D01*
X2634056Y-6971624D01*
X2633329Y-6976018D01*
X2632395Y-6980374D01*
X2631259Y-6984679D01*
X2629923Y-6988929D01*
X2628389Y-6993110D01*
X2626659Y-6997214D01*
X2624742Y-7001235D01*
X2622636Y-7005159D01*
X2620347Y-7008982D01*
X2617884Y-7012693D01*
X2615250Y-7016285D01*
X2612450Y-7019747D01*
X2609489Y-7023077D01*
X2606377Y-7026262D01*
X2603118Y-7029300D01*
X2599723Y-7032180D01*
X2596194Y-7034898D01*
X2592542Y-7037448D01*
X2588775Y-7039823D01*
X2584899Y-7042020D01*
X2580927Y-7044034D01*
X2576863Y-7045858D01*
X2572720Y-7047491D01*
X2568503Y-7048926D01*
X2564223Y-7050163D01*
X2559890Y-7051197D01*
X2555516Y-7052028D01*
X2551104Y-7052652D01*
X2546670Y-7053069D01*
X2542222Y-7053277D01*
X2537767Y-7053277D01*
X2533319Y-7053069D01*
X2528884Y-7052652D01*
X2524472Y-7052028D01*
X2520099Y-7051197D01*
X2515765Y-7050163D01*
X2511485Y-7048926D01*
X2507269Y-7047491D01*
X2503126Y-7045858D01*
X2499062Y-7044034D01*
X2495090Y-7042020D01*
X2491214Y-7039823D01*
X2487447Y-7037448D01*
X2483794Y-7034898D01*
X2480266Y-7032180D01*
X2476870Y-7029300D01*
X2473612Y-7026262D01*
X2470500Y-7023077D01*
X2467538Y-7019747D01*
X2464739Y-7016285D01*
X2462105Y-7012693D01*
X2459642Y-7008982D01*
X2457353Y-7005159D01*
X2455247Y-7001235D01*
X2453330Y-6997214D01*
X2451600Y-6993110D01*
X2450066Y-6988929D01*
X2448730Y-6984679D01*
X2447594Y-6980374D01*
X2446660Y-6976018D01*
X2445933Y-6971624D01*
X2445412Y-6967199D01*
X2445100Y-6962757D01*
X2444993Y-6958304D01*
G37*
D25*
G01*
X2389987Y-6594347D03*
G01*
X2689986Y-6594347D03*
D26*
G01*
X1572996Y-4550003D03*
G01*
X1826996Y-4550003D03*
G01*
X1826996Y-5429986D03*
G01*
X1572996Y-5429986D03*
D27*
G01*
X2147011Y-4969510D03*
G01*
X2147011Y-5096510D03*
G01*
X2147011Y-5223510D03*
G01*
X2147011Y-5350510D03*
G01*
X2853004Y-4969510D03*
G01*
X2853004Y-5096510D03*
G01*
X2853004Y-5223510D03*
G01*
X2853004Y-5350510D03*
D28*
G01*
X4204995Y-6370980D03*
G01*
X4139996Y-6370980D03*
G01*
X4074998Y-6370980D03*
G01*
X4074998Y-6568998D03*
G01*
X4139996Y-6568998D03*
G01*
X4204995Y-6568998D03*
D29*
G01*
X3909999Y-4579924D03*
G01*
X3909999Y-4420031D03*
D30*
G01*
X5564098Y-7801787D03*
G01*
X8777198Y-7801787D03*
D31*
G01*
X5564098Y-8030387D03*
G01*
X5564098Y-7560487D03*
G01*
X8789898Y-7573187D03*
G01*
X8789898Y-8030387D03*
M02*
